<?xml version="1.0" standalone="no"?>
<!DOCTYPE svg PUBLIC "-//W3C//DTD SVG 1.1//EN" "http://www.w3.org/Graphics/SVG/1.1/DTD/svg11.dtd" >
<svg xmlns="http://www.w3.org/2000/svg" xmlns:xlink="http://www.w3.org/1999/xlink" version="1.1">
<metadata>
Created by FontForge 20170731 at Wed Jul 26 03:08:06 2017
 By Aleksey,,,
(c) 1999-2001, WolfBainX &#38; Apostrophic Labs. All rights reserved. Visit www.apsotrophiclab.com or email info@apostrophiclab.com for more info.
</metadata>
<defs>
<font id="KomikaTitle-AxisRUS-LAT" horiz-adv-x="694" >
  <font-face 
    font-family="Komika Title - Axis RUS-LAT"
    font-weight="400"
    font-stretch="normal"
    units-per-em="1000"
    panose-1="2 0 5 6 0 0 0 2 0 4"
    ascent="800"
    descent="-200"
    x-height="859"
    cap-height="867"
    bbox="-133.247 -252.429 1496 1379.53"
    underline-thickness="50"
    underline-position="-225"
    unicode-range="U+0020-FB02"
  />
<missing-glyph horiz-adv-x="750" 
 />
    <glyph glyph-name=".notdef" horiz-adv-x="750" 
 />
    <glyph glyph-name=".null" horiz-adv-x="0" 
 />
    <glyph glyph-name="nonmarkingreturn" horiz-adv-x="500" 
 />
    <glyph glyph-name="space" unicode=" " horiz-adv-x="361" 
 />
    <glyph glyph-name="space" unicode="&#xa0;" horiz-adv-x="361" 
 />
    <glyph glyph-name="exclam" unicode="!" horiz-adv-x="400" 
d="M331 864q-26 18 -61.5 33t-65.5 23q-32 11 -47.5 4t-23.5 -38q-17 -64 -36 -145t-37 -164t-32.5 -161.5t-22.5 -136.5q-5 -29 2.5 -43.5t30.5 -26.5q22 -11 45.5 -18.5t51.5 -12.5q23 -6 33.5 -1t15.5 26q15 60 34.5 129.5t43 144.5t49 152t51.5 152q9 27 2.5 45.5
t-33.5 37.5zM-44 64q-2 -48 31 -74t80 -25q22 0 39.5 7.5t30 18t21 23t11.5 21.5q4 12 3.5 28t-8.5 32t-25 29.5t-44 20.5q-32 9 -57.5 5.5t-43.5 -16t-27.5 -31t-10.5 -39.5z" />
    <glyph glyph-name="quotedbl" unicode="&#x22;" horiz-adv-x="561" 
d="M194 662q-11 -17 -26 -28t-33 -13q-15 -4 -35.5 -5.5t-40.5 1.5q-44 6 -35 44q9 29 21.5 72t26 91t25 95t19.5 85q5 29 21.5 31.5t41.5 -11.5q23 -11 43 -23.5t38 -29.5q21 -19 24 -41q2 -11 -0.5 -30t-8 -42t-14 -47.5t-18.5 -46.5q-11 -30 -24.5 -56.5t-24.5 -45.5z
M435 625q-27 -31 -64 -33q-20 -3 -39 -1l-38 4q-50 9 -30 47q15 26 35.5 67t41.5 86t40.5 89.5t33.5 78.5q20 48 67 14q23 -14 40 -28.5t31 -29.5q17 -27 16 -42q0 -5 -2.5 -15.5t-6.5 -27.5q-10 -26 -25.5 -55.5t-32.5 -58.5t-35 -54t-32 -41z" />
    <glyph glyph-name="numbersign" unicode="#" horiz-adv-x="717" 
d="M656 494q-28 -3 -57 -4.5t-61 -4.5q-11 -34 -21.5 -67t-19.5 -65q21 -1 35 -4t24 -9t18 -15t16 -22q12 -17 7.5 -25t-27.5 -11q-26 -2 -50.5 -4.5t-52.5 -5.5q-14 -48 -25.5 -87t-19.5 -72q-7 -18 -17 -19.5t-28 6.5q-26 11 -41 27t-18 41q-2 8 -1 18.5t2 23.5q5 10 6 20
t4 23q-32 -8 -63 -11.5t-63 -10.5q-8 -39 -15 -72.5t-15 -63.5q-5 -18 -13.5 -19.5t-28.5 6.5q-17 7 -30.5 16t-22.5 22t-12.5 30t-0.5 40v14q-37 -5 -60.5 9t-47.5 42q-14 19 -12 26.5t25 13.5q27 8 55 12t60 12q7 29 11.5 59t12.5 63h-5q-26 -5 -44.5 -3t-33 9.5t-26.5 20
t-25 29.5q-16 20 -13 28t29 14q29 8 66 13t81 13q14 58 27.5 110.5t27.5 97.5q15 42 56 14q40 -26 59.5 -58t5.5 -78q-8 -30 -20 -66q34 3 66 5.5t62 5.5q16 56 33.5 108.5t34.5 97.5q16 44 59 13q38 -27 54 -60t-1 -78q-7 -17 -13 -35t-15 -39q25 0 41.5 -4t28 -11
t19.5 -18t17 -25q12 -20 6.5 -27t-30.5 -9zM388 468q-34 -5 -66 -8t-61 -9q-9 -34 -16 -63t-15 -61q32 5 63.5 8.5t61.5 7.5q7 31 15 61t18 64z" />
    <glyph glyph-name="dollar" unicode="$" horiz-adv-x="553" 
d="M222 744q14 45 28 92t26 78q19 43 62 13q34 -23 51.5 -57t6.5 -81q-5 -20 -10.5 -44t-12.5 -47q21 -12 46 -33q32 -29 38.5 -56t5.5 -50q-1 -18 -4.5 -41t-8.5 -46t-12 -43.5t-14 -35.5q-17 -26 -47 -15q-21 8 -38.5 18.5t-30 23.5t-18.5 29.5t-4 37.5q4 21 8.5 49.5
t0.5 49.5q0 12 -7 16q-10 4 -25.5 -4t-31.5 -22.5t-29.5 -35t-19.5 -43t-1.5 -45.5t25.5 -42q35 -29 77.5 -53t76.5 -49.5t51 -55t2 -69.5q-9 -16 -23 -35t-35.5 -35t-51.5 -26.5t-71 -10.5h-13q-11 0 -12 1q-9 -32 -17 -66.5t-13 -60.5q-4 -17 -13.5 -19.5t-29.5 7.5
q-35 17 -48 51t-11 70q1 14 2 25.5t5 23.5q-27 13 -53 29t-50 41q-32 32 -32 45q-1 15 13 25q12 7 27.5 10t31 2t30.5 -6t27 -13q31 -17 60 -28.5t53.5 -16.5t42 -4t26.5 9q12 10 -4.5 23.5t-47.5 30.5t-68.5 38t-68.5 45q-43 33 -65.5 80t-8.5 107q19 54 59 109.5t100 90.5
q14 8 31 13t37 6z" />
    <glyph glyph-name="percent" unicode="%" horiz-adv-x="889" 
d="M723 672q-35 -39 -82.5 -94t-100 -117t-107 -128t-103 -126.5t-88 -112.5t-62.5 -86q-13 -13 -21.5 -11.5t-25.5 11.5q-29 22 -38.5 47t14.5 65q26 39 71 101.5t100.5 135t116.5 150t119 146.5q-41 -22 -85.5 -26.5t-86.5 9.5q0 -32 -4.5 -65.5t-15 -64.5t-27 -58
t-40.5 -45q-46 -32 -107 -25q-21 5 -44 11.5t-42 17.5q-15 10 -30 25.5t-26 32.5q-22 37 -26.5 86.5t7 100.5t38 97.5t65.5 77.5q18 13 43.5 18.5t45.5 1.5q32 -7 57 -18.5t43 -25.5q16 -18 42 -53q31 -41 89 -46q24 -2 55 4t64 20.5t66.5 37t61.5 52.5q30 35 59 -5
q28 -34 32.5 -69.5t-27.5 -71.5zM764 291q2 -17 2.5 -35.5t-1.5 -38.5q-2 -29 -9 -57.5t-19.5 -55t-30.5 -49.5t-42 -39q-46 -29 -100 -20q-22 3 -42.5 8.5t-37.5 15.5q-26 14 -41 40.5t-19.5 59.5t2 70.5t22 73.5t40.5 68t59 54q18 11 43 15.5t45 1.5q25 -6 49.5 -16.5
t38.5 -21.5q19 -16 29 -35t12 -39zM202 750q-8 4 -20 -7t-24.5 -30.5t-23 -44t-16.5 -47.5q-14 -65 -11 -110t24 -52q21 -8 43 23t36 99q5 29 8 57t2 51q0 23 -3.5 40t-14.5 21zM645 319q-8 4 -20.5 -5.5t-26 -26.5t-25 -38.5t-18.5 -42.5q-11 -28 -16.5 -52t-6.5 -45
q-2 -38 19 -45q18 -7 41.5 21t42.5 85q9 22 14.5 47.5t7 47t-1.5 36.5t-10 18z" />
    <glyph glyph-name="ampersand" unicode="&#x26;" horiz-adv-x="778" 
d="M462 56q-67 -38 -146 -56q-27 -8 -58 -13.5t-65.5 -3t-72 14.5t-79.5 39q-45 32 -69 64t-29.5 64t6.5 64t38 64q27 32 65.5 59.5t84.5 53.5q-11 17 -20 30t-15 23q-23 37 -36.5 69.5t-17 63t2.5 60.5t22 62q15 30 39 56t54.5 46.5t65.5 35t71 22.5q34 7 64.5 9t60 -5.5
t59.5 -26t63 -53.5q78 -81 81.5 -161.5t-63.5 -147.5q-34 -38 -87 -70.5t-105 -61.5q23 -31 48.5 -60t51.5 -58q24 17 46 33.5t48 36.5q25 18 41 18t25 -15q10 -18 11.5 -36t-3.5 -36t-15 -35.5t-23 -34.5q-9 -8 -15.5 -16t-14.5 -16q19 -17 34 -32t31 -29q21 -17 20 -26.5
t-19 -20.5q-17 -11 -31 -17.5t-37 -10.5q-11 -1 -20.5 0t-19 5t-20.5 10.5t-26 17.5q-9 9 -26 21zM284 488q34 17 63.5 36t50.5 39q16 12 29 31.5t19 42t2 46t-23 44.5q-23 -5 -46.5 -15.5t-44.5 -24.5t-37.5 -30.5t-25.5 -32.5q-32 -56 9 -128zM346 164q-27 26 -52 53.5
t-53 59.5q-59 -42 -83 -75.5t-23 -58.5q0 -14 9 -21q19 -18 73.5 -6t128.5 48z" />
    <glyph glyph-name="quotesingle" unicode="'" horiz-adv-x="318" 
d="M196 625q-27 -31 -65 -33q-19 -3 -37.5 -1t-38.5 4q-48 9 -30 47q13 27 32 68t39.5 85.5t39.5 88.5t33 79q19 48 67 14q23 -14 40 -28.5t31 -29.5q18 -26 18 -42q0 -5 -2.5 -15.5t-6.5 -27.5q-9 -26 -23.5 -55.5t-31.5 -58.5t-34 -54t-31 -41z" />
    <glyph glyph-name="parenleft" unicode="(" horiz-adv-x="364" 
d="M211 931q35 45 76 -5q93 -112 31 -212q-50 -81 -83 -176t-44 -190.5t3 -186.5t58 -165q10 -17 6 -21t-26 -7q-37 -2 -74.5 11.5t-68.5 58.5q-57 91 -77 203.5t-4.5 231.5t66.5 237.5t137 220.5z" />
    <glyph glyph-name="parenright" unicode=")" horiz-adv-x="406" 
d="M290 747q23 -102 18 -211t-33 -210t-76 -186.5t-111 -139.5q-52 -42 -140 -35q-43 4 -22 33q40 42 72 102t54.5 131t34 151t12 163t-11.5 166t-37 160q-5 15 -7 26.5t2 18.5t15 9t32 -2q85 -15 133 -63t65 -113z" />
    <glyph glyph-name="asterisk" unicode="*" horiz-adv-x="712" 
d="M621 545q-44 -7 -84.5 -16t-83.5 -19q32 -27 65.5 -52t71.5 -55q20 -16 18.5 -23t-20.5 -20q-31 -16 -65 -16q-33 0 -83 35q-23 14 -41.5 28.5t-36.5 27.5q-8 -37 -15.5 -71t-17.5 -73q-5 -20 -13 -22t-31 9q-17 7 -31 16t-23 22.5t-12.5 32t0.5 43.5q3 16 4 29t5 26
q-23 -7 -45 -13t-45 -14t-43 -8t-37.5 7t-33 19.5t-30.5 28.5q-17 17 -16.5 26.5t25.5 17.5q38 14 83.5 29.5t98.5 29.5q-36 29 -73.5 61.5t-81.5 72.5q-35 33 5 52q39 18 79.5 13.5t82.5 -42.5q22 -18 38 -34t35 -31q10 44 23 89.5t30 96.5q15 44 56 14q41 -27 59.5 -61
t3.5 -79q-9 -26 -16.5 -49t-12.5 -45q20 4 40 6.5t40 5.5q59 8 91 -6.5t54 -46.5q25 -34 -17 -42z" />
    <glyph glyph-name="plus" unicode="+" horiz-adv-x="732" 
d="M581 329q22 0 29 7t-1 27q-7 17 -13 32.5t-19 35.5q-20 33 -63 35q-51 2 -128 0q7 23 15 44.5t14 41.5q10 21 7 33.5t-22 29.5q-16 17 -42 32.5t-52 25.5q-20 8 -34.5 -1.5t-21.5 -26.5q-14 -37 -27 -85.5t-27 -104.5q-64 -3 -122 -9.5t-100 -14.5q-18 -3 -31.5 -12
t-3.5 -28q9 -20 26.5 -44.5t33.5 -40.5q9 -8 16.5 -13t15 -7t15.5 -1.5t20 2.5q23 4 48.5 7.5t51.5 6.5q-5 -30 -7 -55t-4 -44q-3 -35 32 -52q22 -12 39 -19.5t36 -15.5q22 -9 29.5 -6t12.5 23q8 38 18 86t24 100q60 6 118.5 7.5t116.5 3.5z" />
    <glyph glyph-name="comma" unicode="," horiz-adv-x="313" 
d="M56 -115q-14 -14 -26.5 -18.5t-28.5 -6.5q-22 -1 -43.5 2.5t-40.5 10.5q-36 10 -20 38q26 47 57.5 97.5t54.5 105.5q10 18 24 20t37 -8q23 -11 45 -23.5t41 -29.5q17 -14 17.5 -26.5t-10.5 -29.5q-9 -17 -23 -35.5t-29 -36.5t-30 -34t-25 -26z" />
    <glyph glyph-name="hyphen" unicode="-" horiz-adv-x="592" 
d="M-105 530q-49 -9 -13 -63q14 -23 29.5 -44.5t37.5 -44.5q21 -23 39 -30t39 -1q76 20 165.5 29.5t176.5 15.5q25 1 32 9t-3 33q-10 20 -19.5 42t-24.5 48q-16 22 -33.5 33t-40.5 11q-50 0 -103.5 -3.5t-105.5 -8.5t-97.5 -12t-78.5 -14z" />
    <glyph glyph-name="hyphen" unicode="&#xad;" horiz-adv-x="592" 
d="M-105 530q-49 -9 -13 -63q14 -23 29.5 -44.5t37.5 -44.5q21 -23 39 -30t39 -1q76 20 165.5 29.5t176.5 15.5q25 1 32 9t-3 33q-10 20 -19.5 42t-24.5 48q-16 22 -33.5 33t-40.5 11q-50 0 -103.5 -3.5t-105.5 -8.5t-97.5 -12t-78.5 -14z" />
    <glyph glyph-name="period" unicode="." horiz-adv-x="331" 
d="M-30 73q-1 -23 7 -41.5t23 -31t35.5 -19.5t43.5 -6q22 0 40 7.5t31 18t21 22.5t11 21q5 15 5 29q1 23 -17.5 46.5t-59.5 36.5q-31 8 -56 4t-43 -16.5t-29 -31t-12 -39.5z" />
    <glyph glyph-name="slash" unicode="/" horiz-adv-x="531" 
d="M520 801q23 -22 23 -38q0 -15 -15 -38q-26 -40 -63.5 -99.5t-80 -130t-87.5 -145t-86 -144t-74.5 -128.5t-54.5 -96q-8 -17 -19.5 -20.5t-34.5 7.5q-22 11 -37.5 20t-29.5 18q-11 6 -16 13.5t-7 15.5q-3 17 7 40q14 31 41.5 89.5t63 132t76.5 154.5t81.5 157.5
t77.5 141.5t65 106q29 50 77 14q25 -15 48 -32.5t45 -37.5z" />
    <glyph glyph-name="zero" unicode="0" horiz-adv-x="685" 
d="M532 786q39 -32 56 -66t25 -75q11 -72 5 -157.5t-29 -169.5t-63.5 -158.5t-98.5 -124.5q-41 -34 -84 -43t-100 -4q-36 3 -75 12t-75 26q-23 12 -49.5 34t-42.5 50q-21 46 -32 104t-10 121.5t13.5 129.5t38 128.5t64 118t91.5 98.5q36 28 84.5 40.5t90.5 5.5
q57 -9 107.5 -26.5t83.5 -43.5zM376 684q-21 6 -48 -16t-54 -61.5t-50.5 -91t-37.5 -103.5q-13 -50 -18.5 -100t-2 -91.5t16 -70.5t34.5 -36q21 -6 44.5 9t46 47.5t42.5 79.5t33 104q12 48 19.5 100.5t8.5 102.5q2 51 -6 86t-28 41z" />
    <glyph glyph-name="one" unicode="1" horiz-adv-x="387" 
d="M332 724q-14 -47 -30.5 -106t-33 -124t-33 -132.5t-31 -131.5t-26 -121t-19.5 -101q-5 -17 -13.5 -22t-34.5 2q-24 6 -47.5 11.5t-47.5 17.5q-19 11 -25 26t-4 41q2 37 9.5 99.5t19 136t26 151t29.5 144.5q-20 10 -33 17.5t-18.5 15.5t-4.5 17.5t8 24.5q17 35 40 71.5
t43 63.5q10 12 17.5 19t16 10t19.5 2t26 -5q30 -8 58.5 -21.5t57.5 -33.5q27 -18 34 -32t-3 -40z" />
    <glyph glyph-name="two" unicode="2" horiz-adv-x="619" 
d="M221 144q41 7 85 10t76 4q23 1 38 -6.5t28 -25.5q12 -15 22.5 -34t15.5 -34q8 -18 1.5 -24t-29.5 -9q-36 -2 -83.5 -7t-95.5 -11t-92 -13t-73 -13q-22 -4 -36 -4.5t-23.5 1.5t-16.5 6t-14 10q-9 6 -20 15t-22 19t-21.5 20.5t-18.5 19.5q-7 7 -12.5 16t-7.5 18.5t1.5 18.5
t15.5 18q53 39 111 91.5t113 108t103 110.5t81 100.5t46.5 76.5t0.5 40q-12 9 -31 3.5t-42 -20.5t-49 -37.5t-51 -46.5q-19 -14 -42 -21t-47.5 -8t-49.5 2.5t-47 11.5q-13 4 -21.5 11t-11 18.5t2.5 28.5t18 42q48 80 118 134.5t153 69.5q49 9 92.5 0.5t80 -27t64 -44
t43.5 -49.5q21 -36 27 -69t0 -65.5t-21.5 -65t-37.5 -66.5q-24 -39 -60 -82t-78.5 -86t-89.5 -83t-93 -73z" />
    <glyph glyph-name="three" unicode="3" horiz-adv-x="649" 
d="M382 391q49 20 88.5 42t68.5 48q24 21 40.5 52.5t19.5 69.5t-10.5 80t-48.5 86q-35 41 -70 62t-69 28.5t-65 5t-58 -7.5q-36 -8 -70.5 -24t-64.5 -36t-55 -43t-41 -44q-26 -33 10 -65q18 -14 44 -24t54 -13t55 1.5t47 19.5q15 9 30.5 17.5t31.5 16t30 12t26 4.5
q18 0 25 -11q12 -15 -1 -38.5t-53 -52t-107.5 -61t-166.5 -63.5q-40 -14 -12 -56q31 -48 75.5 -72t91.5 -18q37 5 59.5 3t42.5 -18q9 -8 14.5 -22t4 -32t-10.5 -38t-28 -40q-20 -20 -43 -31.5t-51.5 -13t-63 7t-77.5 29.5q-30 14 -68.5 17.5t-69.5 -15.5q-9 -5 -14 -11.5
t-3.5 -15.5t12 -21.5t32.5 -29.5q71 -58 140 -79t132 -21q83 0 150 23t121 86q23 28 35 61t9.5 67t-21 68t-56.5 66q-20 17 -42.5 26.5t-48.5 17.5z" />
    <glyph glyph-name="four" unicode="4" horiz-adv-x="711" 
d="M535 387q44 -2 60 -37q11 -20 15 -35.5t12 -34.5q5 -20 -2.5 -27.5t-32.5 -10.5q-24 -1 -47.5 -2t-46.5 -2q-20 -70 -36 -129.5t-27 -107.5q-5 -19 -14.5 -23.5t-34.5 0.5q-20 5 -43.5 13.5t-45.5 19.5q-21 14 -28 27.5t-2 39.5q8 50 27 143q-45 -5 -88 -10t-84 -11
q-22 -4 -40.5 -3t-39.5 20q-24 18 -47 41.5t-43 46.5q-14 20 -15.5 38.5t12.5 41.5q19 33 46.5 72t60.5 81t69 85t73 83.5t72 76.5t66 64q24 19 41 22t46 -5q15 -6 41 -17.5t53.5 -25.5t53.5 -27.5t41 -22.5q26 -18 32 -32.5t-5 -40.5q-22 -63 -47 -143t-52 -168zM132 363
q43 5 94 8.5t102 7.5q20 68 37.5 137.5t38.5 135.5q-37 -33 -74 -69.5t-71.5 -74t-66.5 -75t-60 -70.5z" />
    <glyph glyph-name="five" unicode="5" horiz-adv-x="589" 
d="M302 636q-22 -48 -40 -93.5t-32 -87.5q91 0 173 -44q71 -41 89.5 -115t-30.5 -169q-10 -20 -30 -43.5t-51 -44t-74 -34.5t-100 -15q-63 -1 -122.5 18.5t-103.5 70.5q-41 37 -42 54q-5 15 15 26q15 9 34.5 13t39 3.5t38 -5.5t32.5 -14q38 -24 66.5 -32t50 -4.5t36.5 15.5
t26 27q14 20 22.5 44t8.5 46q1 23 -4.5 40t-10.5 24q-7 4 -22 6t-34 2t-38 -3t-33 -7q-16 -5 -26 -6.5t-17 -1t-13 4t-13 9.5q-19 13 -33 21.5t-38 24.5q-15 11 -22 27.5t0 45.5q14 64 40.5 146t65.5 184q19 46 76 57q83 13 159.5 18t151.5 8q59 3 77 -42q12 -24 16 -49
t9 -48q8 -26 0 -34t-38 -12q-59 -7 -124 -15t-135 -16z" />
    <glyph glyph-name="six" unicode="6" horiz-adv-x="612" 
d="M270 485q28 2 54 -3t51 -15q39 -15 64.5 -33t40.5 -38t21 -43t6 -48q3 -48 -10 -93t-35 -84t-50.5 -69t-57.5 -48q-19 -11 -41 -19t-50.5 -10t-64.5 3t-81 19q-44 16 -75 36t-50.5 45t-29 55.5t-10.5 68.5q-2 51 10 123.5t47.5 156.5t99 174.5t164.5 176.5q12 10 21 16.5
t18 9.5t20.5 2.5t28.5 -3.5q16 -3 35.5 -8.5t38.5 -12t36 -13.5t29 -13q25 -15 30 -30t-20 -38q-73 -60 -133 -126.5t-107 -138.5zM160 274q-21 -65 -21 -107t26 -53q32 -15 66.5 10t62.5 82q24 49 26.5 88t-27.5 52q-14 5 -31 2.5t-35 -12t-35.5 -25.5t-31.5 -37z" />
    <glyph glyph-name="seven" unicode="7" horiz-adv-x="643" 
d="M379 672q-50 -69 -97 -141.5t-90 -145.5t-80 -144.5t-65 -137.5q-8 -24 -6.5 -38t19.5 -31q19 -17 42 -31t46 -25q23 -9 34 -7t19 19q39 75 88.5 158.5t104 167.5t111.5 164.5t112 151.5q21 26 20.5 48.5t-17.5 46.5q-14 19 -31 43.5t-40 50.5q-19 26 -39.5 33.5
t-51.5 7.5q-53 -2 -115 -6t-123 -10t-117 -14t-98 -20q-19 -5 -24 -14t11 -31q6 -11 15 -24t19 -25.5t19.5 -24t16.5 -20.5q23 -21 47 -26.5t47 -0.5q19 2 46.5 5.5t57.5 7.5t61 7.5t58 5.5z" />
    <glyph glyph-name="eight" unicode="8" horiz-adv-x="654" 
d="M592 522q-26 -40 -73 -73t-107 -66q61 -39 89.5 -78t31.5 -77t-14.5 -75t-47.5 -74q-34 -39 -76 -61t-88 -30.5t-94.5 -5t-94.5 17.5q-88 25 -131.5 76.5t-38.5 114.5q3 33 18.5 63t40.5 56.5t57 50t67 45.5q-79 53 -101.5 117t18.5 137q35 63 94.5 111t137.5 78
q66 25 128.5 8.5t121.5 -62.5q35 -29 59 -61.5t33.5 -67.5t2.5 -71.5t-33 -72.5zM279 307q-48 -27 -80 -59t-49 -66q-8 -17 -8 -31q0 -13 4.5 -23t12.5 -16.5t17 -9.5q25 -8 58.5 7.5t60.5 55.5q12 19 19 37.5t6.5 36.5t-10 35t-31.5 33zM377 703q-51 -32 -83 -64
t-46.5 -61.5t-11 -55t23.5 -44.5q115 71 147.5 124t-30.5 101z" />
    <glyph glyph-name="nine" unicode="9" horiz-adv-x="609" 
d="M192 257q-14 3 -28 4.5t-28 6.5q-77 24 -114.5 62t-49.5 96q-14 52 -9.5 108.5t24 109.5t50.5 98.5t69 74.5q20 14 46 26.5t58 18t72 1t89 -23.5q48 -21 85 -44t62.5 -51.5t39 -63t15.5 -79.5q1 -68 -29 -151.5t-83.5 -166.5t-124.5 -158t-152 -125q-21 -13 -38.5 -18
t-43.5 6q-24 10 -42.5 17.5t-41.5 22.5q-8 6 -13.5 11.5t-7.5 11.5t1 12.5t14 14.5q102 80 180 179zM284 407q26 53 42 101t21.5 85.5t-1 62.5t-25.5 33q-17 6 -36 -4t-38 -31t-35.5 -49.5t-28.5 -59.5q-9 -28 -13.5 -55t-2.5 -49t11 -37.5t26 -20.5q40 -14 80 24z" />
    <glyph glyph-name="colon" unicode=":" horiz-adv-x="369" 
d="M20 406q1 24 13 45t32 34.5t47 18t59 -4.5q44 -13 62.5 -39.5t17.5 -53.5q0 -19 -4 -32q-4 -11 -12.5 -24.5t-22.5 -26t-32.5 -21t-42.5 -8.5t-46 7.5t-38.5 22.5t-25.5 35.5t-7 46.5zM-46 84q3 20 13 36.5t27.5 27t41.5 13.5t54 -4q29 -8 45.5 -23t24 -32.5t8 -35.5
t-2.5 -31q-9 -32 -41.5 -49t-77.5 -9q-22 3 -40 12t-31 22.5t-18.5 31.5t-2.5 41z" />
    <glyph glyph-name="semicolon" unicode=";" horiz-adv-x="390" 
d="M90 -138q-10 -17 -21.5 -23t-28.5 -8q-40 -1 -84 16q-43 12 -31 45q17 55 36 116.5t33 128.5q3 17 12.5 22t24 1.5t32.5 -14t38 -23.5q45 -27 63.5 -52t4.5 -51q-6 -20 -16 -43t-21 -45t-22 -40.5t-20 -29.5zM-63 495q-4 28 4 54t25.5 43.5t43.5 23.5t59 -6
q34 -11 56 -30t34 -41t15.5 -44.5t1.5 -40.5q-2 -13 -7.5 -29.5t-16.5 -31.5t-28.5 -25.5t-43.5 -10.5q-25 0 -48 9.5t-42.5 27.5t-33 43.5t-19.5 57.5z" />
    <glyph glyph-name="less" unicode="&#x3c;" horiz-adv-x="522" 
d="M403 481q-56 -20 -111 -43t-112 -47q48 -20 87 -37.5t68 -33.5q19 -11 27.5 -22t6.5 -30q-6 -40 -16 -62q-9 -18 -18.5 -21t-31.5 8q-70 35 -149.5 66t-160.5 61q-15 8 -18 19q-2 11 -2 18q0 8 2 13q3 16 4 33.5t5 34t13 30t26 20.5q19 10 44 22t52 24t55 24t54 22
q28 9 47 16t33.5 8.5t26 -2.5t25.5 -16q34 -31 58 -61q14 -17 11 -27t-26 -17z" />
    <glyph glyph-name="equal" unicode="=" horiz-adv-x="654" 
d="M100 421q107 13 214 15.5t221 0.5q23 -2 31 4.5t3 26.5q-5 17 -11 33t-15 36q-16 33 -64 37q-48 5 -107 6.5t-120 1t-120.5 -4t-108.5 -9.5q-20 -3 -31.5 -13t-2.5 -32q8 -18 20 -38t23 -37q14 -20 28.5 -24.5t39.5 -2.5zM96 196q99 16 201.5 25.5t209.5 12.5q23 1 30 7
t0 25q-5 16 -11.5 31t-19.5 32q-18 31 -60 31q-49 1 -105 -0.5t-114 -5.5t-114 -10.5t-105 -14.5q-20 -3 -29 -14t2 -31q10 -15 22 -33.5t25 -33.5q14 -16 28.5 -21t39.5 0z" />
    <glyph glyph-name="greater" unicode="&#x3e;" horiz-adv-x="555" 
d="M465 420q-6 -22 -12.5 -41t-14.5 -35q-5 -10 -9 -16.5t-10 -11t-14 -8t-19 -7.5q-80 -23 -143 -43t-123 -45q-17 -9 -28.5 -8t-30.5 14q-17 12 -36 29.5t-38 35.5q-14 16 -7.5 25.5t20.5 16.5q44 19 107 40.5t132 40.5q-38 17 -76 30.5t-76 27.5q-12 3 -19.5 6.5
t-12.5 8.5t-8.5 11.5t-7.5 17.5q-5 17 -6 43t1 47q4 17 17.5 20.5t32.5 -2.5q34 -11 78 -27t91 -35t94.5 -39.5t90.5 -41.5q19 -10 27 -19.5t0 -34.5z" />
    <glyph glyph-name="question" unicode="?" horiz-adv-x="679" 
d="M127 202q21 -9 46 -19t46 -14t34.5 0.5t12.5 23.5q6 42 23.5 72.5t42 53.5t53.5 41t58.5 35.5t57 36t49.5 42.5t40.5 57t23 72.5t-9 84.5t-53.5 94q-19 25 -47.5 47.5t-65 37.5t-79.5 20t-90 -4q-78 -14 -144.5 -63t-116.5 -125q-16 -24 -22 -40.5t-3.5 -27.5t11 -18.5
t21.5 -12.5q50 -21 102.5 -17.5t87.5 32.5q24 19 47.5 38.5t46 35t45 25.5t45.5 10q16 0 30 -8.5t17 -28.5q4 -29 -23 -69t-102 -85q-29 -19 -65.5 -43t-68.5 -55t-55 -71t-26 -92q-3 -26 3 -40t28 -26zM45 65q-2 -23 5.5 -40t22 -29.5t34 -19.5t41.5 -10q50 -7 81 11t39 46
q2 3 2 12v15q0 12 -3.5 23.5t-12.5 22.5t-24.5 20.5t-39.5 16.5q-32 9 -58.5 7t-45.5 -12.5t-29.5 -27t-11.5 -35.5z" />
    <glyph glyph-name="at" unicode="@" horiz-adv-x="892" 
d="M789 312q-25 -67 -56.5 -106.5t-66 -58t-70 -19.5t-68.5 9q-54 12 -82 54q-28 -22 -64 -26.5t-78 6.5q-27 7 -53 23.5t-44 43t-23 65t11 91.5q15 56 44 102t65.5 76t78.5 41.5t82 -0.5q29 -10 49 -31.5t28 -50.5q19 -10 29.5 -19t14.5 -18t3 -19.5t-4 -23.5
q-4 -14 -12.5 -43.5t-18 -64t-16.5 -67.5t-8 -53q0 -17 7 -22q11 -8 27 -1.5t33.5 27.5t35.5 55.5t33 81.5q8 26 14 59t6.5 68.5t-6 71.5t-23.5 68.5t-46.5 59t-74.5 43.5q-59 21 -125.5 13.5t-126.5 -43.5t-108 -101t-70 -158q-14 -57 -13.5 -103.5t11 -83.5t28.5 -65.5
t39.5 -48t43.5 -31.5t41 -17q21 -5 37.5 -7t31.5 -2.5t29 -1t30 -3.5q23 -5 46.5 -15.5t38.5 -25.5q8 -10 6.5 -18t-13.5 -12q-36 -11 -87 -10.5t-119 21.5q-58 16 -116.5 53t-102.5 96t-65.5 140.5t-5.5 188.5q13 74 46 132t79.5 99.5t104.5 67t120.5 35t127 2t125.5 -30.5
q89 -33 144.5 -88.5t81 -122.5t23 -140.5t-28.5 -141.5zM482 511q-5 23 -23 31q-8 2 -26 -10.5t-39 -35.5t-40.5 -55.5t-30.5 -69.5q-11 -36 -14 -61t-0.5 -41t10 -24t16.5 -10q16 -5 35 14.5t38 57t38 90t36 114.5z" />
    <glyph glyph-name="A" unicode="A" horiz-adv-x="718" 
d="M417 189q3 -41 6 -75.5t7 -63.5q4 -28 13.5 -39t33.5 -18q23 -8 45 -9.5t48 -1.5t33.5 7t7.5 25q-1 86 -0.5 186.5t2.5 200.5t6 192t10 163q3 29 -5.5 47t-39.5 29q-23 6 -45.5 13t-49 13t-58.5 10.5t-73 6.5q-47 4 -71 -13t-39 -44q-42 -75 -88.5 -171.5t-91 -195.5
t-83 -192t-62.5 -162q-6 -21 -5.5 -33.5t5.5 -20.5t14 -13.5t21 -13.5q16 -8 31.5 -14.5t28.5 -11.5q23 -8 34.5 -5t19.5 20q14 32 29 65.5t35 72.5q57 15 131.5 25.5t149.5 20.5zM226 329q47 95 93.5 183.5t86.5 161.5q-2 -80 -1 -161.5t3 -163.5q-46 -3 -91.5 -8
t-90.5 -12z" />
    <glyph glyph-name="B" unicode="B" 
d="M480 383q39 -20 63.5 -56t32.5 -74q5 -45 -12 -76.5t-55 -61.5q-26 -23 -61.5 -44t-75 -38t-79.5 -30.5t-76 -22.5q-19 -5 -32.5 -7t-26 -1t-24.5 5t-28 13q-30 13 -52.5 27.5t-52.5 37.5q-11 12 -19.5 20.5t-13.5 18t-7 21.5t0 31q3 62 11 140.5t17.5 163t17 170
t9.5 162.5q38 21 88 39t104.5 31t110.5 19t106.5 3t92.5 -16.5t69 -39.5q35 -35 58.5 -75t34.5 -93q5 -29 -0.5 -56t-18.5 -52t-32 -46.5t-41 -40.5q-24 -18 -49 -36.5t-59 -35.5zM216 454q64 21 114.5 50t85 58.5t50.5 56t12 42.5q-4 13 -22 19.5t-46.5 5t-65.5 -11.5
t-80 -30q-14 -43 -24 -90t-24 -100zM178 288q-8 -42 -16.5 -80.5t-15.5 -78.5q52 13 95 31.5t73 39t44.5 41t10.5 37.5q-5 10 -20 18t-40 11t-58 -1.5t-73 -17.5z" />
    <glyph glyph-name="C" unicode="C" horiz-adv-x="642" 
d="M474 210q38 -10 39.5 -31t-15.5 -52q-18 -36 -46 -66t-56 -50q-14 -9 -33.5 -17t-41 -13t-45 -7t-45.5 0q-47 3 -85 14.5t-68 21.5q-27 11 -54 32t-42 49q-26 43 -36.5 101.5t-7.5 125t19.5 137t45.5 137.5t69.5 126.5t92.5 104.5q42 36 85 47t81 8q28 -3 58 -10.5
t58 -18t53 -23t45 -25.5q19 -16 31.5 -31.5t20 -31.5t10.5 -33.5t4 -37.5q1 -23 -0.5 -48t-4.5 -49.5t-8 -47t-11 -40.5q-3 -8 -6 -15t-8.5 -11t-15.5 -5t-27 2q-32 6 -55 16.5t-38 25t-24 33.5t-13 44q-3 21 -3 39q1 32 -3 58t-24 34q-20 6 -47 -23t-55 -75.5t-52.5 -102.5
t-38.5 -104q-13 -50 -19.5 -99.5t-4.5 -90t13 -68.5t32 -34q40 -13 122 71q59 60 154 33z" />
    <glyph glyph-name="D" unicode="D" horiz-adv-x="733" 
d="M16 792q38 21 89.5 39.5t109.5 28t118.5 7t117 -23t104.5 -61.5t81 -109q28 -54 35 -118t-7.5 -131.5t-50.5 -134.5t-93.5 -126t-136.5 -106t-179 -75q-51 -18 -107 9q-28 14 -49 27.5t-48 33.5q-10 9 -19 17.5t-15.5 19.5t-8.5 27t1 41zM150 139q78 33 134 79.5t92 97.5
t54 102t21 95q4 61 -14 95t-63 51t-110 -4q-35 -131 -62 -258.5t-52 -257.5z" />
    <glyph glyph-name="E" unicode="E" horiz-adv-x="577" 
d="M41 798q43 11 95.5 23t110 22t118 17.5t120.5 9.5q57 1 73 -44q13 -24 18 -43.5t10 -42.5q4 -26 -4 -35t-37 -13q-60 -7 -124 -14t-135 -17q-15 -45 -28 -93.5t-29 -101.5q30 4 60 6t64 3q28 1 44 -5t27 -26q12 -20 18.5 -39.5t11.5 -39.5q8 -23 1.5 -31t-34.5 -14
q-60 -11 -122.5 -21t-120.5 -22q-8 -32 -15 -60.5t-15 -56.5q47 8 89.5 13t92.5 8q28 2 43.5 -4t26.5 -24q12 -20 18.5 -37.5t14.5 -35.5q5 -20 0 -27.5t-32 -12.5q-64 -12 -130 -25t-126 -24q-40 -10 -60.5 -4.5t-35.5 15.5q-17 11 -32.5 22.5t-36.5 29.5q-17 14 -26.5 33
t-7.5 46l95 665v0z" />
    <glyph glyph-name="F" unicode="F" horiz-adv-x="570" 
d="M543 692q30 4 37 12.5t3 34.5q-4 43 -31 88q-9 14 -17 22.5t-16.5 13t-19 6t-25.5 1.5q-60 -2 -121.5 -7t-120.5 -12.5t-112.5 -17t-96.5 -21.5q3 -49 -1 -114t-12.5 -136.5t-19.5 -144.5t-21 -137.5t-17.5 -116t-8.5 -79.5q0 -26 5 -40t30 -26q19 -8 44.5 -17
t48.5 -12.5t39 0t17 21.5q12 54 26.5 123.5t33.5 146.5q57 12 115 23t115 20q27 3 34.5 11.5t-0.5 31.5q-5 20 -11.5 39.5t-18.5 39.5q-22 34 -71 31q-31 -1 -60.5 -3.5t-58.5 -5.5q17 54 27.5 103t24.5 90q71 10 135.5 17t124.5 15z" />
    <glyph glyph-name="G" unicode="G" horiz-adv-x="663" 
d="M594 478q4 16 7.5 40t6 50t3 52t-0.5 47q-5 40 -19 72t-48 59q-18 15 -40.5 27.5t-48 22t-52.5 16.5t-53 10q-18 3 -39 3t-42.5 -3t-42.5 -11t-39 -22q-56 -41 -100.5 -99t-77 -124.5t-51.5 -137t-24 -138.5t5 -128.5t36 -105.5q14 -28 38.5 -51.5t50.5 -37.5
q73 -32 150 -42q44 -6 84 0.5t76 26.5q56 33 104 94t85 151q9 26 8.5 44t-17.5 41l-19.5 26t-22.5 27q-18 20 -39 25.5t-55 0.5q-29 -5 -69 -9.5t-77 -12.5q-20 -3 -36 -5.5t-27 -7t-15.5 -12t-0.5 -20.5q19 -57 51.5 -81t92.5 -21q-16 -33 -34 -61.5t-37 -48.5t-38.5 -29
t-37.5 -3q-21 7 -33 37.5t-14 73.5t5.5 93.5t24.5 98.5q19 60 46 115.5t55.5 97.5t56 64.5t47.5 16.5q10 -3 13.5 -16t7.5 -32l2 -20t1 -21q-1 -11 -0.5 -20.5t2.5 -19.5q5 -51 37.5 -82t102.5 -41q25 -2 34.5 4.5t16.5 26.5z" />
    <glyph glyph-name="H" unicode="H" horiz-adv-x="678" 
d="M687 739q-24 -75 -52 -168t-55.5 -191t-53 -195t-45.5 -180q0 -14 -7.5 -18.5t-20.5 -4t-30.5 5t-37.5 9.5q-41 12 -64 29.5t-14 53.5q4 36 12 83t19 105q-42 -6 -82.5 -11.5t-82.5 -12.5q-16 -69 -26 -129.5t-18 -108.5q-4 -17 -12.5 -22t-34.5 1q-25 7 -51.5 14
t-45.5 18q-23 11 -33 25.5t-4 40.5q15 69 28 161t25 192t23.5 199.5t23.5 183.5q8 32 23 38t44 -5q32 -9 68.5 -24.5t63.5 -33.5q15 -9 23.5 -17t12 -16t2.5 -18t-4 -23q-16 -57 -33.5 -134l-37.5 -165q42 5 82.5 8t78.5 6q25 106 48.5 210.5t46.5 189.5q9 32 25.5 36.5
t47.5 -4.5q29 -8 60 -22.5t59 -32.5q26 -19 31.5 -33t-2.5 -40z" />
    <glyph glyph-name="I" unicode="I" horiz-adv-x="312" 
d="M259 794q28 -19 33.5 -33t-1.5 -41q-14 -45 -30.5 -103t-33 -122.5t-32.5 -132t-31 -132t-27.5 -122t-21.5 -102.5q-5 -17 -13.5 -22t-34.5 1q-26 7 -49.5 14t-44.5 18q-23 11 -30.5 25.5t-4.5 40.5q2 35 8.5 90.5t16 121.5t21.5 139t24.5 143t25.5 132.5t24 109.5
q9 29 24.5 35.5t46.5 -2.5q31 -8 67 -24t63 -34z" />
    <glyph glyph-name="J" unicode="J" horiz-adv-x="627" 
d="M138 -13q-39 9 -67.5 23t-49.5 32t-35 39t-24 44q-16 33 -19 68.5t3 81.5q6 35 21.5 51.5t50.5 0.5q117 -47 120 -125q4 -50 10 -72.5t30 -25.5q21 -1 41 35t39 95.5t36 136t32 157t27.5 158.5t21.5 141q6 30 22.5 36.5t47.5 -1.5q30 -8 66.5 -22t65.5 -32
q15 -10 23 -17.5t11.5 -15.5t3 -17.5t-3.5 -22.5q-25 -147 -53 -268t-60.5 -213t-70.5 -154t-82 -90q-35 -21 -83.5 -30.5t-123.5 7.5z" />
    <glyph glyph-name="K" unicode="K" horiz-adv-x="664" 
d="M332 303q44 42 93 90t94.5 96.5t84 95t61.5 84.5q19 31 21.5 52t-5.5 43q-13 27 -27.5 50t-36.5 42q-21 18 -38 18q-15 0 -32 -22q-26 -32 -66.5 -78t-87 -97t-95.5 -103.5t-91 -98.5q17 78 32 143.5t30 116.5q4 13 5 22.5t-3 17.5t-13 15.5t-24 17.5q-27 18 -63.5 34
t-68.5 24q-29 9 -45 2.5t-24 -34.5q-10 -47 -21 -111t-22 -135.5t-21 -146t-18 -142.5t-13 -124.5t-6 -91.5q-2 -37 18 -55t65 -30q22 -6 40.5 -11.5t31.5 -6t20 5t7 20.5q8 45 18 100t23 121q21 -30 45.5 -60.5t47 -57.5t41.5 -48t30 -33q27 -29 54 -33t53 3q17 2 34.5 7
t30.5 12q22 10 25.5 20.5t-13.5 27.5q-16 18 -37 45t-44 59t-46.5 66.5t-43.5 67.5z" />
    <glyph glyph-name="L" unicode="L" horiz-adv-x="532" 
d="M383 41q-63 -12 -129.5 -24.5t-126.5 -24.5q-22 -6 -37 -7t-26 1.5t-18.5 6.5t-14.5 9q-17 11 -31 22.5t-37 29.5q-17 14 -26 31.5t-5 42.5q3 39 10 92.5t17 115.5t22 128.5t26 132.5t28.5 127t28.5 112q10 29 25.5 34.5t46.5 -3.5q31 -8 67 -22.5t63 -32.5
q26 -19 32.5 -33t-2.5 -40q-20 -60 -40.5 -132t-41 -148t-39 -151.5t-34.5 -144.5q46 8 86 12t87 7q28 2 42.5 -3.5t26.5 -24.5q12 -18 19.5 -36.5t11.5 -35.5q7 -21 3.5 -28t-34.5 -13z" />
    <glyph glyph-name="M" unicode="M" horiz-adv-x="924" 
d="M187 489q15 -100 33.5 -194t38.5 -166q5 -17 9.5 -28t10.5 -18.5t14 -12t19 -8.5q30 -10 70 -18q13 -3 21 -2.5t13 3.5t8.5 9.5t8.5 17.5q16 35 42.5 87.5t58 111.5t65 120t63.5 113q-17 -59 -31.5 -122t-26.5 -120.5t-21 -105t-13 -77.5q-5 -25 2.5 -40t30.5 -26
q18 -10 42 -17t47 -12q26 -6 35 2t16 26q8 35 22 88t31.5 116t37 132t39 136t38.5 128t34 108q11 33 3.5 51.5t-36.5 32.5q-44 20 -89.5 35t-86.5 26q-35 10 -57.5 8t-40.5 -17.5t-35 -45t-40 -75.5q-23 -40 -47.5 -85t-47.5 -90t-44.5 -88t-37.5 -79q-16 103 -25 162
t-13.5 91t-6 44.5t-1.5 21.5q-4 19 -7.5 34t-11.5 27.5t-22 23t-38 19.5q-38 14 -75.5 24t-91.5 18q-35 5 -51.5 -3.5t-25.5 -42.5q-9 -47 -18.5 -108.5t-19 -130.5t-17.5 -140t-14.5 -137t-10 -122.5t-3.5 -95.5q-2 -26 7 -40t34 -26q20 -10 43.5 -17.5t46.5 -12.5
q24 -5 33 0.5t13 23.5q4 43 11.5 98t17.5 118t22 131t25 136z" />
    <glyph glyph-name="N" unicode="N" horiz-adv-x="702" 
d="M392 327q20 131 49.5 258t58.5 234q8 29 24.5 36t48.5 -1q15 -4 27 -7t23.5 -8t24.5 -12t30 -18q29 -18 32.5 -36.5t-4.5 -44.5q-23 -74 -48 -168t-49.5 -191t-47 -189.5t-38.5 -162.5q-6 -38 -60 -26q-46 9 -94 26q-44 17 -62 60q-14 31 -28.5 72t-29.5 88.5t-30 99
t-28 103.5q-11 -62 -22.5 -124t-22 -118.5t-19 -105t-13.5 -84.5q-4 -17 -13 -21.5t-35 2.5q-24 6 -48.5 12.5t-47.5 20.5q-22 11 -29.5 25.5t-5.5 40.5q2 27 6.5 77t12 113.5t17 136t20.5 144.5t22.5 139t22.5 119q7 30 25 37.5t49 -0.5q37 -11 72 -22t73 -29
q31 -13 44 -32.5t19 -57.5q5 -29 13 -74t18 -97.5t21 -108t22 -106.5z" />
    <glyph glyph-name="O" unicode="O" 
d="M541 790q38 -31 55.5 -65.5t25.5 -78.5q11 -73 5 -158.5t-29.5 -170t-64 -159.5t-99.5 -127q-40 -31 -84 -41.5t-101 -4.5q-38 4 -78 12.5t-73 25.5q-27 14 -53 36t-41 50q-24 46 -36 104t-11 122t15 130.5t41 129.5t66.5 119.5t91.5 101.5q35 27 83.5 41t92.5 7
q57 -9 108.5 -28t85.5 -46zM380 690q-21 7 -47 -17.5t-52 -66.5t-48.5 -93.5t-36.5 -99.5q-14 -47 -20 -97.5t-4 -94t14 -74.5t35 -38q21 -7 44 9t46 49t43.5 81.5t35.5 105.5q13 47 21 103.5t8 105.5q0 50 -9.5 85.5t-29.5 41.5z" />
    <glyph glyph-name="P" unicode="P" horiz-adv-x="708" 
d="M185 215q-12 -57 -22.5 -110t-18.5 -104q-5 -16 -14 -21t-35 0q-26 7 -50.5 13.5t-43.5 17t-28.5 26.5t-3.5 42q9 24 16.5 81t13.5 129.5t12 150.5t12 144t13.5 110.5t17.5 49.5q38 20 84 41.5t95 39t98.5 29t95.5 12.5t85.5 -10.5t68.5 -39.5q34 -38 62.5 -81.5
t44.5 -106.5q7 -31 3.5 -58t-15 -51t-29 -46t-38.5 -43q-34 -34 -81.5 -66t-103.5 -60t-117.5 -50.5t-121.5 -38.5zM228 403q71 22 124 54.5t87 67t48 66.5t6 54q-3 12 -21.5 18.5t-47 5.5t-64 -9t-72.5 -24q-16 -54 -30.5 -112t-29.5 -121z" />
    <glyph glyph-name="Q" unicode="Q" horiz-adv-x="693" 
d="M552 38q17 -17 15 -27t-21 -19q-18 -10 -36 -15.5t-36 -9.5q-45 -7 -77 19q-5 5 -9 8t-9 6q-28 -13 -61 -15t-69 0q-40 3 -79 12t-72 26q-27 14 -53 36t-41 50q-24 46 -36 104t-10.5 122t15 130.5t40.5 129.5t66.5 119.5t92.5 101.5q34 27 82.5 41t92.5 7
q57 -9 108.5 -28t85.5 -46q38 -31 54.5 -65.5t24.5 -78.5q10 -61 7.5 -133t-17.5 -145t-42.5 -142t-68.5 -124q16 -17 27.5 -33t25.5 -31zM265 119q-8 7 -13.5 14t-11.5 15q-26 28 11 45q17 9 39.5 15.5t50.5 11.5q31 57 47 134q10 34 17 74.5t10.5 80.5t2 76t-7.5 62
q-6 30 -20 39.5t-32 2t-38.5 -30t-40.5 -54.5q-40 -65 -65.5 -140t-38.5 -150q-4 -38 -3.5 -72t5.5 -61.5t16 -46t28 -25.5q20 -8 44 10z" />
    <glyph glyph-name="R" unicode="R" horiz-adv-x="727" 
d="M181 234q-14 -61 -25.5 -117t-22.5 -110q-5 -16 -13.5 -21t-31.5 0q-27 7 -48 11t-40 14q-19 11 -26 26.5t-5 41.5q2 21 5.5 61t8.5 90.5t11.5 108.5t14 116t16.5 112.5t19 98t22 72t25 35.5q62 28 129.5 55t133 38.5t124 2t102.5 -52.5q35 -38 63.5 -81.5t44.5 -106.5
q13 -67 -10 -110q-35 -69 -115.5 -127t-192.5 -108q23 -26 50.5 -55t56.5 -58t57.5 -56t53.5 -47q20 -17 18 -27t-17 -21q-18 -14 -30.5 -16.5t-30.5 -5.5q-22 -6 -48.5 -3.5t-61.5 23.5q-23 16 -53 40t-62 53t-64 60.5t-58 63.5zM288 640q-16 -51 -31 -109t-34 -124
q69 23 122.5 56.5t89.5 68t52 65.5t10 48q-12 28 -71 28q-29 0 -64 -7t-74 -26z" />
    <glyph glyph-name="S" unicode="S" horiz-adv-x="601" 
d="M-83 199q18 7 38 10.5t40.5 2t39 -7t33.5 -15.5q84 -51 146.5 -66t90.5 7q11 7 4.5 19t-25 26.5t-46 32t-58 36.5t-61 39t-55.5 41q-27 22 -48.5 49.5t-33.5 60t-13 69.5t12 77q9 34 30.5 73t50.5 76t64 69t71 54q13 9 32 17.5t42.5 12.5t51 2.5t57.5 -10.5
q45 -16 90 -39t75 -52q20 -18 30.5 -36.5t15 -36.5t5 -34.5t0.5 -31.5q-3 -27 -10 -59t-16 -64.5t-20 -62.5t-22 -52q-11 -20 -24 -25t-36 4q-136 48 -126 131q1 17 6.5 39.5l11 45t9.5 43t2.5 33.5t-9.5 15t-27 -11q-16 -9 -36 -27t-38.5 -41t-33 -50t-19.5 -54t1 -53
t29 -46q29 -27 64.5 -51t71 -46.5t67 -44.5t52 -45.5t26 -49t-10.5 -54.5q-10 -21 -28 -45t-48 -44.5t-73 -34.5t-103 -15q-80 -2 -156 28.5t-157 105.5q-43 37 -45 55q0 19 19 30z" />
    <glyph glyph-name="T" unicode="T" horiz-adv-x="664" 
d="M642 702q31 2 36.5 10.5t-0.5 31.5q-7 26 -20 53t-33 50q-10 13 -23.5 18.5t-44.5 5.5q-59 -2 -133.5 -7.5t-152 -13.5t-152 -18t-133.5 -22q-19 -5 -25 -12.5t6 -30.5q11 -22 28.5 -54t38.5 -53q20 -21 36 -25.5t41 1.5q18 5 45 8.5t56 8.5q-15 -68 -30 -147.5
t-27.5 -157.5t-21.5 -148t-12 -118q-4 -19 1 -32.5t16.5 -23.5t28.5 -17t38 -13t38 -11t30 -5.5t20.5 4t9.5 18.5q14 73 32.5 157t39.5 172.5t43.5 178.5l43.5 174q49 5 95 9.5t85 8.5z" />
    <glyph glyph-name="U" unicode="U" horiz-adv-x="676" 
d="M-5 102q-21 35 -30.5 83.5t-9.5 106.5t8 123t21 132t29.5 134.5t34.5 131.5q8 29 23.5 35t47.5 -5q30 -9 57.5 -23t53.5 -33q54 -39 37 -100q-16 -52 -33.5 -112.5t-32.5 -122.5t-25.5 -121t-13 -106t5 -78t29.5 -37q27 -7 53 26t49.5 91.5t45 135.5t40 158.5t33.5 160.5
t27 141q2 30 22 36t48.5 -1.5t61 -24t59.5 -32.5q14 -9 21.5 -16.5t10.5 -15.5t2 -17.5t-4 -22.5q-30 -143 -60.5 -262.5t-64.5 -211.5t-74 -154t-89 -90q-35 -17 -70 -23.5t-80 -3.5q-90 6 -148 38q-25 14 -47 33t-38 47z" />
    <glyph glyph-name="V" unicode="V" horiz-adv-x="699" 
d="M700 718q-14 -44 -37 -102t-51 -123.5t-59 -134.5t-62 -134t-59 -122t-50 -98q-14 -24 -33 -30.5t-54 2.5q-35 10 -65 20t-63 26q-37 17 -56.5 45.5t-25.5 52.5q-35 137 -62.5 308.5t-49.5 376.5q-2 27 4.5 38t36.5 11q29 0 53.5 -4t51.5 -15q66 -24 75 -88
q6 -49 13.5 -111t15.5 -131t17.5 -143.5t20.5 -147.5q66 145 128.5 306t125.5 319q8 18 21 24.5t29.5 4t35 -11t37.5 -20.5q20 -11 36 -22.5t25 -25.5t9.5 -31t-8.5 -39z" />
    <glyph glyph-name="W" unicode="W" horiz-adv-x="961" 
d="M164 262q0 60 1.5 126.5t4 128t5 111.5t3.5 76q1 13 0 28.5t-5.5 30t-13.5 27.5t-24 22q-26 15 -56 23.5t-67 16.5q-32 7 -43 -2t-12 -41q0 -57 1 -123.5t4 -136t7 -139.5t9 -134q5 -61 11.5 -114.5t14.5 -94.5q3 -28 13.5 -41.5t34.5 -21.5q26 -8 54.5 -15.5t59.5 -12.5
q23 -3 36.5 0.5t25.5 23.5q11 25 29 63.5t39.5 83.5t45.5 92.5t47 91.5q0 -35 3.5 -72t7.5 -72.5t8.5 -65.5t7.5 -51q4 -21 16 -38.5t40 -27.5q14 -3 25.5 -6.5t23 -6.5t24.5 -6.5t31 -6.5q32 -5 49 0t27 24q18 41 43 96t53.5 117.5t60 129t62.5 130.5t61 123t55 105
q12 26 13 51t-22 47q-21 17 -43.5 30.5t-45.5 24.5q-32 13 -47 9.5t-30 -34.5q-12 -23 -29.5 -59.5t-39 -82.5t-46 -98.5t-49.5 -107.5t-49.5 -109.5t-45.5 -103.5q4 59 8.5 121t8.5 117t7 96t3 58q0 15 -0.5 26t-4 19t-11 14t-22.5 12q-27 11 -46.5 18t-48.5 13
q-29 7 -43.5 1t-26.5 -28q-16 -26 -41.5 -81t-55 -122t-60 -139t-56.5 -133z" />
    <glyph glyph-name="X" unicode="X" horiz-adv-x="708" 
d="M303 593q-21 51 -40.5 97.5t-35.5 87.5q-14 29 -33 46.5t-54 22.5q-17 1 -33 1.5t-31 0.5h-29h-15t-15 -1q-29 -4 -35 -15.5t6 -43.5q13 -32 31.5 -74t40 -90t45.5 -99.5t48 -102.5q-71 -90 -129.5 -171.5t-93.5 -137.5q-8 -12 -10.5 -21t-2.5 -16q1 -9 11 -22
t24.5 -26.5t30.5 -25.5t30 -20q39 -25 63 5q35 42 78.5 99.5t97.5 122.5q32 -68 55.5 -114.5t35.5 -63.5q17 -24 32 -34.5t42 -13.5q54 -5 104 0q44 6 21 41q-29 67 -65.5 153.5t-78.5 186.5q75 88 144.5 168.5t123.5 143.5q18 21 23 44t-12 50q-14 22 -36 47.5t-45 43.5
q-11 7 -22 11t-22 4q-21 0 -41 -23q-42 -47 -94.5 -114t-113.5 -147z" />
    <glyph glyph-name="Y" unicode="Y" horiz-adv-x="651" 
d="M644 714q-17 -38 -50.5 -94t-75.5 -121t-89 -134t-91 -132q-17 -67 -29 -124.5t-23 -111.5q-5 -20 -14 -24t-35 2q-24 6 -50 14.5t-48 17.5q-22 14 -29 27.5t-5 39.5q7 43 13 99.5t18 125.5q-21 60 -45 127t-48 134.5t-46.5 132t-40.5 120.5q-11 27 -5.5 36.5t31.5 14.5
q31 2 59.5 3.5t58.5 -5.5t43.5 -22.5t29.5 -47.5q23 -60 48 -137t52 -163q54 86 106 176t104 183q9 25 29 26.5t43 -10t45.5 -30.5t38.5 -34q9 -11 14 -20.5t5.5 -19.5t-3.5 -21.5t-11 -27.5z" />
    <glyph glyph-name="Z" unicode="Z" horiz-adv-x="562" 
d="M304 661q-45 -8 -81.5 -12.5t-71.5 -12.5q-26 -5 -48 1t-42 29q-6 9 -13.5 21t-15.5 26t-15.5 27.5t-13.5 25.5q-9 23 -3.5 31t25.5 15q45 10 101.5 19t117.5 15.5t123 11t117 7.5q30 1 44 -7.5t25 -31.5q13 -27 18.5 -47.5t11.5 -38.5q8 -23 5.5 -43.5t-22.5 -43.5
q-105 -127 -210.5 -258t-200.5 -254q37 9 73.5 14.5t77.5 10.5q55 6 75 -27q12 -19 20.5 -37t12.5 -35q8 -20 0 -28t-34 -11q-64 -12 -135 -24.5t-131 -26.5q-20 -5 -34 -5.5t-25 1.5t-19.5 6.5t-17.5 9.5q-17 12 -32 24t-38 30q-7 7 -14.5 15t-12 17t-5 19.5t6.5 22.5
q23 41 63.5 104t92 137t109.5 152.5t116 150.5z" />
    <glyph glyph-name="bracketleft" unicode="[" horiz-adv-x="456" 
d="M314 35q-8 17 -12.5 33t-17.5 33q-19 33 -67 28q-17 -1 -32.5 -2t-32.5 -2q12 60 27.5 130t33.5 142.5t37.5 144.5t38.5 137q35 3 68 6.5t62 6.5q26 4 35.5 12.5t1.5 32.5q-5 23 -12 42t-20 42q-11 23 -28 34t-43 10q-42 -1 -91 -3.5t-96 -9.5q-51 -6 -60 -47
q-21 -77 -41 -170.5t-37.5 -187.5t-31 -181.5t-20.5 -153.5q-4 -29 4 -46t22 -32l28 -22t28 -20q17 -11 37 -15.5t47 0.5q35 6 72 12t68 11q26 0 33 8t-1 27z" />
    <glyph glyph-name="backslash" unicode="\" horiz-adv-x="537" 
d="M149 873q16 -3 26.5 -7.5t17 -11.5t11 -17t9.5 -25q10 -49 26 -115t35 -141t40.5 -154t41.5 -152.5t38.5 -137t32.5 -107.5q8 -17 1.5 -24.5t-32.5 -9.5q-44 -5 -81 1q-24 2 -36 14t-24 36q-15 34 -37.5 93t-48.5 132t-53 154t-51.5 159t-44.5 147t-32 118q-15 53 44 56
q31 1 58 0t59 -8z" />
    <glyph glyph-name="bracketright" unicode="]" horiz-adv-x="477" 
d="M419 698q-24 -72 -49.5 -161t-49 -180t-44.5 -175.5t-36 -147.5q-4 -14 -13.5 -23.5t-42.5 -10.5q-35 -5 -68 -9t-65 -9q-26 -4 -40 1.5t-26 17.5q-11 12 -21.5 27.5t-21.5 32.5q-24 32 19 43q23 5 54.5 11.5t60.5 10.5q10 57 25 127t32.5 144t35.5 147t34 138
q-14 -1 -27 -3t-27 -3q-30 -3 -45.5 3.5t-26.5 29.5q-12 20 -23.5 41.5t-15.5 40.5t3 32.5t32 17.5q41 8 91.5 13t107.5 10q29 2 45.5 -4t33.5 -25q14 -14 26.5 -28.5t26.5 -33.5q17 -22 19 -37t-4 -38z" />
    <glyph glyph-name="asciicircum" unicode="^" horiz-adv-x="670" 
d="M506 370q-19 1 -40 3t-45 7q-39 9 -54 46q-14 37 -30 92.5t-34 121.5q-54 -55 -98.5 -107.5t-82.5 -97.5q-10 -15 -25 -15q-12 0 -27 15q-17 14 -30.5 27.5t-29.5 33.5q-25 33 -4 63q19 28 48 68t64.5 83.5t75 88t79.5 82.5q21 23 37 23.5t36 -10.5q21 -15 40.5 -28
t36.5 -27q8 -9 14 -16.5t10 -15.5t6.5 -18.5t4.5 -25.5q7 -47 17 -97t21.5 -97.5t22 -90.5t19.5 -75q5 -20 -2 -27t-30 -6z" />
    <glyph glyph-name="underscore" unicode="_" horiz-adv-x="645" 
d="M16 -209h645q17 -2 28 3.5t17.5 14.5t10.5 19.5t8 20.5q4 11 8 21.5t3 18.5t-9 12.5t-28 3.5h-658q-22 0 -32.5 -6.5t-15.5 -23.5q-5 -14 -7 -27l-4 -26q-8 -31 34 -31z" />
    <glyph glyph-name="grave" unicode="`" horiz-adv-x="592" 
d="M89 1152q4 30 11.5 49.5t28.5 29.5q36 20 59.5 20.5t42.5 -13.5q33 -26 71.5 -50.5t80 -47t83.5 -43.5t82 -40q18 -11 20 -22.5t-3 -21t-12 -15t-7 -4.5q-30 -17 -54.5 -22.5t-45.5 3.5q-48 17 -99 39t-98 46t-88.5 48t-71.5 44z" />
    <glyph glyph-name="a" unicode="a" horiz-adv-x="718" 
d="M417 189q3 -41 6 -75.5t7 -63.5q4 -28 13.5 -39t33.5 -18q23 -8 45 -9.5t48 -1.5t33.5 7t7.5 25q-1 86 -0.5 186.5t2.5 200.5t6 192t10 163q3 29 -5.5 47t-39.5 29q-23 6 -45.5 13t-49 13t-58.5 10.5t-73 6.5q-47 4 -71 -13t-39 -44q-42 -75 -88.5 -171.5t-91 -195.5
t-83 -192t-62.5 -162q-6 -21 -5.5 -33.5t5.5 -20.5t14 -13.5t21 -13.5q16 -8 31.5 -14.5t28.5 -11.5q23 -8 34.5 -5t19.5 20q14 32 29 65.5t35 72.5q57 15 131.5 25.5t149.5 20.5zM226 329q47 95 93.5 183.5t86.5 161.5q-2 -80 -1 -161.5t3 -163.5q-46 -3 -91.5 -8
t-90.5 -12z" />
    <glyph glyph-name="b" unicode="b" 
d="M480 383q39 -20 63.5 -56t32.5 -74q5 -45 -12 -76.5t-55 -61.5q-26 -23 -61.5 -44t-75 -38t-79.5 -30.5t-76 -22.5q-19 -5 -32.5 -7t-26 -1t-24.5 5t-28 13q-30 13 -52.5 27.5t-52.5 37.5q-11 12 -19.5 20.5t-13.5 18t-7 21.5t0 31q3 62 11 140.5t17.5 163t17 170
t9.5 162.5q38 21 88 39t104.5 31t110.5 19t106.5 3t92.5 -16.5t69 -39.5q35 -35 58.5 -75t34.5 -93q5 -29 -0.5 -56t-18.5 -52t-32 -46.5t-41 -40.5q-24 -18 -49 -36.5t-59 -35.5zM216 454q64 21 114.5 50t85 58.5t50.5 56t12 42.5q-4 13 -22 19.5t-46.5 5t-65.5 -11.5
t-80 -30q-14 -43 -24 -90t-24 -100zM178 288q-8 -42 -16.5 -80.5t-15.5 -78.5q52 13 95 31.5t73 39t44.5 41t10.5 37.5q-5 10 -20 18t-40 11t-58 -1.5t-73 -17.5z" />
    <glyph glyph-name="c" unicode="c" horiz-adv-x="642" 
d="M474 210q38 -10 39.5 -31t-15.5 -52q-18 -36 -46 -66t-56 -50q-14 -9 -33.5 -17t-41 -13t-45 -7t-45.5 0q-47 3 -85 14.5t-68 21.5q-27 11 -54 32t-42 49q-26 43 -36.5 101.5t-7.5 125t19.5 137t45.5 137.5t69.5 126.5t92.5 104.5q42 36 85 47t81 8q28 -3 58 -10.5
t58 -18t53 -23t45 -25.5q19 -16 31.5 -31.5t20 -31.5t10.5 -33.5t4 -37.5q1 -23 -0.5 -48t-4.5 -49.5t-8 -47t-11 -40.5q-3 -8 -6 -15t-8.5 -11t-15.5 -5t-27 2q-32 6 -55 16.5t-38 25t-24 33.5t-13 44q-3 21 -3 39q1 32 -3 58t-24 34q-20 6 -47 -23t-55 -75.5t-52.5 -102.5
t-38.5 -104q-13 -50 -19.5 -99.5t-4.5 -90t13 -68.5t32 -34q40 -13 122 71q59 60 154 33z" />
    <glyph glyph-name="d" unicode="d" horiz-adv-x="733" 
d="M16 792q38 21 89.5 39.5t109.5 28t118.5 7t117 -23t104.5 -61.5t81 -109q28 -54 35 -118t-7.5 -131.5t-50.5 -134.5t-93.5 -126t-136.5 -106t-179 -75q-51 -18 -107 9q-28 14 -49 27.5t-48 33.5q-10 9 -19 17.5t-15.5 19.5t-8.5 27t1 41zM150 139q78 33 134 79.5t92 97.5
t54 102t21 95q4 61 -14 95t-63 51t-110 -4q-35 -131 -62 -258.5t-52 -257.5z" />
    <glyph glyph-name="e" unicode="e" horiz-adv-x="577" 
d="M41 798q43 11 95.5 23t110 22t118 17.5t120.5 9.5q57 1 73 -44q13 -24 18 -43.5t10 -42.5q4 -26 -4 -35t-37 -13q-60 -7 -124 -14t-135 -17q-15 -45 -28 -93.5t-29 -101.5q30 4 60 6t64 3q28 1 44 -5t27 -26q12 -20 18.5 -39.5t11.5 -39.5q8 -23 1.5 -31t-34.5 -14
q-60 -11 -122.5 -21t-120.5 -22q-8 -32 -15 -60.5t-15 -56.5q47 8 89.5 13t92.5 8q28 2 43.5 -4t26.5 -24q12 -20 18.5 -37.5t14.5 -35.5q5 -20 0 -27.5t-32 -12.5q-64 -12 -130 -25t-126 -24q-40 -10 -60.5 -4.5t-35.5 15.5q-17 11 -32.5 22.5t-36.5 29.5q-17 14 -26.5 33
t-7.5 46l95 665v0z" />
    <glyph glyph-name="f" unicode="f" horiz-adv-x="570" 
d="M543 692q30 4 37 12.5t3 34.5q-4 43 -31 88q-9 14 -17 22.5t-16.5 13t-19 6t-25.5 1.5q-60 -2 -121.5 -7t-120.5 -12.5t-112.5 -17t-96.5 -21.5q3 -49 -1 -114t-12.5 -136.5t-19.5 -144.5t-21 -137.5t-17.5 -116t-8.5 -79.5q0 -26 5 -40t30 -26q19 -8 44.5 -17
t48.5 -12.5t39 0t17 21.5q12 54 26.5 123.5t33.5 146.5q57 12 115 23t115 20q27 3 34.5 11.5t-0.5 31.5q-5 20 -11.5 39.5t-18.5 39.5q-22 34 -71 31q-31 -1 -60.5 -3.5t-58.5 -5.5q17 54 27.5 103t24.5 90q71 10 135.5 17t124.5 15z" />
    <glyph glyph-name="g" unicode="g" horiz-adv-x="663" 
d="M594 478q4 16 7.5 40t6 50t3 52t-0.5 47q-5 40 -19 72t-48 59q-18 15 -40.5 27.5t-48 22t-52.5 16.5t-53 10q-18 3 -39 3t-42.5 -3t-42.5 -11t-39 -22q-56 -41 -100.5 -99t-77 -124.5t-51.5 -137t-24 -138.5t5 -128.5t36 -105.5q14 -28 38.5 -51.5t50.5 -37.5
q73 -32 150 -42q44 -6 84 0.5t76 26.5q56 33 104 94t85 151q9 26 8.5 44t-17.5 41l-19.5 26t-22.5 27q-18 20 -39 25.5t-55 0.5q-29 -5 -69 -9.5t-77 -12.5q-20 -3 -36 -5.5t-27 -7t-15.5 -12t-0.5 -20.5q19 -57 51.5 -81t92.5 -21q-16 -33 -34 -61.5t-37 -48.5t-38.5 -29
t-37.5 -3q-21 7 -33 37.5t-14 73.5t5.5 93.5t24.5 98.5q19 60 46 115.5t55.5 97.5t56 64.5t47.5 16.5q10 -3 13.5 -16t7.5 -32l2 -20t1 -21q-1 -11 -0.5 -20.5t2.5 -19.5q5 -51 37.5 -82t102.5 -41q25 -2 34.5 4.5t16.5 26.5z" />
    <glyph glyph-name="h" unicode="h" horiz-adv-x="678" 
d="M687 739q-24 -75 -52 -168t-55.5 -191t-53 -195t-45.5 -180q0 -14 -7.5 -18.5t-20.5 -4t-30.5 5t-37.5 9.5q-41 12 -64 29.5t-14 53.5q4 36 12 83t19 105q-42 -6 -82.5 -11.5t-82.5 -12.5q-16 -69 -26 -129.5t-18 -108.5q-4 -17 -12.5 -22t-34.5 1q-25 7 -51.5 14
t-45.5 18q-23 11 -33 25.5t-4 40.5q15 69 28 161t25 192t23.5 199.5t23.5 183.5q8 32 23 38t44 -5q32 -9 68.5 -24.5t63.5 -33.5q15 -9 23.5 -17t12 -16t2.5 -18t-4 -23q-16 -57 -33.5 -134l-37.5 -165q42 5 82.5 8t78.5 6q25 106 48.5 210.5t46.5 189.5q9 32 25.5 36.5
t47.5 -4.5q29 -8 60 -22.5t59 -32.5q26 -19 31.5 -33t-2.5 -40z" />
    <glyph glyph-name="i" unicode="i" horiz-adv-x="312" 
d="M259 794q28 -19 33.5 -33t-1.5 -41q-14 -45 -30.5 -103t-33 -122.5t-32.5 -132t-31 -132t-27.5 -122t-21.5 -102.5q-5 -17 -13.5 -22t-34.5 1q-26 7 -49.5 14t-44.5 18q-23 11 -30.5 25.5t-4.5 40.5q2 35 8.5 90.5t16 121.5t21.5 139t24.5 143t25.5 132.5t24 109.5
q9 29 24.5 35.5t46.5 -2.5q31 -8 67 -24t63 -34z" />
    <glyph glyph-name="j" unicode="j" horiz-adv-x="627" 
d="M138 -13q-39 9 -67.5 23t-49.5 32t-35 39t-24 44q-16 33 -19 68.5t3 81.5q6 35 21.5 51.5t50.5 0.5q117 -47 120 -125q4 -50 10 -72.5t30 -25.5q21 -1 41 35t39 95.5t36 136t32 157t27.5 158.5t21.5 141q6 30 22.5 36.5t47.5 -1.5q30 -8 66.5 -22t65.5 -32
q15 -10 23 -17.5t11.5 -15.5t3 -17.5t-3.5 -22.5q-25 -147 -53 -268t-60.5 -213t-70.5 -154t-82 -90q-35 -21 -83.5 -30.5t-123.5 7.5z" />
    <glyph glyph-name="k" unicode="k" horiz-adv-x="664" 
d="M332 303q44 42 93 90t94.5 96.5t84 95t61.5 84.5q19 31 21.5 52t-5.5 43q-13 27 -27.5 50t-36.5 42q-21 18 -38 18q-15 0 -32 -22q-26 -32 -66.5 -78t-87 -97t-95.5 -103.5t-91 -98.5q17 78 32 143.5t30 116.5q4 13 5 22.5t-3 17.5t-13 15.5t-24 17.5q-27 18 -63.5 34
t-68.5 24q-29 9 -45 2.5t-24 -34.5q-10 -47 -21 -111t-22 -135.5t-21 -146t-18 -142.5t-13 -124.5t-6 -91.5q-2 -37 18 -55t65 -30q22 -6 40.5 -11.5t31.5 -6t20 5t7 20.5q8 45 18 100t23 121q21 -30 45.5 -60.5t47 -57.5t41.5 -48t30 -33q27 -29 54 -33t53 3q17 2 34.5 7
t30.5 12q22 10 25.5 20.5t-13.5 27.5q-16 18 -37 45t-44 59t-46.5 66.5t-43.5 67.5z" />
    <glyph glyph-name="l" unicode="l" horiz-adv-x="532" 
d="M383 41q-63 -12 -129.5 -24.5t-126.5 -24.5q-22 -6 -37 -7t-26 1.5t-18.5 6.5t-14.5 9q-17 11 -31 22.5t-37 29.5q-17 14 -26 31.5t-5 42.5q3 39 10 92.5t17 115.5t22 128.5t26 132.5t28.5 127t28.5 112q10 29 25.5 34.5t46.5 -3.5q31 -8 67 -22.5t63 -32.5
q26 -19 32.5 -33t-2.5 -40q-20 -60 -40.5 -132t-41 -148t-39 -151.5t-34.5 -144.5q46 8 86 12t87 7q28 2 42.5 -3.5t26.5 -24.5q12 -18 19.5 -36.5t11.5 -35.5q7 -21 3.5 -28t-34.5 -13z" />
    <glyph glyph-name="m" unicode="m" horiz-adv-x="924" 
d="M187 489q15 -100 33.5 -194t38.5 -166q5 -17 9.5 -28t10.5 -18.5t14 -12t19 -8.5q30 -10 70 -18q13 -3 21 -2.5t13 3.5t8.5 9.5t8.5 17.5q16 35 42.5 87.5t58 111.5t65 120t63.5 113q-17 -59 -31.5 -122t-26.5 -120.5t-21 -105t-13 -77.5q-5 -25 2.5 -40t30.5 -26
q18 -10 42 -17t47 -12q26 -6 35 2t16 26q8 35 22 88t31.5 116t37 132t39 136t38.5 128t34 108q11 33 3.5 51.5t-36.5 32.5q-44 20 -89.5 35t-86.5 26q-35 10 -57.5 8t-40.5 -17.5t-35 -45t-40 -75.5q-23 -40 -47.5 -85t-47.5 -90t-44.5 -88t-37.5 -79q-16 103 -25 162
t-13.5 91t-6 44.5t-1.5 21.5q-4 19 -7.5 34t-11.5 27.5t-22 23t-38 19.5q-38 14 -75.5 24t-91.5 18q-35 5 -51.5 -3.5t-25.5 -42.5q-9 -47 -18.5 -108.5t-19 -130.5t-17.5 -140t-14.5 -137t-10 -122.5t-3.5 -95.5q-2 -26 7 -40t34 -26q20 -10 43.5 -17.5t46.5 -12.5
q24 -5 33 0.5t13 23.5q4 43 11.5 98t17.5 118t22 131t25 136z" />
    <glyph glyph-name="n" unicode="n" horiz-adv-x="702" 
d="M392 327q20 131 49.5 258t58.5 234q8 29 24.5 36t48.5 -1q15 -4 27 -7t23.5 -8t24.5 -12t30 -18q29 -18 32.5 -36.5t-4.5 -44.5q-23 -74 -48 -168t-49.5 -191t-47 -189.5t-38.5 -162.5q-6 -38 -60 -26q-46 9 -94 26q-44 17 -62 60q-14 31 -28.5 72t-29.5 88.5t-30 99
t-28 103.5q-11 -62 -22.5 -124t-22 -118.5t-19 -105t-13.5 -84.5q-4 -17 -13 -21.5t-35 2.5q-24 6 -48.5 12.5t-47.5 20.5q-22 11 -29.5 25.5t-5.5 40.5q2 27 6.5 77t12 113.5t17 136t20.5 144.5t22.5 139t22.5 119q7 30 25 37.5t49 -0.5q37 -11 72 -22t73 -29
q31 -13 44 -32.5t19 -57.5q5 -29 13 -74t18 -97.5t21 -108t22 -106.5z" />
    <glyph glyph-name="o" unicode="o" 
d="M541 790q38 -31 55.5 -65.5t25.5 -78.5q11 -73 5 -158.5t-29.5 -170t-64 -159.5t-99.5 -127q-40 -31 -84 -41.5t-101 -4.5q-38 4 -78 12.5t-73 25.5q-27 14 -53 36t-41 50q-24 46 -36 104t-11 122t15 130.5t41 129.5t66.5 119.5t91.5 101.5q35 27 83.5 41t92.5 7
q57 -9 108.5 -28t85.5 -46zM380 690q-21 7 -47 -17.5t-52 -66.5t-48.5 -93.5t-36.5 -99.5q-14 -47 -20 -97.5t-4 -94t14 -74.5t35 -38q21 -7 44 9t46 49t43.5 81.5t35.5 105.5q13 47 21 103.5t8 105.5q0 50 -9.5 85.5t-29.5 41.5z" />
    <glyph glyph-name="p" unicode="p" horiz-adv-x="708" 
d="M185 215q-12 -57 -22.5 -110t-18.5 -104q-5 -16 -14 -21t-35 0q-26 7 -50.5 13.5t-43.5 17t-28.5 26.5t-3.5 42q9 24 16.5 81t13.5 129.5t12 150.5t12 144t13.5 110.5t17.5 49.5q38 20 84 41.5t95 39t98.5 29t95.5 12.5t85.5 -10.5t68.5 -39.5q34 -38 62.5 -81.5
t44.5 -106.5q7 -31 3.5 -58t-15 -51t-29 -46t-38.5 -43q-34 -34 -81.5 -66t-103.5 -60t-117.5 -50.5t-121.5 -38.5zM228 403q71 22 124 54.5t87 67t48 66.5t6 54q-3 12 -21.5 18.5t-47 5.5t-64 -9t-72.5 -24q-16 -54 -30.5 -112t-29.5 -121z" />
    <glyph glyph-name="q" unicode="q" horiz-adv-x="693" 
d="M552 38q17 -17 15 -27t-21 -19q-18 -10 -36 -15.5t-36 -9.5q-45 -7 -77 19q-5 5 -9 8t-9 6q-28 -13 -61 -15t-69 0q-40 3 -79 12t-72 26q-27 14 -53 36t-41 50q-24 46 -36 104t-10.5 122t15 130.5t40.5 129.5t66.5 119.5t92.5 101.5q34 27 82.5 41t92.5 7
q57 -9 108.5 -28t85.5 -46q38 -31 54.5 -65.5t24.5 -78.5q10 -61 7.5 -133t-17.5 -145t-42.5 -142t-68.5 -124q16 -17 27.5 -33t25.5 -31zM265 119q-8 7 -13.5 14t-11.5 15q-26 28 11 45q17 9 39.5 15.5t50.5 11.5q31 57 47 134q10 34 17 74.5t10.5 80.5t2 76t-7.5 62
q-6 30 -20 39.5t-32 2t-38.5 -30t-40.5 -54.5q-40 -65 -65.5 -140t-38.5 -150q-4 -38 -3.5 -72t5.5 -61.5t16 -46t28 -25.5q20 -8 44 10z" />
    <glyph glyph-name="r" unicode="r" horiz-adv-x="727" 
d="M181 234q-14 -61 -25.5 -117t-22.5 -110q-5 -16 -13.5 -21t-31.5 0q-27 7 -48 11t-40 14q-19 11 -26 26.5t-5 41.5q2 21 5.5 61t8.5 90.5t11.5 108.5t14 116t16.5 112.5t19 98t22 72t25 35.5q62 28 129.5 55t133 38.5t124 2t102.5 -52.5q35 -38 63.5 -81.5t44.5 -106.5
q13 -67 -10 -110q-35 -69 -115.5 -127t-192.5 -108q23 -26 50.5 -55t56.5 -58t57.5 -56t53.5 -47q20 -17 18 -27t-17 -21q-18 -14 -30.5 -16.5t-30.5 -5.5q-22 -6 -48.5 -3.5t-61.5 23.5q-23 16 -53 40t-62 53t-64 60.5t-58 63.5zM288 640q-16 -51 -31 -109t-34 -124
q69 23 122.5 56.5t89.5 68t52 65.5t10 48q-12 28 -71 28q-29 0 -64 -7t-74 -26z" />
    <glyph glyph-name="s" unicode="s" horiz-adv-x="601" 
d="M-83 202q18 8 38 11t40 2t38.5 -6.5t33.5 -15.5q85 -53 148 -68t91 8q12 8 5.5 19.5t-25 26.5t-46 33t-58.5 37t-62 39.5t-56 41.5q-28 22 -49.5 50.5t-33.5 61.5t-13 70t12 78q9 36 30.5 76t51 77.5t65 70t72.5 55.5q12 9 31 17.5t43 12.5t52 2.5t58 -10.5
q45 -16 90.5 -40t76.5 -52q20 -19 31 -38t15.5 -37t5 -35.5t0.5 -32.5q-4 -26 -11 -59t-16.5 -67t-20 -65t-21.5 -52q-12 -20 -24.5 -25.5t-37.5 5.5q-137 46 -126 132q2 18 7.5 41t11 46.5t9.5 44.5t2.5 33.5t-10 15t-27.5 -11.5q-17 -9 -37.5 -27.5t-39 -42t-32.5 -50.5
t-19 -54.5t1 -54t29 -47.5q29 -28 65 -52.5t71.5 -47.5t67 -45.5t52 -46t26 -49.5t-10.5 -56q-10 -21 -28 -45.5t-48 -45.5t-73 -35t-103 -15q-81 -2 -157.5 29t-157.5 107q-44 37 -46 57q-2 19 19 29z" />
    <glyph glyph-name="t" unicode="t" horiz-adv-x="664" 
d="M642 702q31 2 36.5 10.5t-0.5 31.5q-7 26 -20 53t-33 50q-10 13 -23.5 18.5t-44.5 5.5q-59 -2 -133.5 -7.5t-152 -13.5t-152 -18t-133.5 -22q-19 -5 -25 -12.5t6 -30.5q11 -22 28.5 -54t38.5 -53q20 -21 36 -25.5t41 1.5q18 5 45 8.5t56 8.5q-15 -68 -30 -147.5
t-27.5 -157.5t-21.5 -148t-12 -118q-4 -19 1 -32.5t16.5 -23.5t28.5 -17t38 -13t38 -11t30 -5.5t20.5 4t9.5 18.5q14 73 32.5 157t39.5 172.5t43.5 178.5l43.5 174q49 5 95 9.5t85 8.5z" />
    <glyph glyph-name="u" unicode="u" horiz-adv-x="676" 
d="M-5 102q-21 35 -30.5 83.5t-9.5 106.5t8 123t21 132t29.5 134.5t34.5 131.5q8 29 23.5 35t47.5 -5q30 -9 57.5 -23t53.5 -33q54 -39 37 -100q-16 -52 -33.5 -112.5t-32.5 -122.5t-25.5 -121t-13 -106t5 -78t29.5 -37q27 -7 53 26t49.5 91.5t45 135.5t40 158.5t33.5 160.5
t27 141q2 30 22 36t48.5 -1.5t61 -24t59.5 -32.5q14 -9 21.5 -16.5t10.5 -15.5t2 -17.5t-4 -22.5q-30 -143 -60.5 -262.5t-64.5 -211.5t-74 -154t-89 -90q-35 -17 -70 -23.5t-80 -3.5q-90 6 -148 38q-25 14 -47 33t-38 47z" />
    <glyph glyph-name="v" unicode="v" horiz-adv-x="699" 
d="M700 718q-14 -44 -37 -102t-51 -123.5t-59 -134.5t-62 -134t-59 -122t-50 -98q-14 -24 -33 -30.5t-54 2.5q-35 10 -65 20t-63 26q-37 17 -56.5 45.5t-25.5 52.5q-35 137 -62.5 308.5t-49.5 376.5q-2 27 4.5 38t36.5 11q29 0 53.5 -4t51.5 -15q66 -24 75 -88
q6 -49 13.5 -111t15.5 -131t17.5 -143.5t20.5 -147.5q66 145 128.5 306t125.5 319q8 18 21 24.5t29.5 4t35 -11t37.5 -20.5q20 -11 36 -22.5t25 -25.5t9.5 -31t-8.5 -39z" />
    <glyph glyph-name="w" unicode="w" horiz-adv-x="961" 
d="M164 262q0 60 1.5 126.5t4 128t5 111.5t3.5 76q1 13 0 28.5t-5.5 30t-13.5 27.5t-24 22q-26 15 -56 23.5t-67 16.5q-32 7 -43 -2t-12 -41q0 -57 1 -123.5t4 -136t7 -139.5t9 -134q5 -61 11.5 -114.5t14.5 -94.5q3 -28 13.5 -41.5t34.5 -21.5q26 -8 54.5 -15.5t59.5 -12.5
q23 -3 36.5 0.5t25.5 23.5q11 25 29 63.5t39.5 83.5t45.5 92.5t47 91.5q0 -35 3.5 -72t7.5 -72.5t8.5 -65.5t7.5 -51q4 -21 16 -38.5t40 -27.5q14 -3 25.5 -6.5t23 -6.5t24.5 -6.5t31 -6.5q32 -5 49 0t27 24q18 41 43 96t53.5 117.5t60 129t62.5 130.5t61 123t55 105
q12 26 13 51t-22 47q-21 17 -43.5 30.5t-45.5 24.5q-32 13 -47 9.5t-30 -34.5q-12 -23 -29.5 -59.5t-39 -82.5t-46 -98.5t-49.5 -107.5t-49.5 -109.5t-45.5 -103.5q4 59 8.5 121t8.5 117t7 96t3 58q0 15 -0.5 26t-4 19t-11 14t-22.5 12q-27 11 -46.5 18t-48.5 13
q-29 7 -43.5 1t-26.5 -28q-16 -26 -41.5 -81t-55 -122t-60 -139t-56.5 -133z" />
    <glyph glyph-name="x" unicode="x" horiz-adv-x="708" 
d="M303 593q-21 51 -40.5 97.5t-35.5 87.5q-14 29 -33 46.5t-54 22.5q-17 1 -33 1.5t-31 0.5h-29h-15t-15 -1q-29 -4 -35 -15.5t6 -43.5q13 -32 31.5 -74t40 -90t45.5 -99.5t48 -102.5q-71 -90 -129.5 -171.5t-93.5 -137.5q-8 -12 -10.5 -21t-2.5 -16q1 -9 11 -22
t24.5 -26.5t30.5 -25.5t30 -20q39 -25 63 5q35 42 78.5 99.5t97.5 122.5q32 -68 55.5 -114.5t35.5 -63.5q17 -24 32 -34.5t42 -13.5q54 -5 104 0q44 6 21 41q-29 67 -65.5 153.5t-78.5 186.5q75 88 144.5 168.5t123.5 143.5q18 21 23 44t-12 50q-14 22 -36 47.5t-45 43.5
q-11 7 -22 11t-22 4q-21 0 -41 -23q-42 -47 -94.5 -114t-113.5 -147z" />
    <glyph glyph-name="y" unicode="y" horiz-adv-x="651" 
d="M644 714q-17 -38 -50.5 -94t-75.5 -121t-89 -134t-91 -132q-17 -67 -29 -124.5t-23 -111.5q-5 -20 -14 -24t-35 2q-24 6 -50 14.5t-48 17.5q-22 14 -29 27.5t-5 39.5q7 43 13 99.5t18 125.5q-21 60 -45 127t-48 134.5t-46.5 132t-40.5 120.5q-11 27 -5.5 36.5t31.5 14.5
q31 2 59.5 3.5t58.5 -5.5t43.5 -22.5t29.5 -47.5q23 -60 48 -137t52 -163q54 86 106 176t104 183q9 25 29 26.5t43 -10t45.5 -30.5t38.5 -34q9 -11 14 -20.5t5.5 -19.5t-3.5 -21.5t-11 -27.5z" />
    <glyph glyph-name="z" unicode="z" horiz-adv-x="562" 
d="M304 661q-45 -8 -81.5 -12.5t-71.5 -12.5q-26 -5 -48 1t-42 29q-6 9 -13.5 21t-15.5 26t-15.5 27.5t-13.5 25.5q-9 23 -3.5 31t25.5 15q45 10 101.5 19t117.5 15.5t123 11t117 7.5q30 1 44 -7.5t25 -31.5q13 -27 18.5 -47.5t11.5 -38.5q8 -23 5.5 -43.5t-22.5 -43.5
q-105 -127 -210.5 -258t-200.5 -254q37 9 73.5 14.5t77.5 10.5q55 6 75 -27q12 -19 20.5 -37t12.5 -35q8 -20 0 -28t-34 -11q-64 -12 -135 -24.5t-131 -26.5q-20 -5 -34 -5.5t-25 1.5t-19.5 6.5t-17.5 9.5q-17 12 -32 24t-38 30q-7 7 -14.5 15t-12 17t-5 19.5t6.5 22.5
q23 41 63.5 104t92 137t109.5 152.5t116 150.5z" />
    <glyph glyph-name="braceleft" unicode="{" horiz-adv-x="508" 
d="M368 35q-5 17 -11.5 33t-18.5 33q-21 33 -66 28q-17 -1 -33 -2t-33 -2q12 60 28 130t34 143t37.5 145t39.5 136q35 3 68 6.5t62 6.5q29 4 37 12.5t0 32.5q-5 23 -11 42t-19 42q-23 45 -73 44q-42 -1 -91 -3.5t-94 -9.5q-30 -3 -43 -15t-18 -32q-19 -72 -37.5 -156
t-37.5 -174q-33 -5 -60 -8t-47 -9q-35 -9 -20 -45q9 -20 21.5 -45.5t29.5 -44.5q14 -14 21 -19t21 -7q-9 -55 -16 -100t-14 -85q-4 -29 3 -46t27 -32q15 -11 29 -22t28 -20q17 -11 35 -16t50 1q35 6 71.5 12t68.5 11q26 0 33 8t-1 27z" />
    <glyph glyph-name="bar" unicode="|" horiz-adv-x="537" 
d="M371 881q29 -19 35 -34t-4 -42q-13 -47 -31 -116t-38.5 -149.5t-41.5 -165.5t-39.5 -164t-33.5 -145t-22 -108q-5 -18 -13 -23.5t-34 0.5q-23 6 -42 13t-37 15q-23 11 -29.5 24.5t-4.5 37.5q4 35 13.5 100t23 146t29 171t31.5 176t30.5 159.5t26.5 122.5q10 29 26 36
t47 -4q26 -11 53.5 -21t54.5 -29z" />
    <glyph glyph-name="braceright" unicode="}" horiz-adv-x="565" 
d="M416 698q-15 -52 -32 -111t-38 -122q47 0 67 -39q11 -20 17 -41t14 -41q10 -22 -1 -31t-33.5 -12.5t-52 -5t-56.5 -7.5q-19 -75 -34.5 -139t-26.5 -115q-4 -14 -14.5 -23.5t-42.5 -10.5q-35 -5 -68.5 -9t-65.5 -9q-25 -4 -38.5 1.5t-25.5 17.5q-6 7 -15.5 19t-18 25
t-14 25t-3.5 18q3 7 16.5 13t33.5 10.5t44 8t48 6.5q10 57 24.5 127t31.5 144t35 147t34 138q-14 -1 -27 -3t-27 -3q-30 -3 -45 3.5t-30 29.5q-14 22 -22.5 41.5t-17.5 41.5q-10 23 4 34t34 15q41 8 91.5 13t107.5 10q29 2 45.5 -4t33.5 -25q14 -14 26.5 -28.5t26.5 -33.5
q18 -22 19.5 -37t-4.5 -38z" />
    <glyph glyph-name="asciitilde" unicode="~" horiz-adv-x="742" 
d="M504 552q34 0 72.5 16t85.5 48q96 63 99 112q1 24 -31 40q-25 13 -55 13q-35 0 -69 -25q-5 -5 -17 -16.5t-25.5 -23t-26 -20t-18.5 -7.5q-22 2 -44 9.5t-43.5 17t-42.5 19t-41 15.5q-35 13 -67.5 19.5t-64.5 6.5q-27 0 -67 -13.5t-78.5 -33t-69.5 -42t-41 -40.5
q-14 -24 -13 -43q3 -48 76 -48q39 0 68 18q3 0 13.5 8.5t25 19t30.5 19t29 8.5q16 0 39 -3.5t47 -9.5t45 -13.5t32 -15.5q25 -18 63 -26.5t89 -8.5z" />
    <glyph glyph-name="exclamdown" unicode="&#xa1;" horiz-adv-x="400" 
d="M-11 11q24 -14 54.5 -25.5t56.5 -16.5q29 -8 41.5 -3t20.5 28q15 50 34.5 119t38 144t35.5 149.5t28 135.5q7 31 0.5 47t-31.5 30q-24 13 -49.5 22.5t-53.5 14.5q-26 7 -37.5 1.5t-16.5 -30.5q-14 -65 -32.5 -136t-38.5 -142.5t-40.5 -141t-39.5 -132.5q-8 -21 -1 -35.5
t31 -28.5zM366 795q3 31 -6 55.5t-25.5 41.5t-39.5 25.5t-50 8.5q-26 0 -47 -10t-36 -24.5t-24.5 -31t-13.5 -28.5q-5 -15 -4 -35.5t10.5 -40t28 -36.5t48.5 -26q34 -11 62.5 -6t48.5 20t32.5 38t15.5 49z" />
    <glyph glyph-name="cent" unicode="&#xa2;" horiz-adv-x="558" 
d="M412 266q28 -8 29.5 -24t-11.5 -40q-13 -27 -34 -50t-42 -37q-21 -15 -56 -23.5t-67 -6.5h-3q-8 -29 -14.5 -57.5t-9.5 -50.5q-4 -17 -13.5 -19.5t-29.5 7.5q-35 17 -48.5 51.5t-11.5 70.5q-1 8 0 16l2 16q-17 9 -33.5 23.5t-26.5 33.5q-28 48 -31 120t16 149.5t58 149.5
t96 120q27 22 54 30.5t51 8.5q15 45 28 89.5t25 74.5q19 43 62 13q35 -23 52 -57.5t6 -81.5q-5 -17 -9.5 -38.5t-11.5 -43.5l19 -11q30 -23 39.5 -45.5t10.5 -51.5q1 -16 0 -34t-3 -36t-5 -34.5t-7 -29.5q-5 -12 -11 -19.5t-32 -2.5q-47 10 -67.5 30.5t-27.5 58.5
q-1 7 -2 13t-1 14q0 23 -2.5 42.5t-16.5 24.5q-14 4 -34 -17t-40.5 -55t-39 -75t-28.5 -76q-11 -37 -15.5 -74t-3 -68t9.5 -52t23 -25q32 -10 92 53q42 45 115 26z" />
    <glyph glyph-name="sterling" unicode="&#xa3;" horiz-adv-x="660" 
d="M61 473q14 2 27.5 2.5t27.5 2.5q-4 -20 -8 -41t-7 -41q-36 -3 -69 -7.5t-65 -9.5q-19 -3 -28.5 -14t2.5 -31q9 -16 21 -35t26 -34q14 -17 29 -21.5t39 -0.5l19 4q-5 -35 -8.5 -65t-6.5 -54q-4 -25 5 -42.5t27 -31.5q23 -18 36.5 -29.5t30.5 -22.5q7 -5 14.5 -9t18 -6.5
t26 -1.5t37.5 7q60 12 126.5 24.5t130.5 24.5q15 3 23 6t11 7t1.5 10.5t-5.5 17.5q-4 17 -11 35.5t-19 36.5q-11 19 -26.5 24.5t-41.5 3.5q-47 -3 -87.5 -7t-85.5 -12q5 26 12 53.5t14 55.5q43 4 86.5 6t87.5 4q23 1 30 7.5t-1 25.5q-5 16 -11.5 31.5t-18.5 32.5
q-17 32 -62 32q-18 0 -36 0.5t-38 -0.5l20 79h71q36 0 73 -1q44 -6 34 31q-5 17 -11.5 33.5t-15.5 36.5q-14 33 -63 38q-11 1 -22.5 1.5t-23.5 2.5q9 28 17.5 54.5t16.5 52.5q10 26 4 40t-33 33q-26 18 -62.5 32.5t-67.5 22.5q-29 9 -45.5 3.5t-26.5 -34.5
q-13 -44 -25.5 -95t-26.5 -107q-44 -2 -86.5 -4.5t-79.5 -7.5q-20 -3 -31.5 -13t-1.5 -33q7 -18 19 -38.5t24 -37.5q14 -20 29 -25t41 -2z" />
    <glyph glyph-name="currency" unicode="&#xa4;" horiz-adv-x="768" 
d="M57 420q7 1 12 1q6 0 13 1q-4 -20 -7.5 -40.5t-5.5 -40.5q-26 -2 -51.5 -5.5t-51.5 -7.5q-19 -3 -28 -14t3 -31q9 -15 21.5 -33.5t26.5 -33.5q14 -16 28.5 -21t39.5 0q5 1 8 1t7 1q9 -59 37 -106q14 -28 41 -49t54 -32q30 -10 68 -21.5t85 -14.5q22 -2 45.5 0t45 7t41 13
t33.5 17q29 20 57 50t47 66q17 31 15.5 52t-39.5 31q-95 27 -154 -33q-83 -84 -123 -71q-23 7 -33 38.5t-11 77.5q47 4 92.5 6.5t93.5 4.5q23 1 30 7t0 25q-6 15 -12.5 30.5t-20.5 32.5q-18 31 -61 31q-26 1 -52 0.5t-55 -1.5q2 10 4.5 20t7.5 20q2 10 5 19t7 20
q42 1 85 0.5t87 -1.5q23 -3 30.5 4t2.5 27q-5 17 -11.5 33t-15.5 36q-18 33 -64 36l-50 4q16 28 32.5 53t32 42.5t29.5 26t25 5.5q20 -8 24 -34t3 -58q-1 -10 -0.5 -19t2.5 -20q4 -25 12.5 -44t23.5 -33.5t38 -25t55 -16.5q16 -3 26 -2t16 5t9.5 11t6.5 15q6 18 11 40.5
t8 47t4.5 49.5t1.5 48q-1 40 -13 71t-51 63q-20 13 -45 25.5t-53 23t-57.5 18t-57.5 10.5q-38 3 -81.5 -8t-86.5 -47q-55 -47 -97.5 -110t-72.5 -135q-42 -2 -79.5 -5t-72.5 -6q-20 -3 -31 -13t-1 -32q8 -18 20 -38t23 -37q15 -20 29.5 -24.5t39.5 -2.5z" />
    <glyph glyph-name="yen" unicode="&#xa5;" horiz-adv-x="651" 
d="M74 292l62 7q-3 -21 -6 -40l-6 -38q-38 -3 -72.5 -7.5t-67.5 -9.5q-18 -3 -27 -13.5t2 -29.5q9 -15 21 -32.5t25 -32.5q14 -15 28.5 -19.5t38.5 -0.5q8 2 16.5 3t17.5 2q-1 -2 -0.5 -3.5t0.5 -3.5q-3 -26 4 -39.5t29 -27.5q22 -9 48 -17.5t50 -14.5q26 -6 35 -2t14 24
q5 26 10.5 52.5t10.5 53.5q42 3 83 5t85 4q21 2 28.5 8t-0.5 23q-5 15 -11.5 29.5t-19.5 31.5q-18 30 -59 30q-18 0 -36.5 0.5t-37.5 -0.5q14 18 26.5 36t26.5 38q26 0 53 -0.5t55 -0.5q22 -2 30 4.5t3 25.5q-5 16 -11.5 31t-15.5 35q-6 9 -13 16.5t-18 11.5q28 42 54.5 83
t48.5 77.5t39.5 67.5t28.5 55q7 16 11 27.5t3.5 21.5t-5 19.5t-13.5 20.5q-16 15 -39 34t-46 30.5t-42.5 10t-29.5 -26.5q-52 -93 -104.5 -183t-105.5 -176q-27 86 -52.5 163t-47.5 137q-8 16 -14.5 27.5t-14.5 20t-18.5 14t-25.5 8.5q-29 7 -58 5.5t-59 -3.5
q-27 -5 -32.5 -14.5t5.5 -36.5q13 -41 28 -86t31.5 -93t33.5 -97t34 -97q-24 -2 -46 -4t-42 -4q-19 -2 -30 -11.5t-2 -31.5q8 -17 19.5 -36t22.5 -35q14 -19 28.5 -23.5t38.5 -2.5z" />
    <glyph glyph-name="brokenbar" unicode="&#xa6;" horiz-adv-x="429" 
d="M371 881q30 -19 35.5 -34t-4.5 -42q-13 -47 -22 -79t-15.5 -56t-12.5 -43.5t-13 -42t-16 -50.5t-22 -69q-7 -22 -15.5 -28.5t-36.5 0.5q-26 8 -46 16t-40 17q-25 14 -32 29.5t-3 44.5q4 42 7.5 70t6.5 49.5t6.5 41t9 45t13.5 60.5t20 89q10 29 25.5 36t46.5 -4
q27 -11 54.5 -21t53.5 -29zM246 311q28 -16 33 -28t-3 -35q-11 -39 -18.5 -66t-13 -47.5t-10 -37t-10 -35t-13 -42.5t-18.5 -58q-5 -18 -13 -23.5t-34 0.5q-23 6 -42 13t-37 15q-23 11 -29.5 24.5t-4.5 37.5q3 35 5.5 58t4.5 41.5t4.5 35t6.5 37.5t10.5 50.5t16.5 74.5
q8 24 22.5 30t42.5 -3q25 -10 50 -18.5t50 -23.5z" />
    <glyph glyph-name="section" unicode="&#xa7;" horiz-adv-x="904" 
d="M-56 175q17 7 37 10t40 1.5t39 -7t34 -14.5q85 -51 147.5 -65.5t90.5 6.5q16 11 -6 31.5t-62.5 46t-89.5 55.5t-87 60q-28 21 -50 48.5t-34.5 59.5t-15 68.5t9.5 76.5q8 34 28.5 72.5t49 75t62.5 68.5t69 54q12 9 31 17.5t42.5 12.5t51 2.5t56.5 -10.5q4 -2 8.5 -3
t8.5 -3q32 37 67.5 70t73.5 55q12 10 31.5 18.5t44 12.5t52 3t56.5 -11q46 -17 91.5 -41t74.5 -53q20 -19 30.5 -38t14.5 -37.5t4 -35.5v-33q-4 -28 -12 -61t-18.5 -66.5t-22 -64t-23.5 -53.5q-11 -21 -24.5 -26.5t-37.5 4.5q-137 48 -124 135q2 17 8 40.5l12 47t10.5 44.5
t3.5 34.5t-9.5 15.5t-27.5 -12q-17 -9 -37.5 -27.5t-39.5 -42.5t-34.5 -51.5t-21.5 -55.5t-0.5 -55t28.5 -48q28 -28 63.5 -52.5t71 -47.5t66.5 -46t51 -47t25.5 -50.5t-11.5 -56.5q-11 -21 -30 -45.5t-49.5 -45.5t-74.5 -35.5t-105 -15.5q-33 -2 -63 3q-12 -19 -31 -38
t-46.5 -34.5t-65.5 -25.5t-88 -11q-79 -2 -156 28t-159 104q-45 40 -46 55q-2 19 18 30zM258 384q23 -21 50.5 -40.5t56 -37.5t56 -35t50.5 -35q57 -26 98.5 -30.5t63.5 12.5q14 9 2 24.5t-39.5 35.5t-65 43.5t-73.5 48.5q-44 23 -80 58.5t-53 76.5q-6 12 -9 32.5t-4.5 43
t-2 44t-0.5 35.5q-10 5 -29 -2.5t-43 -25.5q-24 -14 -36.5 -42.5t-11 -64t18 -73t51.5 -68.5z" />
    <glyph glyph-name="dieresis" unicode="&#xa8;" horiz-adv-x="630" 
d="M371 1057q1 21 11 40t26.5 31.5t38.5 17t49 -3.5q35 -13 51 -37t15 -48q-1 -9 -2.5 -15.5t-2.5 -14.5q-3 -9 -10.5 -21.5t-19 -23.5t-27.5 -18.5t-36 -7.5q-20 -1 -38 6t-31 20t-19.5 32t-4.5 43zM60 1057q1 22 10 41.5t24.5 32t37.5 17t48 -4.5q38 -13 55 -36.5
t17 -49.5q0 -16 -6 -29q-2 -9 -8 -21t-17.5 -23t-27 -18.5t-35.5 -7.5q-20 -1 -38 5.5t-31.5 20t-21.5 32t-7 41.5z" />
    <glyph glyph-name="copyright" unicode="&#xa9;" horiz-adv-x="1249" 
d="M1238 750q-36 59 -101 109.5t-141 88t-155 59t-144 21.5q-115 0 -224 -43.5t-201 -115.5t-161 -165.5t-104 -194t-30.5 -200t59.5 -183.5q26 -42 63 -73t94 -53q80 -31 177 -42.5t199.5 -5t204.5 31t192.5 66t163.5 100t117 133.5q31 54 48.5 118.5t18 128t-17.5 121.5
t-58 99zM1132 363q-26 -35 -55 -70.5t-62.5 -67.5t-71.5 -59.5t-80 -46.5q-62 -28 -118.5 -47.5t-118 -27t-134 -1.5t-165.5 30q-87 21 -131.5 70t-54.5 114.5t10.5 141t63.5 149.5t104.5 141t132.5 115.5t148 72.5t151 11q61 -10 120.5 -39.5t111 -72t91.5 -94t62 -106.5
t22.5 -110t-26.5 -103zM765 287q-35 11 -63.5 4t-49.5 -29q-60 -65 -91 -54q-15 4 -23 25t-9.5 52t3 68t14.5 74q10 35 27.5 75.5t37.5 74.5t39.5 55t33.5 17q15 -6 18.5 -25t3.5 -42q0 -8 0.5 -14t0.5 -13q7 -37 28 -57.5t68 -30.5q25 -5 31.5 1.5t11.5 19.5q8 26 12 64.5
t3 70.5q-2 29 -12 51t-39 45q-28 19 -70 34.5t-83 19.5q-28 2 -59.5 -5.5t-61.5 -33.5q-56 -48 -94.5 -119.5t-57.5 -148.5t-15.5 -149t31.5 -120q11 -22 31 -38t40 -24q23 -8 51 -17t63 -11q35 -3 68.5 5.5t56.5 22.5q20 16 40 38.5t34 50.5q12 23 11 39t-30 24z" />
    <glyph glyph-name="ordfeminine" unicode="&#xaa;" horiz-adv-x="411" 
d="M315 564q28 0 40 -24q6 -13 9 -23.5t8 -22.5q2 -14 -2 -19t-21 -6q-29 -2 -60 -3q-12 -47 -22 -87.5t-16 -73.5q-4 -12 -10 -16t-24 1q-12 3 -27.5 8.5t-29.5 13.5q-14 10 -18 19t-1 27q2 17 6.5 40.5t12.5 55.5q-29 -3 -57.5 -6t-55.5 -8q-14 -2 -26 -1.5t-26 13.5
q-14 12 -29 27t-28 31q-8 13 -8.5 25.5t9.5 27.5q19 32 48.5 72t63.5 80.5t69 78t64 63.5q16 13 26 14.5t30 -4.5q9 -3 24.5 -10t33 -15.5t33.5 -17t26 -14.5q17 -11 20 -20t-3 -26q-13 -39 -27.5 -91t-31.5 -109zM58 549q28 3 60.5 5.5t65.5 4.5q12 45 23 89.5t24 86.5
q-48 -41 -92 -92t-81 -94z" />
    <glyph glyph-name="guillemotleft" unicode="&#xab;" horiz-adv-x="936" 
d="M-40 392q3 22 7 41t10 36q8 20 17.5 29t31.5 17q83 23 147.5 46t127.5 51q18 10 30.5 8.5t32.5 -15.5q19 -14 38.5 -33.5t38.5 -39.5q13 -17 6 -27t-21 -17q-45 -20 -109.5 -42t-132.5 -42q76 -31 152 -56q12 -3 19 -6.5t11.5 -8t8 -11t7.5 -16.5q4 -17 5 -40t-2 -42
q-4 -15 -17 -18t-30 2q-33 10 -74.5 24.5t-87.5 31.5t-93 36.5t-90 38.5q-20 9 -29 18.5t-4 34.5zM439 368q5 22 11 41t13 36q8 20 18.5 28.5t34.5 16.5q84 24 150 46.5t130 50.5q20 10 31.5 8.5t31.5 -15.5q18 -14 35.5 -33t34.5 -40q13 -17 5.5 -26.5t-23.5 -17.5
q-47 -20 -112.5 -41.5t-135.5 -41.5q38 -16 74.5 -29.5t72.5 -25.5q12 -3 18.5 -6.5t11 -8t7.5 -11t7 -16.5q2 -16 1 -39.5t-6 -41.5q-5 -15 -17.5 -18t-30.5 2q-31 9 -71.5 23.5t-84.5 31.5t-90 36.5t-88 38.5q-19 9 -26.5 18.5t-1.5 33.5z" />
    <glyph glyph-name="logicalnot" unicode="&#xac;" horiz-adv-x="1423" 
d="M1308 176q22 8 41 16.5t34 16.5q33 18 54.5 40t12.5 48q-5 24 -21 41.5t-40 32.5q-26 17 -75 22t-106 1t-114.5 -14.5t-99.5 -23.5q-5 -34 -14 -73t-19.5 -78t-20.5 -75.5t-16 -65.5q-6 -18 0.5 -25.5t22.5 -19.5q19 -11 34.5 -18.5t38.5 -13.5q22 -9 38 -9.5t46 4.5
q25 4 54.5 11t59 15.5t56 18.5t46.5 22q27 14 41 29.5t9 37.5q-1 17 -19 33.5t-43 26.5zM1029 808q4 13 0.5 20t-23.5 16q-20 10 -43.5 17t-45.5 12q-23 4 -34.5 2t-17.5 -19q-18 -43 -35 -97t-35 -110q-29 -2 -59 -4t-65 -4q17 47 30 87.5t27 69.5q3 14 -1 21t-24 16
q-23 10 -48 17.5t-48 12.5q-24 5 -35.5 2.5t-15.5 -19.5q-11 -43 -21.5 -95.5t-22 -105.5t-23.5 -103.5t-25 -88.5q-5 -15 2.5 -23t24.5 -14q16 -7 37 -11t39 -7q21 -4 28 -1.5t9 12.5q10 27 17 61.5t21 72.5q32 4 64 6.5t64 6.5q-10 -32 -15.5 -58t-7.5 -47
q-8 -20 10.5 -30t50.5 -17q16 -3 29.5 -5.5t24 -3t16.5 2.5t6 11q13 47 31.5 100t38.5 106t39.5 102.5t35.5 88.5zM754 78q4 -20 7 -36.5t5 -31.5q5 -14 12 -19.5t24 -8.5q18 -5 34 -5.5t36 -0.5q18 0 23 3.5t6 12.5q-3 42 -6 89.5t-4 94t0 88.5t4 73q0 14 -6.5 21t-29.5 12
q-29 5 -63.5 10.5t-88.5 7.5q-33 2 -49.5 -5.5t-26.5 -18.5q-29 -33 -62.5 -76.5t-65 -88.5t-59.5 -88.5t-46 -76.5q-8 -21 -0.5 -27t23.5 -14q14 -4 25 -7t20 -6q18 -4 25 -2.5t13 10.5q11 16 21.5 32.5t27.5 35.5q42 8 95.5 12.5t105.5 9.5zM1093 834l-108 -354
q-4 -15 2 -26t17 -19q14 -11 27 -17t24 -13q11 -5 27 -8t50 3q47 5 99.5 12.5t102.5 14.5q21 3 26 7.5t-1 15.5l-8 20t-12 21q-8 10 -20 13.5t-36 1.5q-37 -2 -71 -4t-70 -7q8 16 14.5 31.5t15.5 32.5q45 8 93 13.5t95 10.5q22 4 28 7.5t0 16.5q-4 11 -8.5 21.5t-12.5 21.5
q-8 10 -20 13.5t-34 2.5q-26 0 -48 -1t-45 -4q14 28 26 53.5t26 48.5q52 6 100 9.5t93 7.5q21 2 27 6t3 18q-1 11 -5 21t-11 23q-12 22 -53 22q-44 -2 -89.5 -5.5t-88.5 -8.5t-82.5 -10.5t-72.5 -11.5zM485 789q23 2 26 6t0 15q-8 14 -18.5 27.5t-24.5 24.5q-10 7 -21 10
t-34 3q-43 -2 -97.5 -4.5t-111.5 -6.5t-112 -9t-99 -11q-13 -2 -17 -6t3 -16q11 -11 24 -27.5t30 -27.5q16 -11 27.5 -13.5t31.5 2.5q13 2 33 4t41 4q-9 -36 -17.5 -78.5t-16 -84.5t-12.5 -80.5t-6 -65.5q-5 -22 16 -32t51 -17q34 -7 55.5 -10t23.5 14q8 41 19 87.5
t23.5 94.5t26 96t26.5 92q34 2 68 4.5t62 4.5zM352 6q22 3 23.5 6t-2.5 14l-12 18t-14 17q-14 9 -23.5 12t-29.5 2q-34 -2 -64 -4t-64 -5q9 32 19.5 67.5t21.5 70t22.5 67t23.5 59.5q5 11 -0.5 17t-23.5 14q-20 8 -45.5 14t-48.5 10q-20 5 -30.5 2t-16.5 -16
q-12 -33 -24 -77t-22 -89t-17 -86.5t-9 -69.5q-1 -12 6 -20.5t20 -16.5q18 -9 28.5 -14.5t24.5 -11.5q10 -5 24 -7.5t46 2.5q44 6 91.5 12.5t95.5 12.5zM424 232q19 14 41 40.5t34 49.5q3 12 3 17q0 7 -12 18q-10 6 -21.5 12t-25.5 11q-18 8 -28.5 6.5t-17.5 -11.5
q-9 -14 -21.5 -33t-26 -38t-25.5 -36t-20 -29q-10 -17 21 -21q14 -1 27.5 -2t24.5 1q14 0 25 3.5t22 11.5zM1122 209q11 24 20 45t21 41q61 17 102 18t47 -10q3 -8 -9 -19.5t-37 -25t-61.5 -26.5t-82.5 -23zM616 144q35 45 66 85t60 73q0 -36 1 -73t6 -75q-35 -2 -68 -4
t-65 -6zM1086 131q60 14 96 10t41 -14q4 -17 -42.5 -37.5t-126.5 -33.5q10 19 17 37t15 38z" />
    <glyph glyph-name="registered" unicode="&#xae;" horiz-adv-x="1249" 
d="M1238 750q-36 59 -101 109.5t-141 88t-155 59t-144 21.5q-115 0 -224 -43.5t-201 -115.5t-161 -165.5t-104 -194t-30.5 -200t59.5 -183.5q26 -42 63 -73t94 -53q80 -31 177 -42.5t199.5 -5t204.5 31t192.5 66t163.5 100t117 133.5q31 54 48.5 118.5t18 128t-17.5 121.5
t-58 99zM1132 363q-26 -35 -55 -70.5t-62.5 -67.5t-71.5 -59.5t-80 -46.5q-62 -28 -118.5 -47.5t-118 -27t-134 -1.5t-165.5 30q-87 21 -131.5 70t-54.5 114.5t10.5 141t63.5 149.5t104.5 141t132.5 115.5t148 72.5t151 11q61 -10 120.5 -39.5t111 -72t91.5 -94t62 -106.5
t22.5 -110t-26.5 -103zM551 333q19 -24 43 -48t48 -45.5t46 -40t39 -30.5q26 -16 45.5 -18t36.5 3q14 2 22.5 3.5t21.5 12.5q10 9 12.5 16t-11.5 20q-20 16 -41 36t-42.5 42t-41.5 44t-38 42q81 37 140 79.5t85 93.5q16 30 4 79q-11 45 -31.5 76t-46.5 58q-32 31 -74 37.5
t-88.5 -1.5t-95 -27t-93.5 -40q-13 -7 -24 -41t-21 -83t-18 -107.5t-15 -112.5t-11.5 -98.5t-7.5 -65.5q-2 -21 3.5 -32.5t19.5 -19.5t29 -11t34 -9q18 -4 24.5 0t9.5 16q10 42 19 83.5t18 88.5zM631 630q59 25 100 25q20 0 33.5 -5.5t16.5 -15.5q6 -13 -5.5 -35t-37.5 -47
t-65.5 -49.5t-90.5 -41.5q14 48 26 90.5t23 78.5z" />
    <glyph glyph-name="macron" unicode="&#xaf;" horiz-adv-x="592" 
d="M36 1154q-51 -11 -15 -76q8 -14 12 -17.5t7.5 -5t9.5 -5t18 -17.5q23 -29 43 -37.5t43 -1.5q85 24 184 35.5t195 19.5q28 2 35.5 11.5t-3.5 40.5q-5 13 -6.5 16t-2.5 4.5t-3.5 6t-11.5 19.5q-31 53 -81 53q-55 0 -114.5 -4t-116 -10.5t-107 -14.5t-86.5 -17z" />
    <glyph glyph-name="macron" unicode="&#x2c9;" horiz-adv-x="592" 
d="M36 1154q-51 -11 -15 -76q8 -14 12 -17.5t7.5 -5t9.5 -5t18 -17.5q23 -29 43 -37.5t43 -1.5q85 24 184 35.5t195 19.5q28 2 35.5 11.5t-3.5 40.5q-5 13 -6.5 16t-2.5 4.5t-3.5 6t-11.5 19.5q-31 53 -81 53q-55 0 -114.5 -4t-116 -10.5t-107 -14.5t-86.5 -17z" />
    <glyph glyph-name="degree" unicode="&#xb0;" horiz-adv-x="373" 
d="M285 849q22 -10 32.5 -21t15.5 -25q8 -25 6 -55t-14 -60t-35 -57.5t-57 -46.5q-24 -11 -50 -15t-61 -1q-23 1 -47 3.5t-44 10.5q-15 5 -30 13.5t-23 19.5q-21 25 -23.5 57.5t11 66.5t43 65t73.5 53q19 9 46 13.5t50 2.5q32 -3 59.5 -9.5t47.5 -14.5zM196 817
q-11 2 -25.5 -6.5t-29 -22.5t-27.5 -31.5t-21 -33.5q-8 -17 -12 -35t-3 -33.5t7.5 -26.5t19.5 -13q12 -3 26 2.5t27.5 17.5t25.5 29.5t21 38.5q7 16 11 35.5t3.5 36t-6 28.5t-17.5 14z" />
    <glyph glyph-name="plusminus" unicode="&#xb1;" horiz-adv-x="732" 
d="M587 462q23 0 30 7.5t-1 27.5q-7 17 -13 34.5t-19 37.5q-19 34 -65 36q-52 2 -130 0q6 25 14.5 47t15.5 43q10 22 7 35t-23 31q-16 18 -43 34t-53 27q-21 8 -35.5 -1.5t-21.5 -28.5q-15 -38 -28.5 -89t-27.5 -109q-66 -4 -124.5 -10.5t-102.5 -14.5q-9 -2 -17.5 -5
t-14 -8t-7 -12.5t3.5 -17.5q9 -20 26.5 -46t34.5 -42q19 -17 31.5 -21t36.5 1q24 4 50 8t53 6q-5 -31 -7 -57t-5 -46q-1 -35 33 -54q22 -13 39.5 -20.5t36.5 -16.5q23 -9 30.5 -5.5t12.5 23.5q8 40 18.5 90t24.5 105q62 6 121.5 7.5t118.5 3.5zM565 82q22 0 28.5 6.5
t-1.5 23.5q-7 16 -12.5 31t-17.5 33q-20 31 -61 31q-70 -1 -117 -2t-82.5 -3t-65 -5.5t-62.5 -8.5t-75 -12t-104 -16q-17 -2 -29.5 -11t-4.5 -26q10 -18 26 -40.5t32 -36.5q17 -15 29 -18.5t35 0.5q65 11 104.5 19t67.5 13.5t51 9.5t55 6.5t79.5 3.5t124.5 2z" />
    <glyph glyph-name="uni00B2" unicode="&#xb2;" horiz-adv-x="355" 
d="M105 401q26 4 55 6t50 3q27 1 42 -22q9 -10 16 -23t11 -24q5 -12 0 -16t-19 -7q-24 -1 -55 -4t-62.5 -7.5t-60 -9t-47.5 -8.5q-14 -3 -23.5 -3.5t-16 1t-11 4t-8.5 6.5q-12 8 -27.5 23t-26.5 28q-9 11 -13 23.5t12 25.5q35 27 72.5 61.5t73 71.5t66.5 73t52 65.5t29.5 50
t0.5 25.5q-8 6 -20 3t-26.5 -13t-30.5 -24.5t-32 -30.5q-25 -18 -58 -18.5t-61 8.5q-17 7 -20 20t14 45q29 51 73.5 85.5t96.5 44.5q30 6 57.5 0t50.5 -18t40.5 -28t28.5 -31q14 -23 18 -44t0.5 -41.5t-13.5 -41.5t-23 -43q-15 -26 -37.5 -55t-49.5 -57.5t-57.5 -55
t-60.5 -48.5z" />
    <glyph glyph-name="uni00B3" unicode="&#xb3;" horiz-adv-x="363" 
d="M201 571q30 14 54.5 28t42.5 31q15 13 25 33t11.5 44t-7 51t-30.5 54q-22 25 -43.5 37.5t-42 17t-40 3t-35.5 -4.5q-23 -5 -44 -14.5t-39.5 -22t-34 -26.5t-26.5 -27q-8 -12 -6 -21.5t13 -19.5q10 -9 26.5 -15t33.5 -8t34 1t29 12q18 11 38 21.5t35 10.5q10 0 15 -8
q7 -9 -0.5 -24t-32 -33t-66.5 -38.5t-103 -40.5q-26 -8 -10 -36q20 -31 48.5 -47t57.5 -11q23 3 37 1.5t26 -12.5q6 -5 9.5 -14t3 -21t-6 -25.5t-17.5 -26.5q-26 -26 -60.5 -29.5t-89.5 24.5q-20 10 -44.5 11.5t-44.5 -9.5q-5 -4 -8.5 -8.5t-2 -10.5t8 -14.5t20.5 -19.5
q45 -39 89 -53.5t85 -14.5q52 0 95.5 16t76.5 58q15 19 22.5 41t6 44.5t-14 45t-36.5 43.5q-13 11 -27 16.5t-31 10.5z" />
    <glyph glyph-name="acute" unicode="&#xb4;" horiz-adv-x="592" 
d="M573 1152q-29 -20 -70.5 -44t-89 -48t-98 -46t-98.5 -39q-21 -9 -45 -3.5t-56 22.5q1 -1 -6 4.5t-11.5 15t-3 21t18.5 22.5q40 19 82.5 40t84 43.5t80 47t71.5 50.5q18 14 41.5 13.5t60.5 -20.5q20 -10 28 -29.5t11 -49.5z" />
    <glyph glyph-name="mu" unicode="&#xb5;" horiz-adv-x="762" 
d="M313 -16q-36 2 -66.5 8.5t-56.5 17.5q-14 -69 -26 -131t-20 -110q-4 -15 -11.5 -19.5t-33.5 1.5q-25 6 -48 12t-44 16q-22 11 -29.5 24t-5.5 37q3 62 10.5 138t18.5 159.5t26 171.5t33 175.5t38.5 171t42.5 157.5q8 29 23.5 35t47.5 -5q58 -18 110 -56q55 -39 35 -100
q-7 -22 -19.5 -65.5t-26.5 -94t-27 -101.5t-20 -89q-9 -44 -13.5 -83t-3 -69.5t10.5 -50t26 -24.5q27 -7 53 26t50 91.5t46 135.5t41 158.5t35 160.5t28 141q3 30 23 36t48.5 -1.5t60.5 -24t59 -32.5q28 -18 32 -32t-3 -40q-31 -143 -62 -262.5t-66 -211.5t-75.5 -154
t-90.5 -90q-35 -17 -70 -23.5t-80 -3.5z" />
    <glyph glyph-name="mu" unicode="&#x3bc;" horiz-adv-x="762" 
d="M313 -16q-36 2 -66.5 8.5t-56.5 17.5q-14 -69 -26 -131t-20 -110q-4 -15 -11.5 -19.5t-33.5 1.5q-25 6 -48 12t-44 16q-22 11 -29.5 24t-5.5 37q3 62 10.5 138t18.5 159.5t26 171.5t33 175.5t38.5 171t42.5 157.5q8 29 23.5 35t47.5 -5q58 -18 110 -56q55 -39 35 -100
q-7 -22 -19.5 -65.5t-26.5 -94t-27 -101.5t-20 -89q-9 -44 -13.5 -83t-3 -69.5t10.5 -50t26 -24.5q27 -7 53 26t50 91.5t46 135.5t41 158.5t35 160.5t28 141q3 30 23 36t48.5 -1.5t60.5 -24t59 -32.5q28 -18 32 -32t-3 -40q-31 -143 -62 -262.5t-66 -211.5t-75.5 -154
t-90.5 -90q-35 -17 -70 -23.5t-80 -3.5z" />
    <glyph glyph-name="paragraph" unicode="&#xb6;" horiz-adv-x="708" 
d="M115 155q3 35 4 57.5t8 37.5q-32 23 -57.5 47.5t-42.5 50.5q-13 20 -23 41.5t-13 45t2.5 49.5t24.5 56q37 62 80 104t91 79q38 28 81 39t87.5 10t89.5 -12.5t87.5 -28.5t80.5 -37.5t69 -40.5q6 -4 3 -29.5t-12 -66.5t-22.5 -92.5t-28.5 -107t-30 -110.5t-28 -103
t-21.5 -84t-10.5 -54q-4 -25 -18.5 -40.5t-36.5 -25.5t-49 -16.5t-55 -13.5q-27 -5 -34 0t-7 20q4 16 17 63.5t30.5 110.5t37 134t37 135.5t30 114.5t15.5 71q-5 25 -19 36.5t-38 3.5q-4 -18 -17 -66t-30.5 -110t-36 -130.5t-34.5 -126.5t-26.5 -98t-10.5 -46
q-3 -26 -17.5 -41.5t-36.5 -25.5t-48.5 -16.5t-53.5 -13.5q-28 -5 -35 0t-8 20q10 51 15 102.5t10 107.5z" />
    <glyph glyph-name="periodcentered" unicode="&#xb7;" horiz-adv-x="331" 
d="M49 453q1 24 12 45t30.5 35t46.5 18.5t60 -4.5q43 -14 62.5 -40.5t19.5 -53.5q-1 -10 -2 -17.5t-3 -15.5q-3 -10 -12 -23.5t-22.5 -25.5t-32.5 -20t-43 -8q-25 -2 -47 5.5t-38 22t-24.5 35.5t-6.5 47z" />
    <glyph glyph-name="cedilla" unicode="&#xb8;" horiz-adv-x="301" 
d="M83 -172q-23 -24 -57 -26q-16 -2 -32.5 -0.5t-33.5 3.5q-43 8 -25 36q11 21 27.5 52t34 64.5t34.5 67t29 59.5q15 35 58 10q19 -10 34 -21t27 -22q17 -21 16 -32q0 -6 -8 -33q-8 -19 -20.5 -41.5t-27 -44.5t-29.5 -41t-27 -31z" />
    <glyph glyph-name="uni00B9" unicode="&#xb9;" horiz-adv-x="226" 
d="M215 768q-13 -43 -28.5 -103t-30.5 -124t-27.5 -124t-19.5 -103q-2 -11 -8 -14.5t-21 1.5q-17 4 -42 11.5t-40 15.5q-11 8 -15 17.5t-2 28.5q1 24 6 64t12 87t16 96t18 91q-24 13 -30 20.5t2 25.5q10 21 25 43t26 39q12 15 20.5 18t26.5 -2q9 -3 21.5 -8t25 -11l25 -12
t21.5 -12q16 -11 20.5 -19.5t-1.5 -25.5z" />
    <glyph glyph-name="ordmasculine" unicode="&#xba;" horiz-adv-x="1203" 
d="M379 327q-13 51 -26.5 106.5t-25.5 108t-21.5 97.5t-15.5 74q-8 38 -21.5 57.5t-44.5 32.5q-39 18 -75 29t-73 22q-31 8 -48.5 0.5t-24.5 -37.5q-9 -52 -17.5 -119t-16.5 -139t-14.5 -144.5t-11.5 -136t-8 -113.5t-3 -77q-2 -26 6 -40.5t31 -25.5q23 -14 48 -20.5
t50 -12.5q26 -7 35 -2.5t11 21.5q4 36 10.5 84.5t15 105t17.5 118.5l18 124q15 -52 32 -103.5t33.5 -99t33 -88.5t31.5 -72q19 -43 65 -60q48 -17 94 -26q54 -12 59 26l32.5 162.5t39.5 189.5t42 191t41 168q7 26 3 44.5t-34 36.5q-18 11 -31 18t-25 12t-24 8t-27 7
q-32 8 -48 1t-23 -36q-25 -107 -49.5 -234t-39.5 -258zM1083 640q-19 8 -45.5 13.5t-56.5 8.5q-23 2 -49.5 -2.5t-45.5 -12.5q-44 -20 -74.5 -49.5t-46 -61t-14.5 -62.5t19 -54q7 -11 21.5 -18.5t28.5 -12.5q19 -7 42 -9.5t45 -3.5q33 -2 59 1.5t50 14.5q34 18 58 43.5
t37.5 53.5t17 56t-2.5 51q-5 14 -14 24.5t-29 19.5zM663 277q-47 -9 -16 -58q6 -11 6.5 -14.5t1 -5t3 -5t12.5 -13.5q19 -22 46 -28.5t47 -0.5q75 18 163 27t171 14q25 2 32 9.5t-1 30.5q-5 9 -7 12t-4 5t-5 5.5t-9 15.5q-26 41 -68 41q-48 0 -100 -3t-101.5 -8t-94 -11.5
t-76.5 -12.5zM986 587q8 -2 11.5 -10t3 -19t-4 -24t-9.5 -24q-14 -28 -34.5 -46t-37.5 -13q-9 1 -13 9t-4 18q0 11 3.5 23t10.5 23q6 11 15.5 22.5t20 20.5t20.5 15t18 5z" />
    <glyph glyph-name="guillemotright" unicode="&#xbb;" horiz-adv-x="936" 
d="M448 420q-9 -43 -23 -76q-5 -10 -9 -16.5t-9.5 -11t-13.5 -8t-19 -7.5q-80 -23 -141.5 -43t-120.5 -45q-17 -9 -28.5 -8t-31.5 14q-18 12 -37 29.5t-39 35.5q-14 16 -8.5 25.5t19.5 16.5q43 19 105.5 40.5t130.5 40.5q-39 17 -77.5 30.5t-77.5 27.5q-12 3 -19.5 6.5
t-12.5 8.5t-8.5 11.5t-8.5 17.5q-5 17 -7.5 43t-0.5 47q2 17 15.5 20.5t32.5 -2.5q35 -11 79.5 -27t92.5 -35t96 -39.5t92 -41.5q20 -10 28 -19.5t1 -34.5zM929 396q-7 -22 -15 -41t-16 -35q-9 -19 -19.5 -26.5t-33.5 -15.5q-82 -22 -145 -42.5t-123 -45.5q-18 -8 -29 -7
t-30 14q-17 12 -35.5 29t-35.5 36q-14 15 -7 24.5t21 16.5q45 19 109 40t133 41q-38 16 -75 29.5t-74 26.5q-24 7 -31.5 15t-15.5 29q-3 17 -4 43t4 47q3 17 16.5 20.5t33.5 -2.5q33 -11 75.5 -27t89 -34.5t93.5 -39.5t89 -41q19 -10 26 -19.5t-1 -34.5z" />
    <glyph glyph-name="onequarter" unicode="&#xbc;" horiz-adv-x="804" 
d="M768 780q14 -27 7.5 -42t-29.5 -34q-41 -33 -100 -84t-127.5 -110.5t-141 -124t-139.5 -124t-123 -110t-91 -83.5q-16 -17 -28.5 -17.5t-29.5 13.5q-9 7 -11 7t-2 -2t-0.5 -3.5t-5.5 4.5q-9 8 -10.5 16t-0.5 16q3 17 23 37q26 28 76 79t113.5 115t135 134t140.5 135.5
t130 120.5t104 89q49 40 81 -3q9 -10 12 -11.5t4 -1.5q2 0 4.5 -2.5t8.5 -13.5zM706 216q27 0 37 -21q5 -12 8 -21.5t7 -20.5q2 -12 -2.5 -16.5t-19.5 -5.5q-14 -1 -28 -1.5t-29 -1.5q-13 -42 -23.5 -78t-17.5 -66q-5 -11 -10 -14t-22 1q-11 3 -25.5 7.5t-27.5 11.5
q-14 9 -17.5 17t0.5 25q2 15 7 36t13 50q-28 -3 -54 -6t-52 -7q-14 -2 -25 -1.5t-24 12.5q-14 11 -27.5 24t-24.5 27q-7 12 -7 23t9 25q19 28 48.5 64t63 72t67.5 69t62 56q15 11 24.5 12.5t28.5 -3.5q8 -3 22.5 -9t30.5 -13.5t31 -15t24 -12.5q16 -11 18.5 -19t-2.5 -22
q-14 -35 -30 -81t-33 -97zM144 777q-11 -43 -23.5 -103.5t-24.5 -124t-21.5 -124t-14.5 -103.5q-2 -12 -7.5 -15t-20.5 1l-42.5 12.5t-41.5 15.5q-12 8 -16.5 17.5t-2.5 28.5q0 24 2.5 64t7.5 87t11 96t14 91q-25 13 -31.5 21t1.5 26q8 21 22 43t25 39q11 15 19 18t27 -2
q9 -3 21.5 -7.5t25.5 -10.5t26 -12.5t22 -12.5q17 -11 22 -19.5t0 -25.5zM463 202q26 3 57 5t63 4q12 40 24 79.5t26 77.5q-47 -37 -90.5 -82.5t-79.5 -83.5z" />
    <glyph glyph-name="onehalf" unicode="&#xbd;" horiz-adv-x="844" 
d="M765 780q14 -27 7.5 -42t-28.5 -34q-41 -33 -100 -84t-127.5 -110.5t-141 -124t-139 -124t-122 -110t-90.5 -83.5q-16 -17 -28.5 -17.5t-29.5 13.5q-9 7 -11 7t-2 -2t-0.5 -3.5t-5.5 4.5q-9 8 -11 16t-1 16q4 17 23 37q26 28 76 79t113.5 115t134.5 134t140 135.5
t129.5 120.5t103.5 89q49 40 81 -3q9 -10 12 -11.5t4 -1.5q2 0 4.5 -2.5t8.5 -13.5zM580 78q26 4 53 5.5t47 2.5q26 1 39 -19q8 -9 14 -21t10 -21q4 -11 -0.5 -15t-18.5 -6q-23 -1 -52.5 -4t-59.5 -7t-57.5 -8t-45.5 -8q-27 -5 -37 -2.5t-18 10.5q-11 8 -25.5 21.5
t-23.5 24.5q-8 10 -11.5 21.5t12.5 22.5q34 24 71 55t71.5 63.5t65 65t51.5 59t30 44.5t1 23q-7 6 -18.5 3t-25.5 -12t-30 -22t-31 -27q-24 -17 -56 -17q-31 0 -57 8q-15 6 -17.5 17.5t14.5 40.5q30 45 72.5 76t92.5 39q29 5 54.5 0.5t47 -15t37.5 -25t25 -28.5
q12 -20 15 -39t-0.5 -37.5t-13.5 -37t-23 -38.5q-15 -23 -37.5 -48.5t-49.5 -51t-56.5 -49.5t-58.5 -44zM141 777q-11 -43 -23.5 -103.5t-24 -124t-21 -124t-14.5 -103.5q-2 -12 -7 -15t-20 1q-9 2 -20 5.5t-23 7t-23 7.5t-19 8q-11 8 -15.5 17.5t-3.5 28.5q0 24 2.5 64
t7 87t11 96t13.5 91q-24 14 -31 21.5t1 25.5q8 21 22 43t24 39q11 15 19.5 18t27.5 -2q9 -3 21.5 -7.5t25.5 -10.5t26 -12.5t22 -12.5q17 -11 22 -19.5t0 -25.5z" />
    <glyph glyph-name="threequarters" unicode="&#xbe;" horiz-adv-x="948" 
d="M192 608q17 -5 32 -10.5t28 -16.5q51 -42 55.5 -90t-24.5 -86q-31 -43 -74 -59t-96 -16q-41 0 -86 14.5t-92 53.5q-30 23 -30.5 35t10.5 19q20 12 44.5 10t44.5 -11q56 -29 91 -25.5t60 29.5q23 27 21.5 52.5t-14.5 36.5t-27 12t-37 -1q-30 -5 -58.5 10.5t-51.5 47.5
q-8 14 -7 23t15 14q60 20 101.5 40.5t65.5 39t31 33.5t-1 24q-6 8 -15 8q-16 0 -36 -10.5t-37 -21.5q-11 -9 -27.5 -12t-34.5 -1t-34.5 8t-27.5 15q-23 20 -9 41q21 28 58 54.5t82 37.5q16 3 35.5 4.5t40.5 -3t43.5 -17.5t45.5 -38q24 -28 34 -55t9.5 -51t-9.5 -44.5
t-24 -33.5q-17 -17 -41 -31.5t-54 -28.5zM922 780q14 -27 7 -42t-30 -34q-41 -33 -101 -84t-129.5 -110.5t-143 -124t-141 -124t-124 -110t-91.5 -83.5q-16 -17 -28.5 -17.5t-29.5 13.5q-9 7 -11 7t-2 -2t-0.5 -3.5t-5.5 4.5q-9 8 -10.5 16t-0.5 16q3 16 24 37q26 28 77 79
l115 115t136.5 134t142.5 135.5t132 120.5t105 89q49 40 81 -3q8 -10 11 -11.5t4 -1.5q2 0 4.5 -2.5t8.5 -13.5zM853 216q27 0 37 -21q5 -12 7.5 -21.5t6.5 -20.5q2 -12 -2.5 -16.5t-19.5 -5.5q-14 -1 -28 -1.5t-29 -1.5q-14 -42 -24.5 -78t-18.5 -66q-5 -11 -10.5 -14
t-22.5 1q-11 3 -25 7.5t-27 11.5q-14 9 -17.5 17t0.5 25q2 15 8 36t14 50q-28 -3 -54.5 -6t-52.5 -7q-14 -2 -24.5 -1.5t-23.5 12.5q-14 11 -27.5 24t-24.5 27q-7 12 -7 23t10 25q19 28 49 64t64 72t68 69t63 56q16 11 25 12.5t28 -3.5q8 -3 22.5 -9t30.5 -13.5t31 -15
t24 -12.5q15 -11 18 -19t-3 -22q-14 -35 -30.5 -81t-34.5 -97zM610 202q26 3 57 5l62 4q14 40 26 79.5t26 77.5q-47 -37 -91 -82.5t-80 -83.5z" />
    <glyph glyph-name="questiondown" unicode="&#xbf;" horiz-adv-x="679" 
d="M480 594q24 -14 29 -29.5t1 -44.5q-7 -54 -32 -94.5t-58.5 -71.5t-70 -53.5t-64.5 -39.5q-35 -21 -57.5 -40t-35.5 -36t-17.5 -32t-2.5 -27q5 -17 17.5 -24t26.5 -7q21 0 41.5 8t41.5 21.5t42 29.5t44 33q35 26 84 29t95 -16q12 -5 19.5 -11t8 -15.5t-6.5 -23.5t-24 -34
q-49 -61 -109 -98.5t-128 -48.5q-40 -7 -77.5 -3t-70 15.5t-58.5 28.5t-44 36q-40 40 -56 78t-14.5 72t15.5 63.5t34 52.5t46.5 41t55.5 35.5t58 36.5t53.5 43.5t42 57.5t24.5 78q-2 22 13 27.5t37.5 0.5t49 -16t47.5 -22zM583 758q-3 -24 -16.5 -44t-35.5 -32.5
t-50.5 -15.5t-62.5 8q-27 9 -44 20.5t-26.5 25t-13 28t-3.5 29.5v19q0 12 1 16q5 18 17 33.5t30.5 26.5t42 15t52.5 0q25 -3 47 -13t37 -26t22 -38.5t3 -51.5z" />
    <glyph glyph-name="Agrave" unicode="&#xc0;" horiz-adv-x="718" 
d="M417 189q3 -41 6 -75.5t7 -63.5q4 -28 13.5 -39t33.5 -18q23 -8 45 -9.5t48 -1.5t33.5 7t7.5 25q-1 86 -0.5 186.5t2.5 200.5t6 192t10 163q3 29 -5.5 47t-39.5 29q-23 6 -45.5 13t-49 13t-58.5 10.5t-73 6.5q-47 4 -71 -13t-39 -44q-42 -75 -88.5 -171.5t-91 -195.5
t-83 -192t-62.5 -162q-6 -21 -5.5 -33.5t5.5 -20.5t14 -13.5t21 -13.5q16 -8 31.5 -14.5t28.5 -11.5q23 -8 34.5 -5t19.5 20q14 32 29 65.5t35 72.5q57 15 131.5 25.5t149.5 20.5zM182 1159q29 -20 70 -44t88 -48t97 -46t98 -39q20 -9 44.5 -3.5t55.5 22.5q0 -1 7 4.5
t12 14.5t4 21t-19 23q-80 38 -164 83.5t-149 98.5q-19 14 -42.5 13t-60.5 -21q-21 -10 -29 -29.5t-12 -49.5zM226 329q47 95 93.5 183.5t86.5 161.5q-2 -80 -1 -161.5t3 -163.5q-46 -3 -91.5 -8t-90.5 -12z" />
    <glyph glyph-name="Aacute" unicode="&#xc1;" horiz-adv-x="718" 
d="M417 189q2 -41 5.5 -75.5t7.5 -63.5q4 -28 13.5 -39t33.5 -18q23 -8 45 -9.5t48 -1.5t33.5 7t7.5 25q-1 86 -0.5 186.5t2.5 200.5t5.5 192t9.5 163q3 29 -5 47t-40 29q-23 6 -45.5 13t-48.5 13t-58 10.5t-73 6.5q-24 2 -41 -1.5t-30 -11.5t-22.5 -19.5t-17.5 -24.5
q-28 -50 -58 -110.5t-60.5 -125t-60.5 -131.5t-56.5 -130t-49.5 -120.5t-39 -103.5q-6 -21 -5.5 -33.5t5.5 -20.5t14 -13.5t21 -13.5q16 -8 31.5 -14.5t28.5 -11.5q23 -8 34.5 -5t19.5 20q13 32 28 65.5t36 72.5q57 15 131.5 25.5t149.5 20.5zM692 1152q-3 30 -10 49.5
t-28 29.5q-35 20 -58.5 20.5t-43.5 -13.5q-33 -26 -72.5 -50.5t-81 -47t-84.5 -43.5t-83 -40q-18 -11 -20.5 -22.5t2.5 -21t11.5 -15t6.5 -4.5q30 -17 54.5 -22.5t45.5 3.5q49 17 100 39t99 46t90 48t72 44zM226 329q46 95 93 183.5t86 161.5q-2 -80 -0.5 -161.5t3.5 -163.5
q-47 -3 -92 -8t-90 -12z" />
    <glyph glyph-name="Acircumflex" unicode="&#xc2;" horiz-adv-x="718" 
d="M417 189q3 -41 6 -75.5t7 -63.5q4 -28 13.5 -39t33.5 -18q23 -8 45 -9.5t48 -1.5t33.5 7t7.5 25q-1 86 -0.5 186.5t2.5 200.5t6 192t10 163q3 29 -5.5 47t-39.5 29q-23 6 -45.5 13t-49 13t-58.5 10.5t-73 6.5q-47 4 -71 -13t-39 -44q-42 -75 -88.5 -171.5t-91 -195.5
t-83 -192t-62.5 -162q-6 -21 -5.5 -33.5t5.5 -20.5t14 -13.5t21 -13.5q16 -8 31.5 -14.5t28.5 -11.5q23 -8 34.5 -5t19.5 20q14 32 29 65.5t35 72.5q57 15 131.5 25.5t149.5 20.5zM628 960q17 -1 22.5 5t1.5 21q-6 26 -13 60t-14.5 71.5t-14.5 77t-11 76.5q-1 12 -2.5 20
t-4.5 14t-7 11.5t-9 12.5q-12 11 -26 21t-28 21q-14 9 -26 8.5t-27 -17.5q-30 -29 -59.5 -63.5t-56 -69t-49 -65.5t-37.5 -53q-17 -24 1 -51q11 -16 21 -26.5t21 -21.5q12 -12 21 -12t17 12q29 35 63 76.5t75 85.5q11 -51 20.5 -95.5t19.5 -74.5q14 -29 41 -35q17 -5 32 -7
t29 -2zM226 329q47 95 93.5 183.5t86.5 161.5q-2 -80 -1 -161.5t3 -163.5q-46 -3 -91.5 -8t-90.5 -12z" />
    <glyph glyph-name="Atilde" unicode="&#xc3;" horiz-adv-x="718" 
d="M416 189q3 -41 6.5 -75.5t7.5 -63.5q4 -28 13.5 -39t33.5 -18q23 -8 45 -9.5t48 -1.5t33.5 7t7.5 25q-2 86 -1.5 186.5t2 200.5t5 192t8.5 163q3 29 -5 47t-40 29q-23 6 -45.5 13t-49 13t-58.5 10.5t-73 6.5q-47 4 -71 -13t-39 -44q-27 -50 -57 -110.5t-60.5 -125
t-60 -131.5t-56 -130t-49 -120.5t-38.5 -103.5q-6 -21 -5.5 -33.5t5.5 -20.5t14 -13.5t21 -13.5q16 -8 31.5 -14.5t28.5 -11.5q23 -8 34.5 -5t19.5 20q13 32 28 65.5t35 72.5q57 15 131.5 25.5t149.5 20.5zM541 985q54 0 120 50q38 26 56 49t20 42q0 19 -22 33
q-20 10 -43 10q-14 0 -26 -5t-26 -15l-13 -13t-19.5 -18t-20 -16t-14.5 -7q-17 1 -33 7.5t-32.5 14t-32 15t-30.5 12.5q-26 10 -50 15t-48 5q-21 0 -51.5 -10.5t-60.5 -26t-54 -33t-33 -32.5q-10 -19 -10 -36q1 -39 57 -39q30 0 52 14q2 0 10.5 7t19.5 15.5t23.5 15.5
t22.5 7q12 0 29.5 -3t35.5 -7.5t34 -10.5t24 -13q36 -27 115 -27zM224 329q47 95 93 183.5t86 161.5q-2 -80 0 -161.5t4 -163.5q-47 -3 -92 -8t-91 -12z" />
    <glyph glyph-name="Adieresis" unicode="&#xc4;" horiz-adv-x="718" 
d="M417 189q2 -41 5.5 -75.5t7.5 -63.5q4 -28 13.5 -39t33.5 -18q23 -8 45 -9.5t48 -1.5t33.5 7t7.5 25q-1 86 -0.5 186.5t2.5 200.5t5.5 192t8.5 163q4 29 -4.5 47t-40.5 29q-23 6 -45.5 13t-48.5 13t-58 10.5t-73 6.5q-47 4 -71 -13t-40 -44q-28 -50 -58 -110.5
t-60.5 -125t-60.5 -131.5t-56.5 -130t-49 -120.5t-38.5 -103.5q-6 -21 -5.5 -33.5t5.5 -20.5t14 -13.5t21 -13.5q16 -8 31.5 -14.5t28.5 -11.5q23 -8 34.5 -5t19.5 20q13 32 28 65.5t36 72.5q57 15 131.5 25.5t149.5 20.5zM225 329q47 95 93.5 183.5t86.5 161.5
q-2 -80 -0.5 -161.5t3.5 -163.5q-47 -3 -92 -8t-91 -12zM505 1064q-2 -24 4.5 -43t19 -32.5t30.5 -20t38 -5.5q19 0 35 7.5t28 18.5t20 23.5t11 21.5q2 8 3.5 14.5t2.5 15.5q2 24 -13.5 48t-50.5 37q-27 9 -49.5 4.5t-39 -17.5t-27 -32t-12.5 -40zM194 1064q-1 -23 6.5 -42
t21 -32t31 -20t37.5 -6q20 0 36 7.5t27 19t18 23.5t9 21q5 12 7 29q0 26 -16.5 49.5t-53.5 36.5q-26 9 -48 4.5t-38 -17t-26 -32t-11 -41.5z" />
    <glyph glyph-name="Aring" unicode="&#xc5;" horiz-adv-x="718" 
d="M417 189q3 -41 6 -75.5t7 -63.5q4 -28 13.5 -39t33.5 -18q23 -8 45 -9.5t48 -1.5t33.5 7t7.5 25q-1 86 -0.5 186.5t2.5 200.5t5.5 192t9.5 163q4 29 -4.5 47t-40.5 29q-23 6 -45.5 13t-48.5 13t-58 10.5t-73 6.5q-47 4 -71 -13t-40 -44q-28 -50 -58 -110.5t-60.5 -125
t-60.5 -131.5t-56.5 -130t-49.5 -120.5t-39 -103.5q-6 -21 -5.5 -33.5t5.5 -20.5t14 -13.5t21 -13.5q16 -8 31.5 -14.5t28.5 -11.5q23 -8 34.5 -5t19.5 20q14 32 28.5 65.5t35.5 72.5q57 15 131.5 25.5t149.5 20.5zM632 1244q-20 9 -49.5 16t-62.5 11q-25 2 -54 -3t-49 -15
q-48 -25 -80 -60t-47.5 -73t-14 -74.5t22.5 -64.5q8 -13 24 -22.5t32 -14.5q21 -8 46.5 -11t48.5 -5q37 -3 65 1.5t54 17.5q37 22 62 52.5t39 64t17 67t-4 61.5q-6 16 -16.5 28.5t-33.5 23.5zM226 329q46 95 93 183.5t87 161.5q-2 -80 -1 -161.5t3 -163.5q-47 -3 -92 -8
t-90 -12zM537 1208q12 -2 17.5 -15.5t5.5 -32.5t-4.5 -40.5t-13.5 -39.5q-10 -24 -23.5 -43.5t-28 -33t-29.5 -20t-28 -2.5q-14 2 -20.5 14.5t-7 30t4.5 38t14 38.5q9 19 23.5 38.5t30 35t31.5 25t28 7.5z" />
    <glyph glyph-name="AE" unicode="&#xc6;" horiz-adv-x="1056" 
d="M739 834q-21 6 -42 13t-46.5 13t-57 10.5t-71.5 6.5q-44 4 -72.5 -13t-48.5 -45q-37 -50 -79 -110.5t-85 -125t-86 -131.5t-82 -130t-72.5 -120.5t-58.5 -103.5q-11 -21 -13 -33.5t1.5 -20.5t11.5 -13.5t18 -13.5q14 -8 29 -14.5t26 -11.5q23 -8 34.5 -5t23.5 20
q19 32 39.5 65.5t49.5 72.5q59 15 136 25t152 20q-5 -33 -10 -55t-9 -37t-6 -25.5t-2 -21.5q-2 -28 14 -38.5t39 -17.5q7 -4 27.5 -5.5t44.5 -1.5q25 0 47.5 1t32.5 3q60 11 126.5 24t131.5 25q26 5 31.5 12.5t1.5 27.5q-7 18 -13 35.5t-17 37.5q-9 18 -25 24t-43 4
q-51 -3 -93.5 -8t-88.5 -13q0 4 1.5 7t1.5 8q8 23 15.5 48.5t15.5 53.5q58 12 120.5 22t124.5 21q28 6 35 14t0 31q-5 20 -10.5 39.5t-17.5 39.5q-9 20 -24.5 26t-44.5 5q-33 -1 -63 -3t-61 -6q19 53 34 101.5t31 93.5q71 10 135.5 17t124.5 14q30 4 38.5 13t5.5 35
q-5 23 -8.5 42.5t-16.5 43.5q-12 46 -69 44q-78 -3 -139 -13.5t-118 -25.5q-1 1 -3 1t-4 2zM283 330q66 95 129.5 183.5t119.5 162.5q-17 -81 -32.5 -162.5t-27.5 -163.5q-48 -3 -94 -8t-95 -12z" />
    <glyph glyph-name="Ccedilla" unicode="&#xc7;" horiz-adv-x="642" 
d="M149 -193q12 12 26 31t28.5 40.5t26.5 44t19 41.5q0 2 0.5 4.5t0.5 4.5q42 0 81.5 10.5t64.5 27.5q28 20 56 50t46 66q17 31 15.5 52t-39.5 31q-95 27 -154 -33q-82 -84 -122 -71q-21 6 -32 34t-13 68.5t4.5 90t19.5 99.5q14 48 38.5 104t52.5 102.5t55 75.5t47 23
q20 -8 24 -34t3 -58q0 -18 3 -39q4 -25 13 -44t24 -33.5t38 -25t55 -16.5q17 -3 27 -2t15.5 5t8.5 11t6 15q6 18 11 40.5t8 47t4.5 49.5t0.5 48q-1 20 -4 37.5t-10.5 33.5t-20 31.5t-31.5 31.5q-20 13 -45 25.5t-53 23t-58 18t-58 10.5q-38 3 -81 -8t-85 -47
q-52 -45 -92.5 -104.5t-69.5 -126.5t-45.5 -137.5t-19.5 -137t7.5 -125t36.5 -101.5q15 -28 42 -49t54 -32q3 -2 7 -3t9 -3l-25 -50t-25.5 -50.5t-23.5 -46t-19 -37.5q-16 -29 26 -36q18 -2 34 -3.5t33 0.5q33 2 55 26z" />
    <glyph glyph-name="Egrave" unicode="&#xc8;" horiz-adv-x="577" 
d="M41 798q43 11 95.5 23t110 22t118 17.5t120.5 9.5q57 1 73 -44q13 -24 18 -43.5t10 -42.5q4 -26 -4 -35t-37 -13q-60 -7 -124 -14t-135 -17q-15 -45 -28 -93.5t-29 -101.5q30 4 60 6t64 3q28 1 44 -5t27 -26q12 -20 18.5 -39.5t11.5 -39.5q8 -23 1.5 -31t-34.5 -14
q-60 -11 -122.5 -21t-120.5 -22q-8 -32 -15 -60.5t-15 -56.5q47 8 89.5 13t92.5 8q28 2 43.5 -4t26.5 -24q12 -20 18.5 -37.5t14.5 -35.5q5 -20 0 -27.5t-32 -12.5q-64 -12 -130 -25t-126 -24q-40 -10 -60.5 -4.5t-35.5 15.5q-17 11 -32.5 22.5t-36.5 29.5q-17 14 -26.5 33
t-7.5 46zM105 1152q5 30 13 49.5t28 29.5q37 20 60.5 20.5t42.5 -13.5q65 -52 149.5 -97.5t164.5 -83.5q18 -11 19.5 -22.5t-3.5 -21t-12 -15t-7 -4.5q-31 -17 -55.5 -22.5t-44.5 3.5q-48 17 -98.5 39t-97.5 46t-88 48t-71 44z" />
    <glyph glyph-name="Eacute" unicode="&#xc9;" horiz-adv-x="577" 
d="M41 798q43 11 95.5 23t110 22t118 17.5t120.5 9.5q57 1 73 -44q13 -24 18 -43.5t10 -42.5q4 -26 -4 -35t-37 -13q-60 -7 -124 -14t-135 -17q-15 -45 -28 -93.5t-29 -101.5q30 4 60 6t64 3q28 1 44 -5t27 -26q12 -20 18.5 -39.5t11.5 -39.5q8 -23 1.5 -31t-34.5 -14
q-60 -11 -122.5 -21t-120.5 -22q-8 -32 -15 -60.5t-15 -56.5q47 8 89.5 13t92.5 8q28 2 43.5 -4t26.5 -24q12 -20 18.5 -37.5t14.5 -35.5q5 -20 0 -27.5t-32 -12.5q-64 -12 -130 -25t-126 -24q-40 -10 -60.5 -4.5t-35.5 15.5q-17 11 -32.5 22.5t-36.5 29.5q-17 14 -26.5 33
t-7.5 46zM589 1152q-30 -20 -71.5 -44t-89 -48t-98.5 -46t-99 -39q-21 -9 -45.5 -3.5t-55.5 22.5q1 -1 -6 4.5t-11.5 15t-3 21t19.5 22.5q82 38 168 83.5t153 97.5q17 14 41 13.5t61 -20.5q20 -10 27.5 -29.5t9.5 -49.5z" />
    <glyph glyph-name="Ecircumflex" unicode="&#xca;" horiz-adv-x="577" 
d="M41 798q43 11 95.5 23t110 22t118 17.5t120.5 9.5q57 1 73 -44q13 -24 18 -43.5t10 -42.5q4 -26 -4 -35t-37 -13q-60 -7 -124 -14t-135 -17q-15 -45 -28 -93.5t-29 -101.5q30 4 60 6t64 3q28 1 44 -5t27 -26q12 -20 18.5 -39.5t11.5 -39.5q8 -23 1.5 -31t-34.5 -14
q-60 -11 -122.5 -21t-120.5 -22q-8 -32 -15 -60.5t-15 -56.5q47 8 89.5 13t92.5 8q28 2 43.5 -4t26.5 -24q12 -20 18.5 -37.5t14.5 -35.5q5 -20 0 -27.5t-32 -12.5q-64 -12 -130 -25t-126 -24q-40 -10 -60.5 -4.5t-35.5 15.5q-17 11 -32.5 22.5t-36.5 29.5q-17 14 -26.5 33
t-7.5 46zM534 956q-14 0 -29 1.5t-32 6.5q-29 8 -41 36q-10 29 -20 74t-22 96q-41 -44 -74.5 -85.5t-62.5 -76.5q-6 -12 -17 -12q-5 0 -9.5 3t-12.5 9q-11 11 -20 21.5t-20 26.5q-20 27 -3 50q15 22 37 53.5t48.5 65.5t56 68.5t58.5 63.5q14 17 26 17.5t26 -8.5
q14 -11 28 -21t27 -21q5 -7 9 -12.5t7 -11.5t5 -14t3 -20q4 -36 11 -75.5t15 -77t16 -71.5t14 -60q3 -15 -2 -21t-22 -5z" />
    <glyph glyph-name="Edieresis" unicode="&#xcb;" horiz-adv-x="577" 
d="M41 798l-95 -665q-2 -27 7.5 -46t26.5 -33q21 -18 36.5 -29.5t32.5 -22.5q15 -10 35.5 -15.5t60.5 4.5q60 11 126 24t130 25q27 5 32 12.5t0 27.5q-8 18 -14.5 35.5t-18.5 37.5q-11 18 -26.5 24t-43.5 4q-50 -3 -92.5 -8t-89.5 -13q8 28 15 56.5t15 60.5q58 12 120.5 22
t122.5 21q28 6 34.5 14t-1.5 31q-5 20 -11.5 39.5t-18.5 39.5q-11 20 -27 26t-44 5q-34 -1 -64 -3t-60 -6q16 53 29 101.5t28 93.5q71 10 135 17t124 14q29 4 37 13t4 35q-5 23 -10 42.5t-18 43.5q-16 45 -73 44q-60 -2 -120.5 -9.5t-118 -17.5t-110 -22t-95.5 -23z
M382 1057q-2 -24 4.5 -43t19 -32t30.5 -20t38 -6q20 0 36 7.5t27.5 18.5t19.5 23.5t11 21.5q1 8 2.5 14.5t2.5 15.5q1 24 -14.5 48t-50.5 37q-27 8 -49.5 3.5t-39 -17t-26.5 -31.5t-11 -40zM71 1057q-1 -23 6.5 -41.5t21 -32t31.5 -20t38 -5.5q20 0 35.5 7.5t27 18.5t18 23
t8.5 21l4 14t2 15q0 26 -17 49.5t-54 36.5q-26 9 -48 4.5t-37.5 -17t-25 -32t-10.5 -41.5z" />
    <glyph glyph-name="Igrave" unicode="&#xcc;" horiz-adv-x="312" 
d="M253 794q28 -19 33.5 -33t-1.5 -41q-14 -45 -29.5 -103t-31.5 -122.5t-31.5 -132t-30 -132t-26.5 -122t-21 -102.5q-5 -17 -13.5 -22t-34.5 1q-26 7 -49.5 14t-45.5 18q-23 11 -30.5 25.5t-4.5 40.5q2 35 8 90.5t15 121.5t20.5 139t23.5 143t24.5 132.5t23.5 109.5
q9 29 24 35.5t47 -2.5q31 -8 67 -24t63 -34zM-84 1182q4 30 11.5 49.5t28.5 30.5q36 20 60 20.5t43 -13.5q33 -26 71.5 -51t80 -47.5t83.5 -43.5t83 -40q18 -12 19.5 -23.5t-3.5 -21t-12 -15t-6 -4.5q-31 -17 -55.5 -22.5t-45.5 3.5q-49 17 -99.5 39.5t-98 46.5t-89 48
t-71.5 44z" />
    <glyph glyph-name="Iacute" unicode="&#xcd;" horiz-adv-x="312" 
d="M248 794q15 -9 23 -17t11.5 -16t2.5 -18t-4 -23q-14 -45 -29 -103t-30.5 -122.5t-31 -132t-29 -132t-25.5 -122t-21 -102.5q-5 -17 -13.5 -22t-34.5 1q-26 7 -49.5 14t-45.5 18q-23 11 -30.5 25.5t-5.5 40.5q2 35 8 90.5t14.5 121.5t19.5 139t22.5 143t23.5 132.5
t23 109.5q9 29 24 35.5t47 -2.5q31 -8 67 -24t63 -34zM472 1154q-30 -20 -71 -43.5t-88.5 -47.5t-98.5 -46t-100 -39q-21 -9 -45 -3.5t-55 22.5q0 -1 -6.5 4.5t-11.5 14.5t-3 21t20 23q40 19 82.5 40t83.5 43.5t80 47t72 50.5q19 14 42.5 13.5t59.5 -20.5q21 -10 28.5 -29.5
t10.5 -50.5z" />
    <glyph glyph-name="Icircumflex" unicode="&#xce;" horiz-adv-x="312" 
d="M252 794q28 -19 34 -33t-1 -41q-14 -45 -29.5 -103t-31.5 -122.5t-31.5 -132t-30 -132t-26.5 -122t-21 -102.5q-5 -17 -13.5 -22t-34.5 1q-26 7 -49.5 14t-45.5 18q-23 11 -30.5 25.5t-4.5 40.5q2 35 8 90.5t15 121.5t20 139t23.5 143t24.5 132.5t23 109.5q9 29 24 35.5
t47 -2.5q31 -8 67 -24t63 -34zM381 950q-15 0 -30 1.5t-32 6.5q-27 6 -41 35q-11 30 -21 74.5t-23 95.5q-39 -44 -73 -85.5t-61 -76.5q-9 -12 -17 -12q-6 0 -10.5 3t-11.5 9q-11 11 -21 21.5t-21 26.5q-18 28 -2 50q14 22 35.5 53.5t48 65.5t55.5 68.5t58 63.5
q14 17 26 17.5t26 -8.5q14 -11 28.5 -21t26.5 -21q5 -7 9 -12.5t7 -11.5t5 -14t3 -20q5 -36 12.5 -75.5t16 -77t16.5 -71.5t14 -60q4 -15 -1 -21t-22 -4z" />
    <glyph glyph-name="Idieresis" unicode="&#xcf;" horiz-adv-x="312" 
d="M250 794q15 -9 23 -17t11.5 -16t2.5 -18t-4 -23q-14 -45 -29.5 -103t-31 -122.5t-31 -132t-29.5 -132t-26 -122t-21 -102.5q-5 -17 -13.5 -22t-34.5 1q-26 7 -49.5 14t-45.5 18q-23 11 -30.5 25.5t-4.5 40.5q2 35 8 90.5t14.5 121.5t20 139t23 143t23.5 132.5t23 109.5
q9 29 24 35.5t47 -2.5q31 -8 67 -24t63 -34zM-65 1057q1 22 10.5 41.5t25 32t37.5 17t49 -4.5q36 -13 53 -36.5t17 -49.5q0 -18 -5 -29q-2 -9 -9 -21t-18 -23t-27 -18.5t-35 -7.5q-20 -1 -38 5.5t-31.5 20t-21.5 32t-7 41.5zM247 1057q1 21 11 40t26 31.5t38 17t49 -3.5
q35 -13 51 -37t15 -48q-1 -9 -2 -15.5t-3 -14.5q-3 -9 -10.5 -21.5t-19 -23.5t-27 -18.5t-35.5 -7.5q-42 -2 -70 25.5t-23 75.5z" />
    <glyph glyph-name="Eth" unicode="&#xd0;" horiz-adv-x="901" 
d="M9 495q44 4 81 7t74 5l30 285q38 21 90 39.5t110 28t118.5 7t116.5 -23t103.5 -61.5t80.5 -109q27 -54 33 -118t-9.5 -131.5t-52 -134.5t-94.5 -126t-137.5 -106t-180.5 -75q-53 -18 -107 9q-28 14 -49 27.5t-47 33.5q-10 9 -19 17.5t-15 19.5t-8 27t1 41l20 187
q-35 -5 -59.5 0.5t-49.5 24.5q-49 40 -72 74q-34 44 42 52zM320 139q79 33 135.5 79.5t93 97.5t55.5 102t22 95q2 32 -1.5 55t-11.5 40q-9 17 -24.5 30.5t-38 20.5t-50 6.5t-60.5 -10.5q-10 -36 -20 -71t-18 -71h13q72 0 98 -36q17 -20 24.5 -39t15.5 -35q9 -20 -4.5 -27
t-50.5 -8q-44 -2 -75 -2.5t-56 -1.5q-13 -57 -24.5 -112.5t-22.5 -112.5z" />
    <glyph glyph-name="Ntilde" unicode="&#xd1;" horiz-adv-x="702" 
d="M392 327q-11 51 -22 106.5t-21 108t-18 97.5t-13 74q-6 38 -19 57.5t-44 32.5q-38 18 -73 29t-72 22q-31 8 -49 0.5t-25 -37.5q-11 -52 -22.5 -119t-22.5 -139t-20.5 -144.5t-17 -136t-12 -113.5t-6.5 -77q-2 -26 5.5 -40.5t29.5 -25.5q23 -14 47.5 -20.5t48.5 -12.5
q26 -7 35 -2.5t13 21.5q5 36 13.5 84.5t19 105t22 118.5t22.5 124q13 -52 28 -103.5t30 -99t29.5 -88.5t28.5 -72q18 -43 62 -60q48 -17 94 -26q54 -12 60 26q16 70 38.5 162.5t47 189.5t49.5 191t48 168q8 26 4.5 44.5t-32.5 36.5q-17 11 -30 18t-24.5 12t-23.5 8t-27 7
q-32 8 -48.5 1t-24.5 -36q-29 -107 -58.5 -234t-49.5 -258zM539 985q54 0 120 50q38 26 56 49t20 42q1 18 -22 33q-20 10 -43 10q-14 0 -26 -5t-26 -15l-13 -13t-19 -18t-19.5 -16t-14.5 -7q-17 1 -33.5 7.5t-32.5 14t-31.5 15t-30.5 12.5q-27 10 -50.5 15t-48.5 5
q-21 0 -51.5 -10.5t-60.5 -26t-54 -33t-33 -32.5q-10 -22 -9 -36q1 -39 56 -39q31 0 53 14q1 0 9.5 7t19.5 15.5t23.5 15.5t22.5 7q12 0 30 -3t36 -7.5t34 -10.5t24 -13q18 -14 47 -20.5t67 -6.5z" />
    <glyph glyph-name="Ograve" unicode="&#xd2;" 
d="M541 790q38 -31 55.5 -65.5t25.5 -78.5q11 -73 5 -158.5t-29.5 -170t-64 -159.5t-99.5 -127q-40 -31 -84 -41.5t-101 -4.5q-38 4 -78 12.5t-73 25.5q-27 14 -53 36t-41 50q-24 46 -36 104t-11 122t15 130.5t41 129.5t66.5 119.5t91.5 101.5q35 27 83.5 41t92.5 7
q57 -9 108.5 -28t85.5 -46zM380 690q-21 7 -47 -17.5t-52 -66.5t-48.5 -93.5t-36.5 -99.5q-14 -47 -20 -97.5t-4 -94t14 -74.5t35 -38q21 -7 44 9t46 49t43.5 81.5t35.5 105.5q13 47 21 103.5t8 105.5q0 50 -9.5 85.5t-29.5 41.5zM98 1152q4 30 12 49.5t29 29.5
q36 20 59.5 20.5t42.5 -13.5q33 -26 71 -50.5t79 -47t83 -43.5t82 -40q18 -11 20 -22.5t-3 -21t-12 -15t-7 -4.5q-31 -17 -55.5 -22.5t-45.5 3.5q-48 17 -98.5 39t-97.5 46t-88 48t-71 44z" />
    <glyph glyph-name="Oacute" unicode="&#xd3;" 
d="M541 790q38 -31 55.5 -65.5t25.5 -78.5q11 -73 5 -158.5t-29.5 -170t-64 -159.5t-99.5 -127q-40 -31 -84 -41.5t-101 -4.5q-38 4 -78 12.5t-73 25.5q-27 14 -53 36t-41 50q-24 46 -36 104t-11 122t15 130.5t41 129.5t66.5 119.5t91.5 101.5q35 27 83.5 41t92.5 7
q57 -9 108.5 -28t85.5 -46zM380 690q-21 7 -47 -17.5t-52 -66.5t-48.5 -93.5t-36.5 -99.5q-14 -47 -20 -97.5t-4 -94t14 -74.5t35 -38q21 -7 44 9t46 49t43.5 81.5t35.5 105.5q13 47 21 103.5t8 105.5q0 50 -9.5 85.5t-29.5 41.5zM582 1152q-30 -20 -71.5 -44t-89 -48
t-98 -46t-98.5 -39q-21 -9 -45.5 -3.5t-55.5 22.5q1 -1 -6 4.5t-11.5 15t-3 21t18.5 22.5q82 38 167.5 83.5t152.5 97.5q17 14 41 13.5t61 -20.5q20 -10 28 -29.5t10 -49.5z" />
    <glyph glyph-name="Ocircumflex" unicode="&#xd4;" 
d="M541 790q38 -31 55.5 -65.5t25.5 -78.5q11 -73 5 -158.5t-29.5 -170t-64 -159.5t-99.5 -127q-40 -31 -84 -41.5t-101 -4.5q-38 4 -78 12.5t-73 25.5q-27 14 -53 36t-41 50q-24 46 -36 104t-11 122t15 130.5t41 129.5t66.5 119.5t91.5 101.5q35 27 83.5 41t92.5 7
q57 -9 108.5 -28t85.5 -46zM380 690q-21 7 -47 -17.5t-52 -66.5t-48.5 -93.5t-36.5 -99.5q-14 -47 -20 -97.5t-4 -94t14 -74.5t35 -38q21 -7 44 9t46 49t43.5 81.5t35.5 105.5q13 47 21 103.5t8 105.5q0 50 -9.5 85.5t-29.5 41.5zM586 934q-14 0 -28.5 1.5t-31.5 6.5
q-29 6 -41 35q-10 29 -19.5 73.5t-22.5 95.5q-41 -44 -74 -85t-62 -76q-8 -12 -18 -12q-5 0 -9 3l-12 9q-11 10 -20 21t-20 27q-19 26 -3 49q15 22 37 53t48.5 65t56 68.5t58.5 63.5q14 17 26 17.5t26 -8.5q14 -11 28 -21t27 -21q5 -7 9 -12.5t7 -11.5t4.5 -14t2.5 -20
q4 -36 11 -75t15 -76.5t16 -71.5t14 -59q3 -15 -2 -21t-23 -4z" />
    <glyph glyph-name="Otilde" unicode="&#xd5;" 
d="M537 790q-35 27 -86.5 46t-108.5 28q-43 7 -92 -7t-83 -41q-52 -45 -91 -101.5t-65.5 -119.5t-40 -129.5t-14.5 -130.5t11 -122t36 -104q15 -28 41.5 -50t53.5 -36q33 -17 73 -25.5t78 -12.5q57 -6 101 4.5t84 41.5q58 52 98.5 127t63.5 159.5t28.5 170t-5.5 158.5
q-8 44 -26 78.5t-56 65.5zM376 690q20 -6 29.5 -41.5t10 -85t-7 -106t-20.5 -103.5q-15 -57 -35 -105.5t-43 -81.5t-46 -49t-44 -9q-23 7 -34.5 38t-14.5 74.5t3 94t20 97.5q13 48 35.5 99.5t48 93.5t51.5 66.5t47 17.5zM536 985q54 0 120 50q38 26 56 49t20 42q0 18 -23 33
q-20 10 -42 10q-26 0 -52 -20l-13 -13t-19.5 -18t-20 -16t-14.5 -7q-17 1 -33 7.5t-32.5 14t-32 15t-30.5 12.5q-27 10 -50.5 15t-47.5 5q-21 0 -51.5 -10.5t-60.5 -26t-54 -33t-33 -32.5q-10 -22 -9 -36q1 -39 56 -39q31 0 53 14q1 0 9.5 7t19.5 15.5t23.5 15.5t22.5 7
q12 0 30 -3t36 -7.5t34 -10.5t24 -13q18 -14 47 -20.5t67 -6.5z" />
    <glyph glyph-name="Odieresis" unicode="&#xd6;" 
d="M541 790q38 -31 55.5 -65.5t25.5 -78.5q11 -73 5 -158.5t-29.5 -170t-64 -159.5t-99.5 -127q-40 -31 -84 -41.5t-101 -4.5q-38 4 -78 12.5t-73 25.5q-27 14 -53 36t-41 50q-24 46 -36 104t-11 122t15 130.5t41 129.5t66.5 119.5t91.5 101.5q35 27 83.5 41t92.5 7
q57 -9 108.5 -28t85.5 -46zM380 690q-21 7 -47 -17.5t-52 -66.5t-48.5 -93.5t-36.5 -99.5q-14 -47 -20 -97.5t-4 -94t14 -74.5t35 -38q21 -7 44 9t46 49t43.5 81.5t35.5 105.5q13 47 21 103.5t8 105.5q0 50 -9.5 85.5t-29.5 41.5zM435 1057q2 21 12 40t26.5 31.5t39 17
t49.5 -3.5q35 -13 50.5 -37t13.5 -48q0 -9 -1.5 -15.5t-3.5 -14.5q-3 -9 -10.5 -21.5t-19.5 -23.5t-28 -18.5t-35 -7.5q-20 -1 -38 6t-31 20t-19.5 32t-4.5 43zM124 1057q1 22 10.5 41.5t25.5 32t38 17t48 -4.5q37 -13 54 -36.5t17 -49.5q0 -8 -2 -15l-4 -14q-2 -9 -9 -21
t-18 -23t-27 -18.5t-35 -7.5q-20 -1 -38 5.5t-31.5 20t-21.5 32t-7 41.5z" />
    <glyph glyph-name="multiply" unicode="&#xd7;" horiz-adv-x="655" 
d="M417 197q-42 26 -83.5 52.5t-90.5 52.5q-62 -31 -118.5 -60.5t-101.5 -53.5q-23 -11 -32 -10t-15 18q-6 16 -11 29.5t-10 32.5q-6 30 31 55q22 11 49.5 28.5t62.5 35.5q-24 12 -46 22t-44 19q-21 9 -26.5 18t-2.5 31q5 19 17.5 45.5t25.5 45.5q14 19 33 18.5t36 -7.5
q39 -17 87 -42t97 -54q66 32 124 59t104 45q23 9 41 8t24 -16q8 -20 10 -44t-3 -43q-5 -22 -15 -31.5t-36 -19.5q-25 -11 -51.5 -21.5t-53.5 -24.5q26 -18 48 -33.5t38 -27.5q29 -23 8 -55q-10 -20 -21.5 -34t-22.5 -29q-14 -17 -25 -18.5t-27 9.5z" />
    <glyph glyph-name="Oslash" unicode="&#xd8;" 
d="M634 931q24 -23 24 -40q0 -16 -15 -39q-13 -19 -29.5 -44.5t-36.5 -57.5q19 -23 29 -49t16 -55q11 -73 5 -158.5t-29.5 -170t-64 -159.5t-99.5 -127q-40 -31 -84 -41.5t-101 -4.5q-29 3 -58 8t-58 14q-11 -21 -21 -38.5t-17 -30.5q-8 -17 -20 -21t-35 7q-11 6 -8.5 5
t8 -3.5t9 -4t-3.5 2.5q-19 11 -22 28q-3 16 7 39q5 10 11.5 25t16.5 33q-17 12 -31.5 27.5t-22.5 32.5q-24 46 -36 104t-11 122t15 130.5t41 129.5t66.5 119.5t91.5 101.5q34 27 83 41t92 7q34 -6 66.5 -15t61.5 -22q21 35 38 62.5t31 46.5q30 51 78 15q12 -8 12 -9l-3 1
t-4.5 -0.5t8.5 -11.5zM390 354q8 29 13.5 61t8.5 66q-55 -94 -110.5 -187t-101.5 -171q4 -5 9 -8.5t12 -5.5q21 -7 44 9t46 49t43.5 81.5t35.5 105.5zM380 690q-21 7 -47 -17.5t-52 -66.5t-48.5 -93.5t-36.5 -99.5q-11 -34 -16.5 -70t-7.5 -71q24 48 51 100t55.5 104.5
l57 105t56.5 101.5q-2 3 -6 4.5t-6 2.5z" />
    <glyph glyph-name="Ugrave" unicode="&#xd9;" horiz-adv-x="676" 
d="M-5 102q-21 35 -30.5 83.5t-9.5 106.5t8 123t21 132t29.5 134.5t34.5 131.5q8 29 23.5 35t47.5 -5q30 -9 57.5 -23t53.5 -33q54 -39 37 -100q-16 -52 -33.5 -112.5t-32.5 -122.5t-25.5 -121t-13 -106t5 -78t29.5 -37q27 -7 53 26t49.5 91.5t45 135.5t40 158.5t33.5 160.5
t27 141q2 30 22 36t48.5 -1.5t61 -24t59.5 -32.5q14 -9 21.5 -16.5t10.5 -15.5t2 -17.5t-4 -22.5q-30 -143 -60.5 -262.5t-64.5 -211.5t-74 -154t-89 -90q-35 -17 -70 -23.5t-80 -3.5q-90 6 -148 38q-25 14 -47 33t-38 47zM96 1152q4 30 12 49.5t28 29.5q36 20 60 20.5
t42 -13.5q33 -26 71.5 -50.5t79.5 -47t83 -43.5t82 -40q18 -11 20 -22.5t-3 -21t-12 -15t-7 -4.5q-31 -17 -55.5 -22.5t-44.5 3.5q-48 17 -99 39t-98 46t-88 48t-71 44z" />
    <glyph glyph-name="Uacute" unicode="&#xda;" horiz-adv-x="676" 
d="M-5 102q-21 35 -30.5 83.5t-9.5 106.5t8 123t21 132t29.5 134.5t34.5 131.5q8 29 23.5 35t47.5 -5q30 -9 57.5 -23t53.5 -33q54 -39 37 -100q-16 -52 -33.5 -112.5t-32.5 -122.5t-25.5 -121t-13 -106t5 -78t29.5 -37q27 -7 53 26t49.5 91.5t45 135.5t40 158.5t33.5 160.5
t27 141q2 30 22 36t48.5 -1.5t61 -24t59.5 -32.5q14 -9 21.5 -16.5t10.5 -15.5t2 -17.5t-4 -22.5q-30 -143 -60.5 -262.5t-64.5 -211.5t-74 -154t-89 -90q-35 -17 -70 -23.5t-80 -3.5q-90 6 -148 38q-25 14 -47 33t-38 47zM580 1152q-30 -20 -71.5 -44t-89 -48t-98 -46
t-98.5 -39q-21 -9 -45.5 -3.5t-55.5 22.5q1 -1 -6 4.5t-11.5 15t-3 21t18.5 22.5q41 19 83.5 40t84 43.5t80 47t71.5 50.5q18 14 41.5 13.5t60.5 -20.5q20 -10 28 -29.5t11 -49.5z" />
    <glyph glyph-name="Ucircumflex" unicode="&#xdb;" horiz-adv-x="676" 
d="M-5 102q-21 35 -30.5 83.5t-9.5 106.5t8 123t21 132t29.5 134.5t34.5 131.5q8 29 23.5 35t47.5 -5q30 -9 57.5 -23t53.5 -33q54 -39 37 -100q-16 -52 -33.5 -112.5t-32.5 -122.5t-25.5 -121t-13 -106t5 -78t29.5 -37q27 -7 53 26t49.5 91.5t45 135.5t40 158.5t33.5 160.5
t27 141q2 30 22 36t48.5 -1.5t61 -24t59.5 -32.5q14 -9 21.5 -16.5t10.5 -15.5t2 -17.5t-4 -22.5q-30 -143 -60.5 -262.5t-64.5 -211.5t-74 -154t-89 -90q-35 -17 -70 -23.5t-80 -3.5q-90 6 -148 38q-25 14 -47 33t-38 47zM526 956q-14 0 -29 1.5t-32 6.5q-29 8 -41 36
q-11 29 -21 74t-23 96q-40 -44 -73 -85.5t-62 -76.5q-8 -12 -18 -12q-5 0 -9 3l-12 9q-11 11 -20.5 21.5t-20.5 26.5q-20 27 -3 50q14 22 36 53.5t48 65.5t55.5 68.5t58.5 63.5q14 17 26 17.5t26 -8.5q14 -11 28 -21t27 -21q5 -7 9 -12.5t7 -11.5t5 -14t3 -20
q5 -36 12.5 -75.5t15.5 -77t16.5 -71.5t14.5 -60q3 -15 -2 -21t-22 -5z" />
    <glyph glyph-name="Udieresis" unicode="&#xdc;" horiz-adv-x="676" 
d="M-5 102q-21 35 -30.5 83.5t-9.5 106.5t8 123t21 132t29.5 134.5t34.5 131.5q8 29 23.5 35t47.5 -5q30 -9 57.5 -23t53.5 -33q54 -39 37 -100q-16 -52 -33.5 -112.5t-32.5 -122.5t-25.5 -121t-13 -106t5 -78t29.5 -37q27 -7 53 26t49.5 91.5t45 135.5t40 158.5t33.5 160.5
t27 141q2 30 22 36t48.5 -1.5t61 -24t59.5 -32.5q14 -9 21.5 -16.5t10.5 -15.5t2 -17.5t-4 -22.5q-30 -143 -60.5 -262.5t-64.5 -211.5t-74 -154t-89 -90q-35 -17 -70 -23.5t-80 -3.5q-90 6 -148 38q-25 14 -47 33t-38 47zM113 1057q1 22 10.5 41.5t25.5 32t38 17t49 -4.5
q36 -13 52.5 -36.5t16.5 -49.5q0 -18 -5 -29q-2 -9 -9 -21t-18.5 -23t-27 -18.5t-35.5 -7.5q-20 -1 -37.5 5.5t-31 20t-21.5 32t-7 41.5zM425 1057q2 21 11.5 40t26 31.5t38.5 17t49 -3.5q35 -13 50.5 -37t14.5 -48q-1 -9 -2 -15.5t-3 -14.5q-3 -9 -10.5 -21.5t-19 -23.5
t-27.5 -18.5t-35 -7.5q-42 -2 -70 25.5t-23 75.5z" />
    <glyph glyph-name="Yacute" unicode="&#xdd;" horiz-adv-x="651" 
d="M644 714q-17 -38 -50.5 -94t-75.5 -121t-89 -134t-91 -132q-17 -67 -29 -124.5t-23 -111.5q-5 -20 -14 -24t-35 2q-24 6 -50 14.5t-48 17.5q-22 14 -29 27.5t-5 39.5q7 43 13 99.5t18 125.5q-21 60 -45 127t-48 134.5t-46.5 132t-40.5 120.5q-11 27 -5.5 36.5t31.5 14.5
q31 2 59.5 3.5t58.5 -5.5t43.5 -22.5t29.5 -47.5q23 -60 48 -137t52 -163q54 86 106 176t104 183q9 25 29 26.5t43 -10t45.5 -30.5t38.5 -34q9 -11 14 -20.5t5.5 -19.5t-3.5 -21.5t-11 -27.5zM578 1152q-29 -20 -70.5 -44t-89 -48t-98 -46t-98.5 -39q-21 -9 -45.5 -3.5
t-56.5 22.5q1 -1 -5.5 4.5t-11.5 15t-3.5 21t19.5 22.5q40 19 83 40t84 43.5t80 47t72 50.5q17 14 41 13.5t61 -20.5q20 -10 28 -29.5t10 -49.5z" />
    <glyph glyph-name="Thorn" unicode="&#xde;" horiz-adv-x="657" 
d="M236 794q29 -19 34.5 -33t-0.5 -41q-2 -9 -6 -18.5t-6 -18.5q37 8 73 11.5t68.5 0.5t61 -14t50.5 -31q34 -36 62 -77.5t43 -101.5q7 -29 3.5 -54.5t-14.5 -48.5t-28.5 -44t-37.5 -41q-33 -32 -79.5 -62.5t-101 -57t-113.5 -48.5t-117 -37q-4 -19 -7 -37t-6 -35
q-5 -17 -13 -22t-34 1q-26 7 -50 14t-46 18q-23 11 -31 25.5t-6 40.5q1 35 6 90.5t13 121.5t18 139t20.5 143t21.5 132.5t21 109.5q8 29 23 35.5t47 -2.5q31 -8 67 -24t64 -34zM168 257q69 22 121 53t85 63.5t46.5 63t6.5 51.5q-3 12 -21 17.5t-46 5t-63 -8t-71 -22.5
q-15 -52 -29 -107.5t-29 -115.5z" />
    <glyph glyph-name="germandbls" unicode="&#xdf;" horiz-adv-x="1023" 
d="M116 439q28 22 57 49.5t55 56.5t47.5 58t35.5 55q12 22 20.5 43.5t11 42.5t-3 42.5t-20.5 44.5q-11 16 -29.5 32t-42.5 28t-52 17.5t-59 -0.5q-52 -10 -94.5 -45t-69.5 -86q-16 -32 -11.5 -45.5t21.5 -19.5q29 -10 62 -9.5t57 19.5q15 16 30.5 30.5t30 24t26 13
t19.5 -2.5q9 -5 1 -25.5t-27.5 -50.5t-48.5 -66.5t-62.5 -74t-69.5 -72.5t-70 -62q-14 -13 -9.5 -26t13.5 -24q11 -13 28 -28t30 -23q8 -8 19 -11.5t40 2.5q19 4 47.5 9t60 9t63 7.5t55.5 4.5q14 2 17.5 6.5t-1.5 16.5q-3 11 -11.5 24t-16.5 24q-9 12 -19.5 17.5t-25.5 3.5
q-20 -1 -49 -2.5t-55 -6.5zM954 780q-6 11 -8 13.5t-4 2.5q-1 0 -4.5 1.5t-11.5 11.5q-32 42 -80 3q-43 -34 -105 -89t-131.5 -120.5t-141.5 -135.5t-136.5 -134t-115 -115t-77.5 -79q-21 -21 -24 -37q-1 -8 1 -16t10 -16q6 -6 6 -5v4t2 2t10 -7q17 -14 30 -13.5t30 17.5
q35 33 91.5 83.5t123.5 110t140.5 124t142.5 124t129 110.5t101 84q23 19 29.5 34t-7.5 42zM869 236q29 12 53.5 25t41.5 28q15 12 25.5 29.5t13 39t-4.5 45.5t-27 48q-19 22 -39 33.5t-39 15.5t-37 2.5t-34 -4.5q-43 -8 -80.5 -32t-59.5 -48q-15 -19 4 -36q10 -8 25 -14
t31.5 -7.5t32 1t27.5 11.5q17 9 37 18.5t34 9.5q9 0 14 -7q6 -8 -2 -21t-32 -29.5t-65 -35t-100 -36.5q-14 -4 -15.5 -12t5.5 -20q17 -28 43 -42t54 -10q22 2 35 1t24 -10q11 -10 10.5 -32.5t-25.5 -46.5q-26 -23 -58.5 -26t-83.5 22q-18 8 -41 10t-43 -9
q-11 -6 -11.5 -16.5t25.5 -30.5q40 -35 81.5 -48t79.5 -13q50 0 92 14.5t76 52.5q30 34 30 76t-43 79q-11 10 -24.5 15.5t-29.5 9.5z" />
    <glyph glyph-name="agrave" unicode="&#xe0;" horiz-adv-x="718" 
d="M417 189q3 -41 6 -75.5t7 -63.5q4 -28 13.5 -39t33.5 -18q23 -8 45 -9.5t48 -1.5t33.5 7t7.5 25q-1 86 -0.5 186.5t2.5 200.5t6 192t10 163q3 29 -5.5 47t-39.5 29q-23 6 -45.5 13t-49 13t-58.5 10.5t-73 6.5q-47 4 -71 -13t-39 -44q-42 -75 -88.5 -171.5t-91 -195.5
t-83 -192t-62.5 -162q-6 -21 -5.5 -33.5t5.5 -20.5t14 -13.5t21 -13.5q16 -8 31.5 -14.5t28.5 -11.5q23 -8 34.5 -5t19.5 20q14 32 29 65.5t35 72.5q57 15 131.5 25.5t149.5 20.5zM182 1159q29 -20 70 -44t88 -48t97 -46t98 -39q20 -9 44.5 -3.5t55.5 22.5q0 -1 7 4.5
t12 14.5t4 21t-19 23q-80 38 -164 83.5t-149 98.5q-19 14 -42.5 13t-60.5 -21q-21 -10 -29 -29.5t-12 -49.5zM226 329q47 95 93.5 183.5t86.5 161.5q-2 -80 -1 -161.5t3 -163.5q-46 -3 -91.5 -8t-90.5 -12z" />
    <glyph glyph-name="aacute" unicode="&#xe1;" horiz-adv-x="718" 
d="M417 189q2 -41 5.5 -75.5t7.5 -63.5q4 -28 13.5 -39t33.5 -18q23 -8 45 -9.5t48 -1.5t33.5 7t7.5 25q-1 86 -0.5 186.5t2.5 200.5t5.5 192t9.5 163q3 29 -5 47t-40 29q-23 6 -45.5 13t-48.5 13t-58 10.5t-73 6.5q-24 2 -41 -1.5t-30 -11.5t-22.5 -19.5t-17.5 -24.5
q-28 -50 -58 -110.5t-60.5 -125t-60.5 -131.5t-56.5 -130t-49.5 -120.5t-39 -103.5q-6 -21 -5.5 -33.5t5.5 -20.5t14 -13.5t21 -13.5q16 -8 31.5 -14.5t28.5 -11.5q23 -8 34.5 -5t19.5 20q13 32 28 65.5t36 72.5q57 15 131.5 25.5t149.5 20.5zM692 1152q-3 30 -10 49.5
t-28 29.5q-35 20 -58.5 20.5t-43.5 -13.5q-33 -26 -72.5 -50.5t-81 -47t-84.5 -43.5t-83 -40q-18 -11 -20.5 -22.5t2.5 -21t11.5 -15t6.5 -4.5q30 -17 54.5 -22.5t45.5 3.5q49 17 100 39t99 46t90 48t72 44zM226 329q46 95 93 183.5t86 161.5q-2 -80 -0.5 -161.5t3.5 -163.5
q-47 -3 -92 -8t-90 -12z" />
    <glyph glyph-name="acircumflex" unicode="&#xe2;" horiz-adv-x="718" 
d="M417 189q3 -41 6 -75.5t7 -63.5q4 -28 13.5 -39t33.5 -18q23 -8 45 -9.5t48 -1.5t33.5 7t7.5 25q-1 86 -0.5 186.5t2.5 200.5t6 192t10 163q3 29 -5.5 47t-39.5 29q-23 6 -45.5 13t-49 13t-58.5 10.5t-73 6.5q-47 4 -71 -13t-39 -44q-42 -75 -88.5 -171.5t-91 -195.5
t-83 -192t-62.5 -162q-6 -21 -5.5 -33.5t5.5 -20.5t14 -13.5t21 -13.5q16 -8 31.5 -14.5t28.5 -11.5q23 -8 34.5 -5t19.5 20q14 32 29 65.5t35 72.5q57 15 131.5 25.5t149.5 20.5zM628 960q17 -1 22.5 5t1.5 21q-6 26 -13 60t-14.5 71.5t-14.5 77t-11 76.5q-1 12 -2.5 20
t-4.5 14t-7 11.5t-9 12.5q-12 11 -26 21t-28 21q-14 9 -26 8.5t-27 -17.5q-30 -29 -59.5 -63.5t-56 -69t-49 -65.5t-37.5 -53q-17 -24 1 -51q11 -16 21 -26.5t21 -21.5q12 -12 21 -12t17 12q29 35 63 76.5t75 85.5q11 -51 20.5 -95.5t19.5 -74.5q14 -29 41 -35q17 -5 32 -7
t29 -2zM226 329q47 95 93.5 183.5t86.5 161.5q-2 -80 -1 -161.5t3 -163.5q-46 -3 -91.5 -8t-90.5 -12z" />
    <glyph glyph-name="atilde" unicode="&#xe3;" horiz-adv-x="718" 
d="M416 189q3 -41 6.5 -75.5t7.5 -63.5q4 -28 13.5 -39t33.5 -18q23 -8 45 -9.5t48 -1.5t33.5 7t7.5 25q-2 86 -1.5 186.5t2 200.5t5 192t8.5 163q3 29 -5 47t-40 29q-23 6 -45.5 13t-49 13t-58.5 10.5t-73 6.5q-47 4 -71 -13t-39 -44q-27 -50 -57 -110.5t-60.5 -125
t-60 -131.5t-56 -130t-49 -120.5t-38.5 -103.5q-6 -21 -5.5 -33.5t5.5 -20.5t14 -13.5t21 -13.5q16 -8 31.5 -14.5t28.5 -11.5q23 -8 34.5 -5t19.5 20q13 32 28 65.5t35 72.5q57 15 131.5 25.5t149.5 20.5zM541 985q54 0 120 50q38 26 56 49t20 42q0 19 -22 33
q-20 10 -43 10q-14 0 -26 -5t-26 -15l-13 -13t-19.5 -18t-20 -16t-14.5 -7q-17 1 -33 7.5t-32.5 14t-32 15t-30.5 12.5q-26 10 -50 15t-48 5q-21 0 -51.5 -10.5t-60.5 -26t-54 -33t-33 -32.5q-10 -19 -10 -36q1 -39 57 -39q30 0 52 14q2 0 10.5 7t19.5 15.5t23.5 15.5
t22.5 7q12 0 29.5 -3t35.5 -7.5t34 -10.5t24 -13q36 -27 115 -27zM224 329q47 95 93 183.5t86 161.5q-2 -80 0 -161.5t4 -163.5q-47 -3 -92 -8t-91 -12z" />
    <glyph glyph-name="adieresis" unicode="&#xe4;" horiz-adv-x="718" 
d="M417 189q2 -41 5.5 -75.5t7.5 -63.5q4 -28 13.5 -39t33.5 -18q23 -8 45 -9.5t48 -1.5t33.5 7t7.5 25q-1 86 -0.5 186.5t2.5 200.5t5.5 192t8.5 163q4 29 -4.5 47t-40.5 29q-23 6 -45.5 13t-48.5 13t-58 10.5t-73 6.5q-47 4 -71 -13t-40 -44q-28 -50 -58 -110.5
t-60.5 -125t-60.5 -131.5t-56.5 -130t-49 -120.5t-38.5 -103.5q-6 -21 -5.5 -33.5t5.5 -20.5t14 -13.5t21 -13.5q16 -8 31.5 -14.5t28.5 -11.5q23 -8 34.5 -5t19.5 20q13 32 28 65.5t36 72.5q57 15 131.5 25.5t149.5 20.5zM225 329q47 95 93.5 183.5t86.5 161.5
q-2 -80 -0.5 -161.5t3.5 -163.5q-47 -3 -92 -8t-91 -12zM505 1064q-2 -24 4.5 -43t19 -32.5t30.5 -20t38 -5.5q19 0 35 7.5t28 18.5t20 23.5t11 21.5q2 8 3.5 14.5t2.5 15.5q2 24 -13.5 48t-50.5 37q-27 9 -49.5 4.5t-39 -17.5t-27 -32t-12.5 -40zM194 1064q-1 -23 6.5 -42
t21 -32t31 -20t37.5 -6q20 0 36 7.5t27 19t18 23.5t9 21q5 12 7 29q0 26 -16.5 49.5t-53.5 36.5q-26 9 -48 4.5t-38 -17t-26 -32t-11 -41.5z" />
    <glyph glyph-name="aring" unicode="&#xe5;" horiz-adv-x="718" 
d="M417 189q3 -41 6 -75.5t7 -63.5q4 -28 13.5 -39t33.5 -18q23 -8 45 -9.5t48 -1.5t33.5 7t7.5 25q-1 86 -0.5 186.5t2.5 200.5t5.5 192t9.5 163q4 29 -4.5 47t-40.5 29q-23 6 -45.5 13t-48.5 13t-58 10.5t-73 6.5q-47 4 -71 -13t-40 -44q-28 -50 -58 -110.5t-60.5 -125
t-60.5 -131.5t-56.5 -130t-49.5 -120.5t-39 -103.5q-6 -21 -5.5 -33.5t5.5 -20.5t14 -13.5t21 -13.5q16 -8 31.5 -14.5t28.5 -11.5q23 -8 34.5 -5t19.5 20q14 32 28.5 65.5t35.5 72.5q57 15 131.5 25.5t149.5 20.5zM632 1244q-20 9 -49.5 16t-62.5 11q-25 2 -54 -3t-49 -15
q-48 -25 -80 -60t-47.5 -73t-14 -74.5t22.5 -64.5q8 -13 24 -22.5t32 -14.5q21 -8 46.5 -11t48.5 -5q37 -3 65 1.5t54 17.5q37 22 62 52.5t39 64t17 67t-4 61.5q-6 16 -16.5 28.5t-33.5 23.5zM226 329q46 95 93 183.5t87 161.5q-2 -80 -1 -161.5t3 -163.5q-47 -3 -92 -8
t-90 -12zM537 1208q12 -2 17.5 -15.5t5.5 -32.5t-4.5 -40.5t-13.5 -39.5q-10 -24 -23.5 -43.5t-28 -33t-29.5 -20t-28 -2.5q-14 2 -20.5 14.5t-7 30t4.5 38t14 38.5q9 19 23.5 38.5t30 35t31.5 25t28 7.5z" />
    <glyph glyph-name="ae" unicode="&#xe6;" horiz-adv-x="1056" 
d="M739 834q-21 6 -42 13t-46.5 13t-57 10.5t-71.5 6.5q-44 4 -72.5 -13t-48.5 -45q-37 -50 -79 -110.5t-85 -125t-86 -131.5t-82 -130t-72.5 -120.5t-58.5 -103.5q-11 -21 -13 -33.5t1.5 -20.5t11.5 -13.5t18 -13.5q14 -8 29 -14.5t26 -11.5q23 -8 34.5 -5t23.5 20
q19 32 39.5 65.5t49.5 72.5q59 15 136 25t152 20q-5 -33 -10 -55t-9 -37t-6 -25.5t-2 -21.5q-2 -28 14 -38.5t39 -17.5q7 -4 27.5 -5.5t44.5 -1.5q25 0 47.5 1t32.5 3q60 11 126.5 24t131.5 25q26 5 31.5 12.5t1.5 27.5q-7 18 -13 35.5t-17 37.5q-9 18 -25 24t-43 4
q-51 -3 -93.5 -8t-88.5 -13q0 4 1.5 7t1.5 8q8 23 15.5 48.5t15.5 53.5q58 12 120.5 22t124.5 21q28 6 35 14t0 31q-5 20 -10.5 39.5t-17.5 39.5q-9 20 -24.5 26t-44.5 5q-33 -1 -63 -3t-61 -6q19 53 34 101.5t31 93.5q71 10 135.5 17t124.5 14q30 4 38.5 13t5.5 35
q-5 23 -8.5 42.5t-16.5 43.5q-12 46 -69 44q-78 -3 -139 -13.5t-118 -25.5q-1 1 -3 1t-4 2zM283 330q66 95 129.5 183.5t119.5 162.5q-17 -81 -32.5 -162.5t-27.5 -163.5q-48 -3 -94 -8t-95 -12z" />
    <glyph glyph-name="ccedilla" unicode="&#xe7;" horiz-adv-x="642" 
d="M149 -193q12 12 26 31t28.5 40.5t26.5 44t19 41.5q0 2 0.5 4.5t0.5 4.5q42 0 81.5 10.5t64.5 27.5q28 20 56 50t46 66q17 31 15.5 52t-39.5 31q-95 27 -154 -33q-82 -84 -122 -71q-21 6 -32 34t-13 68.5t4.5 90t19.5 99.5q14 48 38.5 104t52.5 102.5t55 75.5t47 23
q20 -8 24 -34t3 -58q0 -18 3 -39q4 -25 13 -44t24 -33.5t38 -25t55 -16.5q17 -3 27 -2t15.5 5t8.5 11t6 15q6 18 11 40.5t8 47t4.5 49.5t0.5 48q-1 20 -4 37.5t-10.5 33.5t-20 31.5t-31.5 31.5q-20 13 -45 25.5t-53 23t-58 18t-58 10.5q-38 3 -81 -8t-85 -47
q-52 -45 -92.5 -104.5t-69.5 -126.5t-45.5 -137.5t-19.5 -137t7.5 -125t36.5 -101.5q15 -28 42 -49t54 -32q3 -2 7 -3t9 -3l-25 -50t-25.5 -50.5t-23.5 -46t-19 -37.5q-16 -29 26 -36q18 -2 34 -3.5t33 0.5q33 2 55 26z" />
    <glyph glyph-name="egrave" unicode="&#xe8;" horiz-adv-x="577" 
d="M41 798q43 11 95.5 23t110 22t118 17.5t120.5 9.5q57 1 73 -44q13 -24 18 -43.5t10 -42.5q4 -26 -4 -35t-37 -13q-60 -7 -124 -14t-135 -17q-15 -45 -28 -93.5t-29 -101.5q30 4 60 6t64 3q28 1 44 -5t27 -26q12 -20 18.5 -39.5t11.5 -39.5q8 -23 1.5 -31t-34.5 -14
q-60 -11 -122.5 -21t-120.5 -22q-8 -32 -15 -60.5t-15 -56.5q47 8 89.5 13t92.5 8q28 2 43.5 -4t26.5 -24q12 -20 18.5 -37.5t14.5 -35.5q5 -20 0 -27.5t-32 -12.5q-64 -12 -130 -25t-126 -24q-40 -10 -60.5 -4.5t-35.5 15.5q-17 11 -32.5 22.5t-36.5 29.5q-17 14 -26.5 33
t-7.5 46zM105 1152q5 30 13 49.5t28 29.5q37 20 60.5 20.5t42.5 -13.5q65 -52 149.5 -97.5t164.5 -83.5q18 -11 19.5 -22.5t-3.5 -21t-12 -15t-7 -4.5q-31 -17 -55.5 -22.5t-44.5 3.5q-48 17 -98.5 39t-97.5 46t-88 48t-71 44z" />
    <glyph glyph-name="eacute" unicode="&#xe9;" horiz-adv-x="577" 
d="M41 798q43 11 95.5 23t110 22t118 17.5t120.5 9.5q57 1 73 -44q13 -24 18 -43.5t10 -42.5q4 -26 -4 -35t-37 -13q-60 -7 -124 -14t-135 -17q-15 -45 -28 -93.5t-29 -101.5q30 4 60 6t64 3q28 1 44 -5t27 -26q12 -20 18.5 -39.5t11.5 -39.5q8 -23 1.5 -31t-34.5 -14
q-60 -11 -122.5 -21t-120.5 -22q-8 -32 -15 -60.5t-15 -56.5q47 8 89.5 13t92.5 8q28 2 43.5 -4t26.5 -24q12 -20 18.5 -37.5t14.5 -35.5q5 -20 0 -27.5t-32 -12.5q-64 -12 -130 -25t-126 -24q-40 -10 -60.5 -4.5t-35.5 15.5q-17 11 -32.5 22.5t-36.5 29.5q-17 14 -26.5 33
t-7.5 46zM589 1152q-30 -20 -71.5 -44t-89 -48t-98.5 -46t-99 -39q-21 -9 -45.5 -3.5t-55.5 22.5q1 -1 -6 4.5t-11.5 15t-3 21t19.5 22.5q82 38 168 83.5t153 97.5q17 14 41 13.5t61 -20.5q20 -10 27.5 -29.5t9.5 -49.5z" />
    <glyph glyph-name="ecircumflex" unicode="&#xea;" horiz-adv-x="577" 
d="M41 798q43 11 95.5 23t110 22t118 17.5t120.5 9.5q57 1 73 -44q13 -24 18 -43.5t10 -42.5q4 -26 -4 -35t-37 -13q-60 -7 -124 -14t-135 -17q-15 -45 -28 -93.5t-29 -101.5q30 4 60 6t64 3q28 1 44 -5t27 -26q12 -20 18.5 -39.5t11.5 -39.5q8 -23 1.5 -31t-34.5 -14
q-60 -11 -122.5 -21t-120.5 -22q-8 -32 -15 -60.5t-15 -56.5q47 8 89.5 13t92.5 8q28 2 43.5 -4t26.5 -24q12 -20 18.5 -37.5t14.5 -35.5q5 -20 0 -27.5t-32 -12.5q-64 -12 -130 -25t-126 -24q-40 -10 -60.5 -4.5t-35.5 15.5q-17 11 -32.5 22.5t-36.5 29.5q-17 14 -26.5 33
t-7.5 46zM534 956q-14 0 -29 1.5t-32 6.5q-29 8 -41 36q-10 29 -20 74t-22 96q-41 -44 -74.5 -85.5t-62.5 -76.5q-6 -12 -17 -12q-5 0 -9.5 3t-12.5 9q-11 11 -20 21.5t-20 26.5q-20 27 -3 50q15 22 37 53.5t48.5 65.5t56 68.5t58.5 63.5q14 17 26 17.5t26 -8.5
q14 -11 28 -21t27 -21q5 -7 9 -12.5t7 -11.5t5 -14t3 -20q4 -36 11 -75.5t15 -77t16 -71.5t14 -60q3 -15 -2 -21t-22 -5z" />
    <glyph glyph-name="edieresis" unicode="&#xeb;" horiz-adv-x="577" 
d="M41 798l-95 -665q-2 -27 7.5 -46t26.5 -33q21 -18 36.5 -29.5t32.5 -22.5q15 -10 35.5 -15.5t60.5 4.5q60 11 126 24t130 25q27 5 32 12.5t0 27.5q-8 18 -14.5 35.5t-18.5 37.5q-11 18 -26.5 24t-43.5 4q-50 -3 -92.5 -8t-89.5 -13q8 28 15 56.5t15 60.5q58 12 120.5 22
t122.5 21q28 6 34.5 14t-1.5 31q-5 20 -11.5 39.5t-18.5 39.5q-11 20 -27 26t-44 5q-34 -1 -64 -3t-60 -6q16 53 29 101.5t28 93.5q71 10 135 17t124 14q29 4 37 13t4 35q-5 23 -10 42.5t-18 43.5q-16 45 -73 44q-60 -2 -120.5 -9.5t-118 -17.5t-110 -22t-95.5 -23z
M382 1057q-2 -24 4.5 -43t19 -32t30.5 -20t38 -6q20 0 36 7.5t27.5 18.5t19.5 23.5t11 21.5q1 8 2.5 14.5t2.5 15.5q1 24 -14.5 48t-50.5 37q-27 8 -49.5 3.5t-39 -17t-26.5 -31.5t-11 -40zM71 1057q-1 -23 6.5 -41.5t21 -32t31.5 -20t38 -5.5q20 0 35.5 7.5t27 18.5t18 23
t8.5 21l4 14t2 15q0 26 -17 49.5t-54 36.5q-26 9 -48 4.5t-37.5 -17t-25 -32t-10.5 -41.5z" />
    <glyph glyph-name="igrave" unicode="&#xec;" horiz-adv-x="312" 
d="M253 794q28 -19 33.5 -33t-1.5 -41q-14 -45 -29.5 -103t-31.5 -122.5t-31.5 -132t-30 -132t-26.5 -122t-21 -102.5q-5 -17 -13.5 -22t-34.5 1q-26 7 -49.5 14t-45.5 18q-23 11 -30.5 25.5t-4.5 40.5q2 35 8 90.5t15 121.5t20.5 139t23.5 143t24.5 132.5t23.5 109.5
q9 29 24 35.5t47 -2.5q31 -8 67 -24t63 -34zM-84 1182q4 30 11.5 49.5t28.5 30.5q36 20 60 20.5t43 -13.5q33 -26 71.5 -51t80 -47.5t83.5 -43.5t83 -40q18 -12 19.5 -23.5t-3.5 -21t-12 -15t-6 -4.5q-31 -17 -55.5 -22.5t-45.5 3.5q-49 17 -99.5 39.5t-98 46.5t-89 48
t-71.5 44z" />
    <glyph glyph-name="iacute" unicode="&#xed;" horiz-adv-x="312" 
d="M248 794q15 -9 23 -17t11.5 -16t2.5 -18t-4 -23q-14 -45 -29 -103t-30.5 -122.5t-31 -132t-29 -132t-25.5 -122t-21 -102.5q-5 -17 -13.5 -22t-34.5 1q-26 7 -49.5 14t-45.5 18q-23 11 -30.5 25.5t-5.5 40.5q2 35 8 90.5t14.5 121.5t19.5 139t22.5 143t23.5 132.5
t23 109.5q9 29 24 35.5t47 -2.5q31 -8 67 -24t63 -34zM472 1154q-30 -20 -71 -43.5t-88.5 -47.5t-98.5 -46t-100 -39q-21 -9 -45 -3.5t-55 22.5q0 -1 -6.5 4.5t-11.5 14.5t-3 21t20 23q40 19 82.5 40t83.5 43.5t80 47t72 50.5q19 14 42.5 13.5t59.5 -20.5q21 -10 28.5 -29.5
t10.5 -50.5z" />
    <glyph glyph-name="icircumflex" unicode="&#xee;" horiz-adv-x="312" 
d="M252 794q28 -19 34 -33t-1 -41q-14 -45 -29.5 -103t-31.5 -122.5t-31.5 -132t-30 -132t-26.5 -122t-21 -102.5q-5 -17 -13.5 -22t-34.5 1q-26 7 -49.5 14t-45.5 18q-23 11 -30.5 25.5t-4.5 40.5q2 35 8 90.5t15 121.5t20 139t23.5 143t24.5 132.5t23 109.5q9 29 24 35.5
t47 -2.5q31 -8 67 -24t63 -34zM381 950q-15 0 -30 1.5t-32 6.5q-27 6 -41 35q-11 30 -21 74.5t-23 95.5q-39 -44 -73 -85.5t-61 -76.5q-9 -12 -17 -12q-6 0 -10.5 3t-11.5 9q-11 11 -21 21.5t-21 26.5q-18 28 -2 50q14 22 35.5 53.5t48 65.5t55.5 68.5t58 63.5
q14 17 26 17.5t26 -8.5q14 -11 28.5 -21t26.5 -21q5 -7 9 -12.5t7 -11.5t5 -14t3 -20q5 -36 12.5 -75.5t16 -77t16.5 -71.5t14 -60q4 -15 -1 -21t-22 -4z" />
    <glyph glyph-name="idieresis" unicode="&#xef;" horiz-adv-x="312" 
d="M250 794q15 -9 23 -17t11.5 -16t2.5 -18t-4 -23q-14 -45 -29.5 -103t-31 -122.5t-31 -132t-29.5 -132t-26 -122t-21 -102.5q-5 -17 -13.5 -22t-34.5 1q-26 7 -49.5 14t-45.5 18q-23 11 -30.5 25.5t-4.5 40.5q2 35 8 90.5t14.5 121.5t20 139t23 143t23.5 132.5t23 109.5
q9 29 24 35.5t47 -2.5q31 -8 67 -24t63 -34zM-65 1057q1 22 10.5 41.5t25 32t37.5 17t49 -4.5q36 -13 53 -36.5t17 -49.5q0 -18 -5 -29q-2 -9 -9 -21t-18 -23t-27 -18.5t-35 -7.5q-20 -1 -38 5.5t-31.5 20t-21.5 32t-7 41.5zM247 1057q1 21 11 40t26 31.5t38 17t49 -3.5
q35 -13 51 -37t15 -48q-1 -9 -2 -15.5t-3 -14.5q-3 -9 -10.5 -21.5t-19 -23.5t-27 -18.5t-35.5 -7.5q-42 -2 -70 25.5t-23 75.5z" />
    <glyph glyph-name="eth" unicode="&#xf0;" horiz-adv-x="612" 
d="M159 703q-50 -9 -15 -67q7 -12 10 -15t6.5 -4.5t8.5 -5t16 -15.5q22 -25 41 -32t39 -1q5 1 11 2.5t12 3.5q2 -22 3.5 -43.5t1.5 -42.5q-26 9 -52 12.5t-55 1.5q-46 -2 -80.5 -10.5t-60 -23t-44.5 -33.5t-35 -42q-32 -44 -47.5 -89.5t-17.5 -87.5t6.5 -78t25.5 -60
q11 -15 27.5 -28.5t41.5 -23.5t61 -15t87 -5q49 3 88.5 13t72 27.5t58.5 43t50 58.5q24 34 48 82.5t42 107.5t27.5 128t4.5 144q20 2 40 3t40 3q26 1 33 10t-2 35q-5 11 -6.5 13.5t-2 4t-3 5.5t-9.5 18q-31 46 -75 46h-20t-20 -1q-6 31 -18 62q-5 13 -9.5 21.5t-11 14
t-16.5 9t-27 5.5q-17 1 -38 2.5t-42 2t-40.5 0t-32.5 -2.5q-34 -7 -47.5 -19t-2.5 -41q16 -39 26 -76q-28 -5 -53 -8.5t-45 -8.5zM268 260q-20 -65 -44 -103t-55 -42q-37 -5 -54.5 28t-8.5 93q3 26 10 48.5t17.5 39.5t24 27.5t30.5 11.5q16 1 31 -6.5t25.5 -21t17 -33
t6.5 -42.5z" />
    <glyph glyph-name="ntilde" unicode="&#xf1;" horiz-adv-x="702" 
d="M392 327q-11 51 -22 106.5t-21 108t-18 97.5t-13 74q-6 38 -19 57.5t-44 32.5q-38 18 -73 29t-72 22q-31 8 -49 0.5t-25 -37.5q-11 -52 -22.5 -119t-22.5 -139t-20.5 -144.5t-17 -136t-12 -113.5t-6.5 -77q-2 -26 5.5 -40.5t29.5 -25.5q23 -14 47.5 -20.5t48.5 -12.5
q26 -7 35 -2.5t13 21.5q5 36 13.5 84.5t19 105t22 118.5t22.5 124q13 -52 28 -103.5t30 -99t29.5 -88.5t28.5 -72q18 -43 62 -60q48 -17 94 -26q54 -12 60 26q16 70 38.5 162.5t47 189.5t49.5 191t48 168q8 26 4.5 44.5t-32.5 36.5q-17 11 -30 18t-24.5 12t-23.5 8t-27 7
q-32 8 -48.5 1t-24.5 -36q-29 -107 -58.5 -234t-49.5 -258zM539 985q54 0 120 50q38 26 56 49t20 42q1 18 -22 33q-20 10 -43 10q-14 0 -26 -5t-26 -15l-13 -13t-19 -18t-19.5 -16t-14.5 -7q-17 1 -33.5 7.5t-32.5 14t-31.5 15t-30.5 12.5q-27 10 -50.5 15t-48.5 5
q-21 0 -51.5 -10.5t-60.5 -26t-54 -33t-33 -32.5q-10 -22 -9 -36q1 -39 56 -39q31 0 53 14q1 0 9.5 7t19.5 15.5t23.5 15.5t22.5 7q12 0 30 -3t36 -7.5t34 -10.5t24 -13q18 -14 47 -20.5t67 -6.5z" />
    <glyph glyph-name="ograve" unicode="&#xf2;" 
d="M541 790q38 -31 55.5 -65.5t25.5 -78.5q11 -73 5 -158.5t-29.5 -170t-64 -159.5t-99.5 -127q-40 -31 -84 -41.5t-101 -4.5q-38 4 -78 12.5t-73 25.5q-27 14 -53 36t-41 50q-24 46 -36 104t-11 122t15 130.5t41 129.5t66.5 119.5t91.5 101.5q35 27 83.5 41t92.5 7
q57 -9 108.5 -28t85.5 -46zM380 690q-21 7 -47 -17.5t-52 -66.5t-48.5 -93.5t-36.5 -99.5q-14 -47 -20 -97.5t-4 -94t14 -74.5t35 -38q21 -7 44 9t46 49t43.5 81.5t35.5 105.5q13 47 21 103.5t8 105.5q0 50 -9.5 85.5t-29.5 41.5zM98 1152q4 30 12 49.5t29 29.5
q36 20 59.5 20.5t42.5 -13.5q33 -26 71 -50.5t79 -47t83 -43.5t82 -40q18 -11 20 -22.5t-3 -21t-12 -15t-7 -4.5q-31 -17 -55.5 -22.5t-45.5 3.5q-48 17 -98.5 39t-97.5 46t-88 48t-71 44z" />
    <glyph glyph-name="oacute" unicode="&#xf3;" 
d="M541 790q38 -31 55.5 -65.5t25.5 -78.5q11 -73 5 -158.5t-29.5 -170t-64 -159.5t-99.5 -127q-40 -31 -84 -41.5t-101 -4.5q-38 4 -78 12.5t-73 25.5q-27 14 -53 36t-41 50q-24 46 -36 104t-11 122t15 130.5t41 129.5t66.5 119.5t91.5 101.5q35 27 83.5 41t92.5 7
q57 -9 108.5 -28t85.5 -46zM380 690q-21 7 -47 -17.5t-52 -66.5t-48.5 -93.5t-36.5 -99.5q-14 -47 -20 -97.5t-4 -94t14 -74.5t35 -38q21 -7 44 9t46 49t43.5 81.5t35.5 105.5q13 47 21 103.5t8 105.5q0 50 -9.5 85.5t-29.5 41.5zM582 1152q-30 -20 -71.5 -44t-89 -48
t-98 -46t-98.5 -39q-21 -9 -45.5 -3.5t-55.5 22.5q1 -1 -6 4.5t-11.5 15t-3 21t18.5 22.5q82 38 167.5 83.5t152.5 97.5q17 14 41 13.5t61 -20.5q20 -10 28 -29.5t10 -49.5z" />
    <glyph glyph-name="ocircumflex" unicode="&#xf4;" 
d="M541 790q38 -31 55.5 -65.5t25.5 -78.5q11 -73 5 -158.5t-29.5 -170t-64 -159.5t-99.5 -127q-40 -31 -84 -41.5t-101 -4.5q-38 4 -78 12.5t-73 25.5q-27 14 -53 36t-41 50q-24 46 -36 104t-11 122t15 130.5t41 129.5t66.5 119.5t91.5 101.5q35 27 83.5 41t92.5 7
q57 -9 108.5 -28t85.5 -46zM380 690q-21 7 -47 -17.5t-52 -66.5t-48.5 -93.5t-36.5 -99.5q-14 -47 -20 -97.5t-4 -94t14 -74.5t35 -38q21 -7 44 9t46 49t43.5 81.5t35.5 105.5q13 47 21 103.5t8 105.5q0 50 -9.5 85.5t-29.5 41.5zM586 934q-14 0 -28.5 1.5t-31.5 6.5
q-29 6 -41 35q-10 29 -19.5 73.5t-22.5 95.5q-41 -44 -74 -85t-62 -76q-8 -12 -18 -12q-5 0 -9 3l-12 9q-11 10 -20 21t-20 27q-19 26 -3 49q15 22 37 53t48.5 65t56 68.5t58.5 63.5q14 17 26 17.5t26 -8.5q14 -11 28 -21t27 -21q5 -7 9 -12.5t7 -11.5t4.5 -14t2.5 -20
q4 -36 11 -75t15 -76.5t16 -71.5t14 -59q3 -15 -2 -21t-23 -4z" />
    <glyph glyph-name="otilde" unicode="&#xf5;" 
d="M537 790q-35 27 -86.5 46t-108.5 28q-43 7 -92 -7t-83 -41q-52 -45 -91 -101.5t-65.5 -119.5t-40 -129.5t-14.5 -130.5t11 -122t36 -104q15 -28 41.5 -50t53.5 -36q33 -17 73 -25.5t78 -12.5q57 -6 101 4.5t84 41.5q58 52 98.5 127t63.5 159.5t28.5 170t-5.5 158.5
q-8 44 -26 78.5t-56 65.5zM376 690q20 -6 29.5 -41.5t10 -85t-7 -106t-20.5 -103.5q-15 -57 -35 -105.5t-43 -81.5t-46 -49t-44 -9q-23 7 -34.5 38t-14.5 74.5t3 94t20 97.5q13 48 35.5 99.5t48 93.5t51.5 66.5t47 17.5zM536 985q54 0 120 50q38 26 56 49t20 42q0 18 -23 33
q-20 10 -42 10q-26 0 -52 -20l-13 -13t-19.5 -18t-20 -16t-14.5 -7q-17 1 -33 7.5t-32.5 14t-32 15t-30.5 12.5q-27 10 -50.5 15t-47.5 5q-21 0 -51.5 -10.5t-60.5 -26t-54 -33t-33 -32.5q-10 -22 -9 -36q1 -39 56 -39q31 0 53 14q1 0 9.5 7t19.5 15.5t23.5 15.5t22.5 7
q12 0 30 -3t36 -7.5t34 -10.5t24 -13q18 -14 47 -20.5t67 -6.5z" />
    <glyph glyph-name="odieresis" unicode="&#xf6;" 
d="M541 790q38 -31 55.5 -65.5t25.5 -78.5q11 -73 5 -158.5t-29.5 -170t-64 -159.5t-99.5 -127q-40 -31 -84 -41.5t-101 -4.5q-38 4 -78 12.5t-73 25.5q-27 14 -53 36t-41 50q-24 46 -36 104t-11 122t15 130.5t41 129.5t66.5 119.5t91.5 101.5q35 27 83.5 41t92.5 7
q57 -9 108.5 -28t85.5 -46zM380 690q-21 7 -47 -17.5t-52 -66.5t-48.5 -93.5t-36.5 -99.5q-14 -47 -20 -97.5t-4 -94t14 -74.5t35 -38q21 -7 44 9t46 49t43.5 81.5t35.5 105.5q13 47 21 103.5t8 105.5q0 50 -9.5 85.5t-29.5 41.5zM435 1057q2 21 12 40t26.5 31.5t39 17
t49.5 -3.5q35 -13 50.5 -37t13.5 -48q0 -9 -1.5 -15.5t-3.5 -14.5q-3 -9 -10.5 -21.5t-19.5 -23.5t-28 -18.5t-35 -7.5q-20 -1 -38 6t-31 20t-19.5 32t-4.5 43zM124 1057q1 22 10.5 41.5t25.5 32t38 17t48 -4.5q37 -13 54 -36.5t17 -49.5q0 -8 -2 -15l-4 -14q-2 -9 -9 -21
t-18 -23t-27 -18.5t-35 -7.5q-20 -1 -38 5.5t-31.5 20t-21.5 32t-7 41.5z" />
    <glyph glyph-name="divide" unicode="&#xf7;" horiz-adv-x="732" 
d="M626 334q22 0 29 6.5t-1 26.5q-8 17 -13.5 33t-18.5 36q-20 34 -63 34q-73 -1 -122 -2t-86.5 -3.5t-68 -6t-65 -9t-78.5 -13t-108 -17.5q-19 -3 -32 -12t-4 -29q10 -19 27 -43.5t34 -40.5q18 -17 30.5 -20.5t36.5 1.5q68 12 109.5 20.5t70 15t52.5 10.5t57.5 6.5t83 4
t130.5 2.5zM251 645q-1 -28 8 -50t25.5 -37.5t39 -23.5t47.5 -7q24 0 44 9t34 21.5t23 27t12 25.5q5 15 7 35q1 29 -19.5 57t-65.5 43q-33 10 -61 5t-48 -20t-32 -37.5t-14 -47.5zM216 166q-2 -24 6.5 -43t24 -32t36 -19.5t44.5 -5.5q23 0 41 7.5t31 18t21 23t11 21.5
q5 11 5 30q1 25 -18 49t-60 37q-31 9 -56.5 4.5t-44.5 -17.5t-29.5 -32.5t-11.5 -40.5z" />
    <glyph glyph-name="oslash" unicode="&#xf8;" 
d="M634 931q24 -23 24 -40q0 -16 -15 -39q-13 -19 -29.5 -44.5t-36.5 -57.5q19 -23 29 -49t16 -55q11 -73 5 -158.5t-29.5 -170t-64 -159.5t-99.5 -127q-40 -31 -84 -41.5t-101 -4.5q-29 3 -58 8t-58 14q-11 -21 -21 -38.5t-17 -30.5q-8 -17 -20 -21t-35 7q-11 6 -8.5 5
t8 -3.5t9 -4t-3.5 2.5q-19 11 -22 28q-3 16 7 39q5 10 11.5 25t16.5 33q-17 12 -31.5 27.5t-22.5 32.5q-24 46 -36 104t-11 122t15 130.5t41 129.5t66.5 119.5t91.5 101.5q34 27 83 41t92 7q34 -6 66.5 -15t61.5 -22q21 35 38 62.5t31 46.5q30 51 78 15q12 -8 12 -9l-3 1
t-4.5 -0.5t8.5 -11.5zM390 354q8 29 13.5 61t8.5 66q-55 -94 -110.5 -187t-101.5 -171q4 -5 9 -8.5t12 -5.5q21 -7 44 9t46 49t43.5 81.5t35.5 105.5zM380 690q-21 7 -47 -17.5t-52 -66.5t-48.5 -93.5t-36.5 -99.5q-11 -34 -16.5 -70t-7.5 -71q24 48 51 100t55.5 104.5
l57 105t56.5 101.5q-2 3 -6 4.5t-6 2.5z" />
    <glyph glyph-name="ugrave" unicode="&#xf9;" horiz-adv-x="676" 
d="M-5 102q-21 35 -30.5 83.5t-9.5 106.5t8 123t21 132t29.5 134.5t34.5 131.5q8 29 23.5 35t47.5 -5q30 -9 57.5 -23t53.5 -33q54 -39 37 -100q-16 -52 -33.5 -112.5t-32.5 -122.5t-25.5 -121t-13 -106t5 -78t29.5 -37q27 -7 53 26t49.5 91.5t45 135.5t40 158.5t33.5 160.5
t27 141q2 30 22 36t48.5 -1.5t61 -24t59.5 -32.5q14 -9 21.5 -16.5t10.5 -15.5t2 -17.5t-4 -22.5q-30 -143 -60.5 -262.5t-64.5 -211.5t-74 -154t-89 -90q-35 -17 -70 -23.5t-80 -3.5q-90 6 -148 38q-25 14 -47 33t-38 47zM96 1152q4 30 12 49.5t28 29.5q36 20 60 20.5
t42 -13.5q33 -26 71.5 -50.5t79.5 -47t83 -43.5t82 -40q18 -11 20 -22.5t-3 -21t-12 -15t-7 -4.5q-31 -17 -55.5 -22.5t-44.5 3.5q-48 17 -99 39t-98 46t-88 48t-71 44z" />
    <glyph glyph-name="uacute" unicode="&#xfa;" horiz-adv-x="676" 
d="M-5 102q-21 35 -30.5 83.5t-9.5 106.5t8 123t21 132t29.5 134.5t34.5 131.5q8 29 23.5 35t47.5 -5q30 -9 57.5 -23t53.5 -33q54 -39 37 -100q-16 -52 -33.5 -112.5t-32.5 -122.5t-25.5 -121t-13 -106t5 -78t29.5 -37q27 -7 53 26t49.5 91.5t45 135.5t40 158.5t33.5 160.5
t27 141q2 30 22 36t48.5 -1.5t61 -24t59.5 -32.5q14 -9 21.5 -16.5t10.5 -15.5t2 -17.5t-4 -22.5q-30 -143 -60.5 -262.5t-64.5 -211.5t-74 -154t-89 -90q-35 -17 -70 -23.5t-80 -3.5q-90 6 -148 38q-25 14 -47 33t-38 47zM580 1152q-30 -20 -71.5 -44t-89 -48t-98 -46
t-98.5 -39q-21 -9 -45.5 -3.5t-55.5 22.5q1 -1 -6 4.5t-11.5 15t-3 21t18.5 22.5q41 19 83.5 40t84 43.5t80 47t71.5 50.5q18 14 41.5 13.5t60.5 -20.5q20 -10 28 -29.5t11 -49.5z" />
    <glyph glyph-name="ucircumflex" unicode="&#xfb;" horiz-adv-x="676" 
d="M-5 102q-21 35 -30.5 83.5t-9.5 106.5t8 123t21 132t29.5 134.5t34.5 131.5q8 29 23.5 35t47.5 -5q30 -9 57.5 -23t53.5 -33q54 -39 37 -100q-16 -52 -33.5 -112.5t-32.5 -122.5t-25.5 -121t-13 -106t5 -78t29.5 -37q27 -7 53 26t49.5 91.5t45 135.5t40 158.5t33.5 160.5
t27 141q2 30 22 36t48.5 -1.5t61 -24t59.5 -32.5q14 -9 21.5 -16.5t10.5 -15.5t2 -17.5t-4 -22.5q-30 -143 -60.5 -262.5t-64.5 -211.5t-74 -154t-89 -90q-35 -17 -70 -23.5t-80 -3.5q-90 6 -148 38q-25 14 -47 33t-38 47zM526 956q-14 0 -29 1.5t-32 6.5q-29 8 -41 36
q-11 29 -21 74t-23 96q-40 -44 -73 -85.5t-62 -76.5q-8 -12 -18 -12q-5 0 -9 3l-12 9q-11 11 -20.5 21.5t-20.5 26.5q-20 27 -3 50q14 22 36 53.5t48 65.5t55.5 68.5t58.5 63.5q14 17 26 17.5t26 -8.5q14 -11 28 -21t27 -21q5 -7 9 -12.5t7 -11.5t5 -14t3 -20
q5 -36 12.5 -75.5t15.5 -77t16.5 -71.5t14.5 -60q3 -15 -2 -21t-22 -5z" />
    <glyph glyph-name="udieresis" unicode="&#xfc;" horiz-adv-x="676" 
d="M-5 102q-21 35 -30.5 83.5t-9.5 106.5t8 123t21 132t29.5 134.5t34.5 131.5q8 29 23.5 35t47.5 -5q30 -9 57.5 -23t53.5 -33q54 -39 37 -100q-16 -52 -33.5 -112.5t-32.5 -122.5t-25.5 -121t-13 -106t5 -78t29.5 -37q27 -7 53 26t49.5 91.5t45 135.5t40 158.5t33.5 160.5
t27 141q2 30 22 36t48.5 -1.5t61 -24t59.5 -32.5q14 -9 21.5 -16.5t10.5 -15.5t2 -17.5t-4 -22.5q-30 -143 -60.5 -262.5t-64.5 -211.5t-74 -154t-89 -90q-35 -17 -70 -23.5t-80 -3.5q-90 6 -148 38q-25 14 -47 33t-38 47zM113 1057q1 22 10.5 41.5t25.5 32t38 17t49 -4.5
q36 -13 52.5 -36.5t16.5 -49.5q0 -18 -5 -29q-2 -9 -9 -21t-18.5 -23t-27 -18.5t-35.5 -7.5q-20 -1 -37.5 5.5t-31 20t-21.5 32t-7 41.5zM425 1057q2 21 11.5 40t26 31.5t38.5 17t49 -3.5q35 -13 50.5 -37t14.5 -48q-1 -9 -2 -15.5t-3 -14.5q-3 -9 -10.5 -21.5t-19 -23.5
t-27.5 -18.5t-35 -7.5q-42 -2 -70 25.5t-23 75.5z" />
    <glyph glyph-name="yacute" unicode="&#xfd;" horiz-adv-x="651" 
d="M644 714q-17 -38 -50.5 -94t-75.5 -121t-89 -134t-91 -132q-17 -67 -29 -124.5t-23 -111.5q-5 -20 -14 -24t-35 2q-24 6 -50 14.5t-48 17.5q-22 14 -29 27.5t-5 39.5q7 43 13 99.5t18 125.5q-21 60 -45 127t-48 134.5t-46.5 132t-40.5 120.5q-11 27 -5.5 36.5t31.5 14.5
q31 2 59.5 3.5t58.5 -5.5t43.5 -22.5t29.5 -47.5q23 -60 48 -137t52 -163q54 86 106 176t104 183q9 25 29 26.5t43 -10t45.5 -30.5t38.5 -34q9 -11 14 -20.5t5.5 -19.5t-3.5 -21.5t-11 -27.5zM578 1152q-29 -20 -70.5 -44t-89 -48t-98 -46t-98.5 -39q-21 -9 -45.5 -3.5
t-56.5 22.5q1 -1 -5.5 4.5t-11.5 15t-3.5 21t19.5 22.5q40 19 83 40t84 43.5t80 47t72 50.5q17 14 41 13.5t61 -20.5q20 -10 28 -29.5t10 -49.5z" />
    <glyph glyph-name="thorn" unicode="&#xfe;" horiz-adv-x="657" 
d="M236 794q29 -19 34.5 -33t-0.5 -41q-2 -9 -6 -18.5t-6 -18.5q37 8 73 11.5t68.5 0.5t61 -14t50.5 -31q34 -36 62 -77.5t43 -101.5q7 -29 3.5 -54.5t-14.5 -48.5t-28.5 -44t-37.5 -41q-33 -32 -79.5 -62.5t-101 -57t-113.5 -48.5t-117 -37q-4 -19 -7 -37t-6 -35
q-5 -17 -13 -22t-34 1q-26 7 -50 14t-46 18q-23 11 -31 25.5t-6 40.5q1 35 6 90.5t13 121.5t18 139t20.5 143t21.5 132.5t21 109.5q8 29 23 35.5t47 -2.5q31 -8 67 -24t64 -34zM168 257q69 22 121 53t85 63.5t46.5 63t6.5 51.5q-3 12 -21 17.5t-46 5t-63 -8t-71 -22.5
q-15 -52 -29 -107.5t-29 -115.5z" />
    <glyph glyph-name="ydieresis" unicode="&#xff;" horiz-adv-x="651" 
d="M644 714q-17 -38 -50.5 -94t-75.5 -121t-89 -134t-91 -132q-17 -67 -29 -124.5t-23 -111.5q-5 -20 -14 -24t-35 2q-24 6 -50 14.5t-48 17.5q-22 14 -29 27.5t-5 39.5q7 43 13 99.5t18 125.5q-21 60 -45 127t-48 134.5t-46.5 132t-40.5 120.5q-11 27 -5.5 36.5t31.5 14.5
q31 2 59.5 3.5t58.5 -5.5t43.5 -22.5t29.5 -47.5q23 -60 48 -137t52 -163q54 86 106 176t104 183q9 25 29 26.5t43 -10t45.5 -30.5t38.5 -34q9 -11 14 -20.5t5.5 -19.5t-3.5 -21.5t-11 -27.5zM371 1057q2 21 12 40t26.5 31.5t38.5 17t49 -3.5q35 -13 51 -37t14 -48
q0 -9 -1.5 -15.5t-2.5 -14.5q-3 -9 -10.5 -21.5t-19 -23.5t-27.5 -18.5t-36 -7.5q-20 -1 -38 6t-31 20t-20 32t-5 43zM61 1057q1 22 10 41.5t24.5 32t37.5 17t48 -4.5q38 -13 55 -36.5t17 -49.5q0 -16 -6 -29q-2 -9 -8.5 -21t-17.5 -23t-27 -18.5t-35 -7.5q-20 -1 -38 5.5
t-31.5 20t-21.5 32t-7 41.5z" />
    <glyph glyph-name="dotlessi" unicode="&#x131;" horiz-adv-x="312" 
d="M259 794q28 -19 33.5 -33t-1.5 -41q-14 -45 -30.5 -103t-33 -122.5t-32.5 -132t-31 -132t-27.5 -122t-21.5 -102.5q-5 -17 -13.5 -22t-34.5 1q-26 7 -49.5 14t-44.5 18q-23 11 -30.5 25.5t-4.5 40.5q2 35 8.5 90.5t16 121.5t21.5 139t24.5 143t25.5 132.5t24 109.5
q9 29 24.5 35.5t46.5 -2.5q31 -8 67 -24t63 -34z" />
    <glyph glyph-name="Lslash" unicode="&#x141;" horiz-adv-x="660" 
d="M-92 382q39 20 92.5 46.5t116.5 55.5q19 95 40.5 187.5t42.5 164.5q11 29 27 34.5t45 -3.5q32 -8 68 -22.5t62 -32.5q27 -19 33.5 -33t-4.5 -40q-11 -32 -22 -67t-22 -73q2 1 6 2t8 3q32 11 60 12t51 -12q30 -13 48.5 -28t36.5 -26q23 -16 14.5 -26.5t-41.5 -24.5
q-60 -24 -120.5 -50.5t-119.5 -52.5q-17 -61 -31.5 -120t-27.5 -113q45 8 85.5 12t87.5 7q27 2 42 -3.5t26 -24.5q12 -18 19 -36.5t11 -35.5q4 -11 5.5 -17.5t-1.5 -10.5t-11 -7t-23 -6q-64 -12 -130.5 -24.5t-126.5 -24.5q-22 -6 -37.5 -7t-26 1.5t-18 6.5t-14.5 9
q-17 11 -30.5 22.5t-36.5 29.5q-18 14 -27 31.5t-5 42.5q3 29 7.5 67t12.5 81q-26 -6 -67 5q-32 10 -59 20t-49 22q-58 27 3 59z" />
    <glyph glyph-name="lslash" unicode="&#x142;" horiz-adv-x="660" 
d="M-92 382q39 20 92.5 46.5t116.5 55.5q19 95 40.5 187.5t42.5 164.5q11 29 27 34.5t45 -3.5q32 -8 68 -22.5t62 -32.5q27 -19 33.5 -33t-4.5 -40q-11 -32 -22 -67t-22 -73q2 1 6 2t8 3q32 11 60 12t51 -12q30 -13 48.5 -28t36.5 -26q23 -16 14.5 -26.5t-41.5 -24.5
q-60 -24 -120.5 -50.5t-119.5 -52.5q-17 -61 -31.5 -120t-27.5 -113q45 8 85.5 12t87.5 7q27 2 42 -3.5t26 -24.5q12 -18 19 -36.5t11 -35.5q4 -11 5.5 -17.5t-1.5 -10.5t-11 -7t-23 -6q-64 -12 -130.5 -24.5t-126.5 -24.5q-22 -6 -37.5 -7t-26 1.5t-18 6.5t-14.5 9
q-17 11 -30.5 22.5t-36.5 29.5q-18 14 -27 31.5t-5 42.5q3 29 7.5 67t12.5 81q-26 -6 -67 5q-32 10 -59 20t-49 22q-58 27 3 59z" />
    <glyph glyph-name="OE" unicode="&#x152;" horiz-adv-x="964" 
d="M321 864q45 -8 87.5 -21t75.5 -33q44 11 94.5 22t104.5 20t110.5 15.5t112.5 9.5q57 1 70 -45q13 -24 17 -43t9 -42q3 -26 -5 -35.5t-38 -13.5q-60 -7 -124.5 -13.5t-136.5 -17.5q-15 -45 -29.5 -93.5t-32.5 -102.5q31 5 61 7t63 3q29 1 44.5 -5t24.5 -26
q13 -21 19 -40.5t11 -39.5q6 -23 -1 -30.5t-34 -13.5q-62 -11 -124.5 -21t-120.5 -23q-10 -32 -17.5 -60.5t-15.5 -56.5q47 9 89.5 13.5t93.5 7.5q26 2 42 -4t25 -24q12 -20 18 -37.5t13 -35.5q5 -20 -0.5 -27.5t-31.5 -12.5q-65 -12 -131.5 -25t-126.5 -24q-20 -5 -35 -5.5
t-26 1.5t-19.5 6t-15.5 9q-6 4 -11 7t-10 7q-38 -25 -78 -33t-92 -3q-38 4 -78.5 12.5t-73.5 25.5q-28 14 -54.5 36t-43.5 50q-26 46 -39 104t-14 122t11 130.5t37 129.5t63 119.5t89 101.5q16 13 37.5 23.5t44.5 17t46.5 8.5t45.5 -1zM359 690q-21 7 -46 -17.5t-50 -66.5
t-46 -93.5t-34 -99.5q-12 -47 -17 -97.5t-1 -94t16.5 -74.5t35.5 -38q21 -7 44 9t45 49t41 81.5t32 105.5q0 2 0.5 4.5t0.5 5.5l15 86q6 42 6.5 83t-3.5 74.5t-14 55.5t-25 27z" />
    <glyph glyph-name="oe" unicode="&#x153;" horiz-adv-x="964" 
d="M321 864q45 -8 87.5 -21t75.5 -33q44 11 94.5 22t104.5 20t110.5 15.5t112.5 9.5q57 1 70 -45q13 -24 17 -43t9 -42q3 -26 -5 -35.5t-38 -13.5q-60 -7 -124.5 -13.5t-136.5 -17.5q-15 -45 -29.5 -93.5t-32.5 -102.5q31 5 61 7t63 3q29 1 44.5 -5t24.5 -26
q13 -21 19 -40.5t11 -39.5q6 -23 -1 -30.5t-34 -13.5q-62 -11 -124.5 -21t-120.5 -23q-10 -32 -17.5 -60.5t-15.5 -56.5q47 9 89.5 13.5t93.5 7.5q26 2 42 -4t25 -24q12 -20 18 -37.5t13 -35.5q5 -20 -0.5 -27.5t-31.5 -12.5q-65 -12 -131.5 -25t-126.5 -24q-20 -5 -35 -5.5
t-26 1.5t-19.5 6t-15.5 9q-6 4 -11 7t-10 7q-38 -25 -78 -33t-92 -3q-38 4 -78.5 12.5t-73.5 25.5q-28 14 -54.5 36t-43.5 50q-26 46 -39 104t-14 122t11 130.5t37 129.5t63 119.5t89 101.5q16 13 37.5 23.5t44.5 17t46.5 8.5t45.5 -1zM359 690q-21 7 -46 -17.5t-50 -66.5
t-46 -93.5t-34 -99.5q-12 -47 -17 -97.5t-1 -94t16.5 -74.5t35.5 -38q21 -7 44 9t45 49t41 81.5t32 105.5q0 2 0.5 4.5t0.5 5.5l15 86q6 42 6.5 83t-3.5 74.5t-14 55.5t-25 27z" />
    <glyph glyph-name="Scaron" unicode="&#x160;" horiz-adv-x="601" 
d="M-83 199q-19 -11 -19 -30q2 -18 45 -55q81 -75 157 -105.5t156 -28.5q60 1 103 15t73 34.5t48 44.5t28 45q16 29 10.5 54.5t-26 49t-52 45.5t-67 44.5t-71 46.5t-64.5 51q-23 20 -29 46t-1 53t19.5 54t33 50t38.5 41t36 27q19 13 27 11t9.5 -15t-2.5 -33.5t-9.5 -43
l-11 -45t-6.5 -39.5q-10 -83 126 -131q23 -9 36 -4t24 25q11 22 22 52t20 62.5t16 64.5t10 59q0 15 -0.5 31.5t-5 34.5t-15 36.5t-30.5 36.5q-30 29 -75 52t-90 39q-30 9 -57.5 10.5t-51 -2.5t-42.5 -12.5t-32 -17.5q-36 -22 -71 -54t-64 -69t-50.5 -76t-30.5 -73
q-13 -40 -12 -77t13 -69.5t33.5 -60t48.5 -49.5q25 -21 55.5 -41t61 -39t58 -36.5t46 -32t25 -26.5t-4.5 -19q-28 -22 -90.5 -7t-146.5 66q-15 10 -33.5 15.5t-39 7t-40.5 -2t-38 -10.5zM191 1374q-18 1 -23.5 -5.5t-0.5 -23.5q8 -28 17.5 -63.5t19.5 -74t19 -78t15 -74.5
q2 -22 7.5 -32t16.5 -22q12 -11 25.5 -19t27.5 -19q13 -8 24 -7.5t25 15.5q28 27 57.5 59.5t56.5 65.5t50 63t39 53q17 25 1 53q-11 17 -20.5 29t-20.5 23q-12 13 -21 13q-10 0 -19 -13q-30 -38 -65.5 -81.5t-75.5 -88.5q-13 52 -23.5 99t-21.5 80q-15 31 -44 39
q-19 5 -34.5 7t-31.5 2z" />
    <glyph glyph-name="scaron" unicode="&#x161;" horiz-adv-x="601" 
d="M-83 199q-19 -11 -19 -30q2 -18 45 -55q81 -75 157 -105.5t156 -28.5q60 1 103 15t73 34.5t48 44.5t28 45q16 29 10.5 54.5t-26 49t-52 45.5t-67 44.5t-71 46.5t-64.5 51q-23 20 -29 46t-1 53t19.5 54t33 50t38.5 41t36 27q19 13 27 11t9.5 -15t-2.5 -33.5t-9.5 -43
l-11 -45t-6.5 -39.5q-10 -83 126 -131q23 -9 36 -4t24 25q11 22 22 52t20 62.5t16 64.5t10 59q0 15 -0.5 31.5t-5 34.5t-15 36.5t-30.5 36.5q-30 29 -75 52t-90 39q-30 9 -57.5 10.5t-51 -2.5t-42.5 -12.5t-32 -17.5q-36 -22 -71 -54t-64 -69t-50.5 -76t-30.5 -73
q-13 -40 -12 -77t13 -69.5t33.5 -60t48.5 -49.5q25 -21 55.5 -41t61 -39t58 -36.5t46 -32t25 -26.5t-4.5 -19q-28 -22 -90.5 -7t-146.5 66q-15 10 -33.5 15.5t-39 7t-40.5 -2t-38 -10.5zM191 1374q-18 1 -23.5 -5.5t-0.5 -23.5q8 -28 17.5 -63.5t19.5 -74t19 -78t15 -74.5
q2 -22 7.5 -32t16.5 -22q12 -11 25.5 -19t27.5 -19q13 -8 24 -7.5t25 15.5q28 27 57.5 59.5t56.5 65.5t50 63t39 53q17 25 1 53q-11 17 -20.5 29t-20.5 23q-12 13 -21 13q-10 0 -19 -13q-30 -38 -65.5 -81.5t-75.5 -88.5q-13 52 -23.5 99t-21.5 80q-15 31 -44 39
q-19 5 -34.5 7t-31.5 2z" />
    <glyph glyph-name="Ydieresis" unicode="&#x178;" horiz-adv-x="651" 
d="M644 714q-17 -38 -50.5 -94t-75.5 -121t-89 -134t-91 -132q-17 -67 -29 -124.5t-23 -111.5q-5 -20 -14 -24t-35 2q-24 6 -50 14.5t-48 17.5q-22 14 -29 27.5t-5 39.5q7 43 13 99.5t18 125.5q-21 60 -45 127t-48 134.5t-46.5 132t-40.5 120.5q-11 27 -5.5 36.5t31.5 14.5
q31 2 59.5 3.5t58.5 -5.5t43.5 -22.5t29.5 -47.5q23 -60 48 -137t52 -163q54 86 106 176t104 183q9 25 29 26.5t43 -10t45.5 -30.5t38.5 -34q9 -11 14 -20.5t5.5 -19.5t-3.5 -21.5t-11 -27.5zM371 1057q2 21 12 40t26.5 31.5t38.5 17t49 -3.5q35 -13 51 -37t14 -48
q0 -9 -1.5 -15.5t-2.5 -14.5q-3 -9 -10.5 -21.5t-19 -23.5t-27.5 -18.5t-36 -7.5q-20 -1 -38 6t-31 20t-20 32t-5 43zM61 1057q1 22 10 41.5t24.5 32t37.5 17t48 -4.5q38 -13 55 -36.5t17 -49.5q0 -16 -6 -29q-2 -9 -8.5 -21t-17.5 -23t-27 -18.5t-35 -7.5q-20 -1 -38 5.5
t-31.5 20t-21.5 32t-7 41.5z" />
    <glyph glyph-name="Zcaron" unicode="&#x17d;" horiz-adv-x="562" 
d="M304 661q-58 -72 -116 -150.5t-109.5 -152.5t-92 -137t-63.5 -104q-7 -12 -6.5 -22.5t5 -19.5t12 -17t14.5 -15q23 -18 38 -30t32 -24q9 -5 17.5 -9.5t19.5 -6.5t25 -1.5t34 5.5q60 14 131 26.5t135 24.5q26 3 34 11t0 28q-4 17 -12.5 35t-20.5 37q-20 33 -75 27
q-41 -5 -77.5 -10.5t-73.5 -14.5q95 123 200.5 254t210.5 258q20 23 22.5 43.5t-5.5 43.5q-6 18 -11.5 38.5t-18.5 47.5q-11 23 -25 31.5t-44 7.5q-55 -3 -117 -7.5t-123 -11t-117.5 -15.5t-101.5 -19q-20 -7 -25.5 -15t3.5 -31q6 -12 13.5 -25.5t15.5 -27.5t15.5 -26
t13.5 -21q20 -23 42 -29t48 -1q35 8 71.5 12.5t81.5 12.5zM190 1329q-17 1 -22.5 -5.5t-0.5 -23.5q7 -27 16.5 -62.5t19.5 -73.5t19 -77t15 -74q3 -21 8.5 -30.5t16.5 -22.5q11 -10 25 -18.5t27 -18.5q13 -8 24 -7.5t25 15.5q28 26 57 58t56 64.5t49.5 62.5t38.5 53
q18 24 1 52q-10 17 -19.5 28.5t-20.5 22.5q-12 13 -22 13q-9 0 -18 -13q-30 -38 -65.5 -80.5t-74.5 -86.5q-13 51 -23.5 97.5t-21.5 78.5q-15 31 -44 39q-19 5 -34.5 7t-31.5 2z" />
    <glyph glyph-name="zcaron" unicode="&#x17e;" horiz-adv-x="562" 
d="M304 661q-58 -72 -116 -150.5t-109.5 -152.5t-92 -137t-63.5 -104q-7 -12 -6.5 -22.5t5 -19.5t12 -17t14.5 -15q23 -18 38 -30t32 -24q9 -5 17.5 -9.5t19.5 -6.5t25 -1.5t34 5.5q60 14 131 26.5t135 24.5q26 3 34 11t0 28q-4 17 -12.5 35t-20.5 37q-20 33 -75 27
q-41 -5 -77.5 -10.5t-73.5 -14.5q95 123 200.5 254t210.5 258q20 23 22.5 43.5t-5.5 43.5q-6 18 -11.5 38.5t-18.5 47.5q-11 23 -25 31.5t-44 7.5q-55 -3 -117 -7.5t-123 -11t-117.5 -15.5t-101.5 -19q-20 -7 -25.5 -15t3.5 -31q6 -12 13.5 -25.5t15.5 -27.5t15.5 -26
t13.5 -21q20 -23 42 -29t48 -1q35 8 71.5 12.5t81.5 12.5zM190 1329q-17 1 -22.5 -5.5t-0.5 -23.5q7 -27 16.5 -62.5t19.5 -73.5t19 -77t15 -74q3 -21 8.5 -30.5t16.5 -22.5q11 -10 25 -18.5t27 -18.5q13 -8 24 -7.5t25 15.5q28 26 57 58t56 64.5t49.5 62.5t38.5 53
q18 24 1 52q-10 17 -19.5 28.5t-20.5 22.5q-12 13 -22 13q-9 0 -18 -13q-30 -38 -65.5 -80.5t-74.5 -86.5q-13 51 -23.5 97.5t-21.5 78.5q-15 31 -44 39q-19 5 -34.5 7t-31.5 2z" />
    <glyph glyph-name="florin" unicode="&#x192;" horiz-adv-x="934" 
d="M77 467q-78 -8 -42 -52q22 -34 71 -72q25 -20 48.5 -25t58.5 -1q20 2 40 4.5t41 4.5q-2 -17 -4 -34.5t-4 -36.5q-1 -3 -5 -22.5t-9 -42t-9 -42t-4 -21.5q-23 -65 -48 -106t-48 -40q-24 3 -30.5 24.5t-12.5 69.5q-4 75 -121 120q-17 7 -29 6.5t-19.5 -7.5t-12 -20
t-7.5 -30q-5 -44 -1.5 -77.5t20.5 -65.5q10 -22 24.5 -42t35.5 -37.5t49.5 -30.5t67.5 -22q37 -8 66.5 -9.5t54 2t44.5 11.5t37 18q38 24 66 59.5t50 88.5t40.5 128t38.5 178q54 2 107 4.5t105 4.5q37 1 51 7.5t6 26.5q-8 17 -14.5 35.5t-23.5 38.5q-24 36 -96 36h-53
q-26 0 -54 -1q3 17 6.5 35.5t6 34.5t4.5 26.5t2 12.5q15 40 30.5 74t30.5 58.5t29.5 38t27.5 13.5q14 -2 21.5 -9.5t11 -21.5t4 -35.5t1.5 -51.5q-3 -90 114 -140q34 -17 52 1t29 56q14 52 16.5 93t-9.5 82q-8 29 -20.5 56t-34 50.5t-53 42t-76.5 30.5q-43 12 -78.5 14
t-64.5 -3.5t-53.5 -16.5t-45.5 -25q-38 -28 -67 -65.5t-51.5 -89t-39.5 -118.5t-30 -152q-69 -5 -130.5 -10t-107.5 -10z" />
    <glyph glyph-name="circumflex" unicode="&#x2c6;" horiz-adv-x="670" 
d="M518 956q17 -1 22 5t2 21q-7 26 -15.5 60t-17 71.5t-16 77t-12.5 75.5q-2 12 -4 20t-5 14t-7 11.5t-9 12.5q-13 11 -27 21t-28 21q-14 9 -26.5 8.5t-26.5 -17.5q-29 -29 -58 -63.5t-55 -68.5t-47.5 -65.5t-35.5 -53.5q-15 -23 4 -50q11 -16 21 -26.5t21 -21.5
q13 -12 21 -12q11 0 17 12q29 35 61.5 76.5t72.5 85.5q14 -51 24.5 -96t20.5 -74q12 -29 42 -36q17 -5 32 -6.5t29 -1.5z" />
    <glyph glyph-name="caron" unicode="&#x2c7;" horiz-adv-x="670" 
d="M163 1374q-17 1 -22 -5.5t0 -23.5q8 -28 18 -63.5t20.5 -74t20.5 -78t17 -74.5q3 -22 8.5 -32t16.5 -22q12 -11 26 -19t28 -19q13 -8 24 -7.5t25 15.5q28 27 56.5 59.5t54.5 65.5t48.5 63t38.5 53q17 25 0 53q-11 17 -21 29t-21 23q-12 13 -22 13q-9 0 -18 -13
q-29 -38 -64 -81.5t-74 -88.5q-14 52 -25.5 99t-23.5 80q-15 31 -45 39q-19 5 -34 7t-32 2z" />
    <glyph glyph-name="dotaccent" unicode="&#x2d9;" horiz-adv-x="331" 
d="M49 1089q2 29 14.5 55t34.5 43t51.5 23t65.5 -5q48 -17 70 -50t21 -66q-1 -22 -7 -40q-3 -12 -12.5 -28.5t-25 -31t-36.5 -24.5t-47 -10q-27 -2 -50.5 7t-41.5 27t-28 43t-9 57z" />
    <glyph glyph-name="ring" unicode="&#x2da;" 
d="M526 1244q23 -11 34 -23.5t18 -28.5q7 -28 5 -61.5t-15.5 -67t-37.5 -64t-60 -52.5q-25 -13 -52.5 -17.5t-63.5 -1.5q-24 2 -50 5t-47 11q-16 5 -32.5 14.5t-24.5 22.5q-21 28 -24 64.5t11 74.5t45 73t78 60q21 10 49 15t53 3q33 -4 63.5 -11t50.5 -16zM433 1208
q-12 2 -27.5 -7.5t-31 -25t-29.5 -35t-23 -38.5q-8 -18 -12.5 -38.5t-3 -38t8.5 -30t21 -14.5q13 -4 27.5 2.5t29 20t26.5 33t21 43.5q8 18 12.5 39.5t4 40.5t-6 32.5t-17.5 15.5z" />
    <glyph glyph-name="tilde" unicode="&#x2dc;" horiz-adv-x="742" 
d="M521 985q54 0 120 50q37 26 54.5 49t18.5 42q1 18 -22 33q-20 10 -43 10q-25 0 -51 -20l-13 -13t-19 -18t-19.5 -16t-14.5 -7q-17 1 -33.5 7.5t-33 14t-32 15t-30.5 12.5q-27 10 -50.5 15t-48.5 5q-21 0 -51.5 -10.5t-60 -26t-53.5 -33t-32 -32.5q-9 -20 -9 -36
q1 -20 16 -29.5t41 -9.5q31 0 53 14q1 0 9.5 7t19.5 15.5t23 15.5t22 7q12 0 30 -3t36 -7.5t34 -10.5t24 -13q36 -27 115 -27z" />
    <glyph glyph-name="uni0400" unicode="&#x400;" horiz-adv-x="577" 
d="M41 798q43 11 95.5 23t110 22t118 17.5t120.5 9.5q57 1 73 -44q13 -24 18 -43.5t10 -42.5q4 -26 -4 -35t-37 -13q-60 -7 -124 -14t-135 -17q-15 -45 -28 -93.5t-29 -101.5q30 4 60 6t64 3q28 1 44 -5t27 -26q12 -20 18.5 -39.5t11.5 -39.5q8 -23 1.5 -31t-34.5 -14
q-60 -11 -122.5 -21t-120.5 -22q-8 -32 -15 -60.5t-15 -56.5q47 8 89.5 13t92.5 8q28 2 43.5 -4t26.5 -24q12 -20 18.5 -37.5t14.5 -35.5q5 -20 0 -27.5t-32 -12.5q-64 -12 -130 -25t-126 -24q-40 -10 -60.5 -4.5t-35.5 15.5q-17 11 -32.5 22.5t-36.5 29.5q-17 14 -26.5 33
t-7.5 46l95 665v0zM-53 1150q4 30 11.5 49.5t28.5 29.5q36 20 59.5 20.5t42.5 -13.5q33 -26 71.5 -50.5t80 -47t83.5 -43.5t82 -40q18 -11 20 -22.5t-3 -21t-12 -15t-7 -4.5q-30 -17 -54.5 -22.5t-45.5 3.5q-48 17 -99 39t-98 46t-88.5 48t-71.5 44z" />
    <glyph glyph-name="uni0401" unicode="&#x401;" horiz-adv-x="577" 
d="M41 798q43 11 95.5 23t110 22t118 17.5t120.5 9.5q57 1 73 -44q13 -24 18 -43.5t10 -42.5q4 -26 -4 -35t-37 -13q-60 -7 -124 -14t-135 -17q-15 -45 -28 -93.5t-29 -101.5q30 4 60 6t64 3q28 1 44 -5t27 -26q12 -20 18.5 -39.5t11.5 -39.5q8 -23 1.5 -31t-34.5 -14
q-60 -11 -122.5 -21t-120.5 -22q-8 -32 -15 -60.5t-15 -56.5q47 8 89.5 13t92.5 8q28 2 43.5 -4t26.5 -24q12 -20 18.5 -37.5t14.5 -35.5q5 -20 0 -27.5t-32 -12.5q-64 -12 -130 -25t-126 -24q-40 -10 -60.5 -4.5t-35.5 15.5q-17 11 -32.5 22.5t-36.5 29.5q-17 14 -26.5 33
t-7.5 46zM382 1057q1 21 11 40t26.5 31.5t39 17t49.5 -3.5q35 -13 50.5 -37t14.5 -48q-1 -9 -2.5 -15.5t-2.5 -14.5q-3 -9 -11 -21.5t-19.5 -23.5t-27.5 -18.5t-36 -7.5q-20 -1 -38 6t-30.5 20t-19 32t-4.5 43zM71 1057q1 22 10.5 41.5t25 32t37.5 17t48 -4.5
q37 -13 54 -36.5t17 -49.5q0 -8 -2 -15l-4 -14q-2 -9 -8.5 -21t-18 -23t-27 -18.5t-35.5 -7.5q-20 -1 -38 5.5t-31.5 20t-21 32t-6.5 41.5z" />
    <glyph glyph-name="uni0402" unicode="&#x402;" horiz-adv-x="400" 
 />
    <glyph glyph-name="uni0403" unicode="&#x403;" horiz-adv-x="570" 
d="M543 692q-60 -8 -124.5 -15t-135.5 -17q-14 -41 -24.5 -90t-50.5 -208t-54.5 -228.5t-26.5 -123.5q-1 -18 -17 -21.5t-39 0t-48.5 12.5t-44.5 17q-25 12 -30 26t-5 40q1 28 8.5 79.5t17.5 116t21 137.5t19.5 144.5t12.5 136.5t1 114q43 12 96.5 21.5t112.5 17t120.5 12.5
t121.5 7q15 0 25.5 -1.5t19 -6t16.5 -13t17 -22.5q27 -45 31 -88q4 -26 -3 -34.5t-37 -12.5zM582 1150q-29 -20 -70.5 -44t-89 -48t-98 -46t-98.5 -39q-21 -9 -45 -3.5t-56 22.5q1 -1 -6 4.5t-11.5 15t-3 21t18.5 22.5q40 19 82.5 40t84 43.5t80 47t71.5 50.5
q18 14 41.5 13.5t60.5 -20.5q20 -10 28 -29.5t11 -49.5z" />
    <glyph glyph-name="uni0404" unicode="&#x404;" horiz-adv-x="642" 
d="M259 299q-54 -9 -104 -19q-4 -38 -2 -71q2 -41 13 -69t32 -34q40 -13 122 71q59 60 154 33q38 -10 39.5 -31t-15.5 -52q-18 -36 -46 -66t-56 -50q-14 -9 -33.5 -17t-41 -13t-45 -7t-45.5 0q-47 3 -85 14.5t-68 21.5q-27 11 -54 32t-42 49q-26 43 -36.5 101.5t-7.5 125
t19.5 137t45.5 137.5t69.5 126.5t92.5 104.5q42 36 85 47t81 8q28 -3 58 -10.5t58 -18t53 -23t45 -25.5q19 -16 31.5 -31.5t20 -31.5t10.5 -33.5t4 -37.5q1 -23 -0.5 -38t-4.5 -29.5t-8 -37t-11 -40.5q-3 -8 -6 -15t-8.5 -11t-15.5 -5t-27 2q-32 6 -55 16.5t-38 25t-24 23.5
t-13 34q-3 21 -3 39q1 12 -3 38t-24 34q-20 6 -47 -23t-55 -75.5t-52 -102.5q-8 -18 -15 -34l48 4q30 2 64 3q28 1 44 -5t27 -26q12 -20 18.5 -39.5t11.5 -39.5q8 -23 1.5 -31t-34.5 -14q-60 -11 -122 -21z" />
    <glyph glyph-name="uni0405" unicode="&#x405;" horiz-adv-x="601" 
d="M-83 199q18 7 38 10.5t40.5 2t39 -7t33.5 -15.5q84 -51 146.5 -66t90.5 7q11 7 4.5 19t-25 26.5t-46 32t-58 36.5t-61 39t-55.5 41q-27 22 -48.5 49.5t-33.5 60t-13 69.5t12 77q9 34 30.5 73t50.5 76t64 69t71 54q13 9 32 17.5t42.5 12.5t51 2.5t57.5 -10.5
q45 -16 90 -39t75 -52q20 -18 30.5 -36.5t15 -36.5t5 -34.5t0.5 -31.5q-3 -27 -10 -59t-16 -64.5t-20 -62.5t-22 -52q-11 -20 -24 -25t-36 4q-136 48 -126 131q1 17 6.5 39.5l11 45t9.5 43t2.5 33.5t-9.5 15t-27 -11q-16 -9 -36 -27t-38.5 -41t-33 -50t-19.5 -54t1 -53
t29 -46q29 -27 64.5 -51t71 -46.5t67 -44.5t52 -45.5t26 -49t-10.5 -54.5q-10 -21 -28 -45t-48 -44.5t-73 -34.5t-103 -15q-80 -2 -156 28.5t-157 105.5q-43 37 -45 55q0 19 19 30z" />
    <glyph glyph-name="uni0406" unicode="&#x406;" horiz-adv-x="312" 
d="M259 794q28 -19 33.5 -33t-1.5 -41q-14 -45 -30.5 -103t-33 -122.5t-32.5 -132t-31 -132t-27.5 -122t-21.5 -102.5q-5 -17 -13.5 -22t-34.5 1q-26 7 -49.5 14t-44.5 18q-23 11 -30.5 25.5t-4.5 40.5q2 35 8.5 90.5t16 121.5t21.5 139t24.5 143t25.5 132.5t24 109.5
q9 29 24.5 35.5t46.5 -2.5q31 -8 67 -24t63 -34z" />
    <glyph glyph-name="uni0407" unicode="&#x407;" horiz-adv-x="312" 
d="M250 794q15 -9 23 -17t11.5 -16t2.5 -18t-4 -23q-14 -45 -29.5 -103t-31 -122.5t-31 -132t-29.5 -132t-26 -122t-21 -102.5q-5 -17 -13.5 -22t-34.5 1q-26 7 -49.5 14t-45.5 18q-23 11 -30.5 25.5t-4.5 40.5q2 35 8 90.5t14.5 121.5t20 139t23 143t23.5 132.5t23 109.5
q9 29 24 35.5t47 -2.5q31 -8 67 -24t63 -34zM-25 1017q1 22 10.5 41.5t25 32t37.5 17t49 -4.5q36 -13 53 -36.5t17 -49.5q0 -18 -5 -29q-2 -9 -9 -21t-18 -23t-27 -18.5t-35 -7.5q-20 -1 -38 5.5t-31.5 20t-21.5 32t-7 41.5zM247 1017q1 21 11 40t26 31.5t38 17t49 -3.5
q35 -13 51 -37t15 -48q-1 -9 -2 -15.5t-3 -14.5q-3 -9 -10.5 -21.5t-19 -23.5t-27 -18.5t-35.5 -7.5q-42 -2 -70 25.5t-23 75.5z" />
    <glyph glyph-name="uni0408" unicode="&#x408;" horiz-adv-x="627" 
d="M138 -13q-39 9 -67.5 23t-49.5 32t-35 39t-24 44q-16 33 -19 68.5t3 81.5q6 35 21.5 51.5t50.5 0.5q117 -47 120 -125q4 -50 10 -72.5t30 -25.5q21 -1 41 35t39 95.5t36 136t32 157t27.5 158.5t21.5 141q6 30 22.5 36.5t47.5 -1.5q30 -8 66.5 -22t65.5 -32
q15 -10 23 -17.5t11.5 -15.5t3 -17.5t-3.5 -22.5q-25 -147 -53 -268t-60.5 -213t-70.5 -154t-82 -90q-35 -21 -83.5 -30.5t-123.5 7.5z" />
    <glyph glyph-name="uni0409" unicode="&#x409;" horiz-adv-x="400" 
 />
    <glyph glyph-name="uni040A" unicode="&#x40a;" horiz-adv-x="400" 
 />
    <glyph glyph-name="uni040B" unicode="&#x40b;" horiz-adv-x="400" 
 />
    <glyph glyph-name="uni040C" unicode="&#x40c;" horiz-adv-x="664" 
d="M332 303q20 -33 43.5 -67.5t46.5 -66.5t44 -59t37 -45q17 -17 13.5 -27.5t-25.5 -20.5q-13 -7 -30.5 -12t-34.5 -7q-26 -7 -53 -3t-54 33q-11 12 -30 33t-41.5 48t-47 57.5t-45.5 60.5q-13 -66 -23 -121t-18 -100q0 -15 -7 -20.5t-20 -5t-31.5 6t-40.5 11.5
q-45 12 -65 30t-18 55q1 35 6 91.5t13 124.5t18 142.5t21 146t22 135.5t21 111q8 28 24 34.5t45 -2.5q32 -8 68.5 -24t63.5 -34q15 -10 24 -17.5t13 -15.5t3 -17.5t-5 -22.5q-15 -51 -30 -116.5t-32 -143.5q42 46 91 98.5t95.5 103.5t87 97t66.5 78q17 22 32 22q17 0 38 -18
q22 -19 36.5 -42t27.5 -50q8 -22 5.5 -43t-21.5 -52q-23 -38 -61.5 -84.5t-84 -95t-94.5 -96.5t-93 -90zM628 1150q-29 -20 -70.5 -44t-89 -48t-98 -46t-98.5 -39q-21 -9 -45 -3.5t-56 22.5q1 -1 -6 4.5t-11.5 15t-3 21t18.5 22.5q40 19 82.5 40t84 43.5t80 47t71.5 50.5
q18 14 41.5 13.5t60.5 -20.5q20 -10 28 -29.5t11 -49.5z" />
    <glyph glyph-name="uni040D" unicode="&#x40d;" horiz-adv-x="678" 
d="M687 739q-24 -75 -52 -168t-55.5 -191t-53 -195t-45.5 -180q0 -14 -7.5 -18.5t-20.5 -4t-30.5 5t-37.5 9.5q-41 12 -64 29.5t-14 53.5q4 36 36 181.5t43 203.5q-81 -139 -171 -307.5t-98.5 -173.5t-34.5 1q-25 7 -51.5 14t-45.5 18q-23 11 -33 25.5t-4 40.5q15 69 28 161
t25 192t23.5 199.5t23.5 183.5q8 32 23 38t44 -5q32 -9 68.5 -24.5t63.5 -33.5q15 -9 23.5 -17t12 -16t2.5 -18t-4 -23q-16 -57 -33.5 -134t-68.5 -271q56 102 287 520q9 32 25.5 36.5t47.5 -4.5q29 -8 60 -22.5t59 -32.5q26 -19 31.5 -33t-2.5 -40zM-1 1150q4 30 11.5 49.5
t28.5 29.5q36 20 59.5 20.5t42.5 -13.5q33 -26 71.5 -50.5t80 -47t83.5 -43.5t82 -40q18 -11 20 -22.5t-3 -21t-12 -15t-7 -4.5q-30 -17 -54.5 -22.5t-45.5 3.5q-48 17 -99 39t-98 46t-88.5 48t-71.5 44z" />
    <glyph glyph-name="uni040E" unicode="&#x40e;" horiz-adv-x="686" 
d="M322 235q11 29 18 57q-33 -15 -111 -20q-96 -1 -159 41.5t-56 132.5t18.5 189.5t23.5 183.5q8 32 23 38t44 -5q32 -9 68.5 -24.5t63.5 -33.5q15 -9 23.5 -17t12 -16t2.5 -18t-4 -23q-16 -57 -33.5 -134t-26.5 -126q-20 -63 32 -62q69 4 108 31q10 49 19 99
q15 80 27.5 158t21.5 141q6 30 22.5 36.5t47.5 -1.5q30 -8 66.5 -22t65.5 -32q15 -10 23 -17.5t11.5 -15.5t3 -17.5t-3.5 -22.5q-25 -147 -53 -268t-60.5 -213t-70.5 -154t-82 -90q-35 -21 -83.5 -30.5t-123.5 7.5q-39 9 -67.5 23t-49.5 32t-35 39t-24 44q-16 33 -19 53.5
t0 34.5q5 30 21 40t52 -2q119 -41 122 -79q4 -20 10 -42.5t30 -25.5q21 -1 41 35t41 96zM353 875q-38 3 -66.5 13t-42.5 21t-24.5 21.5t-24 33.5t-7 57t28.5 41.5t54.5 -10.5t48.5 -25t32 -8.5t31 4t31.5 20t29.5 22.5t25.5 13t26.5 4q23 -2 42 -16q22 -19 20 -40
q-3 -23 -22.5 -48.5t-59.5 -53.5q-69 -53 -123 -49z" />
    <glyph glyph-name="uni040F" unicode="&#x40f;" horiz-adv-x="400" 
 />
    <glyph glyph-name="uni0410" unicode="&#x410;" horiz-adv-x="718" 
d="M417 189q-75 -10 -149.5 -20.5t-131.5 -25.5q-20 -39 -35 -72.5t-29 -65.5q-8 -17 -19.5 -20t-34.5 5q-13 5 -28.5 11.5t-31.5 14.5q-12 8 -21 13.5t-14 13.5t-5.5 20.5t5.5 33.5q24 69 62.5 162t83 192t91 195.5t88.5 171.5q15 27 39 44t71 13q41 -2 73 -6.5t58.5 -10.5
t49 -13t45.5 -13q31 -11 39.5 -29t5.5 -47q-6 -71 -10 -163t-6 -192t-2.5 -200.5t0.5 -186.5q0 -18 -7.5 -25t-33.5 -7t-48 1.5t-45 9.5q-24 7 -33.5 18t-13.5 39q-4 29 -7 63.5t-6 75.5zM226 329q45 7 90.5 12t91.5 8q-2 82 -3 163.5t1 161.5q-40 -73 -86.5 -161.5
t-93.5 -183.5z" />
    <glyph glyph-name="uni0411" unicode="&#x411;" horiz-adv-x="622" 
d="M543 692q-60 -8 -124.5 -15t-135.5 -17q-14 -41 -25 -90q-7 -33 -27 -117q313 -9 325 -85q12 -77 20 -115q5 -45 -12 -76.5t-55 -61.5q-26 -23 -61.5 -44t-75 -38t-79.5 -30.5t-76 -22.5q-19 -5 -32.5 -7t-26 -1t-24.5 5q-11 4 -25 11q-16 -3 -38 1q-23 3 -48.5 12
t-44.5 17q-25 12 -30 26t-5 40q1 28 8.5 79.5t17.5 115.5q3 16 6 33q7 66 15 137q9 85 16.5 170.5t9.5 162.5l8 4q-1 14 -1 26q43 12 96 21l48 8q20 6 41 11q4 1 7 1q8 -1 15 -3h2q59 8 120.5 13t121.5 7q15 0 25.5 -1.5t19 -6t16.5 -13t17 -22.5q27 -45 31 -88
q4 -26 -3 -34.5t-37 -12.5zM153 130q48 13 88 30q43 19 73 39.5t44.5 41t10.5 37.5q-5 10 -20 18t-40 11t-58 -2q-28 -4 -61 -13q-26 -106 -37 -159v-3z" />
    <glyph glyph-name="uni0412" unicode="&#x412;" 
d="M480 383q39 -20 63.5 -56t32.5 -74q5 -45 -12 -76.5t-55 -61.5q-26 -23 -61.5 -44t-75 -38t-79.5 -30.5t-76 -22.5q-19 -5 -32.5 -7t-26 -1t-24.5 5t-28 13q-30 13 -52.5 27.5t-52.5 37.5q-11 12 -19.5 20.5t-13.5 18t-7 21.5t0 31q3 62 11 140.5t17.5 163t17 170
t9.5 162.5q38 21 88 39t104.5 31t110.5 19t106.5 3t92.5 -16.5t69 -39.5q35 -35 58.5 -75t34.5 -93q5 -29 -0.5 -56t-18.5 -52t-32 -46.5t-41 -40.5q-24 -18 -49 -36.5t-59 -35.5zM216 454q64 21 114.5 50t85 58.5t50.5 56t12 42.5q-4 13 -22 19.5t-46.5 5t-65.5 -11.5
t-80 -30q-14 -43 -24 -90t-24 -100zM178 288q-8 -42 -16.5 -80.5t-15.5 -78.5q52 13 95 31.5t73 39t44.5 41t10.5 37.5q-5 10 -20 18t-40 11t-58 -1.5t-73 -17.5z" />
    <glyph glyph-name="uni0413" unicode="&#x413;" horiz-adv-x="570" 
d="M543 692q-60 -8 -124.5 -15t-135.5 -17q-14 -41 -24.5 -90t-50.5 -208t-54.5 -228.5t-26.5 -123.5q-1 -18 -17 -21.5t-39 0t-48.5 12.5t-44.5 17q-25 12 -30 26t-5 40q1 28 8.5 79.5t17.5 116t21 137.5t19.5 144.5t12.5 136.5t1 114q43 12 96.5 21.5t112.5 17t120.5 12.5
t121.5 7q15 0 25.5 -1.5t19 -6t16.5 -13t17 -22.5q27 -45 31 -88q4 -26 -3 -34.5t-37 -12.5z" />
    <glyph glyph-name="uni0414" unicode="&#x414;" horiz-adv-x="811" 
d="M730 -147q-8 -20 -18 -27.5t-25 -10.5q-19 -2 -40 2t-40 14q-36 13 -31 54q8 53 17 110q-19 6 -28 16q-4 5 -7 13q-62 -5 -125 -12q-89 -9 -165 -29q-21 -6 -39 1q-16 6 -34 24q-1 -2 -1 -3q-8 -17 -20 -20q-6 -1 -15 0l-14 -48q-7 -26 -16 -50t-15 -39q-8 -20 -18 -27.5
t-25 -10.5q-19 -2 -40 2t-40 14q-36 13 -31 54q10 68 22.5 142t17.5 156q2 26 14.5 29.5t37.5 -11.5q12 -7 24 -15q15 36 32 78q38 93 82.5 192t91 195.5t88.5 171.5q15 27 39 44t71 13q41 -2 73 -6.5t58.5 -10.5t49 -13t45.5 -13q31 -11 39.5 -29t5.5 -47q-6 -71 -10 -163
t-6 -192t-3 -201v-44q16 -13 31 -29q19 -18 23.5 -36.5t-0.5 -42.5q-2 -26 -9.5 -53t-15 -53t-16.5 -50t-15 -39zM279 188q16 2 33 4q52 5 105.5 8.5t103.5 3.5q10 0 20 -3q-2 25 -3 54q-10 176 -11 257.5t1 161.5q-40 -73 -133 -250z" />
    <glyph glyph-name="uni0415" unicode="&#x415;" horiz-adv-x="577" 
d="M41 798q43 11 95.5 23t110 22t118 17.5t120.5 9.5q57 1 73 -44q13 -24 18 -43.5t10 -42.5q4 -26 -4 -35t-37 -13q-60 -7 -124 -14t-135 -17q-15 -45 -28 -93.5t-29 -101.5q30 4 60 6t64 3q28 1 44 -5t27 -26q12 -20 18.5 -39.5t11.5 -39.5q8 -23 1.5 -31t-34.5 -14
q-60 -11 -122.5 -21t-120.5 -22q-8 -32 -15 -60.5t-15 -56.5q47 8 89.5 13t92.5 8q28 2 43.5 -4t26.5 -24q12 -20 18.5 -37.5t14.5 -35.5q5 -20 0 -27.5t-32 -12.5q-64 -12 -130 -25t-126 -24q-40 -10 -60.5 -4.5t-35.5 15.5q-17 11 -32.5 22.5t-36.5 29.5q-17 14 -26.5 33
t-7.5 46l95 665v0z" />
    <glyph glyph-name="uni0416" unicode="&#x416;" horiz-adv-x="1166" 
d="M81 772q-5 41 -1 61t20 33q21 14 42.5 24.5t47.5 11.5q25 1 40 -9q13 -12 70 -33q13 -48 89.5 -175t97.5 -192q2 16 4 31q12 135 23 199q5 29 9 55q2 18 4 35q-1 15 2.5 24t8.5 13l4 2q7 12 17 16q16 7 45 -2q32 -8 68.5 -24t63.5 -34q15 -10 24 -17.5t13 -15.5t3 -17.5
t-5 -22.5q-2 -5 -3 -11q-7 -43 -18 -98q-12 -64 -27 -133v-4q36 40 77 84q49 53 95.5 104t87 97t66.5 78q17 22 32 22q17 0 38 -18q22 -19 36.5 -42t27.5 -50q8 -22 5.5 -43t-21.5 -52q-23 -38 -61.5 -84.5t-84 -95t-94.5 -96.5t-93 -90q20 -33 43.5 -67.5t46.5 -66.5
t44 -59t37 -45q17 -17 13.5 -27.5t-25.5 -20.5q-13 -7 -30.5 -12t-34.5 -7q-26 -7 -53 -3t-54 33q-11 12 -30 33t-41.5 48l-47.5 57q-23 29 -43 57q-1 -5 -2 -9q-6 -25 -12 -48q-6 -32 -11 -60q-10 -55 -18 -100q0 -15 -7 -20.5t-20 -4.5q-5 0 -11 1q-6 -4 -14 -5
q-24 -2 -69 19q-22 12 -39.5 19t-29 16t-17 18.5t1.5 21.5q8 45 15 80t18 102q-30 -11 -141.5 -127t-125.5 -118q-34 -6 -59.5 9.5t-47.5 39.5q-14 12 -28.5 28t-22.5 32q-17 23 -16 35t315 264z" />
    <glyph glyph-name="uni0417" unicode="&#x417;" horiz-adv-x="649" 
d="M382 391q26 -8 48.5 -17.5t42.5 -26.5q38 -32 56.5 -66t21 -68t-9.5 -67t-35 -61q-54 -63 -121 -86t-150 -23q-63 0 -132 21t-104 108t-36.5 96t3.5 15.5t14 11.5q31 19 69.5 15.5t53 -58t49 -63t63 -7t51.5 13t43 31.5q19 20 28 40t10.5 38t-4 32t-14.5 22
q-20 16 -42.5 18t-59.5 -3q-47 -6 -91.5 18t-75.5 72q-28 42 12 56q99 31 166.5 63.5t107.5 61t53 52t1 38.5q-7 11 -25 11q-12 0 -26 -4.5t-30 -12t-31.5 -16t-30.5 -17.5q-20 -15 -47 -19.5t-55 -1.5t-54 13t-44 24q-36 32 -10 65q16 21 41 44t55 43t64.5 36t70.5 24
q27 5 58 7.5t65 -5t69 -28.5t70 -62q35 -44 48.5 -86t10.5 -80t-19.5 -69.5t-40.5 -52.5q-29 -26 -68.5 -48t-88.5 -42z" />
    <glyph glyph-name="uni0418" unicode="&#x418;" horiz-adv-x="678" 
d="M687 739q-24 -75 -52 -168t-55.5 -191t-53 -195t-45.5 -180q0 -14 -7.5 -18.5t-20.5 -4t-30.5 5t-37.5 9.5q-41 12 -64 29.5t-14 53.5q4 36 36 181.5t43 203.5q-81 -139 -171 -307.5t-98.5 -173.5t-34.5 1q-25 7 -51.5 14t-45.5 18q-23 11 -33 25.5t-4 40.5q15 69 28 161
t25 192t23.5 199.5t23.5 183.5q8 32 23 38t44 -5q32 -9 68.5 -24.5t63.5 -33.5q15 -9 23.5 -17t12 -16t2.5 -18t-4 -23q-16 -57 -33.5 -134t-68.5 -271q56 102 287 520q9 32 25.5 36.5t47.5 -4.5q29 -8 60 -22.5t59 -32.5q26 -19 31.5 -33t-2.5 -40z" />
    <glyph glyph-name="uni0419" unicode="&#x419;" horiz-adv-x="678" 
d="M687 739q-24 -75 -52 -168t-55.5 -191t-53 -195t-45.5 -180q0 -14 -7.5 -18.5t-20.5 -4t-30.5 5t-37.5 9.5q-41 12 -64 29.5t-14 53.5q4 36 36 181.5t43 203.5q-81 -139 -171 -307.5t-98.5 -173.5t-34.5 1q-25 7 -51.5 14t-45.5 18q-23 11 -33 25.5t-4 40.5q15 69 28 161
t25 192t23.5 199.5t23.5 183.5q8 32 23 38t44 -5q32 -9 68.5 -24.5t63.5 -33.5q15 -9 23.5 -17t12 -16t2.5 -18t-4 -23q-16 -57 -33.5 -134t-68.5 -271q56 102 287 520q9 32 25.5 36.5t47.5 -4.5q29 -8 60 -22.5t59 -32.5q26 -19 31.5 -33t-2.5 -40zM556 1020
q-17 -13 -42 -28.5t-53 -31.5t-58 -30.5t-58 -25.5q-13 -6 -27.5 -2.5t-32.5 14.5q1 0 -3.5 3.5t-7 9.5t-1.5 14t11 15q48 25 99 55t90 64q11 9 25 8.5t36 -13.5q12 -6 16.5 -19t5.5 -33z" />
    <glyph glyph-name="uni041A" unicode="&#x41a;" horiz-adv-x="664" 
d="M332 303q20 -33 43.5 -67.5t46.5 -66.5t44 -59t37 -45q17 -17 13.5 -27.5t-25.5 -20.5q-13 -7 -30.5 -12t-34.5 -7q-26 -7 -53 -3t-54 33q-11 12 -30 33t-41.5 48t-47 57.5t-45.5 60.5q-13 -66 -23 -121t-18 -100q0 -15 -7 -20.5t-20 -5t-31.5 6t-40.5 11.5
q-45 12 -65 30t-18 55q1 35 6 91.5t13 124.5t18 142.5t21 146t22 135.5t21 111q8 28 24 34.5t45 -2.5q32 -8 68.5 -24t63.5 -34q15 -10 24 -17.5t13 -15.5t3 -17.5t-5 -22.5q-15 -51 -30 -116.5t-32 -143.5q42 46 91 98.5t95.5 103.5t87 97t66.5 78q17 22 32 22q17 0 38 -18
q22 -19 36.5 -42t27.5 -50q8 -22 5.5 -43t-21.5 -52q-23 -38 -61.5 -84.5t-84 -95t-94.5 -96.5t-93 -90z" />
    <glyph glyph-name="uni041B" unicode="&#x41b;" horiz-adv-x="718" 
d="M273 424q-157 -320 -172 -353.5t-29 -65.5q-8 -17 -19.5 -20t-34.5 5q-13 5 -28.5 11.5t-31.5 14.5q-12 8 -21 13.5t-14 13.5t-5.5 20.5t5.5 33.5q24 69 62.5 162t83 192t91 195.5t88.5 171.5q15 27 39 44t71 13q41 -2 73 -6.5t58.5 -10.5t49 -13t45.5 -13
q31 -11 39.5 -29t5.5 -47q-6 -71 -10 -163t-6 -192t-2.5 -200.5t0.5 -186.5q0 -18 -7.5 -25t-33.5 -7t-48 1.5t-45 9.5q-24 7 -33.5 18t-13.5 39q-4 29 -14 205t-11 257.5t1 161.5q-40 -73 -133 -250z" />
    <glyph glyph-name="uni041C" unicode="&#x41c;" horiz-adv-x="924" 
d="M187 489q-13 -68 -25 -136t-22 -131t-17.5 -118t-11.5 -98q-4 -18 -13 -23.5t-33 -0.5q-23 5 -46.5 12.5t-43.5 17.5q-25 12 -34 26t-7 40q0 39 3.5 95.5t10 122.5t14.5 137t17.5 140t19 130.5t18.5 108.5q9 34 25.5 42.5t51.5 3.5q54 -8 91.5 -18t75.5 -24
q24 -9 38 -19.5t22 -23t11.5 -27.5t7.5 -34q0 -9 1.5 -21.5t6 -44.5t13.5 -91t25 -162q16 36 37.5 79t44.5 88t47.5 90t47.5 85q23 46 40 75.5t35 45t40.5 17.5t57.5 -8q41 -11 86.5 -26t89.5 -35q29 -14 36.5 -32.5t-3.5 -51.5q-15 -47 -34 -108t-38.5 -128t-39 -136
t-37 -132t-31.5 -116t-22 -88q-7 -18 -16 -26t-35 -2q-23 5 -47 12t-42 17q-23 11 -30.5 26t-2.5 40q4 30 13 77.5t21 105t26.5 120.5t31.5 122q-30 -52 -63.5 -113t-65 -120t-58 -111.5t-42.5 -87.5q-5 -11 -8.5 -17.5t-8.5 -9.5t-13 -3.5t-21 2.5q-40 8 -70 18
q-11 4 -19 8.5t-14 12t-10.5 18.5t-9.5 28q-20 72 -38.5 166t-33.5 194z" />
    <glyph glyph-name="uni041D" unicode="&#x41d;" horiz-adv-x="678" 
d="M687 739q-24 -75 -52 -168t-55.5 -191t-53 -195t-45.5 -180q0 -14 -7.5 -18.5t-20.5 -4t-30.5 5t-37.5 9.5q-41 12 -64 29.5t-14 53.5q4 36 12 83t19 105q-42 -6 -82.5 -11.5t-82.5 -12.5q-16 -69 -26 -129.5t-18 -108.5q-4 -17 -12.5 -22t-34.5 1q-25 7 -51.5 14
t-45.5 18q-23 11 -33 25.5t-4 40.5q15 69 28 161t25 192t23.5 199.5t23.5 183.5q8 32 23 38t44 -5q32 -9 68.5 -24.5t63.5 -33.5q15 -9 23.5 -17t12 -16t2.5 -18t-4 -23q-16 -57 -33.5 -134l-37.5 -165q42 5 82.5 8t78.5 6q25 106 48.5 210.5t46.5 189.5q9 32 25.5 36.5
t47.5 -4.5q29 -8 60 -22.5t59 -32.5q26 -19 31.5 -33t-2.5 -40z" />
    <glyph glyph-name="uni041E" unicode="&#x41e;" 
d="M541 790q38 -31 55.5 -65.5t25.5 -78.5q11 -73 5 -158.5t-29.5 -170t-64 -159.5t-99.5 -127q-40 -31 -84 -41.5t-101 -4.5q-38 4 -78 12.5t-73 25.5q-27 14 -53 36t-41 50q-24 46 -36 104t-11 122t15 130.5t41 129.5t66.5 119.5t91.5 101.5q35 27 83.5 41t92.5 7
q57 -9 108.5 -28t85.5 -46zM380 690q-21 7 -47 -17.5t-52 -66.5t-48.5 -93.5t-36.5 -99.5q-14 -47 -20 -97.5t-4 -94t14 -74.5t35 -38q21 -7 44 9t46 49t43.5 81.5t35.5 105.5q13 47 21 103.5t8 105.5q0 50 -9.5 85.5t-29.5 41.5z" />
    <glyph glyph-name="uni041F" unicode="&#x41f;" horiz-adv-x="678" 
d="M687 739q-24 -75 -52 -168t-55.5 -191t-53 -195t-45.5 -180q0 -14 -7.5 -18.5t-20.5 -4t-30.5 5t-37.5 9.5q-41 12 -64 29.5t-14 53.5q4 36 59 315.5t66 337.5q-42 -6 -82.5 -11.5t-82.5 -12.5q-110 -534 -120 -594.5t-18 -108.5q-4 -17 -12.5 -22t-34.5 1
q-25 7 -51.5 14t-45.5 18q-23 11 -33 25.5t-4 40.5q15 69 28 161t25 192t23.5 199.5t23.5 183.5q8 32 23 38t44 -5q32 -9 424 15q29 -8 60 -22.5t59 -32.5q26 -19 31.5 -33t-2.5 -40z" />
    <glyph glyph-name="uni0420" unicode="&#x420;" horiz-adv-x="708" 
d="M185 215q-12 -57 -22.5 -110t-18.5 -104q-5 -16 -14 -21t-35 0q-26 7 -50.5 13.5t-43.5 17t-28.5 26.5t-3.5 42q9 24 16.5 81t13.5 129.5t12 150.5t12 144t13.5 110.5t17.5 49.5q38 20 84 41.5t95 39t98.5 29t95.5 12.5t85.5 -10.5t68.5 -39.5q34 -38 62.5 -81.5
t44.5 -106.5q7 -31 3.5 -58t-15 -51t-29 -46t-38.5 -43q-34 -34 -81.5 -66t-103.5 -60t-117.5 -50.5t-121.5 -38.5zM228 403q71 22 124 54.5t87 67t48 66.5t6 54q-3 12 -21.5 18.5t-47 5.5t-64 -9t-72.5 -24q-16 -54 -30.5 -112t-29.5 -121z" />
    <glyph glyph-name="uni0421" unicode="&#x421;" horiz-adv-x="642" 
d="M474 210q38 -10 39.5 -31t-15.5 -52q-18 -36 -46 -66t-56 -50q-14 -9 -33.5 -17t-41 -13t-45 -7t-45.5 0q-47 3 -85 14.5t-68 21.5q-27 11 -54 32t-42 49q-26 43 -36.5 101.5t-7.5 125t19.5 137t45.5 137.5t69.5 126.5t92.5 104.5q42 36 85 47t81 8q28 -3 58 -10.5
t58 -18t53 -23t45 -25.5q19 -16 31.5 -31.5t20 -31.5t10.5 -33.5t4 -37.5q1 -23 -0.5 -48t-4.5 -49.5t-8 -47t-11 -40.5q-3 -8 -6 -15t-8.5 -11t-15.5 -5t-27 2q-32 6 -55 16.5t-38 25t-24 33.5t-13 44q-3 21 -3 39q1 32 -3 58t-24 34q-20 6 -47 -23t-55 -75.5t-52.5 -102.5
t-38.5 -104q-13 -50 -19.5 -99.5t-4.5 -90t13 -68.5t32 -34q40 -13 122 71q59 60 154 33z" />
    <glyph glyph-name="uni0422" unicode="&#x422;" horiz-adv-x="664" 
d="M642 702q-39 -4 -85 -8.5t-95 -9.5l-43.5 -174t-43.5 -178.5t-39.5 -172.5t-32.5 -157q-2 -14 -9.5 -18.5t-20.5 -4t-30 5.5t-38 11t-38 13t-28.5 17t-16.5 23.5t-1 32.5q3 48 12 118t21.5 148t27.5 157.5t30 147.5q-29 -5 -56 -8.5t-45 -8.5q-25 -6 -41 -1.5t-36 25.5
q-21 21 -38.5 53t-28.5 54q-12 23 -6 30.5t25 12.5q59 12 133.5 22t152 18t152 13.5t133.5 7.5q31 0 44.5 -5.5t23.5 -18.5q20 -23 33 -50t20 -53q6 -23 0.5 -31.5t-36.5 -10.5z" />
    <glyph glyph-name="uni0423" unicode="&#x423;" horiz-adv-x="627" 
d="M47 420q-54 72 -60 104q-7 33 -6.5 69.5t4.5 74t12 75.5t18 75q4 16 18 20t47 -2q29 -4 57 -10.5t55 -16.5q57 -20 48 -55q-10 -28 -19 -62.5t-17 -70t-11 -68.5t0 -59.5t14 -43.5t33 -19q27 -3 48 16q17 16 30 40l8 40q15 81 27.5 159t21.5 141q6 30 22.5 36.5
t47.5 -1.5q7 -2 15 -5q28 -3 60 -11q33 -8 61 -16q14 -5 22.5 -8.5t12 -8t4 -9.5t-1.5 -13l-4 -26v-8q0 -9 -3 -22q-25 -147 -53 -268t-60.5 -213t-70.5 -154t-82 -90q-35 -21 -83.5 -30.5t-123.5 7.5q-39 9 -67.5 23t-49.5 32t-35 39t-24 44q-16 33 -19 68.5t3 81.5
q6 35 21.5 51.5t50.5 0.5q117 -47 120 -125q4 -50 10 -72.5t30 -25.5q21 -1 41 35t39 95q18 56 34 127q-4 1 -7 1q-88 0 -147 16q-26 7 -49 16.5t-42 25.5z" />
    <glyph glyph-name="uni0424" unicode="&#x424;" horiz-adv-x="1128" 
d="M533 861q37 2 78.5 -0.5t75.5 -10.5q36 -7 48.5 -20.5t10.5 -44.5l-4 -28q4 -13 -1 -37q-2 -9 -6 -18q-1 -9 -3 -18q35 7 70 10q36 4 68.5 1t61 -14t50.5 -31q34 -36 62 -77.5t43 -101.5q7 -29 3.5 -54.5t-14.5 -48.5t-28.5 -44t-37.5 -41q-33 -32 -79.5 -62.5t-101 -57
t-113.5 -48.5q-53 -20 -105 -34q-9 -31 -16 -52q-4 -14 -9 -23q-5 -17 -13 -22q-7 -4 -29 0q-4 -1 -9 -1q-26 1 -52.5 6.5t-54.5 11.5q-28 8 -34 16t-7 26q3 18 6.5 37.5t5.5 39.5q-170 75 -217 128.5t-83 105t-58 98.5q-12 29 -23 56.5t-14 55.5t3 54t20 51q36 52 78 77
t91 44q29 7 61 4t106.5 -4t110.5 -26q1 9 0.5 21t0.5 21q2 28 13 38.5t45 16.5zM420 311q6 65 9.5 124.5t6.5 117.5q-30 31 -96.5 36t-86.5 9.5t-29 -4.5q-13 -18 -10 -54t25 -83.5t181 -145.5zM698 480q-9 -47 -19 -97q-13 -64 -25 -122q59 21 106 49q52 31 85 63.5
t46.5 63t6.5 51.5q-3 12 -21 17.5t-46 5t-63 -8.5z" />
    <glyph glyph-name="uni0425" unicode="&#x425;" horiz-adv-x="708" 
d="M303 593q61 80 113.5 147t94.5 114q20 23 41 23q11 0 22 -4t22 -11q23 -18 45 -43.5t36 -47.5q17 -27 12 -50t-23 -44q-54 -63 -123.5 -143.5t-144.5 -168.5q42 -100 78.5 -186.5t65.5 -153.5q23 -35 -21 -41q-50 -5 -104 0q-27 3 -42 13.5t-32 34.5q-12 17 -35.5 63.5
t-55.5 114.5q-54 -65 -97.5 -122.5t-78.5 -99.5q-24 -30 -63 -5q-14 8 -30 20t-30.5 25.5t-24.5 26.5t-11 22q0 7 2.5 16t10.5 21q35 56 93.5 137.5t129.5 171.5q-24 51 -48 102.5t-45.5 99.5t-40 90t-31.5 74q-12 32 -6 43.5t35 15.5q8 1 15 1h15h29q15 0 31 -0.5t33 -1.5
q35 -5 54 -22.5t33 -46.5q16 -41 35.5 -87.5t40.5 -97.5z" />
    <glyph glyph-name="uni0426" unicode="&#x426;" horiz-adv-x="710" 
d="M577 -130q-35 -43 -54 -49q-30 -9 -76 -9q-47 -1 -38 40q6 30 14.5 75t7.5 60q3 19 5 37q-25 7 -48 13q-5 2 -10 3q-61 -12 -125 -24q-66 -12 -126 -24q-22 -6 -37 -7t-26 1.5t-18.5 6.5t-14.5 9q-17 11 -31 22.5t-37 29.5q-17 14 -26 31.5t-5 42.5q3 39 10 92.5
t17 115.5t22 128.5t26 132.5t28.5 127t28.5 112q10 29 25.5 34.5t46.5 -3.5q31 -8 67 -22.5t63 -32.5q26 -19 32.5 -33t-2.5 -40q-20 -60 -40.5 -132t-41 -148t-39 -151.5t-34.5 -144.5q46 8 86 12t86 7q2 12 3 25q7 54 16.5 118t21.5 135t24.5 139t26 129t24.5 106
q9 28 24.5 34.5t46.5 -2.5q31 -7 67.5 -23t63.5 -33q28 -19 33.5 -32.5t-1.5 -39.5q-14 -44 -30.5 -100t-33 -119t-33 -128.5t-31.5 -128.5q-8 -33 -16 -64q48 -19 83 -46q12 -10 18.5 -19.5t9.5 -19t3 -20.5t-1 -25q-4 -28 -11.5 -61t-12 -47.5t-14 -43t-17.5 -46.5z" />
    <glyph glyph-name="uni0427" unicode="&#x427;" horiz-adv-x="655" 
d="M602 794q39 -47 32 -74q-14 -45 -30.5 -103t-33 -122.5t-32.5 -132t-31 -132t-27.5 -122t-21.5 -102.5q-5 -17 -13.5 -22t-34.5 1q-26 7 -49.5 14t-44.5 18q-23 11 -30.5 25.5t-4.5 40.5q2 35 8.5 90.5t16.5 121.5l6 42q-27 -3 -55 -7q-55 -8 -104 -16q-19 -4 -31 -4.5
t-21.5 1t-15.5 4t-12 6.5q-14 7 -25.5 14.5t-30.5 19.5q-14 9 -21.5 20.5t-4.5 27.5q3 25 8.5 60t14 75.5t18.5 84t21.5 86.5t23.5 83t24 73q8 19 20.5 22.5t38.5 -2.5q26 -5 55.5 -14.5t52.5 -21.5q21 -12 26.5 -21t-1.5 -26q-17 -40 -34 -86.5t-34 -96.5t-32 -99t-29 -94
q38 5 71.5 7.5t71.5 4.5h21q12 71 23 139q13 70 26 132.5t24 109.5q9 29 24.5 35.5t46.5 -2.5q31 -8 67 -24t63 -34z" />
    <glyph glyph-name="uni0428" unicode="&#x428;" horiz-adv-x="1040" 
d="M1005 813q37 -42 30 -66q-14 -40 -29.5 -91.5t-31 -109t-30.5 -117.5t-30 -117.5t-26.5 -108.5t-20.5 -92q-5 -14 -13 -19q-4 -2 -10 -3q-9 -2 -22 -2q-88 -4 -179 -11q-85 -7 -260 -35q-63 -12 -129.5 -24.5t-126.5 -24.5q-22 -6 -37 -7t-26 1.5t-18.5 6.5t-14.5 9
q-17 11 -31 22.5t-37 29.5q-17 14 -26 31.5t-5 42.5q3 39 10 92.5t17 115.5t22 128.5t26 132.5t28.5 127t28.5 112q10 29 25.5 34.5t46.5 -3.5q31 -8 67 -22.5t63 -32.5q26 -19 32.5 -33t-2.5 -40q-20 -60 -40.5 -132t-41 -148t-39 -151.5t-34.5 -144.5q46 8 86 12t87 7
q3 19 6 43q7 53 16 115t21.5 130.5t25 134.5t26 125.5t23.5 102.5q9 27 24.5 33.5t47.5 -2.5q31 -7 67.5 -22.5t64.5 -31.5q28 -18 33.5 -31.5t-1.5 -38.5q-15 -43 -31.5 -97t-33 -115t-32.5 -124.5t-32 -124.5q-9 -37 -18 -71q52 4 106 6q38 2 74 3q2 19 5 43
q7 50 15.5 109t20.5 123.5t23.5 127t24.5 119t22 96.5q9 26 23.5 32t44.5 -3q30 -6 64.5 -20.5t60.5 -30.5z" />
    <glyph glyph-name="uni0429" unicode="&#x429;" horiz-adv-x="1040" 
d="M1035 747q-14 -40 -29.5 -91.5t-31 -109t-30.5 -117.5t-30 -118q-9 -35 -17 -67q44 -19 78 -44q12 -10 18.5 -19.5t9.5 -19t3 -20.5t-1 -25q-4 -28 -11.5 -61t-12 -47.5t-14 -43t-17.5 -46.5q-35 -43 -54 -49q-30 -9 -76 -9q-47 -1 -38 40q6 30 14.5 75t7.5 60q3 19 5 37
q-23 6 -44 12q-60 -3 -122 -8q-85 -7 -260 -35q-63 -12 -129.5 -24.5t-126.5 -24.5q-22 -6 -37 -7t-26 1.5t-18.5 6.5t-14.5 9q-17 11 -31 22.5t-37 29.5q-17 14 -26 31.5t-5 42.5q3 39 10 92.5t17 115.5t22 128.5t26 132.5t28.5 127t28.5 112q10 29 25.5 34.5t46.5 -3.5
q31 -8 67 -22.5t63 -32.5q26 -19 32.5 -33t-2.5 -40q-20 -60 -40.5 -132t-41 -148t-39 -151.5t-34.5 -144.5q46 8 86 12t87 7q3 19 6 43q7 53 16 115t21.5 130.5t25 134.5t26 125.5t23.5 102.5q9 27 24.5 33.5t47.5 -2.5q31 -7 67.5 -22.5t64.5 -31.5q28 -18 33.5 -31.5
t-1.5 -38.5q-15 -43 -31.5 -97t-33 -115t-32.5 -124.5t-32 -124.5q-9 -37 -18 -71q52 4 106 6q38 2 74 3q2 19 5 43q7 50 15.5 109t20.5 123.5t23.5 127t24.5 119t22 96.5q9 26 23.5 32t44.5 -3q30 -6 64.5 -20.5t60.5 -30.5z" />
    <glyph glyph-name="uni042A" unicode="&#x42a;" horiz-adv-x="963" 
d="M37 814q33 7 78.5 14t97.5 12t105.5 8.5t103.5 3.5q17 0 30 -6q12 3 25 6q4 1 7 1q119 -15 67 -180.5t-66 -218.5q328 -8 340 -85.5t20 -115.5q5 -45 -12 -76.5t-55 -61.5q-26 -23 -61.5 -44t-75 -38t-79.5 -30.5t-76 -22.5q-19 -5 -32.5 -7t-26 -1t-24.5 5t-28 13
q-30 13 -52.5 27.5t-52.5 37.5q-11 12 -19.5 20.5t-13.5 18t-7 21.5t0 31q3 62 11 140.5t17.5 163t16.5 169.5q2 17 3 34q-57 -9 -109 -22q-21 -6 -39 1t-39 30q-22 23 -37.5 44.5t-29.5 44.5q-36 54 13 63zM447 288q-25 -119 -32 -159q52 13 95 31.5t73 39t44.5 41
t10.5 37.5q-5 10 -20 18t-40 11t-58 -1.5t-73 -17.5z" />
    <glyph glyph-name="uni042B" unicode="&#x42b;" horiz-adv-x="953" 
d="M216 454q328 -8 340 -85.5t20 -115.5q5 -45 -12 -76.5t-55 -61.5q-26 -23 -61.5 -44t-75 -38t-79.5 -30.5t-76 -22.5q-19 -5 -32.5 -7t-26 -1t-24.5 5t-28 13q-30 13 -52.5 27.5t-52.5 37.5q-11 12 -19.5 20.5t-13.5 18t-7 21.5t0 31q3 62 11 140.5t17.5 163t17 170
t9.5 162.5q38 21 88 39t104 31q4 1 7 1q119 -15 67 -180.5t-66 -218.5zM178 288q-8 -42 -16.5 -80.5t-15.5 -78.5q52 13 95 31.5t73 39t44.5 41t10.5 37.5q-5 10 -20 18t-40 11t-58 -1.5t-73 -17.5zM943 794q28 -19 33.5 -33t-1.5 -41q-14 -45 -30.5 -103t-33 -122.5
t-32.5 -132t-31 -132t-27.5 -122t-21.5 -102.5q-5 -17 -13.5 -22t-34.5 1q-26 7 -49.5 14t-44.5 18q-23 11 -30.5 25.5t-4.5 40.5q2 35 8.5 90.5t16 121.5t21.5 139t24.5 143t25.5 132.5t24 109.5q9 29 24.5 35.5t46.5 -2.5q31 -8 67 -24t63 -34z" />
    <glyph glyph-name="uni042C" unicode="&#x42c;" horiz-adv-x="687" 
d="M268 464q328 -8 340 -85.5t20 -115.5q5 -45 -12 -76.5t-55 -61.5q-26 -23 -61.5 -44t-75 -38t-79.5 -30.5t-76 -22.5q-19 -5 -32.5 -7t-26 -1t-24.5 5t-28 13q-30 13 -52.5 27.5t-52.5 37.5q-11 12 -19.5 20.5t-13.5 18t-7 21.5t0 31q3 62 11 140.5t17.5 163t17 170
t9.5 162.5q38 21 88 39t104 31q4 1 7 1q119 -15 67 -180.5t-66 -218.5zM230 298q-8 -42 -16.5 -80.5t-15.5 -78.5q52 13 95 31.5t73 39t44.5 41t10.5 37.5q-5 10 -20 18t-40 11t-58 -1.5t-73 -17.5z" />
    <glyph glyph-name="uni042D" unicode="&#x42d;" horiz-adv-x="682" 
d="M192 208q40 -106 83 -106q22 -1 44.5 22t42 60.5t34.5 85.5q13 40 22 83q-53 -8 -100 -20q-17 -5 -31 1t-31 24q-17 19 -29 37t-23 37q-29 44 10 52q26 5 62 11t76 10q39 4 79 7q-1 43 -5 82q-6 53 -19 89t-34 37q-23 -1 -38 -24t-28 -54q-8 -17 -20 -36q-14 -22 -31 -37
t-37 -24t-46.5 -11.5t-59.5 1.5q-17 3 -26 7t-12.5 10t-3 13.5t1.5 15.5q2 19 7 41.5t12.5 47t17 48.5t20.5 45q10 18 20 33.5t24.5 28.5t33 23.5t42.5 19.5q25 7 53.5 10.5t59.5 4.5t63 -2t59 -8q38 -10 74 -34t59 -71q29 -59 41.5 -128t10.5 -141.5t-17 -144.5t-41 -135.5
t-61.5 -115.5t-78.5 -83q-27 -21 -61 -32.5t-66 -13.5q-32 0 -72.5 1.5t-85.5 13.5q-22 5 -43 14.5t-39.5 20.5t-33 25t-24.5 27q-18 27 -31 64.5t-14 77.5q-3 34 7.5 53.5t50.5 16.5z" />
    <glyph glyph-name="uni042E" unicode="&#x42e;" horiz-adv-x="1034" 
d="M930 790q38 -31 55.5 -65.5t25.5 -78.5q11 -73 5 -158.5t-29.5 -170t-64 -159.5t-99.5 -127q-40 -31 -84 -41.5t-101 -4.5q-38 4 -78 12.5t-73 25.5q-27 14 -53 36t-41 50q-24 46 -36 104q-2 10 -4 21q-20 8 -15 34q-42 -6 -82.5 -11.5t-82.5 -12.5q-16 -69 -26 -129.5
t-18 -108.5q-4 -17 -12.5 -22t-34.5 1q-25 7 -51.5 14t-45.5 18q-23 11 -33 25.5t-4 40.5q15 69 28 161t25 192t23.5 199.5t23.5 183.5q8 32 23 38t44 -5q32 -9 68.5 -24.5t63.5 -33.5q15 -9 23.5 -17t12 -16t2.5 -18t-4 -23q-16 -57 -34 -134l-37 -165q42 5 82 8q32 2 63 4
q2 16 6 32q14 67 41 130t66.5 119.5t91.5 101.5q35 27 83.5 41t92.5 7q57 -9 108.5 -28t85.5 -46zM769 690q-73 -42 -99 -84t-48.5 -93.5t-36.5 -99.5l-3 -10q1 -10 -2.5 -23t-8.5 -24q-4 -20 -6 -41q-6 -50 -4 -93.5t14 -74.5t35 -38q21 -7 44 9t46 49t43.5 81.5
t35.5 105.5q13 47 21 103.5t8 105.5q0 50 -9.5 85.5t-29.5 41.5z" />
    <glyph glyph-name="uni042F" unicode="&#x42f;" horiz-adv-x="791" 
d="M756 794q28 -19 33.5 -33t-1.5 -41q-14 -45 -31 -103q-7 -25 -14 -51q0 -2 -1 -4q-11 -54 -25 -112.5t-30 -116.5q-8 -31 -16 -60l-10 -43q-15 -64 -27.5 -121.5t-21.5 -102.5q-5 -17 -13.5 -22t-34.5 1q-26 7 -49.5 14t-44.5 18q-23 11 -30.5 25.5t-4.5 40.5q2 35 8 90
q3 25 6 51q-33 -26 -70 -52q-43 -30 -158.5 -110.5t-143 -82t-47.5 4.5l-56 47q-11 11 -9.5 21.5t28.5 26.5q32 19 70.5 45.5t78.5 54.5t78 56t71 53q-93 54 -151.5 114.5t-67.5 130.5q-7 43 31 110q40 63 84 105.5t94 79.5q60 41 122 49t123 -6q28 -6 55 -16q16 5 45 -3
q31 -8 67 -24t63 -34zM507 643q-97 36 -126 37q-59 2 -81 -26q-13 -17 -8.5 -48t27.5 -67t64 -71q38 -33 94 -58l4 24q6 41 13 81q2 9 3 18q7 59 10 110z" />
    <glyph glyph-name="uni0430" unicode="&#x430;" horiz-adv-x="718" 
d="M417 189q-75 -10 -149.5 -20.5t-131.5 -25.5q-20 -39 -35 -72.5t-29 -65.5q-8 -17 -19.5 -20t-34.5 5q-13 5 -28.5 11.5t-31.5 14.5q-12 8 -21 13.5t-14 13.5t-5.5 20.5t5.5 33.5q24 69 62.5 162t83 192t91 195.5t88.5 171.5q15 27 39 44t71 13q41 -2 73 -6.5t58.5 -10.5
t49 -13t45.5 -13q31 -11 39.5 -29t5.5 -47q-6 -71 -10 -163t-6 -192t-2.5 -200.5t0.5 -186.5q0 -18 -7.5 -25t-33.5 -7t-48 1.5t-45 9.5q-24 7 -33.5 18t-13.5 39q-4 29 -7 63.5t-6 75.5zM226 329q45 7 90.5 12t91.5 8q-2 82 -3 163.5t1 161.5q-40 -73 -86.5 -161.5
t-93.5 -183.5z" />
    <glyph glyph-name="uni0431" unicode="&#x431;" horiz-adv-x="622" 
d="M543 692q-60 -8 -124.5 -15t-135.5 -17q-14 -41 -25 -90q-7 -33 -27 -117q313 -9 325 -85q12 -77 20 -115q5 -45 -12 -76.5t-55 -61.5q-26 -23 -61.5 -44t-75 -38t-79.5 -30.5t-76 -22.5q-19 -5 -32.5 -7t-26 -1t-24.5 5q-11 4 -25 11q-16 -3 -38 1q-23 3 -48.5 12
t-44.5 17q-25 12 -30 26t-5 40q1 28 8.5 79.5t17.5 115.5q3 16 6 33q7 66 15 137q9 85 16.5 170.5t9.5 162.5l8 4q-1 14 -1 26q43 12 96 21l48 8q20 6 41 11q4 1 7 1q8 -1 15 -3h2q59 8 120.5 13t121.5 7q15 0 25.5 -1.5t19 -6t16.5 -13t17 -22.5q27 -45 31 -88
q4 -26 -3 -34.5t-37 -12.5zM153 130q48 13 88 30q43 19 73 39.5t44.5 41t10.5 37.5q-5 10 -20 18t-40 11t-58 -2q-28 -4 -61 -13q-26 -106 -37 -159v-3z" />
    <glyph glyph-name="uni0432" unicode="&#x432;" 
d="M480 383q39 -20 63.5 -56t32.5 -74q5 -45 -12 -76.5t-55 -61.5q-26 -23 -61.5 -44t-75 -38t-79.5 -30.5t-76 -22.5q-19 -5 -32.5 -7t-26 -1t-24.5 5t-28 13q-30 13 -52.5 27.5t-52.5 37.5q-11 12 -19.5 20.5t-13.5 18t-7 21.5t0 31q3 62 11 140.5t17.5 163t17 170
t9.5 162.5q38 21 88 39t104.5 31t110.5 19t106.5 3t92.5 -16.5t69 -39.5q35 -35 58.5 -75t34.5 -93q5 -29 -0.5 -56t-18.5 -52t-32 -46.5t-41 -40.5q-24 -18 -49 -36.5t-59 -35.5zM216 454q64 21 114.5 50t85 58.5t50.5 56t12 42.5q-4 13 -22 19.5t-46.5 5t-65.5 -11.5
t-80 -30q-14 -43 -24 -90t-24 -100zM178 288q-8 -42 -16.5 -80.5t-15.5 -78.5q52 13 95 31.5t73 39t44.5 41t10.5 37.5q-5 10 -20 18t-40 11t-58 -1.5t-73 -17.5z" />
    <glyph glyph-name="uni0433" unicode="&#x433;" horiz-adv-x="570" 
d="M543 692q-60 -8 -124.5 -15t-135.5 -17q-14 -41 -24.5 -90t-50.5 -208t-54.5 -228.5t-26.5 -123.5q-1 -18 -17 -21.5t-39 0t-48.5 12.5t-44.5 17q-25 12 -30 26t-5 40q1 28 8.5 79.5t17.5 116t21 137.5t19.5 144.5t12.5 136.5t1 114q43 12 96.5 21.5t112.5 17t120.5 12.5
t121.5 7q15 0 25.5 -1.5t19 -6t16.5 -13t17 -22.5q27 -45 31 -88q4 -26 -3 -34.5t-37 -12.5z" />
    <glyph glyph-name="uni0434" unicode="&#x434;" horiz-adv-x="811" 
d="M730 -147q-8 -20 -18 -27.5t-25 -10.5q-19 -2 -40 2t-40 14q-36 13 -31 54q8 53 17 110q-19 6 -28 16q-4 5 -7 13q-62 -5 -125 -12q-89 -9 -165 -29q-21 -6 -39 1q-16 6 -34 24q-1 -2 -1 -3q-8 -17 -20 -20q-6 -1 -15 0l-14 -48q-7 -26 -16 -50t-15 -39q-8 -20 -18 -27.5
t-25 -10.5q-19 -2 -40 2t-40 14q-36 13 -31 54q10 68 22.5 142t17.5 156q2 26 14.5 29.5t37.5 -11.5q12 -7 24 -15q15 36 32 78q38 93 82.5 192t91 195.5t88.5 171.5q15 27 39 44t71 13q41 -2 73 -6.5t58.5 -10.5t49 -13t45.5 -13q31 -11 39.5 -29t5.5 -47q-6 -71 -10 -163
t-6 -192t-3 -201v-44q16 -13 31 -29q19 -18 23.5 -36.5t-0.5 -42.5q-2 -26 -9.5 -53t-15 -53t-16.5 -50t-15 -39zM279 188q16 2 33 4q52 5 105.5 8.5t103.5 3.5q10 0 20 -3q-2 25 -3 54q-10 176 -11 257.5t1 161.5q-40 -73 -133 -250z" />
    <glyph glyph-name="uni0435" unicode="&#x435;" horiz-adv-x="577" 
d="M41 798q43 11 95.5 23t110 22t118 17.5t120.5 9.5q57 1 73 -44q13 -24 18 -43.5t10 -42.5q4 -26 -4 -35t-37 -13q-60 -7 -124 -14t-135 -17q-15 -45 -28 -93.5t-29 -101.5q30 4 60 6t64 3q28 1 44 -5t27 -26q12 -20 18.5 -39.5t11.5 -39.5q8 -23 1.5 -31t-34.5 -14
q-60 -11 -122.5 -21t-120.5 -22q-8 -32 -15 -60.5t-15 -56.5q47 8 89.5 13t92.5 8q28 2 43.5 -4t26.5 -24q12 -20 18.5 -37.5t14.5 -35.5q5 -20 0 -27.5t-32 -12.5q-64 -12 -130 -25t-126 -24q-40 -10 -60.5 -4.5t-35.5 15.5q-17 11 -32.5 22.5t-36.5 29.5q-17 14 -26.5 33
t-7.5 46l95 665v0z" />
    <glyph glyph-name="uni0436" unicode="&#x436;" horiz-adv-x="1166" 
d="M81 772q-5 41 -1 61t20 33q21 14 42.5 24.5t47.5 11.5q25 1 40 -9q13 -12 70 -33q13 -48 89.5 -175t97.5 -192q2 16 4 31q12 135 23 199q5 29 9 55q2 18 4 35q-1 15 2.5 24t8.5 13l4 2q7 12 17 16q16 7 45 -2q32 -8 68.5 -24t63.5 -34q15 -10 24 -17.5t13 -15.5t3 -17.5
t-5 -22.5q-2 -5 -3 -11q-7 -43 -18 -98q-12 -64 -27 -133v-4q36 40 77 84q49 53 95.5 104t87 97t66.5 78q17 22 32 22q17 0 38 -18q22 -19 36.5 -42t27.5 -50q8 -22 5.5 -43t-21.5 -52q-23 -38 -61.5 -84.5t-84 -95t-94.5 -96.5t-93 -90q20 -33 43.5 -67.5t46.5 -66.5
t44 -59t37 -45q17 -17 13.5 -27.5t-25.5 -20.5q-13 -7 -30.5 -12t-34.5 -7q-26 -7 -53 -3t-54 33q-11 12 -30 33t-41.5 48l-47.5 57q-23 29 -43 57q-1 -5 -2 -9q-6 -25 -12 -48q-6 -32 -11 -60q-10 -55 -18 -100q0 -15 -7 -20.5t-20 -4.5q-5 0 -11 1q-6 -4 -14 -5
q-24 -2 -69 19q-22 12 -39.5 19t-29 16t-17 18.5t1.5 21.5q8 45 15 80t18 102q-30 -11 -141.5 -127t-125.5 -118q-34 -6 -59.5 9.5t-47.5 39.5q-14 12 -28.5 28t-22.5 32q-17 23 -16 35t315 264z" />
    <glyph glyph-name="uni0437" unicode="&#x437;" horiz-adv-x="649" 
d="M382 391q26 -8 48.5 -17.5t42.5 -26.5q38 -32 56.5 -66t21 -68t-9.5 -67t-35 -61q-54 -63 -121 -86t-150 -23q-63 0 -132 21t-104 108t-36.5 96t3.5 15.5t14 11.5q31 19 69.5 15.5t53 -58t49 -63t63 -7t51.5 13t43 31.5q19 20 28 40t10.5 38t-4 32t-14.5 22
q-20 16 -42.5 18t-59.5 -3q-47 -6 -91.5 18t-75.5 72q-28 42 12 56q99 31 166.5 63.5t107.5 61t53 52t1 38.5q-7 11 -25 11q-12 0 -26 -4.5t-30 -12t-31.5 -16t-30.5 -17.5q-20 -15 -47 -19.5t-55 -1.5t-54 13t-44 24q-36 32 -10 65q16 21 41 44t55 43t64.5 36t70.5 24
q27 5 58 7.5t65 -5t69 -28.5t70 -62q35 -44 48.5 -86t10.5 -80t-19.5 -69.5t-40.5 -52.5q-29 -26 -68.5 -48t-88.5 -42z" />
    <glyph glyph-name="uni0438" unicode="&#x438;" horiz-adv-x="678" 
d="M687 739q-24 -75 -52 -168t-55.5 -191t-53 -195t-45.5 -180q0 -14 -7.5 -18.5t-20.5 -4t-30.5 5t-37.5 9.5q-41 12 -64 29.5t-14 53.5q4 36 36 181.5t43 203.5q-81 -139 -171 -307.5t-98.5 -173.5t-34.5 1q-25 7 -51.5 14t-45.5 18q-23 11 -33 25.5t-4 40.5q15 69 28 161
t25 192t23.5 199.5t23.5 183.5q8 32 23 38t44 -5q32 -9 68.5 -24.5t63.5 -33.5q15 -9 23.5 -17t12 -16t2.5 -18t-4 -23q-16 -57 -33.5 -134t-68.5 -271q56 102 287 520q9 32 25.5 36.5t47.5 -4.5q29 -8 60 -22.5t59 -32.5q26 -19 31.5 -33t-2.5 -40z" />
    <glyph glyph-name="uni0439" unicode="&#x439;" horiz-adv-x="678" 
d="M687 739q-24 -75 -52 -168t-55.5 -191t-53 -195t-45.5 -180q0 -14 -7.5 -18.5t-20.5 -4t-30.5 5t-37.5 9.5q-41 12 -64 29.5t-14 53.5q4 36 36 181.5t43 203.5q-81 -139 -171 -307.5t-98.5 -173.5t-34.5 1q-25 7 -51.5 14t-45.5 18q-23 11 -33 25.5t-4 40.5q15 69 28 161
t25 192t23.5 199.5t23.5 183.5q8 32 23 38t44 -5q32 -9 68.5 -24.5t63.5 -33.5q15 -9 23.5 -17t12 -16t2.5 -18t-4 -23q-16 -57 -33.5 -134t-68.5 -271q56 102 287 520q9 32 25.5 36.5t47.5 -4.5q29 -8 60 -22.5t59 -32.5q26 -19 31.5 -33t-2.5 -40zM556 1020
q-17 -13 -42 -28.5t-53 -31.5t-58 -30.5t-58 -25.5q-13 -6 -27.5 -2.5t-32.5 14.5q1 0 -3.5 3.5t-7 9.5t-1.5 14t11 15q48 25 99 55t90 64q11 9 25 8.5t36 -13.5q12 -6 16.5 -19t5.5 -33z" />
    <glyph glyph-name="uni043A" unicode="&#x43a;" horiz-adv-x="664" 
d="M332 303q20 -33 43.5 -67.5t46.5 -66.5t44 -59t37 -45q17 -17 13.5 -27.5t-25.5 -20.5q-13 -7 -30.5 -12t-34.5 -7q-26 -7 -53 -3t-54 33q-11 12 -30 33t-41.5 48t-47 57.5t-45.5 60.5q-13 -66 -23 -121t-18 -100q0 -15 -7 -20.5t-20 -5t-31.5 6t-40.5 11.5
q-45 12 -65 30t-18 55q1 35 6 91.5t13 124.5t18 142.5t21 146t22 135.5t21 111q8 28 24 34.5t45 -2.5q32 -8 68.5 -24t63.5 -34q15 -10 24 -17.5t13 -15.5t3 -17.5t-5 -22.5q-15 -51 -30 -116.5t-32 -143.5q42 46 91 98.5t95.5 103.5t87 97t66.5 78q17 22 32 22q17 0 38 -18
q22 -19 36.5 -42t27.5 -50q8 -22 5.5 -43t-21.5 -52q-23 -38 -61.5 -84.5t-84 -95t-94.5 -96.5t-93 -90z" />
    <glyph glyph-name="uni043B" unicode="&#x43b;" horiz-adv-x="718" 
d="M273 424q-157 -320 -172 -353.5t-29 -65.5q-8 -17 -19.5 -20t-34.5 5q-13 5 -28.5 11.5t-31.5 14.5q-12 8 -21 13.5t-14 13.5t-5.5 20.5t5.5 33.5q24 69 62.5 162t83 192t91 195.5t88.5 171.5q15 27 39 44t71 13q41 -2 73 -6.5t58.5 -10.5t49 -13t45.5 -13
q31 -11 39.5 -29t5.5 -47q-6 -71 -10 -163t-6 -192t-2.5 -200.5t0.5 -186.5q0 -18 -7.5 -25t-33.5 -7t-48 1.5t-45 9.5q-24 7 -33.5 18t-13.5 39q-4 29 -14 205t-11 257.5t1 161.5q-40 -73 -133 -250z" />
    <glyph glyph-name="uni043C" unicode="&#x43c;" horiz-adv-x="924" 
d="M187 489q-13 -68 -25 -136t-22 -131t-17.5 -118t-11.5 -98q-4 -18 -13 -23.5t-33 -0.5q-23 5 -46.5 12.5t-43.5 17.5q-25 12 -34 26t-7 40q0 39 3.5 95.5t10 122.5t14.5 137t17.5 140t19 130.5t18.5 108.5q9 34 25.5 42.5t51.5 3.5q54 -8 91.5 -18t75.5 -24
q24 -9 38 -19.5t22 -23t11.5 -27.5t7.5 -34q0 -9 1.5 -21.5t6 -44.5t13.5 -91t25 -162q16 36 37.5 79t44.5 88t47.5 90t47.5 85q23 46 40 75.5t35 45t40.5 17.5t57.5 -8q41 -11 86.5 -26t89.5 -35q29 -14 36.5 -32.5t-3.5 -51.5q-15 -47 -34 -108t-38.5 -128t-39 -136
t-37 -132t-31.5 -116t-22 -88q-7 -18 -16 -26t-35 -2q-23 5 -47 12t-42 17q-23 11 -30.5 26t-2.5 40q4 30 13 77.5t21 105t26.5 120.5t31.5 122q-30 -52 -63.5 -113t-65 -120t-58 -111.5t-42.5 -87.5q-5 -11 -8.5 -17.5t-8.5 -9.5t-13 -3.5t-21 2.5q-40 8 -70 18
q-11 4 -19 8.5t-14 12t-10.5 18.5t-9.5 28q-20 72 -38.5 166t-33.5 194z" />
    <glyph glyph-name="uni043D" unicode="&#x43d;" horiz-adv-x="678" 
d="M687 739q-24 -75 -52 -168t-55.5 -191t-53 -195t-45.5 -180q0 -14 -7.5 -18.5t-20.5 -4t-30.5 5t-37.5 9.5q-41 12 -64 29.5t-14 53.5q4 36 12 83t19 105q-42 -6 -82.5 -11.5t-82.5 -12.5q-16 -69 -26 -129.5t-18 -108.5q-4 -17 -12.5 -22t-34.5 1q-25 7 -51.5 14
t-45.5 18q-23 11 -33 25.5t-4 40.5q15 69 28 161t25 192t23.5 199.5t23.5 183.5q8 32 23 38t44 -5q32 -9 68.5 -24.5t63.5 -33.5q15 -9 23.5 -17t12 -16t2.5 -18t-4 -23q-16 -57 -33.5 -134l-37.5 -165q42 5 82.5 8t78.5 6q25 106 48.5 210.5t46.5 189.5q9 32 25.5 36.5
t47.5 -4.5q29 -8 60 -22.5t59 -32.5q26 -19 31.5 -33t-2.5 -40z" />
    <glyph glyph-name="uni043E" unicode="&#x43e;" 
d="M541 790q38 -31 55.5 -65.5t25.5 -78.5q11 -73 5 -158.5t-29.5 -170t-64 -159.5t-99.5 -127q-40 -31 -84 -41.5t-101 -4.5q-38 4 -78 12.5t-73 25.5q-27 14 -53 36t-41 50q-24 46 -36 104t-11 122t15 130.5t41 129.5t66.5 119.5t91.5 101.5q35 27 83.5 41t92.5 7
q57 -9 108.5 -28t85.5 -46zM380 690q-21 7 -47 -17.5t-52 -66.5t-48.5 -93.5t-36.5 -99.5q-14 -47 -20 -97.5t-4 -94t14 -74.5t35 -38q21 -7 44 9t46 49t43.5 81.5t35.5 105.5q13 47 21 103.5t8 105.5q0 50 -9.5 85.5t-29.5 41.5z" />
    <glyph glyph-name="uni043F" unicode="&#x43f;" horiz-adv-x="678" 
d="M687 739q-24 -75 -52 -168t-55.5 -191t-53 -195t-45.5 -180q0 -14 -7.5 -18.5t-20.5 -4t-30.5 5t-37.5 9.5q-41 12 -64 29.5t-14 53.5q4 36 59 315.5t66 337.5q-42 -6 -82.5 -11.5t-82.5 -12.5q-110 -534 -120 -594.5t-18 -108.5q-4 -17 -12.5 -22t-34.5 1
q-25 7 -51.5 14t-45.5 18q-23 11 -33 25.5t-4 40.5q15 69 28 161t25 192t23.5 199.5t23.5 183.5q8 32 23 38t44 -5q32 -9 424 15q29 -8 60 -22.5t59 -32.5q26 -19 31.5 -33t-2.5 -40z" />
    <glyph glyph-name="uni0440" unicode="&#x440;" horiz-adv-x="708" 
d="M185 215q-12 -57 -22.5 -110t-18.5 -104q-5 -16 -14 -21t-35 0q-26 7 -50.5 13.5t-43.5 17t-28.5 26.5t-3.5 42q9 24 16.5 81t13.5 129.5t12 150.5t12 144t13.5 110.5t17.5 49.5q38 20 84 41.5t95 39t98.5 29t95.5 12.5t85.5 -10.5t68.5 -39.5q34 -38 62.5 -81.5
t44.5 -106.5q7 -31 3.5 -58t-15 -51t-29 -46t-38.5 -43q-34 -34 -81.5 -66t-103.5 -60t-117.5 -50.5t-121.5 -38.5zM228 403q71 22 124 54.5t87 67t48 66.5t6 54q-3 12 -21.5 18.5t-47 5.5t-64 -9t-72.5 -24q-16 -54 -30.5 -112t-29.5 -121z" />
    <glyph glyph-name="uni0441" unicode="&#x441;" horiz-adv-x="642" 
d="M474 210q38 -10 39.5 -31t-15.5 -52q-18 -36 -46 -66t-56 -50q-14 -9 -33.5 -17t-41 -13t-45 -7t-45.5 0q-47 3 -85 14.5t-68 21.5q-27 11 -54 32t-42 49q-26 43 -36.5 101.5t-7.5 125t19.5 137t45.5 137.5t69.5 126.5t92.5 104.5q42 36 85 47t81 8q28 -3 58 -10.5
t58 -18t53 -23t45 -25.5q19 -16 31.5 -31.5t20 -31.5t10.5 -33.5t4 -37.5q1 -23 -0.5 -48t-4.5 -49.5t-8 -47t-11 -40.5q-3 -8 -6 -15t-8.5 -11t-15.5 -5t-27 2q-32 6 -55 16.5t-38 25t-24 33.5t-13 44q-3 21 -3 39q1 32 -3 58t-24 34q-20 6 -47 -23t-55 -75.5t-52.5 -102.5
t-38.5 -104q-13 -50 -19.5 -99.5t-4.5 -90t13 -68.5t32 -34q40 -13 122 71q59 60 154 33z" />
    <glyph glyph-name="uni0442" unicode="&#x442;" horiz-adv-x="664" 
d="M642 702q-39 -4 -85 -8.5t-95 -9.5l-43.5 -174t-43.5 -178.5t-39.5 -172.5t-32.5 -157q-2 -14 -9.5 -18.5t-20.5 -4t-30 5.5t-38 11t-38 13t-28.5 17t-16.5 23.5t-1 32.5q3 48 12 118t21.5 148t27.5 157.5t30 147.5q-29 -5 -56 -8.5t-45 -8.5q-25 -6 -41 -1.5t-36 25.5
q-21 21 -38.5 53t-28.5 54q-12 23 -6 30.5t25 12.5q59 12 133.5 22t152 18t152 13.5t133.5 7.5q31 0 44.5 -5.5t23.5 -18.5q20 -23 33 -50t20 -53q6 -23 0.5 -31.5t-36.5 -10.5z" />
    <glyph glyph-name="uni0443" unicode="&#x443;" horiz-adv-x="627" 
d="M47 420q-54 72 -60 104q-7 33 -6.5 69.5t4.5 74t12 75.5t18 75q4 16 18 20t47 -2q29 -4 57 -10.5t55 -16.5q57 -20 48 -55q-10 -28 -19 -62.5t-17 -70t-11 -68.5t0 -59.5t14 -43.5t33 -19q27 -3 48 16q17 16 30 40l8 40q15 81 27.5 159t21.5 141q6 30 22.5 36.5
t47.5 -1.5q7 -2 15 -5q28 -3 60 -11q33 -8 61 -16q14 -5 22.5 -8.5t12 -8t4 -9.5t-1.5 -13l-4 -26v-8q0 -9 -3 -22q-25 -147 -53 -268t-60.5 -213t-70.5 -154t-82 -90q-35 -21 -83.5 -30.5t-123.5 7.5q-39 9 -67.5 23t-49.5 32t-35 39t-24 44q-16 33 -19 68.5t3 81.5
q6 35 21.5 51.5t50.5 0.5q117 -47 120 -125q4 -50 10 -72.5t30 -25.5q21 -1 41 35t39 95q18 56 34 127q-4 1 -7 1q-88 0 -147 16q-26 7 -49 16.5t-42 25.5z" />
    <glyph glyph-name="uni0444" unicode="&#x444;" horiz-adv-x="1128" 
d="M533 861q37 2 78.5 -0.5t75.5 -10.5q36 -7 48.5 -20.5t10.5 -44.5l-4 -28q4 -13 -1 -37q-2 -9 -6 -18q-1 -9 -3 -18q35 7 70 10q36 4 68.5 1t61 -14t50.5 -31q34 -36 62 -77.5t43 -101.5q7 -29 3.5 -54.5t-14.5 -48.5t-28.5 -44t-37.5 -41q-33 -32 -79.5 -62.5t-101 -57
t-113.5 -48.5q-53 -20 -105 -34q-9 -31 -16 -52q-4 -14 -9 -23q-5 -17 -13 -22q-7 -4 -29 0q-4 -1 -9 -1q-26 1 -52.5 6.5t-54.5 11.5q-28 8 -34 16t-7 26q3 18 6.5 37.5t5.5 39.5q-170 75 -217 128.5t-83 105t-58 98.5q-12 29 -23 56.5t-14 55.5t3 54t20 51q36 52 78 77
t91 44q29 7 61 4t106.5 -4t110.5 -26q1 9 0.5 21t0.5 21q2 28 13 38.5t45 16.5zM420 311q6 65 9.5 124.5t6.5 117.5q-30 31 -96.5 36t-86.5 9.5t-29 -4.5q-13 -18 -10 -54t25 -83.5t181 -145.5zM698 480q-9 -47 -19 -97q-13 -64 -25 -122q59 21 106 49q52 31 85 63.5
t46.5 63t6.5 51.5q-3 12 -21 17.5t-46 5t-63 -8.5z" />
    <glyph glyph-name="uni0445" unicode="&#x445;" horiz-adv-x="708" 
d="M303 593q61 80 113.5 147t94.5 114q20 23 41 23q11 0 22 -4t22 -11q23 -18 45 -43.5t36 -47.5q17 -27 12 -50t-23 -44q-54 -63 -123.5 -143.5t-144.5 -168.5q42 -100 78.5 -186.5t65.5 -153.5q23 -35 -21 -41q-50 -5 -104 0q-27 3 -42 13.5t-32 34.5q-12 17 -35.5 63.5
t-55.5 114.5q-54 -65 -97.5 -122.5t-78.5 -99.5q-24 -30 -63 -5q-14 8 -30 20t-30.5 25.5t-24.5 26.5t-11 22q0 7 2.5 16t10.5 21q35 56 93.5 137.5t129.5 171.5q-24 51 -48 102.5t-45.5 99.5t-40 90t-31.5 74q-12 32 -6 43.5t35 15.5q8 1 15 1h15h29q15 0 31 -0.5t33 -1.5
q35 -5 54 -22.5t33 -46.5q16 -41 35.5 -87.5t40.5 -97.5z" />
    <glyph glyph-name="uni0446" unicode="&#x446;" horiz-adv-x="710" 
d="M577 -130q-35 -43 -54 -49q-30 -9 -76 -9q-47 -1 -38 40q6 30 14.5 75t7.5 60q3 19 5 37q-25 7 -48 13q-5 2 -10 3q-61 -12 -125 -24q-66 -12 -126 -24q-22 -6 -37 -7t-26 1.5t-18.5 6.5t-14.5 9q-17 11 -31 22.5t-37 29.5q-17 14 -26 31.5t-5 42.5q3 39 10 92.5
t17 115.5t22 128.5t26 132.5t28.5 127t28.5 112q10 29 25.5 34.5t46.5 -3.5q31 -8 67 -22.5t63 -32.5q26 -19 32.5 -33t-2.5 -40q-20 -60 -40.5 -132t-41 -148t-39 -151.5t-34.5 -144.5q46 8 86 12t86 7q2 12 3 25q7 54 16.5 118t21.5 135t24.5 139t26 129t24.5 106
q9 28 24.5 34.5t46.5 -2.5q31 -7 67.5 -23t63.5 -33q28 -19 33.5 -32.5t-1.5 -39.5q-14 -44 -30.5 -100t-33 -119t-33 -128.5t-31.5 -128.5q-8 -33 -16 -64q48 -19 83 -46q12 -10 18.5 -19.5t9.5 -19t3 -20.5t-1 -25q-4 -28 -11.5 -61t-12 -47.5t-14 -43t-17.5 -46.5z" />
    <glyph glyph-name="uni0447" unicode="&#x447;" horiz-adv-x="655" 
d="M602 794q39 -47 32 -74q-14 -45 -30.5 -103t-33 -122.5t-32.5 -132t-31 -132t-27.5 -122t-21.5 -102.5q-5 -17 -13.5 -22t-34.5 1q-26 7 -49.5 14t-44.5 18q-23 11 -30.5 25.5t-4.5 40.5q2 35 8.5 90.5t16.5 121.5l6 42q-27 -3 -55 -7q-55 -8 -104 -16q-19 -4 -31 -4.5
t-21.5 1t-15.5 4t-12 6.5q-14 7 -25.5 14.5t-30.5 19.5q-14 9 -21.5 20.5t-4.5 27.5q3 25 8.5 60t14 75.5t18.5 84t21.5 86.5t23.5 83t24 73q8 19 20.5 22.5t38.5 -2.5q26 -5 55.5 -14.5t52.5 -21.5q21 -12 26.5 -21t-1.5 -26q-17 -40 -34 -86.5t-34 -96.5t-32 -99t-29 -94
q38 5 71.5 7.5t71.5 4.5h21q12 71 23 139q13 70 26 132.5t24 109.5q9 29 24.5 35.5t46.5 -2.5q31 -8 67 -24t63 -34z" />
    <glyph glyph-name="uni0448" unicode="&#x448;" horiz-adv-x="1040" 
d="M1005 813q37 -42 30 -66q-14 -40 -29.5 -91.5t-31 -109t-30.5 -117.5t-30 -117.5t-26.5 -108.5t-20.5 -92q-5 -14 -13 -19q-4 -2 -10 -3q-9 -2 -22 -2q-88 -4 -179 -11q-85 -7 -260 -35q-63 -12 -129.5 -24.5t-126.5 -24.5q-22 -6 -37 -7t-26 1.5t-18.5 6.5t-14.5 9
q-17 11 -31 22.5t-37 29.5q-17 14 -26 31.5t-5 42.5q3 39 10 92.5t17 115.5t22 128.5t26 132.5t28.5 127t28.5 112q10 29 25.5 34.5t46.5 -3.5q31 -8 67 -22.5t63 -32.5q26 -19 32.5 -33t-2.5 -40q-20 -60 -40.5 -132t-41 -148t-39 -151.5t-34.5 -144.5q46 8 86 12t87 7
q3 19 6 43q7 53 16 115t21.5 130.5t25 134.5t26 125.5t23.5 102.5q9 27 24.5 33.5t47.5 -2.5q31 -7 67.5 -22.5t64.5 -31.5q28 -18 33.5 -31.5t-1.5 -38.5q-15 -43 -31.5 -97t-33 -115t-32.5 -124.5t-32 -124.5q-9 -37 -18 -71q52 4 106 6q38 2 74 3q2 19 5 43
q7 50 15.5 109t20.5 123.5t23.5 127t24.5 119t22 96.5q9 26 23.5 32t44.5 -3q30 -6 64.5 -20.5t60.5 -30.5z" />
    <glyph glyph-name="uni0449" unicode="&#x449;" horiz-adv-x="1040" 
d="M1035 747q-14 -40 -29.5 -91.5t-31 -109t-30.5 -117.5t-30 -118q-9 -35 -17 -67q44 -19 78 -44q12 -10 18.5 -19.5t9.5 -19t3 -20.5t-1 -25q-4 -28 -11.5 -61t-12 -47.5t-14 -43t-17.5 -46.5q-35 -43 -54 -49q-30 -9 -76 -9q-47 -1 -38 40q6 30 14.5 75t7.5 60q3 19 5 37
q-23 6 -44 12q-60 -3 -122 -8q-85 -7 -260 -35q-63 -12 -129.5 -24.5t-126.5 -24.5q-22 -6 -37 -7t-26 1.5t-18.5 6.5t-14.5 9q-17 11 -31 22.5t-37 29.5q-17 14 -26 31.5t-5 42.5q3 39 10 92.5t17 115.5t22 128.5t26 132.5t28.5 127t28.5 112q10 29 25.5 34.5t46.5 -3.5
q31 -8 67 -22.5t63 -32.5q26 -19 32.5 -33t-2.5 -40q-20 -60 -40.5 -132t-41 -148t-39 -151.5t-34.5 -144.5q46 8 86 12t87 7q3 19 6 43q7 53 16 115t21.5 130.5t25 134.5t26 125.5t23.5 102.5q9 27 24.5 33.5t47.5 -2.5q31 -7 67.5 -22.5t64.5 -31.5q28 -18 33.5 -31.5
t-1.5 -38.5q-15 -43 -31.5 -97t-33 -115t-32.5 -124.5t-32 -124.5q-9 -37 -18 -71q52 4 106 6q38 2 74 3q2 19 5 43q7 50 15.5 109t20.5 123.5t23.5 127t24.5 119t22 96.5q9 26 23.5 32t44.5 -3q30 -6 64.5 -20.5t60.5 -30.5z" />
    <glyph glyph-name="uni044A" unicode="&#x44a;" horiz-adv-x="963" 
d="M37 814q33 7 78.5 14t97.5 12t105.5 8.5t103.5 3.5q17 0 30 -6q12 3 25 6q4 1 7 1q119 -15 67 -180.5t-66 -218.5q328 -8 340 -85.5t20 -115.5q5 -45 -12 -76.5t-55 -61.5q-26 -23 -61.5 -44t-75 -38t-79.5 -30.5t-76 -22.5q-19 -5 -32.5 -7t-26 -1t-24.5 5t-28 13
q-30 13 -52.5 27.5t-52.5 37.5q-11 12 -19.5 20.5t-13.5 18t-7 21.5t0 31q3 62 11 140.5t17.5 163t16.5 169.5q2 17 3 34q-57 -9 -109 -22q-21 -6 -39 1t-39 30q-22 23 -37.5 44.5t-29.5 44.5q-36 54 13 63zM447 288q-25 -119 -32 -159q52 13 95 31.5t73 39t44.5 41
t10.5 37.5q-5 10 -20 18t-40 11t-58 -1.5t-73 -17.5z" />
    <glyph glyph-name="uni044B" unicode="&#x44b;" horiz-adv-x="953" 
d="M216 454q328 -8 340 -85.5t20 -115.5q5 -45 -12 -76.5t-55 -61.5q-26 -23 -61.5 -44t-75 -38t-79.5 -30.5t-76 -22.5q-19 -5 -32.5 -7t-26 -1t-24.5 5t-28 13q-30 13 -52.5 27.5t-52.5 37.5q-11 12 -19.5 20.5t-13.5 18t-7 21.5t0 31q3 62 11 140.5t17.5 163t17 170
t9.5 162.5q38 21 88 39t104 31q4 1 7 1q119 -15 67 -180.5t-66 -218.5zM178 288q-8 -42 -16.5 -80.5t-15.5 -78.5q52 13 95 31.5t73 39t44.5 41t10.5 37.5q-5 10 -20 18t-40 11t-58 -1.5t-73 -17.5zM943 794q28 -19 33.5 -33t-1.5 -41q-14 -45 -30.5 -103t-33 -122.5
t-32.5 -132t-31 -132t-27.5 -122t-21.5 -102.5q-5 -17 -13.5 -22t-34.5 1q-26 7 -49.5 14t-44.5 18q-23 11 -30.5 25.5t-4.5 40.5q2 35 8.5 90.5t16 121.5t21.5 139t24.5 143t25.5 132.5t24 109.5q9 29 24.5 35.5t46.5 -2.5q31 -8 67 -24t63 -34z" />
    <glyph glyph-name="uni044C" unicode="&#x44c;" horiz-adv-x="687" 
d="M268 464q328 -8 340 -85.5t20 -115.5q5 -45 -12 -76.5t-55 -61.5q-26 -23 -61.5 -44t-75 -38t-79.5 -30.5t-76 -22.5q-19 -5 -32.5 -7t-26 -1t-24.5 5t-28 13q-30 13 -52.5 27.5t-52.5 37.5q-11 12 -19.5 20.5t-13.5 18t-7 21.5t0 31q3 62 11 140.5t17.5 163t17 170
t9.5 162.5q38 21 88 39t104 31q4 1 7 1q119 -15 67 -180.5t-66 -218.5zM230 298q-8 -42 -16.5 -80.5t-15.5 -78.5q52 13 95 31.5t73 39t44.5 41t10.5 37.5q-5 10 -20 18t-40 11t-58 -1.5t-73 -17.5z" />
    <glyph glyph-name="uni044D" unicode="&#x44d;" horiz-adv-x="682" 
d="M192 208q40 -106 83 -106q22 -1 44.5 22t42 60.5t34.5 85.5q13 40 22 83q-53 -8 -100 -20q-17 -5 -31 1t-31 24q-17 19 -29 37t-23 37q-29 44 10 52q26 5 62 11t76 10q39 4 79 7q-1 43 -5 82q-6 53 -19 89t-34 37q-23 -1 -38 -24t-28 -54q-8 -17 -20 -36q-14 -22 -31 -37
t-37 -24t-46.5 -11.5t-59.5 1.5q-17 3 -26 7t-12.5 10t-3 13.5t1.5 15.5q2 19 7 41.5t12.5 47t17 48.5t20.5 45q10 18 20 33.5t24.5 28.5t33 23.5t42.5 19.5q25 7 53.5 10.5t59.5 4.5t63 -2t59 -8q38 -10 74 -34t59 -71q29 -59 41.5 -128t10.5 -141.5t-17 -144.5t-41 -135.5
t-61.5 -115.5t-78.5 -83q-27 -21 -61 -32.5t-66 -13.5q-32 0 -72.5 1.5t-85.5 13.5q-22 5 -43 14.5t-39.5 20.5t-33 25t-24.5 27q-18 27 -31 64.5t-14 77.5q-3 34 7.5 53.5t50.5 16.5z" />
    <glyph glyph-name="uni044E" unicode="&#x44e;" horiz-adv-x="1034" 
d="M930 790q38 -31 55.5 -65.5t25.5 -78.5q11 -73 5 -158.5t-29.5 -170t-64 -159.5t-99.5 -127q-40 -31 -84 -41.5t-101 -4.5q-38 4 -78 12.5t-73 25.5q-27 14 -53 36t-41 50q-24 46 -36 104q-2 10 -4 21q-20 8 -15 34q-42 -6 -82.5 -11.5t-82.5 -12.5q-16 -69 -26 -129.5
t-18 -108.5q-4 -17 -12.5 -22t-34.5 1q-25 7 -51.5 14t-45.5 18q-23 11 -33 25.5t-4 40.5q15 69 28 161t25 192t23.5 199.5t23.5 183.5q8 32 23 38t44 -5q32 -9 68.5 -24.5t63.5 -33.5q15 -9 23.5 -17t12 -16t2.5 -18t-4 -23q-16 -57 -34 -134l-37 -165q42 5 82 8q32 2 63 4
q2 16 6 32q14 67 41 130t66.5 119.5t91.5 101.5q35 27 83.5 41t92.5 7q57 -9 108.5 -28t85.5 -46zM769 690q-73 -42 -99 -84t-48.5 -93.5t-36.5 -99.5l-3 -10q1 -10 -2.5 -23t-8.5 -24q-4 -20 -6 -41q-6 -50 -4 -93.5t14 -74.5t35 -38q21 -7 44 9t46 49t43.5 81.5
t35.5 105.5q13 47 21 103.5t8 105.5q0 50 -9.5 85.5t-29.5 41.5z" />
    <glyph glyph-name="uni044F" unicode="&#x44f;" horiz-adv-x="791" 
d="M756 794q28 -19 33.5 -33t-1.5 -41q-14 -45 -31 -103q-7 -25 -14 -51q0 -2 -1 -4q-11 -54 -25 -112.5t-30 -116.5q-8 -31 -16 -60l-10 -43q-15 -64 -27.5 -121.5t-21.5 -102.5q-5 -17 -13.5 -22t-34.5 1q-26 7 -49.5 14t-44.5 18q-23 11 -30.5 25.5t-4.5 40.5q2 35 8 90
q3 25 6 51q-33 -26 -70 -52q-43 -30 -158.5 -110.5t-143 -82t-47.5 4.5l-56 47q-11 11 -9.5 21.5t28.5 26.5q32 19 70.5 45.5t78.5 54.5t78 56t71 53q-93 54 -151.5 114.5t-67.5 130.5q-7 43 31 110q40 63 84 105.5t94 79.5q60 41 122 49t123 -6q28 -6 55 -16q16 5 45 -3
q31 -8 67 -24t63 -34zM507 643q-97 36 -126 37q-59 2 -81 -26q-13 -17 -8.5 -48t27.5 -67t64 -71q38 -33 94 -58l4 24q6 41 13 81q2 9 3 18q7 59 10 110z" />
    <glyph glyph-name="uni0450" unicode="&#x450;" horiz-adv-x="577" 
d="M41 798q43 11 95.5 23t110 22t118 17.5t120.5 9.5q57 1 73 -44q13 -24 18 -43.5t10 -42.5q4 -26 -4 -35t-37 -13q-60 -7 -124 -14t-135 -17q-15 -45 -28 -93.5t-29 -101.5q30 4 60 6t64 3q28 1 44 -5t27 -26q12 -20 18.5 -39.5t11.5 -39.5q8 -23 1.5 -31t-34.5 -14
q-60 -11 -122.5 -21t-120.5 -22q-8 -32 -15 -60.5t-15 -56.5q47 8 89.5 13t92.5 8q28 2 43.5 -4t26.5 -24q12 -20 18.5 -37.5t14.5 -35.5q5 -20 0 -27.5t-32 -12.5q-64 -12 -130 -25t-126 -24q-40 -10 -60.5 -4.5t-35.5 15.5q-17 11 -32.5 22.5t-36.5 29.5q-17 14 -26.5 33
t-7.5 46l95 665v0zM-53 1152q4 30 11.5 49.5t28.5 29.5q36 20 59.5 20.5t42.5 -13.5q33 -26 71.5 -50.5t80 -47t83.5 -43.5t82 -40q18 -11 20 -22.5t-3 -21t-12 -15t-7 -4.5q-30 -17 -54.5 -22.5t-45.5 3.5q-48 17 -99 39t-98 46t-88.5 48t-71.5 44z" />
    <glyph glyph-name="uni0451" unicode="&#x451;" horiz-adv-x="577" 
d="M41 798q43 11 95.5 23t110 22t118 17.5t120.5 9.5q57 1 73 -44q13 -24 18 -43.5t10 -42.5q4 -26 -4 -35t-37 -13q-60 -7 -124 -14t-135 -17q-15 -45 -28 -93.5t-29 -101.5q30 4 60 6t64 3q28 1 44 -5t27 -26q12 -20 18.5 -39.5t11.5 -39.5q8 -23 1.5 -31t-34.5 -14
q-60 -11 -122.5 -21t-120.5 -22q-8 -32 -15 -60.5t-15 -56.5q47 8 89.5 13t92.5 8q28 2 43.5 -4t26.5 -24q12 -20 18.5 -37.5t14.5 -35.5q5 -20 0 -27.5t-32 -12.5q-64 -12 -130 -25t-126 -24q-40 -10 -60.5 -4.5t-35.5 15.5q-17 11 -32.5 22.5t-36.5 29.5q-17 14 -26.5 33
t-7.5 46zM382 1057q1 21 11 40t26.5 31.5t39 17t49.5 -3.5q35 -13 50.5 -37t14.5 -48q-1 -9 -2.5 -15.5t-2.5 -14.5q-3 -9 -11 -21.5t-19.5 -23.5t-27.5 -18.5t-36 -7.5q-20 -1 -38 6t-30.5 20t-19 32t-4.5 43zM71 1057q1 22 10.5 41.5t25 32t37.5 17t48 -4.5
q37 -13 54 -36.5t17 -49.5q0 -8 -2 -15l-4 -14q-2 -9 -8.5 -21t-18 -23t-27 -18.5t-35.5 -7.5q-20 -1 -38 5.5t-31.5 20t-21 32t-6.5 41.5z" />
    <glyph glyph-name="uni0452" unicode="&#x452;" horiz-adv-x="400" 
 />
    <glyph glyph-name="uni0453" unicode="&#x453;" horiz-adv-x="570" 
d="M543 692q-60 -8 -124.5 -15t-135.5 -17q-14 -41 -24.5 -90t-50.5 -208t-54.5 -228.5t-26.5 -123.5q-1 -18 -17 -21.5t-39 0t-48.5 12.5t-44.5 17q-25 12 -30 26t-5 40q1 28 8.5 79.5t17.5 116t21 137.5t19.5 144.5t12.5 136.5t1 114q43 12 96.5 21.5t112.5 17t120.5 12.5
t121.5 7q15 0 25.5 -1.5t19 -6t16.5 -13t17 -22.5q27 -45 31 -88q4 -26 -3 -34.5t-37 -12.5zM582 1152q-29 -20 -70.5 -44t-89 -48t-98 -46t-98.5 -39q-21 -9 -45 -3.5t-56 22.5q1 -1 -6 4.5t-11.5 15t-3 21t18.5 22.5q40 19 82.5 40t84 43.5t80 47t71.5 50.5
q18 14 41.5 13.5t60.5 -20.5q20 -10 28 -29.5t11 -49.5z" />
    <glyph glyph-name="uni0454" unicode="&#x454;" horiz-adv-x="642" 
d="M259 299q-54 -9 -104 -19q-4 -38 -2 -71q2 -41 13 -69t32 -34q40 -13 122 71q59 60 154 33q38 -10 39.5 -31t-15.5 -52q-18 -36 -46 -66t-56 -50q-14 -9 -33.5 -17t-41 -13t-45 -7t-45.5 0q-47 3 -85 14.5t-68 21.5q-27 11 -54 32t-42 49q-26 43 -36.5 101.5t-7.5 125
t19.5 137t45.5 137.5t69.5 126.5t92.5 104.5q42 36 85 47t81 8q28 -3 58 -10.5t58 -18t53 -23t45 -25.5q19 -16 31.5 -31.5t20 -31.5t10.5 -33.5t4 -37.5q1 -23 -0.5 -38t-4.5 -29.5t-8 -37t-11 -40.5q-3 -8 -6 -15t-8.5 -11t-15.5 -5t-27 2q-32 6 -55 16.5t-38 25t-24 23.5
t-13 34q-3 21 -3 39q1 12 -3 38t-24 34q-20 6 -47 -23t-55 -75.5t-52 -102.5q-8 -18 -15 -34l48 4q30 2 64 3q28 1 44 -5t27 -26q12 -20 18.5 -39.5t11.5 -39.5q8 -23 1.5 -31t-34.5 -14q-60 -11 -122 -21z" />
    </font>
</defs>
</svg>
