<svg xmlns="http://www.w3.org/2000/svg" width="12" height="13" viewBox="0 0 12 13">
  <metadata><?xpacket begin="﻿" id="W5M0MpCehiHzreSzNTczkc9d"?>
<x:xmpmeta xmlns:x="adobe:ns:meta/" x:xmptk="Adobe XMP Core 5.6-c138 79.159824, 2016/09/14-01:09:01        ">
   <rdf:RDF xmlns:rdf="http://www.w3.org/1999/02/22-rdf-syntax-ns#">
      <rdf:Description rdf:about=""/>
   </rdf:RDF>
</x:xmpmeta>
                                                                                                    
                                                                                                    
                                                                                                    
                                                                                                    
                                                                                                    
                                                                                                    
                                                                                                    
                                                                                                    
                                                                                                    
                                                                                                    
                                                                                                    
                                                                                                    
                                                                                                    
                                                                                                    
                                                                                                    
                                                                                                    
                                                                                                    
                                                                                                    
                                                                                                    
                                                                                                    
                           
<?xpacket end="w"?></metadata>
<defs>
    <style>
      .cls-1 {
        fill: #fff;
        fill-rule: evenodd;
      }
    </style>
  </defs>
  <path id="Фигура_1" data-name="Фигура 1" class="cls-1" d="M1352.1,72a0.983,0.983,0,0,0-.2.02,1.074,1.074,0,0,0-.34.136,4.258,4.258,0,0,0-1.46,1.463c-0.22.445-.33,4.5,2.72,7.932A9.777,9.777,0,0,0,1359.73,85a1.929,1.929,0,0,0,.35-0.025l0.02,0,0.05-.015a4.123,4.123,0,0,0,1.62-1.281,1.382,1.382,0,0,0-.04-1.545l-0.07-.145c-0.2-.475-2.68-1.2-2.88-1.216l-0.17.012a4.261,4.261,0,0,0-1.49,1.084,10.378,10.378,0,0,1-2.66-2.136A9.178,9.178,0,0,1,1352.8,77c0.89-.79,1.27-1.133,1.29-1.515,0.01-.206-0.41-2.754-0.86-3.012l-0.14-.085A1.868,1.868,0,0,0,1352.1,72Z" transform="translate(-1350 -72)"/>
</svg>
