<svg xmlns="http://www.w3.org/2000/svg" width="1000" height="570" viewBox="0 0 100 57">
  <metadata><?xpacket begin="﻿" id="W5M0MpCehiHzreSzNTczkc9d"?>
<x:xmpmeta xmlns:x="adobe:ns:meta/" x:xmptk="Adobe XMP Core 5.6-c142 79.160924, 2017/07/13-01:06:39        ">
   <rdf:RDF xmlns:rdf="http://www.w3.org/1999/02/22-rdf-syntax-ns#">
      <rdf:Description rdf:about=""/>
   </rdf:RDF>
</x:xmpmeta>
                                                                                                    
                                                                                                    
                                                                                                    
                                                                                                    
                                                                                                    
                                                                                                    
                                                                                                    
                                                                                                    
                                                                                                    
                                                                                                    
                                                                                                    
                                                                                                    
                                                                                                    
                                                                                                    
                                                                                                    
                                                                                                    
                                                                                                    
                                                                                                    
                                                                                                    
                                                                                                    
                           
<?xpacket end="w"?></metadata>
<defs>
    <style>
      .cls-1 {
        fill-rule: evenodd;
      }
    </style>
  </defs>
  <path id="fa-vk" class="cls-1" d="M1497.54,2950.58a3.037,3.037,0,0,0-1.61-.86,8.252,8.252,0,0,0-3.33-.13l-15,.11a4.033,4.033,0,0,0-1.04.02,3.22,3.22,0,0,0-.67.16c-0.11.05-.19,0.1-0.26,0.13l-0.21.16a2,2,0,0,0-.57.54,3.686,3.686,0,0,0-.53.91,83.9,83.9,0,0,1-5.57,11.71c-1.28,2.15-2.46,4.02-3.53,5.59a26.7,26.7,0,0,1-2.71,3.49,18.562,18.562,0,0,1-1.98,1.8,1.9,1.9,0,0,1-1.35.57c-0.32-.07-0.61-0.14-0.89-0.21a3.5,3.5,0,0,1-1.17-1.27,6.01,6.01,0,0,1-.6-2.03c-0.1-.82-0.16-1.52-0.18-2.11s-0.01-1.42.03-2.5,0.05-1.8.05-2.18c0-1.32.02-2.75,0.08-4.3s0.09-2.76.13-3.67,0.05-1.85.05-2.86a12.069,12.069,0,0,0-.18-2.36,8.83,8.83,0,0,0-.55-1.67,2.79,2.79,0,0,0-1.07-1.25,6.073,6.073,0,0,0-1.74-.7,34.692,34.692,0,0,0-7.03-.68q-9.675-.1-12.44,1.25a6.964,6.964,0,0,0-1.98,1.56c-0.62.77-.71,1.18-0.26,1.25a6.4,6.4,0,0,1,4.43,2.24l0.31,0.62a10.408,10.408,0,0,1,.73,2.4,24.554,24.554,0,0,1,.46,3.8,38.911,38.911,0,0,1,0,6.5c-0.17,1.8-.33,3.21-0.49,4.21a8.574,8.574,0,0,1-.7,2.45,8.305,8.305,0,0,1-.63,1.14,0.776,0.776,0,0,1-.26.26,3.739,3.739,0,0,1-1.4.26,3.3,3.3,0,0,1-1.77-.72,12.266,12.266,0,0,1-2.16-2.01,26.3,26.3,0,0,1-2.53-3.56c-0.93-1.53-1.91-3.33-2.91-5.41l-0.84-1.51c-0.52-.97-1.23-2.39-2.13-4.24s-1.7-3.65-2.39-5.39a3.451,3.451,0,0,0-1.25-1.66l-0.26-.16a3.513,3.513,0,0,0-.84-0.44,5.4,5.4,0,0,0-1.19-.34l-14.27.1a3.639,3.639,0,0,0-2.97.99l-0.2.32a1.6,1.6,0,0,0-.16.83,4.055,4.055,0,0,0,.31,1.4q3.12,7.335,6.8,14.16,3.66,6.81,6.37,10.97t5.52,7.86c1.87,2.46,3.12,4.04,3.72,4.74s1.09,1.21,1.43,1.56l1.31,1.25a30.249,30.249,0,0,0,3.67,2.99,60.687,60.687,0,0,0,5.36,3.43,28.893,28.893,0,0,0,6.84,2.76,23.7,23.7,0,0,0,7.6.86h5.99a4.19,4.19,0,0,0,2.76-1.15l0.21-.26a3.23,3.23,0,0,0,.39-0.96,5.331,5.331,0,0,0,.18-1.43,16.837,16.837,0,0,1,.34-4.03,10.706,10.706,0,0,1,.88-2.71,6.8,6.8,0,0,1,1.12-1.53,4.511,4.511,0,0,1,.89-0.76c0.17-.08.31-0.14,0.41-0.18a3.275,3.275,0,0,1,2.94.81,17.227,17.227,0,0,1,3.18,3.01q1.485,1.8,3.57,4.04a24.225,24.225,0,0,0,3.64,3.33l1.04,0.62a12.58,12.58,0,0,0,2.71,1.15,5.941,5.941,0,0,0,2.91.26l13.33-.21a6.069,6.069,0,0,0,3.07-.65,2.59,2.59,0,0,0,1.3-1.43,4.018,4.018,0,0,0,.03-1.77,5.788,5.788,0,0,0-.37-1.38c-0.12-.26-0.23-0.48-0.33-0.65q-2.61-4.68-9.95-11.5l-0.1-.1-0.05-.06-0.06-.05h-0.05a58.1,58.1,0,0,1-4.21-4.27,3.987,3.987,0,0,1-.73-4.21c0.41-1.07,1.98-3.35,4.68-6.82,1.42-1.83,2.55-3.31,3.39-4.42q9-11.97,7.8-15.3Z" transform="translate(-1398 -2947)"/>
</svg>
