<svg xmlns="http://www.w3.org/2000/svg" width="254.75" height="40" viewBox="0 0 254.75 40">
  <metadata><?xpacket begin="﻿" id="W5M0MpCehiHzreSzNTczkc9d"?>
<x:xmpmeta xmlns:x="adobe:ns:meta/" x:xmptk="Adobe XMP Core 5.6-c142 79.160924, 2017/07/13-01:06:39        ">
   <rdf:RDF xmlns:rdf="http://www.w3.org/1999/02/22-rdf-syntax-ns#">
      <rdf:Description rdf:about=""/>
   </rdf:RDF>
</x:xmpmeta>
                                                                                                    
                                                                                                    
                                                                                                    
                                                                                                    
                                                                                                    
                                                                                                    
                                                                                                    
                                                                                                    
                                                                                                    
                                                                                                    
                                                                                                    
                                                                                                    
                                                                                                    
                                                                                                    
                                                                                                    
                                                                                                    
                                                                                                    
                                                                                                    
                                                                                                    
                                                                                                    
                           
<?xpacket end="w"?></metadata>
<defs>
    <style>
      .cls-1 {
        fill: #22201e;
        fill-rule: evenodd;
      }
    </style>
  </defs>
  <path id="ремонтно-строительная_компания" data-name="ремонтно-строительная компания" class="cls-1" d="M390.452,15H354.1a16.888,16.888,0,0,0-12.084,5.053,17.3,17.3,0,0,0,0,24.363A16.886,16.886,0,0,0,354.1,49.469h14.97V55l31.73-30.34a4.4,4.4,0,0,0,.691-5.124C400.053,16.214,393.73,15,390.452,15h0Zm-21.383,6.463V43.006H354.1a10.773,10.773,0,0,1,0-21.545h14.97Zm6.413,18.5v-18.5h14.97a10.58,10.58,0,0,1,3.71.667Q384.831,31.043,375.482,39.963ZM421.473,25.7a6.859,6.859,0,0,1,2.375.541,5.084,5.084,0,0,1,1.637,1.139,4.413,4.413,0,0,1,.957,1.6,5.972,5.972,0,0,1,.311,1.944,5.769,5.769,0,0,1-.323,1.944,4.535,4.535,0,0,1-.968,1.6,4.9,4.9,0,0,1-1.649,1.127,7.043,7.043,0,0,1-2.34.529V25.7ZM419.3,36.1a6.971,6.971,0,0,1-2.326-.564,5.116,5.116,0,0,1-1.617-1.127,4.229,4.229,0,0,1-.942-1.576,5.926,5.926,0,0,1-.3-1.909,5.377,5.377,0,0,1,.338-1.909,4.594,4.594,0,0,1,1-1.587,5.357,5.357,0,0,1,1.629-1.139,6.692,6.692,0,0,1,2.221-.564V36.1Zm2.177,1.769a9.972,9.972,0,0,0,2.957-.691,7.738,7.738,0,0,0,2.313-1.44,6.149,6.149,0,0,0,1.5-2.108,6.781,6.781,0,0,0,.529-2.719,7.4,7.4,0,0,0-.484-2.73,5.918,5.918,0,0,0-1.415-2.131,6.822,6.822,0,0,0-2.29-1.428,10.9,10.9,0,0,0-3.106-.668V23.436a0.313,0.313,0,0,0-.094-0.28A0.558,0.558,0,0,0,421.1,23.1H419.67a0.556,0.556,0,0,0-.28.056,0.31,0.31,0,0,0-.094.28v0.515a9.819,9.819,0,0,0-2.93.691,7.418,7.418,0,0,0-2.281,1.451,6.275,6.275,0,0,0-1.47,2.119,6.788,6.788,0,0,0-.521,2.7,6.462,6.462,0,0,0,1.864,4.827,8.378,8.378,0,0,0,5.338,2.131v0.991a0.323,0.323,0,0,0,.094.288,0.542,0.542,0,0,0,.28.057H421.1a0.544,0.544,0,0,0,.281-0.057,0.326,0.326,0,0,0,.094-0.288V37.865ZM442.531,39.2a0.28,0.28,0,0,0,.29-0.138,0.373,0.373,0,0,0-.012-0.3L437.6,23.974a1.876,1.876,0,0,0-.405-0.713,1.263,1.263,0,0,0-.845-0.207h-0.695a1.409,1.409,0,0,0-.764.2,1.493,1.493,0,0,0-.417.725l-5.234,14.791a0.467,0.467,0,0,0,.011.31,0.286,0.286,0,0,0,.29.127h1.575a0.468,0.468,0,0,0,.486-0.345l1.158-3.382h6.531l1.158,3.382a0.456,0.456,0,0,0,.22.3A1,1,0,0,0,441,39.2h1.528Zm-3.844-5.59h-5.373l1.575-4.923,1.042-3.266h0.116l1.088,3.381Zm15.586,1.633a2.539,2.539,0,0,1-.51.978,2.829,2.829,0,0,1-1.019.748,3.933,3.933,0,0,1-1.644.3h-4.308V31.335H451.1a3.445,3.445,0,0,1,2.466.805,2.787,2.787,0,0,1,.845,2.116A3.929,3.929,0,0,1,454.273,35.245Zm-7.481-10.259h4.447a2.566,2.566,0,0,1,1.8.6,2.026,2.026,0,0,1,.66,1.572,2.454,2.454,0,0,1-.267,1.214,2.079,2.079,0,0,1-.671.74,2.628,2.628,0,0,1-.869.37,3.849,3.849,0,0,1-.834.1h-4.261v-4.6Zm7.11,5.222a3.4,3.4,0,0,0,1.436-1.3,3.543,3.543,0,0,0,.532-1.9A4.047,4.047,0,0,0,455.5,25.2a3.391,3.391,0,0,0-1.017-1.231,4.221,4.221,0,0,0-1.537-.7,8.186,8.186,0,0,0-1.953-.218l-5.154.023a1.2,1.2,0,0,0-.924.288,1.307,1.307,0,0,0-.254.886v13.8a1.187,1.187,0,0,0,.278.874,1.245,1.245,0,0,0,.9.276h5.488a6.094,6.094,0,0,0,2.073-.345,5.009,5.009,0,0,0,1.668-.978,4.522,4.522,0,0,0,1.516-3.462,5.13,5.13,0,0,0-.155-1.242,4.356,4.356,0,0,0-.475-1.162,3.727,3.727,0,0,0-.829-0.966,3.94,3.94,0,0,0-1.227-.679V30.207Zm17.987-2.576a7.247,7.247,0,0,0-1.308-2.588,5.64,5.64,0,0,0-2.166-1.633,7.434,7.434,0,0,0-2.987-.564,6.771,6.771,0,0,0-2.744.552,6.044,6.044,0,0,0-2.177,1.61,7.663,7.663,0,0,0-1.436,2.611,11.137,11.137,0,0,0-.521,3.554,9.666,9.666,0,0,0,1.7,6.142,6.158,6.158,0,0,0,5.13,2.139,6.291,6.291,0,0,0,5.2-2.162,9.667,9.667,0,0,0,1.748-6.211A12.417,12.417,0,0,0,471.889,27.631Zm-1.968,5.935a6.16,6.16,0,0,1-.788,2.047,4.145,4.145,0,0,1-1.47,1.426,4.446,4.446,0,0,1-2.258.529,4.777,4.777,0,0,1-2.27-.483,3.8,3.8,0,0,1-1.447-1.346,5.923,5.923,0,0,1-.776-2.047,13.585,13.585,0,0,1-.232-2.611,9.96,9.96,0,0,1,.29-2.438,6.349,6.349,0,0,1,.88-2.024,4.169,4.169,0,0,1,3.647-1.886,4.536,4.536,0,0,1,2.316.529,3.9,3.9,0,0,1,1.425,1.426,6.09,6.09,0,0,1,.717,2.059,14.538,14.538,0,0,1,.2,2.427A12.123,12.123,0,0,1,469.921,33.566Zm4.874,5.245a0.37,0.37,0,0,0,.1.322,0.623,0.623,0,0,0,.335.069h1.2a0.62,0.62,0,0,0,.347-0.069,0.4,0.4,0,0,0,.093-0.322V32.738h4.3a5.5,5.5,0,0,0,2.575-.529,4.57,4.57,0,0,0,1.572-1.288,4.437,4.437,0,0,0,.773-1.61,6.316,6.316,0,0,0,.208-1.472,4.988,4.988,0,0,0-.37-1.944,4.457,4.457,0,0,0-1.028-1.518,4.58,4.58,0,0,0-1.572-.978,5.609,5.609,0,0,0-2-.345h-5.385a1.165,1.165,0,0,0-.9.288,1.312,1.312,0,0,0-.254.886V38.811Zm8.523-8.707a3.447,3.447,0,0,1-2.455.771H476.9V25.009h3.914a4.01,4.01,0,0,1,1.621.288,2.87,2.87,0,0,1,1.019.713,2.488,2.488,0,0,1,.521.943,3.589,3.589,0,0,1,.15,1A2.827,2.827,0,0,1,483.318,30.1Zm15.553-4.175V38.857a0.354,0.354,0,0,0,.081.288,0.528,0.528,0,0,0,.29.057h1.366a0.534,0.534,0,0,0,.278-0.057,0.325,0.325,0,0,0,.093-0.288V24.227a1.359,1.359,0,0,0-.232-0.863,1.123,1.123,0,0,0-.9-0.288H499.2a1.1,1.1,0,0,0-.741.207,3.147,3.147,0,0,0-.532.713l-5.535,9.132-1.876,3.151h-0.07V23.422a0.355,0.355,0,0,0-.081-0.288,0.527,0.527,0,0,0-.289-0.058H488.7a0.534,0.534,0,0,0-.277.058,0.326,0.326,0,0,0-.093.288v14.63a1.309,1.309,0,0,0,.243.863,1.126,1.126,0,0,0,.892.288h0.648a1.093,1.093,0,0,0,.741-0.207,3.165,3.165,0,0,0,.533-0.713l5.373-8.9,2.015-3.45h0.092Zm8.8,12.882a0.374,0.374,0,0,0,.1.322,0.627,0.627,0,0,0,.336.069h1.32a0.564,0.564,0,0,0,.324-0.069,0.4,0.4,0,0,0,.093-0.322V24.963h4.655a0.321,0.321,0,0,0,.266-0.081,0.523,0.523,0,0,0,.058-0.288V23.468a0.533,0.533,0,0,0-.058-0.276,0.3,0.3,0,0,0-.266-0.092H503.158a0.3,0.3,0,0,0-.266.092,0.523,0.523,0,0,0-.058.276v1.127a0.514,0.514,0,0,0,.058.288,0.32,0.32,0,0,0,.266.081h4.516V38.811Zm19.835-1.817a4.128,4.128,0,0,1-1.575-1.311,5.229,5.229,0,0,1-.833-1.932,10.945,10.945,0,0,1-.244-2.369,10.607,10.607,0,0,1,.278-2.427,6.274,6.274,0,0,1,.892-2.093,4.766,4.766,0,0,1,1.552-1.461,4.375,4.375,0,0,1,2.258-.552,8.314,8.314,0,0,1,3.381.713,0.271,0.271,0,0,0,.266.035,0.529,0.529,0,0,0,.151-0.2l0.532-1.058a0.455,0.455,0,0,0,.07-0.345,0.36,0.36,0,0,0-.186-0.184,7.751,7.751,0,0,0-2.246-.771,12.889,12.889,0,0,0-2.061-.173,6.853,6.853,0,0,0-2.883.6,6.239,6.239,0,0,0-2.235,1.714,8.011,8.011,0,0,0-1.436,2.691,11.353,11.353,0,0,0-.51,3.508,12.184,12.184,0,0,0,.475,3.611A6.727,6.727,0,0,0,524.51,37.5a5.39,5.39,0,0,0,2.165,1.472,8.22,8.22,0,0,0,2.907.483q0.555,0,1.181-.046a12.209,12.209,0,0,0,1.262-.161,9.664,9.664,0,0,0,1.274-.322,6.16,6.16,0,0,0,1.192-.529,0.6,0.6,0,0,0,.209-0.219,0.527,0.527,0,0,0-.093-0.38l-0.44-.966a0.513,0.513,0,0,0-.162-0.207,0.36,0.36,0,0,0-.37.023,10.053,10.053,0,0,1-1.737.6,8.047,8.047,0,0,1-1.946.23A5.52,5.52,0,0,1,527.509,36.993Zm13.1,1.817a0.374,0.374,0,0,0,.1.322,0.627,0.627,0,0,0,.336.069h1.32a0.564,0.564,0,0,0,.324-0.069,0.4,0.4,0,0,0,.093-0.322V24.963h4.655a0.321,0.321,0,0,0,.266-0.081,0.523,0.523,0,0,0,.058-0.288V23.468a0.533,0.533,0,0,0-.058-0.276,0.3,0.3,0,0,0-.266-0.092H536.094a0.3,0.3,0,0,0-.266.092,0.523,0.523,0,0,0-.058.276v1.127a0.514,0.514,0,0,0,.058.288,0.32,0.32,0,0,0,.266.081h4.516V38.811Zm9,0a0.37,0.37,0,0,0,.105.322,0.623,0.623,0,0,0,.335.069h1.205a0.62,0.62,0,0,0,.347-0.069,0.4,0.4,0,0,0,.093-0.322V32.738h4.3a5.5,5.5,0,0,0,2.575-.529,4.57,4.57,0,0,0,1.572-1.288,4.437,4.437,0,0,0,.773-1.61,6.316,6.316,0,0,0,.208-1.472,4.988,4.988,0,0,0-.37-1.944,4.457,4.457,0,0,0-1.028-1.518,4.58,4.58,0,0,0-1.572-.978,5.609,5.609,0,0,0-2-.345h-5.385a1.165,1.165,0,0,0-.9.288,1.312,1.312,0,0,0-.254.886V38.811Zm8.523-8.707a3.447,3.447,0,0,1-2.455.771h-3.96V25.009h3.914a4.01,4.01,0,0,1,1.621.288,2.87,2.87,0,0,1,1.019.713,2.488,2.488,0,0,1,.521.943,3.589,3.589,0,0,1,.15,1A2.827,2.827,0,0,1,558.132,30.1Zm18.045-2.473a7.247,7.247,0,0,0-1.308-2.588A5.64,5.64,0,0,0,572.7,23.41a7.437,7.437,0,0,0-2.987-.564,6.779,6.779,0,0,0-2.745.552,6.049,6.049,0,0,0-2.176,1.61,7.647,7.647,0,0,0-1.436,2.611,11.137,11.137,0,0,0-.521,3.554,9.666,9.666,0,0,0,1.7,6.142,6.157,6.157,0,0,0,5.129,2.139,6.291,6.291,0,0,0,5.2-2.162,9.667,9.667,0,0,0,1.748-6.211A12.417,12.417,0,0,0,576.177,27.631Zm-1.968,5.935a6.16,6.16,0,0,1-.788,2.047,4.145,4.145,0,0,1-1.47,1.426,4.446,4.446,0,0,1-2.258.529,4.775,4.775,0,0,1-2.27-.483,3.8,3.8,0,0,1-1.447-1.346,5.923,5.923,0,0,1-.776-2.047,13.585,13.585,0,0,1-.232-2.611,9.912,9.912,0,0,1,.29-2.438,6.349,6.349,0,0,1,.88-2.024,4.166,4.166,0,0,1,3.647-1.886,4.536,4.536,0,0,1,2.316.529,3.894,3.894,0,0,1,1.424,1.426,6.07,6.07,0,0,1,.718,2.059,14.538,14.538,0,0,1,.2,2.427A12.123,12.123,0,0,1,574.209,33.566Zm15.412-7.637V38.857a0.35,0.35,0,0,0,.081.288,0.521,0.521,0,0,0,.289.057h1.366a0.534,0.534,0,0,0,.278-0.057,0.325,0.325,0,0,0,.093-0.288V24.227a1.353,1.353,0,0,0-.232-0.863,1.122,1.122,0,0,0-.9-0.288h-0.648a1.093,1.093,0,0,0-.741.207,3.115,3.115,0,0,0-.533.713l-5.535,9.132L581.26,36.28h-0.069V23.422a0.355,0.355,0,0,0-.081-0.288,0.534,0.534,0,0,0-.29-0.058h-1.366a0.535,0.535,0,0,0-.278.058,0.326,0.326,0,0,0-.093.288v14.63a1.309,1.309,0,0,0,.243.863,1.127,1.127,0,0,0,.892.288h0.648a1.1,1.1,0,0,0,.742-0.207,3.167,3.167,0,0,0,.532-0.713l5.373-8.9,2.015-3.45h0.093Zm-2.536-4.152a6.591,6.591,0,0,0,1.98-1.875,0.714,0.714,0,0,0,.081-0.184,0.342,0.342,0,0,0-.151-0.3l-0.463-.368a0.59,0.59,0,0,0-.185-0.08,0.448,0.448,0,0,0-.255.149,5.841,5.841,0,0,1-1.621,1.323,2.886,2.886,0,0,1-1.181.311,2.84,2.84,0,0,1-1.4-.414,5.745,5.745,0,0,1-1.4-1.15,1.478,1.478,0,0,0-.232-0.173,0.379,0.379,0,0,0-.278.081l-0.44.391a0.254,0.254,0,0,0-.15.253,0.652,0.652,0,0,0,.081.184,7.065,7.065,0,0,0,1.621,1.7,3.425,3.425,0,0,0,2.107.713A3.9,3.9,0,0,0,587.085,21.777ZM411.9,50.79a0.155,0.155,0,0,0,.043.134,0.263,0.263,0,0,0,.14.029h0.5a0.256,0.256,0,0,0,.144-0.029,0.166,0.166,0,0,0,.039-0.134V48.26h1.791a2.3,2.3,0,0,0,1.073-.221,1.9,1.9,0,0,0,.654-0.537,1.861,1.861,0,0,0,.323-0.671,2.676,2.676,0,0,0,.086-0.613,2.077,2.077,0,0,0-.154-0.81,1.849,1.849,0,0,0-.428-0.633,1.913,1.913,0,0,0-.655-0.407,2.34,2.34,0,0,0-.833-0.144h-2.244a0.486,0.486,0,0,0-.376.12,0.549,0.549,0,0,0-.105.369V50.79Zm3.551-3.628a1.438,1.438,0,0,1-1.023.321h-1.65V45.039h1.63a1.67,1.67,0,0,1,.676.12,1.2,1.2,0,0,1,.425.3,1.048,1.048,0,0,1,.217.393,1.52,1.52,0,0,1,.062.417A1.177,1.177,0,0,1,415.448,47.162Zm6.678,3.59v-0.4a0.268,0.268,0,0,0-.034-0.153,0.175,0.175,0,0,0-.149-0.048H419.27a0.655,0.655,0,0,1-.763-0.719V47.761h3.069a0.163,0.163,0,0,0,.14-0.048,0.254,0.254,0,0,0,.034-0.144V47.205a0.275,0.275,0,0,0-.034-0.153,0.164,0.164,0,0,0-.14-0.048h-3.069V45.758a0.749,0.749,0,0,1,.179-0.551,0.807,0.807,0,0,1,.584-0.177h2.624a0.172,0.172,0,0,0,.14-0.043,0.243,0.243,0,0,0,.034-0.149v-0.4a0.268,0.268,0,0,0-.034-0.153,0.162,0.162,0,0,0-.14-0.048H419.26a1.889,1.889,0,0,0-.753.134,1.419,1.419,0,0,0-.506.359,1.356,1.356,0,0,0-.285.527,2.256,2.256,0,0,0-.087.628v3.431a2.481,2.481,0,0,0,.078.633,1.267,1.267,0,0,0,.265.518,1.333,1.333,0,0,0,.5.355,2,2,0,0,0,.786.134h2.683a0.175,0.175,0,0,0,.149-0.048,0.267,0.267,0,0,0,.034-0.153h0Zm6.48,0.038a0.158,0.158,0,0,0,.042.134,0.259,0.259,0,0,0,.139.029h0.477a0.252,0.252,0,0,0,.143-0.029,0.17,0.17,0,0,0,.038-0.134V44.713a0.6,0.6,0,0,0-.091-0.35,0.445,0.445,0,0,0-.381-0.129h-0.26a0.6,0.6,0,0,0-.318.072,0.639,0.639,0,0,0-.212.312c-0.019.045-.061,0.149-0.125,0.312s-0.142.356-.232,0.58-0.187.465-.293,0.724-0.206.5-.3,0.733l-0.246.609c-0.07.176-.119,0.3-0.144,0.359-0.013.026-.047,0.109-0.1,0.249s-0.114.292-.179,0.455-0.125.315-.183,0.455-0.09.224-.1,0.249h-0.039c-0.013-.025-0.046-0.11-0.1-0.254s-0.115-.3-0.183-0.47-0.128-.326-0.183-0.47-0.088-.228-0.1-0.254l-1.33-3.278a0.658,0.658,0,0,0-.207-0.312,0.6,0.6,0,0,0-.323-0.072h-0.26a0.448,0.448,0,0,0-.376.129,0.575,0.575,0,0,0-.1.35V50.79a0.155,0.155,0,0,0,.043.134,0.257,0.257,0,0,0,.138.029h0.477a0.252,0.252,0,0,0,.143-0.029,0.166,0.166,0,0,0,.039-0.134v-4.9h0.058l0.493,1.227q0.029,0.077.12,0.283c0.062,0.137.129,0.3,0.2,0.474s0.154,0.371.241,0.575,0.168,0.4.242,0.575,0.142,0.337.2,0.474,0.1,0.232.121,0.283a0.668,0.668,0,0,0,.179.3,0.514,0.514,0,0,0,.324.081h0.319a0.5,0.5,0,0,0,.319-0.081,0.686,0.686,0,0,0,.174-0.3l0.116-.273,0.2-.479c0.078-.182.158-0.375,0.242-0.58s0.163-.4.237-0.58,0.14-.342.2-0.479,0.1-.232.116-0.283c0.006-.019.036-0.1,0.087-0.23s0.108-.278.169-0.431l0.17-.427a1.976,1.976,0,0,1,.1-0.225h0.049V50.79Zm7.518-4.658a3.023,3.023,0,0,0-.546-1.078,2.349,2.349,0,0,0-.9-0.681,3.1,3.1,0,0,0-1.245-.235,2.821,2.821,0,0,0-1.143.23,2.519,2.519,0,0,0-.907.671,3.186,3.186,0,0,0-.6,1.088,4.639,4.639,0,0,0-.218,1.481,4.027,4.027,0,0,0,.71,2.559,2.566,2.566,0,0,0,2.137.891,2.619,2.619,0,0,0,2.166-.9,4.024,4.024,0,0,0,.729-2.588A5.177,5.177,0,0,0,436.124,46.132ZM435.3,48.6a2.545,2.545,0,0,1-.328.853,1.723,1.723,0,0,1-.612.594,1.856,1.856,0,0,1-.941.22,1.991,1.991,0,0,1-.946-0.2,1.581,1.581,0,0,1-.6-0.561,2.469,2.469,0,0,1-.323-0.853,5.626,5.626,0,0,1-.1-1.088,4.122,4.122,0,0,1,.121-1.016,2.64,2.64,0,0,1,.366-0.844,1.739,1.739,0,0,1,1.52-.786,1.888,1.888,0,0,1,.965.221,1.626,1.626,0,0,1,.594.594,2.56,2.56,0,0,1,.3.858,6.121,6.121,0,0,1,.082,1.011A4.989,4.989,0,0,1,435.3,48.6Zm6.428-1.572h-3.4V44.407a0.165,0.165,0,0,0-.039-0.134,0.262,0.262,0,0,0-.146-0.029h-0.537a0.268,0.268,0,0,0-.136.029,0.145,0.145,0,0,0-.049.134V50.79a0.145,0.145,0,0,0,.049.134,0.269,0.269,0,0,0,.136.029h0.537a0.264,0.264,0,0,0,.146-0.029,0.166,0.166,0,0,0,.039-0.134V47.8h3.4v2.99a0.155,0.155,0,0,0,.043.134,0.263,0.263,0,0,0,.14.029h0.521a0.26,0.26,0,0,0,.145-0.029,0.166,0.166,0,0,0,.039-0.134V44.407a0.165,0.165,0,0,0-.039-0.134,0.258,0.258,0,0,0-.145-0.029h-0.521a0.262,0.262,0,0,0-.14.029,0.155,0.155,0,0,0-.043.134v2.626Zm3.763,3.757a0.155,0.155,0,0,0,.043.134,0.263,0.263,0,0,0,.14.029h0.55a0.232,0.232,0,0,0,.135-0.029,0.166,0.166,0,0,0,.039-0.134V45.02h1.94a0.136,0.136,0,0,0,.111-0.034,0.217,0.217,0,0,0,.024-0.12V44.4a0.221,0.221,0,0,0-.024-0.115,0.127,0.127,0,0,0-.111-0.038h-4.729a0.125,0.125,0,0,0-.111.038,0.221,0.221,0,0,0-.024.115v0.47a0.217,0.217,0,0,0,.024.12,0.134,0.134,0,0,0,.111.034h1.882v5.77Zm8.139-3.757h-3.4V44.407a0.165,0.165,0,0,0-.039-0.134,0.264,0.264,0,0,0-.147-0.029h-0.536a0.272,0.272,0,0,0-.137.029,0.147,0.147,0,0,0-.048.134V50.79a0.147,0.147,0,0,0,.048.134,0.273,0.273,0,0,0,.137.029h0.536a0.265,0.265,0,0,0,.147-0.029,0.166,0.166,0,0,0,.039-0.134V47.8h3.4v2.99a0.155,0.155,0,0,0,.044.134,0.26,0.26,0,0,0,.14.029h0.521a0.256,0.256,0,0,0,.144-0.029,0.166,0.166,0,0,0,.039-0.134V44.407a0.165,0.165,0,0,0-.039-0.134,0.255,0.255,0,0,0-.144-0.029h-0.521a0.259,0.259,0,0,0-.14.029,0.155,0.155,0,0,0-.044.134v2.626Zm7.566-.9a3.022,3.022,0,0,0-.545-1.078,2.349,2.349,0,0,0-.9-0.681,3.1,3.1,0,0,0-1.245-.235,2.818,2.818,0,0,0-1.143.23,2.519,2.519,0,0,0-.907.671,3.188,3.188,0,0,0-.6,1.088,4.669,4.669,0,0,0-.217,1.481,4.027,4.027,0,0,0,.71,2.559,2.564,2.564,0,0,0,2.137.891,2.621,2.621,0,0,0,2.166-.9,4.024,4.024,0,0,0,.729-2.588A5.138,5.138,0,0,0,461.2,46.132Zm-0.82,2.473a2.545,2.545,0,0,1-.328.853,1.725,1.725,0,0,1-.613.594,1.849,1.849,0,0,1-.94.22,1.991,1.991,0,0,1-.946-0.2,1.581,1.581,0,0,1-.6-0.561,2.469,2.469,0,0,1-.323-0.853,5.626,5.626,0,0,1-.1-1.088,4.122,4.122,0,0,1,.121-1.016,2.64,2.64,0,0,1,.366-0.844,1.739,1.739,0,0,1,1.52-.786,1.891,1.891,0,0,1,.965.221,1.626,1.626,0,0,1,.594.594,2.56,2.56,0,0,1,.3.858,6.121,6.121,0,0,1,.082,1.011A5.063,5.063,0,0,1,460.379,48.6Zm2.169-.2h2.239a0.124,0.124,0,0,0,.111-0.038,0.22,0.22,0,0,0,.024-0.115V47.6a0.22,0.22,0,0,0-.024-0.115,0.124,0.124,0,0,0-.111-0.038h-2.239a0.137,0.137,0,0,0-.12.038,0.22,0.22,0,0,0-.024.115V48.25a0.22,0.22,0,0,0,.024.115,0.137,0.137,0,0,0,.12.038h0Zm5.422,1.629a1.721,1.721,0,0,1-.656-0.546,2.166,2.166,0,0,1-.347-0.805,4.555,4.555,0,0,1-.1-0.987,4.424,4.424,0,0,1,.116-1.011,2.593,2.593,0,0,1,.372-0.872A1.987,1.987,0,0,1,468,45.2a1.824,1.824,0,0,1,.941-0.23,3.463,3.463,0,0,1,1.409.3,0.113,0.113,0,0,0,.111.014,0.23,0.23,0,0,0,.063-0.081l0.222-.441a0.188,0.188,0,0,0,.028-0.144,0.149,0.149,0,0,0-.077-0.077,3.232,3.232,0,0,0-.936-0.321,5.373,5.373,0,0,0-.859-0.072,2.854,2.854,0,0,0-1.2.249,2.6,2.6,0,0,0-.931.714,3.342,3.342,0,0,0-.6,1.121,4.72,4.72,0,0,0-.213,1.462,5.065,5.065,0,0,0,.2,1.5,2.8,2.8,0,0,0,.565,1.045,2.239,2.239,0,0,0,.9.613,3.424,3.424,0,0,0,1.211.2q0.231,0,.492-0.019a5.078,5.078,0,0,0,.526-0.067,4.033,4.033,0,0,0,.531-0.134,2.588,2.588,0,0,0,.5-0.22,0.246,0.246,0,0,0,.086-0.091,0.221,0.221,0,0,0-.038-0.158l-0.183-.4a0.217,0.217,0,0,0-.068-0.086,0.15,0.15,0,0,0-.154.01,4.211,4.211,0,0,1-.724.249,3.355,3.355,0,0,1-.811.1A2.3,2.3,0,0,1,467.97,50.033Zm5.535,0.757a0.155,0.155,0,0,0,.044.134,0.26,0.26,0,0,0,.14.029h0.55a0.236,0.236,0,0,0,.135-0.029,0.17,0.17,0,0,0,.038-0.134V45.02h1.94a0.134,0.134,0,0,0,.111-0.034,0.217,0.217,0,0,0,.024-0.12V44.4a0.221,0.221,0,0,0-.024-0.115,0.125,0.125,0,0,0-.111-0.038h-4.728a0.125,0.125,0,0,0-.111.038,0.211,0.211,0,0,0-.025.115v0.47a0.207,0.207,0,0,0,.025.12,0.134,0.134,0,0,0,.111.034h1.881v5.77Zm3.836,0a0.155,0.155,0,0,0,.043.134,0.263,0.263,0,0,0,.14.029h0.5a0.26,0.26,0,0,0,.145-0.029,0.17,0.17,0,0,0,.038-0.134V48.26H480a2.294,2.294,0,0,0,1.073-.221,1.915,1.915,0,0,0,.655-0.537,1.858,1.858,0,0,0,.322-0.671,2.629,2.629,0,0,0,.087-0.613,2.1,2.1,0,0,0-.154-0.81,1.865,1.865,0,0,0-.429-0.633,1.9,1.9,0,0,0-.655-0.407,2.34,2.34,0,0,0-.833-0.144h-2.244a0.484,0.484,0,0,0-.375.12,0.544,0.544,0,0,0-.106.369V50.79Zm3.551-3.628a1.435,1.435,0,0,1-1.023.321h-1.65V45.039h1.631a1.668,1.668,0,0,1,.675.12,1.2,1.2,0,0,1,.425.3,1.035,1.035,0,0,1,.217.393,1.485,1.485,0,0,1,.063.417A1.178,1.178,0,0,1,480.892,47.162Zm7.607-1.03a3.023,3.023,0,0,0-.546-1.078,2.349,2.349,0,0,0-.9-0.681,3.1,3.1,0,0,0-1.245-.235,2.821,2.821,0,0,0-1.143.23,2.519,2.519,0,0,0-.907.671,3.186,3.186,0,0,0-.6,1.088,4.639,4.639,0,0,0-.218,1.481,4.027,4.027,0,0,0,.71,2.559,2.564,2.564,0,0,0,2.137.891,2.62,2.62,0,0,0,2.166-.9,4.024,4.024,0,0,0,.729-2.588A5.177,5.177,0,0,0,488.5,46.132ZM487.678,48.6a2.545,2.545,0,0,1-.328.853,1.717,1.717,0,0,1-.613.594,1.849,1.849,0,0,1-.94.22,1.991,1.991,0,0,1-.946-0.2,1.581,1.581,0,0,1-.6-0.561,2.469,2.469,0,0,1-.323-0.853,5.626,5.626,0,0,1-.1-1.088,4.122,4.122,0,0,1,.121-1.016,2.64,2.64,0,0,1,.366-0.844,1.739,1.739,0,0,1,1.52-.786,1.888,1.888,0,0,1,.965.221,1.626,1.626,0,0,1,.594.594,2.56,2.56,0,0,1,.3.858,6.121,6.121,0,0,1,.082,1.011A4.989,4.989,0,0,1,487.678,48.6Zm6.515-3.182v5.387a0.15,0.15,0,0,0,.033.12,0.222,0.222,0,0,0,.121.024h0.569a0.223,0.223,0,0,0,.116-0.024,0.135,0.135,0,0,0,.039-0.12v-6.1a0.567,0.567,0,0,0-.1-0.359,0.468,0.468,0,0,0-.376-0.12h-0.27a0.455,0.455,0,0,0-.309.086,1.3,1.3,0,0,0-.222.3l-2.306,3.805-0.782,1.313H490.68V44.378a0.146,0.146,0,0,0-.034-0.12,0.216,0.216,0,0,0-.12-0.024h-0.57a0.22,0.22,0,0,0-.115.024,0.135,0.135,0,0,0-.039.12v6.1a0.548,0.548,0,0,0,.1.359,0.471,0.471,0,0,0,.372.12h0.27a0.459,0.459,0,0,0,.309-0.086,1.331,1.331,0,0,0,.222-0.3l2.238-3.709,0.84-1.438h0.039Zm3.753,5.367a0.155,0.155,0,0,0,.044.134,0.26,0.26,0,0,0,.14.029h0.55a0.236,0.236,0,0,0,.135-0.029,0.17,0.17,0,0,0,.038-0.134V45.02h1.94a0.134,0.134,0,0,0,.111-0.034,0.217,0.217,0,0,0,.024-0.12V44.4a0.221,0.221,0,0,0-.024-0.115,0.125,0.125,0,0,0-.111-0.038h-4.728a0.125,0.125,0,0,0-.111.038,0.211,0.211,0,0,0-.025.115v0.47a0.207,0.207,0,0,0,.025.12,0.134,0.134,0,0,0,.111.034h1.881v5.77Zm8.257-.038v-0.4a0.277,0.277,0,0,0-.033-0.153,0.179,0.179,0,0,0-.15-0.048h-2.673a0.754,0.754,0,0,1-.589-0.2,0.763,0.763,0,0,1-.173-0.522V47.761h3.068a0.162,0.162,0,0,0,.14-0.048,0.246,0.246,0,0,0,.034-0.144V47.205a0.267,0.267,0,0,0-.034-0.153,0.162,0.162,0,0,0-.14-0.048h-3.068V45.758a0.749,0.749,0,0,1,.178-0.551,0.807,0.807,0,0,1,.584-0.177h2.625a0.175,0.175,0,0,0,.14-0.043,0.251,0.251,0,0,0,.033-0.149v-0.4a0.277,0.277,0,0,0-.033-0.153,0.165,0.165,0,0,0-.14-0.048h-2.635a1.884,1.884,0,0,0-.752.134,1.414,1.414,0,0,0-.507.359,1.356,1.356,0,0,0-.285.527,2.294,2.294,0,0,0-.086.628v3.431a2.481,2.481,0,0,0,.077.633,1.279,1.279,0,0,0,.265.518,1.341,1.341,0,0,0,.5.355,2,2,0,0,0,.786.134h2.683a0.178,0.178,0,0,0,.15-0.048,0.276,0.276,0,0,0,.033-0.153h0Zm2.155-4.706q-0.078,1.064-.14,1.8a7.374,7.374,0,0,1-.193,1.227,2.044,2.044,0,0,1-.376.791,1.721,1.721,0,0,1-.69.479,0.39,0.39,0,0,0-.092.053,0.15,0.15,0,0,0,0,.158l0.1,0.412a0.185,0.185,0,0,0,.1.125,0.181,0.181,0,0,0,.116,0,2.112,2.112,0,0,0,1.023-.585,2.714,2.714,0,0,0,.564-1.026,7.135,7.135,0,0,0,.28-1.476q0.082-.853.16-1.946l0.077-1.035H511.7v5.789a0.138,0.138,0,0,0,.038.12,0.226,0.226,0,0,0,.116.024h0.579a0.222,0.222,0,0,0,.121-0.024,0.15,0.15,0,0,0,.033-0.12V44.838a0.519,0.519,0,0,0-.569-0.6h-2.991a0.566,0.566,0,0,0-.4.139,0.673,0.673,0,0,0-.169.465Zm8.324,4.907a2.432,2.432,0,0,0,.868-0.153,2.167,2.167,0,0,0,.7-0.426,1.928,1.928,0,0,0,.468-0.652,2,2,0,0,0,.169-0.829,3.418,3.418,0,0,0-.067-0.618,1.7,1.7,0,0,0-.3-0.685,1.885,1.885,0,0,0-.693-0.556,2.81,2.81,0,0,0-1.247-.23h-1.742V44.378a0.146,0.146,0,0,0-.035-0.12,0.222,0.222,0,0,0-.122-0.024h-0.6a0.228,0.228,0,0,0-.117.024,0.135,0.135,0,0,0-.039.12v6.1a0.5,0.5,0,0,0,.116.364,0.52,0.52,0,0,0,.377.115h2.258Zm1.24-1.706a1.207,1.207,0,0,1-.222.431,1.222,1.222,0,0,1-.428.335,1.524,1.524,0,0,1-.683.134h-1.75v-2.6h1.77a1.6,1.6,0,0,1,.591.1,1.24,1.24,0,0,1,.428.273,1.168,1.168,0,0,1,.265.4,1.337,1.337,0,0,1,.091.5A1.646,1.646,0,0,1,517.922,49.247Zm6.228-2.214h-3.4V44.407a0.165,0.165,0,0,0-.039-0.134,0.264,0.264,0,0,0-.147-0.029h-0.536a0.272,0.272,0,0,0-.137.029,0.147,0.147,0,0,0-.048.134V50.79a0.147,0.147,0,0,0,.048.134,0.273,0.273,0,0,0,.137.029h0.536a0.265,0.265,0,0,0,.147-0.029,0.166,0.166,0,0,0,.039-0.134V47.8h3.4v2.99a0.155,0.155,0,0,0,.044.134,0.26,0.26,0,0,0,.14.029h0.521A0.256,0.256,0,0,0,525,50.924a0.166,0.166,0,0,0,.039-0.134V44.407A0.165,0.165,0,0,0,525,44.273a0.255,0.255,0,0,0-.144-0.029h-0.521a0.259,0.259,0,0,0-.14.029,0.155,0.155,0,0,0-.044.134v2.626Zm7.3,3.92a0.117,0.117,0,0,0,.121-0.057,0.156,0.156,0,0,0,0-.125l-2.171-6.163a0.789,0.789,0,0,0-.169-0.3,0.527,0.527,0,0,0-.352-0.086h-0.29a0.586,0.586,0,0,0-.318.081,0.633,0.633,0,0,0-.174.3l-2.181,6.163a0.193,0.193,0,0,0,0,.129,0.119,0.119,0,0,0,.121.053h0.656a0.2,0.2,0,0,0,.2-0.144l0.482-1.409h2.721l0.483,1.409a0.19,0.19,0,0,0,.091.125,0.423,0.423,0,0,0,.14.019h0.637Zm-1.6-2.329h-2.238l0.656-2.051,0.434-1.361h0.048l0.454,1.409Zm6.546,2.195a0.122,0.122,0,0,0,.038.11,0.25,0.25,0,0,0,.126.024h0.588a0.223,0.223,0,0,0,.116-0.024,0.122,0.122,0,0,0,.039-0.11V44.713a0.529,0.529,0,0,0-.106-0.364,0.516,0.516,0,0,0-.386-0.115h-2.2a2.336,2.336,0,0,0-.839.144,1.946,1.946,0,0,0-.647.4,1.716,1.716,0,0,0-.414.6,1.965,1.965,0,0,0-.145.762,1.886,1.886,0,0,0,.28,1.035,1.69,1.69,0,0,0,.829.661,1.313,1.313,0,0,0-.6.407,1.892,1.892,0,0,0-.3.609l-0.531,1.936v0.048a0.136,0.136,0,0,0,.024.082,0.12,0.12,0,0,0,.1.033h0.627a0.387,0.387,0,0,0,.1-0.014,0.117,0.117,0,0,0,.073-0.1l0.5-1.831a1.13,1.13,0,0,1,.507-0.752,1.758,1.758,0,0,1,.835-0.187h1.38v2.751Zm0-5.779v2.272h-1.621a1.349,1.349,0,0,1-1.009-.326,1.116,1.116,0,0,1-.313-0.805,1.46,1.46,0,0,1,.057-0.388,0.94,0.94,0,0,1,.2-0.369,1.147,1.147,0,0,1,.386-0.273,1.467,1.467,0,0,1,.608-0.11h1.689Zm8.259,2.272a1.347,1.347,0,0,0,.521-0.474,2.449,2.449,0,0,0,.3-0.714l0.424-1.716a0.191,0.191,0,0,0,0-.115,0.111,0.111,0,0,0-.13-0.067h-0.531a0.3,0.3,0,0,0-.1.019,0.13,0.13,0,0,0-.073.105l-0.434,1.658a1.638,1.638,0,0,1-.222.508,1.06,1.06,0,0,1-.294.292,0.957,0.957,0,0,1-.333.134,1.73,1.73,0,0,1-.328.033h-1.284V44.388a0.128,0.128,0,0,0-.024-0.12,0.216,0.216,0,0,0-.12-0.024h-0.57a0.22,0.22,0,0,0-.115.024,0.135,0.135,0,0,0-.039.12v6.422a0.135,0.135,0,0,0,.039.12,0.219,0.219,0,0,0,.115.024h0.56a0.222,0.222,0,0,0,.121-0.024,0.15,0.15,0,0,0,.033-0.12V47.771h1.371a2.305,2.305,0,0,1,.444.038,0.935,0.935,0,0,1,.347.144,0.892,0.892,0,0,1,.261.283,1.919,1.919,0,0,1,.183.455l0.579,2.137a0.127,0.127,0,0,0,.077.105,0.341,0.341,0,0,0,.106.019h0.589a0.113,0.113,0,0,0,.125-0.062,0.16,0.16,0,0,0,0-.11l-0.608-2.224a4.163,4.163,0,0,0-.125-0.4,1.4,1.4,0,0,0-.179-0.335,1.142,1.142,0,0,0-.275-0.268,1.456,1.456,0,0,0-.415-0.192V47.311Zm7.694-1.179a3.022,3.022,0,0,0-.545-1.078,2.353,2.353,0,0,0-.9-0.681,3.1,3.1,0,0,0-1.244-.235,2.826,2.826,0,0,0-1.144.23,2.528,2.528,0,0,0-.907.671,3.2,3.2,0,0,0-.6,1.088,4.64,4.64,0,0,0-.217,1.481,4.027,4.027,0,0,0,.709,2.559,2.566,2.566,0,0,0,2.137.891,2.622,2.622,0,0,0,2.167-.9,4.03,4.03,0,0,0,.728-2.588A5.177,5.177,0,0,0,552.342,46.132Zm-0.82,2.473a2.588,2.588,0,0,1-.328.853,1.734,1.734,0,0,1-.613.594,1.853,1.853,0,0,1-.941.22,1.991,1.991,0,0,1-.946-0.2,1.581,1.581,0,0,1-.6-0.561,2.469,2.469,0,0,1-.323-0.853,5.709,5.709,0,0,1-.1-1.088,4.171,4.171,0,0,1,.12-1.016,2.664,2.664,0,0,1,.367-0.844,1.736,1.736,0,0,1,1.52-.786,1.891,1.891,0,0,1,.965.221,1.631,1.631,0,0,1,.593.594,2.538,2.538,0,0,1,.3.858,6.015,6.015,0,0,1,.082,1.011A5.064,5.064,0,0,1,551.522,48.6Zm7.643,2.185a0.155,0.155,0,0,0,.043.134,0.255,0.255,0,0,0,.138.029h0.477a0.252,0.252,0,0,0,.143-0.029A0.166,0.166,0,0,0,560,50.79V44.713a0.6,0.6,0,0,0-.091-0.35,0.445,0.445,0,0,0-.381-0.129h-0.26a0.6,0.6,0,0,0-.318.072,0.646,0.646,0,0,0-.212.312c-0.019.045-.061,0.149-0.125,0.312s-0.141.356-.231,0.58-0.188.465-.294,0.724-0.206.5-.3,0.733-0.175.433-.245,0.609l-0.145.359c-0.013.026-.047,0.109-0.1,0.249l-0.178.455q-0.1.245-.183,0.455c-0.058.141-.09,0.224-0.1,0.249h-0.038q-0.02-.038-0.1-0.254t-0.183-.47q-0.1-.254-0.183-0.47c-0.054-.144-0.088-0.228-0.1-0.254l-1.329-3.278a0.666,0.666,0,0,0-.208-0.312,0.594,0.594,0,0,0-.322-0.072h-0.261a0.444,0.444,0,0,0-.375.129,0.575,0.575,0,0,0-.1.35V50.79a0.158,0.158,0,0,0,.043.134,0.259,0.259,0,0,0,.139.029H554.3a0.254,0.254,0,0,0,.143-0.029,0.17,0.17,0,0,0,.038-0.134v-4.9h0.058l0.493,1.227c0.019,0.051.06,0.145,0.121,0.283s0.129,0.3.2,0.474,0.155,0.371.242,0.575,0.167,0.4.241,0.575,0.142,0.337.2,0.474,0.1,0.232.121,0.283a0.677,0.677,0,0,0,.179.3,0.518,0.518,0,0,0,.324.081h0.319a0.494,0.494,0,0,0,.319-0.081,0.686,0.686,0,0,0,.174-0.3c0.02-.045.058-0.136,0.116-0.273l0.2-.479c0.078-.182.158-0.375,0.242-0.58s0.163-.4.237-0.58,0.14-.342.2-0.479,0.1-.232.116-0.283l0.087-.23c0.052-.134.108-0.278,0.17-0.431l0.169-.427a1.889,1.889,0,0,1,.1-0.225h0.048V50.79Zm7.368,0.019V44.838a0.62,0.62,0,0,0-.149-0.455,0.571,0.571,0,0,0-.42-0.149H561.93a0.579,0.579,0,0,0-.41.149,0.6,0.6,0,0,0-.159.455v5.971a0.135,0.135,0,0,0,.039.12,0.221,0.221,0,0,0,.116.024H562.1a0.218,0.218,0,0,0,.12-0.024,0.146,0.146,0,0,0,.034-0.12V45.02h3.4v5.789a0.128,0.128,0,0,0,.043.12,0.252,0.252,0,0,0,.121.024h0.569a0.222,0.222,0,0,0,.121-0.024,0.15,0.15,0,0,0,.033-0.12h0Zm6.4,0.144a0.115,0.115,0,0,0,.12-0.057,0.152,0.152,0,0,0,0-.125l-2.171-6.163a0.763,0.763,0,0,0-.169-0.3,0.525,0.525,0,0,0-.352-0.086H570.07a0.592,0.592,0,0,0-.319.081,0.625,0.625,0,0,0-.173.3L567.4,50.771a0.193,0.193,0,0,0,0,.129,0.118,0.118,0,0,0,.12.053h0.656a0.2,0.2,0,0,0,.2-0.144l0.483-1.409h2.721l0.482,1.409a0.191,0.191,0,0,0,.092.125,0.419,0.419,0,0,0,.14.019h0.637Zm-1.6-2.329H569.1l0.656-2.051,0.435-1.361h0.048l0.453,1.409Zm6.89-1.591h-3.4V44.407a0.165,0.165,0,0,0-.039-0.134,0.262,0.262,0,0,0-.146-0.029h-0.537a0.268,0.268,0,0,0-.136.029,0.145,0.145,0,0,0-.049.134V50.79a0.145,0.145,0,0,0,.049.134,0.269,0.269,0,0,0,.136.029h0.537a0.264,0.264,0,0,0,.146-0.029,0.166,0.166,0,0,0,.039-0.134V47.8h3.4v2.99a0.155,0.155,0,0,0,.043.134,0.263,0.263,0,0,0,.14.029h0.521a0.26,0.26,0,0,0,.145-0.029,0.17,0.17,0,0,0,.038-0.134V44.407a0.169,0.169,0,0,0-.038-0.134,0.258,0.258,0,0,0-.145-0.029h-0.521a0.262,0.262,0,0,0-.14.029,0.155,0.155,0,0,0-.043.134v2.626Zm6.635-1.61v5.387a0.149,0.149,0,0,0,.034.12,0.222,0.222,0,0,0,.121.024h0.569a0.223,0.223,0,0,0,.116-0.024,0.135,0.135,0,0,0,.039-0.12v-6.1a0.567,0.567,0,0,0-.1-0.359,0.468,0.468,0,0,0-.376-0.12H585a0.455,0.455,0,0,0-.309.086,1.275,1.275,0,0,0-.222.3l-2.306,3.805-0.782,1.313h-0.029V44.378a0.146,0.146,0,0,0-.034-0.12,0.216,0.216,0,0,0-.12-0.024h-0.57a0.227,0.227,0,0,0-.116.024,0.138,0.138,0,0,0-.038.12v6.1a0.548,0.548,0,0,0,.1.359,0.471,0.471,0,0,0,.372.12h0.27a0.459,0.459,0,0,0,.309-0.086,1.331,1.331,0,0,0,.222-0.3l2.238-3.709,0.84-1.438h0.038Zm5.974,5.4a0.122,0.122,0,0,0,.039.11,0.25,0.25,0,0,0,.126.024h0.588a0.223,0.223,0,0,0,.116-0.024,0.122,0.122,0,0,0,.039-0.11V44.713a0.524,0.524,0,0,0-.107-0.364,0.515,0.515,0,0,0-.386-0.115h-2.2a2.336,2.336,0,0,0-.839.144,1.946,1.946,0,0,0-.647.4,1.732,1.732,0,0,0-.415.6,1.983,1.983,0,0,0-.144.762,1.894,1.894,0,0,0,.279,1.035,1.7,1.7,0,0,0,.83.661,1.313,1.313,0,0,0-.6.407,1.892,1.892,0,0,0-.3.609l-0.531,1.936v0.048a0.136,0.136,0,0,0,.024.082,0.12,0.12,0,0,0,.1.033h0.627a0.387,0.387,0,0,0,.1-0.014,0.119,0.119,0,0,0,.073-0.1l0.5-1.831a1.13,1.13,0,0,1,.507-0.752,1.758,1.758,0,0,1,.835-0.187h1.379v2.751Zm0-5.779v2.272h-1.621a1.348,1.348,0,0,1-1.008-.326,1.116,1.116,0,0,1-.314-0.805,1.464,1.464,0,0,1,.058-0.388,0.927,0.927,0,0,1,.2-0.369,1.137,1.137,0,0,1,.386-0.273,1.467,1.467,0,0,1,.608-0.11h1.688Z" transform="translate(-337 -15)"/>
</svg>
